<svg width="170" height="252" viewBox="0 0 170 252" fill="none" xmlns="http://www.w3.org/2000/svg">
<path d="M1.80933 236.138C1.80933 239.917 4.89818 243.006 8.67677 243.006H161.465C165.234 243.006 168.322 239.917 168.322 236.138V7.82327C168.322 4.04467 165.234 0.955811 161.465 0.955811H8.67677C4.89818 0.955811 1.80933 4.04467 1.80933 7.82327V236.138Z" fill="white" stroke="black" stroke-width="2.49907"/>
<path d="M15.2309 -2.61403V15.6436H11.3707V1.04998H11.2638L7.08269 3.67095V0.247645L11.6025 -2.61403H15.2309ZM26.7288 16.0448C25.1955 16.0388 23.8761 15.6614 22.7706 14.9126C21.6711 14.1637 20.8242 13.0791 20.2299 11.6587C19.6415 10.2382 19.3503 8.52955 19.3562 6.53262C19.3562 4.54164 19.6504 2.84484 20.2388 1.44224C20.8331 0.0396309 21.68 -1.02718 22.7795 -1.7582C23.885 -2.49516 25.2014 -2.86364 26.7288 -2.86364C28.2562 -2.86364 29.5697 -2.49516 30.6692 -1.7582C31.7746 -1.02124 32.6245 0.048546 33.2188 1.45115C33.8132 2.84781 34.1074 4.54164 34.1014 6.53262C34.1014 8.5355 33.8043 10.2472 33.2099 11.6676C32.6215 13.088 31.7776 14.1727 30.6781 14.9215C29.5786 15.6704 28.2622 16.0448 26.7288 16.0448ZM26.7288 12.8443C27.7748 12.8443 28.6099 12.3184 29.2339 11.2664C29.8579 10.2145 30.167 8.63653 30.161 6.53262C30.161 5.14785 30.0184 3.99486 29.7331 3.07366C29.4538 2.15245 29.0556 1.46007 28.5385 0.996493C28.0274 0.532921 27.4242 0.301135 26.7288 0.301135C25.6888 0.301135 24.8567 0.821168 24.2327 1.86124C23.6086 2.9013 23.2936 4.45843 23.2877 6.53262C23.2877 7.93523 23.4273 9.10605 23.7067 10.0451C23.992 10.9782 24.3931 11.6795 24.9102 12.149C25.4272 12.6126 26.0335 12.8443 26.7288 12.8443Z" fill="black"/>
<path d="M155.905 245.579V227.321H159.766V241.915H159.873L164.054 239.294V242.717L159.534 245.579H155.905ZM144.408 226.92C145.941 226.926 147.26 227.303 148.366 228.052C149.465 228.801 150.312 229.886 150.906 231.306C151.495 232.727 151.786 234.435 151.78 236.432C151.78 238.423 151.486 240.12 150.898 241.523C150.303 242.925 149.456 243.992 148.357 244.723C147.251 245.46 145.935 245.829 144.408 245.829C142.88 245.829 141.567 245.46 140.467 244.723C139.362 243.986 138.512 242.916 137.918 241.514C137.323 240.117 137.029 238.423 137.035 236.432C137.035 234.429 137.332 232.718 137.926 231.297C138.515 229.877 139.359 228.792 140.458 228.043C141.558 227.295 142.874 226.92 144.408 226.92ZM144.408 230.121C143.362 230.121 142.526 230.647 141.902 231.698C141.278 232.75 140.969 234.328 140.975 236.432C140.975 237.817 141.118 238.97 141.403 239.891C141.683 240.812 142.081 241.505 142.598 241.968C143.109 242.432 143.712 242.664 144.408 242.664C145.448 242.664 146.28 242.144 146.904 241.104C147.528 240.064 147.843 238.506 147.849 236.432C147.849 235.03 147.709 233.859 147.43 232.92C147.144 231.987 146.743 231.285 146.226 230.816C145.709 230.352 145.103 230.121 144.408 230.121Z" fill="black"/>
<path d="M12.1156 46.4319C12.1156 48.2412 13.625 49.7107 15.4943 49.7107C17.3636 49.7107 18.873 48.2412 18.873 46.4319C18.873 44.6226 17.3636 43.1531 15.4943 43.1531C13.625 43.1531 12.1156 44.6226 12.1156 46.4319Z" fill="black"/>
<path d="M7.75722 52.6396C7.75722 54.4489 9.26666 55.9184 11.136 55.9184C13.0053 55.9184 14.5147 54.4489 14.5147 52.6396C14.5147 50.8303 13.0053 49.3608 11.136 49.3608C9.26666 49.3608 7.75722 50.8303 7.75722 52.6396Z" fill="black"/>
<path d="M16.4139 52.6596C16.4139 53.3193 16.6138 53.9391 16.9637 54.4589C17.5635 55.3486 18.6131 55.9384 19.7926 55.9384C21.6619 55.9384 23.1714 54.4689 23.1714 52.6596C23.1714 50.8502 21.6619 49.3808 19.7926 49.3808C17.9233 49.3808 16.4139 50.8502 16.4139 52.6596Z" fill="black"/>
<path d="M11.5258 59.0272C13.1952 59.0272 14.0749 57.6677 14.5347 56.3082C14.9945 54.9487 15.0345 53.5892 15.0345 53.5892H15.8942C15.8942 53.5892 16.0541 59.0172 19.3929 59.0272H11.5258Z" fill="black"/>
<path d="M17.7834 48.841C15.8841 50.7403 15.8841 53.5892 15.8841 53.5892L15.0344 53.5992C15.0344 53.5992 15.0344 50.6903 13.1851 48.841" fill="black"/>
<path d="M17.4035 54.9387C15.5042 53.0394 12.6553 53.0394 12.6553 53.0394V52.1897C12.6553 52.1897 15.5642 52.1897 17.4135 50.3404" fill="black"/>
<path d="M13.595 54.9487C15.4943 53.0494 18.3432 53.0494 18.3432 53.0494V52.1998C18.3432 52.1998 15.4343 52.1998 13.585 50.3504" fill="black"/>
<path d="M159.031 196.533C159.031 194.724 157.521 193.254 155.652 193.254C153.783 193.254 152.273 194.724 152.273 196.533C152.273 198.342 153.783 199.812 155.652 199.812C157.521 199.812 159.031 198.342 159.031 196.533Z" fill="black"/>
<path d="M163.389 190.325C163.389 188.516 161.88 187.047 160.01 187.047C158.141 187.047 156.632 188.516 156.632 190.325C156.632 192.135 158.141 193.604 160.01 193.604C161.88 193.604 163.389 192.135 163.389 190.325Z" fill="black"/>
<path d="M154.732 190.305C154.732 189.646 154.533 189.026 154.183 188.506C153.583 187.616 152.533 187.027 151.354 187.027C149.484 187.027 147.975 188.496 147.975 190.305C147.975 192.115 149.484 193.584 151.354 193.584C153.223 193.584 154.732 192.115 154.732 190.305Z" fill="black"/>
<path d="M159.621 183.938C157.951 183.938 157.072 185.297 156.612 186.657C156.152 188.016 156.112 189.376 156.112 189.376H155.252C155.252 189.376 155.092 183.948 151.753 183.938H159.621Z" fill="black"/>
<path d="M153.363 194.124C155.262 192.225 155.262 189.376 155.262 189.376L156.112 189.366C156.112 189.366 156.112 192.275 157.961 194.124" fill="black"/>
<path d="M153.743 188.026C155.642 189.926 158.491 189.926 158.491 189.926V190.775C158.491 190.775 155.582 190.775 153.733 192.625" fill="black"/>
<path d="M157.551 188.016C155.652 189.916 152.803 189.916 152.803 189.916V190.765C152.803 190.765 155.712 190.765 157.561 192.615" fill="black"/>
<path d="M37.6202 26.5223C37.6202 30.8647 41.2429 34.3914 45.7292 34.3914C50.2155 34.3914 53.8382 30.8647 53.8382 26.5223C53.8382 22.1799 50.2155 18.6532 45.7292 18.6532C41.2429 18.6532 37.6202 22.1799 37.6202 26.5223Z" fill="black"/>
<path d="M27.1601 41.4207C27.1601 45.7631 30.7828 49.2898 35.2691 49.2898C39.7554 49.2898 43.3781 45.7631 43.3781 41.4207C43.3781 37.0783 39.7554 33.5516 35.2691 33.5516C30.7828 33.5516 27.1601 37.0783 27.1601 41.4207Z" fill="black"/>
<path d="M47.9364 41.4687C47.9364 43.0521 48.4163 44.5396 49.256 45.7871C50.6954 47.9223 53.2145 49.3378 56.0454 49.3378C60.5318 49.3378 64.1544 45.8111 64.1544 41.4687C64.1544 37.1263 60.5318 33.5996 56.0454 33.5996C51.5591 33.5996 47.9364 37.1263 47.9364 41.4687Z" fill="black"/>
<path d="M36.2048 56.751C40.2113 56.751 42.3225 53.4883 43.4261 50.2255C44.5297 46.9627 44.6256 43.6999 44.6256 43.6999H46.6889C46.6889 43.6999 47.0727 56.727 55.0858 56.751H36.2048Z" fill="black"/>
<path d="M51.2232 32.3041C46.6649 36.8624 46.6649 43.6999 46.6649 43.6999L44.6257 43.7239C44.6257 43.7239 44.6257 36.7425 40.1873 32.3041" fill="black"/>
<path d="M50.3116 46.9387C45.7533 42.3804 38.9158 42.3804 38.9158 42.3804V40.3411C38.9158 40.3411 45.8972 40.3411 50.3356 35.9028" fill="black"/>
<path d="M41.1709 46.9626C45.7292 42.4043 52.5667 42.4043 52.5667 42.4043V40.3651C52.5667 40.3651 45.5853 40.3651 41.1469 35.9268" fill="black"/>
<path d="M37.6202 80.6584C37.6202 85.0008 41.2429 88.5275 45.7292 88.5275C50.2155 88.5275 53.8382 85.0008 53.8382 80.6584C53.8382 76.316 50.2155 72.7893 45.7292 72.7893C41.2429 72.7893 37.6202 76.316 37.6202 80.6584Z" fill="black"/>
<path d="M27.1601 95.5568C27.1601 99.8992 30.7828 103.426 35.2691 103.426C39.7554 103.426 43.3781 99.8992 43.3781 95.5568C43.3781 91.2144 39.7554 87.6878 35.2691 87.6878C30.7828 87.6878 27.1601 91.2144 27.1601 95.5568Z" fill="black"/>
<path d="M47.9364 95.6048C47.9364 97.1882 48.4163 98.6757 49.256 99.9232C50.6954 102.058 53.2145 103.474 56.0454 103.474C60.5318 103.474 64.1544 99.9472 64.1544 95.6048C64.1544 91.2624 60.5318 87.7357 56.0454 87.7357C51.5591 87.7357 47.9364 91.2624 47.9364 95.6048Z" fill="black"/>
<path d="M36.2048 110.887C40.2113 110.887 42.3225 107.624 43.4261 104.362C44.5297 101.099 44.6256 97.836 44.6256 97.836H46.6889C46.6889 97.836 47.0727 110.863 55.0858 110.887H36.2048Z" fill="black"/>
<path d="M51.2232 86.4402C46.6649 90.9985 46.6649 97.836 46.6649 97.836L44.6257 97.86C44.6257 97.86 44.6257 90.8786 40.1873 86.4402" fill="black"/>
<path d="M50.3116 101.075C45.7533 96.5165 38.9158 96.5165 38.9158 96.5165V94.4772C38.9158 94.4772 45.8972 94.4772 50.3356 90.0389" fill="black"/>
<path d="M41.1709 101.099C45.7292 96.5405 52.5667 96.5405 52.5667 96.5405V94.5013C52.5667 94.5013 45.5853 94.5013 41.1469 90.0629" fill="black"/>
<path d="M53.6946 158.157C53.6946 153.815 50.0719 150.288 45.5856 150.288C41.0993 150.288 37.4766 153.815 37.4766 158.157C37.4766 162.5 41.0993 166.027 45.5856 166.027C50.0719 166.027 53.6946 162.5 53.6946 158.157Z" fill="black"/>
<path d="M64.1546 143.259C64.1546 138.917 60.5319 135.39 56.0456 135.39C51.5593 135.39 47.9366 138.917 47.9366 143.259C47.9366 147.601 51.5593 151.128 56.0456 151.128C60.5319 151.128 64.1546 147.601 64.1546 143.259Z" fill="black"/>
<path d="M43.3782 143.211C43.3782 141.628 42.8984 140.14 42.0587 138.893C40.6193 136.757 38.1002 135.342 35.2693 135.342C30.7829 135.342 27.1603 138.869 27.1603 143.211C27.1603 147.553 30.7829 151.08 35.2693 151.08C39.7556 151.08 43.3782 147.553 43.3782 143.211Z" fill="black"/>
<path d="M55.11 127.929C51.1035 127.929 48.9923 131.191 47.8887 134.454C46.7851 137.717 46.6891 140.98 46.6891 140.98H44.6259C44.6259 140.98 44.2421 127.953 36.229 127.929H55.11Z" fill="black"/>
<path d="M40.0915 152.376C44.6498 147.817 44.6498 140.98 44.6498 140.98L46.689 140.956C46.689 140.956 46.689 147.937 51.1274 152.376" fill="black"/>
<path d="M41.0032 137.741C45.5615 142.299 52.399 142.299 52.399 142.299V144.339C52.399 144.339 45.4176 144.339 40.9792 148.777" fill="black"/>
<path d="M50.1438 137.717C45.5855 142.275 38.748 142.275 38.748 142.275V144.315C38.748 144.315 45.7294 144.315 50.1678 148.753" fill="black"/>
<path d="M53.6946 212.294C53.6946 207.951 50.0719 204.424 45.5856 204.424C41.0993 204.424 37.4766 207.951 37.4766 212.294C37.4766 216.636 41.0993 220.163 45.5856 220.163C50.0719 220.163 53.6946 216.636 53.6946 212.294Z" fill="black"/>
<path d="M64.1546 197.395C64.1546 193.053 60.5319 189.526 56.0456 189.526C51.5593 189.526 47.9366 193.053 47.9366 197.395C47.9366 201.738 51.5593 205.264 56.0456 205.264C60.5319 205.264 64.1546 201.738 64.1546 197.395Z" fill="black"/>
<path d="M43.3782 197.347C43.3782 195.764 42.8984 194.276 42.0587 193.029C40.6193 190.894 38.1002 189.478 35.2693 189.478C30.7829 189.478 27.1603 193.005 27.1603 197.347C27.1603 201.69 30.7829 205.216 35.2693 205.216C39.7556 205.216 43.3782 201.69 43.3782 197.347Z" fill="black"/>
<path d="M55.11 182.065C51.1035 182.065 48.9923 185.328 47.8887 188.59C46.7851 191.853 46.6891 195.116 46.6891 195.116H44.6259C44.6259 195.116 44.2421 182.089 36.229 182.065H55.11Z" fill="black"/>
<path d="M40.0915 206.512C44.6498 201.953 44.6498 195.116 44.6498 195.116L46.689 195.092C46.689 195.092 46.689 202.073 51.1274 206.512" fill="black"/>
<path d="M41.0032 191.877C45.5615 196.436 52.399 196.436 52.399 196.436V198.475C52.399 198.475 45.4176 198.475 40.9792 202.913" fill="black"/>
<path d="M50.1438 191.853C45.5855 196.411 38.748 196.411 38.748 196.411V198.451C38.748 198.451 45.7294 198.451 50.1678 202.889" fill="black"/>
<path d="M117.448 26.5223C117.448 30.8647 121.071 34.3914 125.557 34.3914C130.044 34.3914 133.666 30.8647 133.666 26.5223C133.666 22.1799 130.044 18.6532 125.557 18.6532C121.071 18.6532 117.448 22.1799 117.448 26.5223Z" fill="black"/>
<path d="M106.988 41.4207C106.988 45.7631 110.611 49.2898 115.097 49.2898C119.583 49.2898 123.206 45.7631 123.206 41.4207C123.206 37.0783 119.583 33.5516 115.097 33.5516C110.611 33.5516 106.988 37.0783 106.988 41.4207Z" fill="black"/>
<path d="M127.764 41.4687C127.764 43.0521 128.244 44.5396 129.084 45.7871C130.523 47.9223 133.042 49.3378 135.873 49.3378C140.36 49.3378 143.982 45.8111 143.982 41.4687C143.982 37.1263 140.36 33.5996 135.873 33.5996C131.387 33.5996 127.764 37.1263 127.764 41.4687Z" fill="black"/>
<path d="M116.033 56.751C120.039 56.751 122.151 53.4883 123.254 50.2255C124.358 46.9627 124.454 43.6999 124.454 43.6999H126.517C126.517 43.6999 126.901 56.727 134.914 56.751H116.033Z" fill="black"/>
<path d="M131.051 32.3041C126.493 36.8624 126.493 43.6999 126.493 43.6999L124.454 43.7239C124.454 43.7239 124.454 36.7425 120.015 32.3041" fill="black"/>
<path d="M130.14 46.9387C125.581 42.3804 118.744 42.3804 118.744 42.3804V40.3411C118.744 40.3411 125.725 40.3411 130.164 35.9028" fill="black"/>
<path d="M120.999 46.9626C125.557 42.4043 132.395 42.4043 132.395 42.4043V40.3651C132.395 40.3651 125.413 40.3651 120.975 35.9268" fill="black"/>
<path d="M117.448 80.6584C117.448 85.0008 121.071 88.5275 125.557 88.5275C130.044 88.5275 133.666 85.0008 133.666 80.6584C133.666 76.316 130.044 72.7893 125.557 72.7893C121.071 72.7893 117.448 76.316 117.448 80.6584Z" fill="black"/>
<path d="M106.988 95.5568C106.988 99.8992 110.611 103.426 115.097 103.426C119.583 103.426 123.206 99.8992 123.206 95.5568C123.206 91.2144 119.583 87.6878 115.097 87.6878C110.611 87.6878 106.988 91.2144 106.988 95.5568Z" fill="black"/>
<path d="M127.764 95.6048C127.764 97.1882 128.244 98.6757 129.084 99.9232C130.523 102.058 133.042 103.474 135.873 103.474C140.36 103.474 143.982 99.9472 143.982 95.6048C143.982 91.2624 140.36 87.7357 135.873 87.7357C131.387 87.7357 127.764 91.2624 127.764 95.6048Z" fill="black"/>
<path d="M116.033 110.887C120.039 110.887 122.151 107.624 123.254 104.362C124.358 101.099 124.454 97.836 124.454 97.836H126.517C126.517 97.836 126.901 110.863 134.914 110.887H116.033Z" fill="black"/>
<path d="M131.051 86.4402C126.493 90.9985 126.493 97.836 126.493 97.836L124.454 97.86C124.454 97.86 124.454 90.8786 120.015 86.4402" fill="black"/>
<path d="M130.14 101.075C125.581 96.5165 118.744 96.5165 118.744 96.5165V94.4772C118.744 94.4772 125.725 94.4772 130.164 90.0389" fill="black"/>
<path d="M120.999 101.099C125.557 96.5405 132.395 96.5405 132.395 96.5405V94.5013C132.395 94.5013 125.413 94.5013 120.975 90.0629" fill="black"/>
<path d="M133.522 158.157C133.522 153.815 129.9 150.288 125.413 150.288C120.927 150.288 117.305 153.815 117.305 158.157C117.305 162.5 120.927 166.027 125.413 166.027C129.9 166.027 133.522 162.5 133.522 158.157Z" fill="black"/>
<path d="M143.983 143.259C143.983 138.917 140.36 135.39 135.874 135.39C131.387 135.39 127.765 138.917 127.765 143.259C127.765 147.601 131.387 151.128 135.874 151.128C140.36 151.128 143.983 147.601 143.983 143.259Z" fill="black"/>
<path d="M123.206 143.211C123.206 141.628 122.726 140.14 121.887 138.893C120.447 136.757 117.928 135.342 115.097 135.342C110.611 135.342 106.988 138.869 106.988 143.211C106.988 147.553 110.611 151.08 115.097 151.08C119.583 151.08 123.206 147.553 123.206 143.211Z" fill="black"/>
<path d="M134.938 127.929C130.931 127.929 128.82 131.191 127.717 134.454C126.613 137.717 126.517 140.98 126.517 140.98H124.454C124.454 140.98 124.07 127.953 116.057 127.929H134.938Z" fill="black"/>
<path d="M119.919 152.376C124.478 147.817 124.478 140.98 124.478 140.98L126.517 140.956C126.517 140.956 126.517 147.937 130.955 152.376" fill="black"/>
<path d="M120.831 137.741C125.389 142.299 132.227 142.299 132.227 142.299V144.339C132.227 144.339 125.245 144.339 120.807 148.777" fill="black"/>
<path d="M129.972 137.717C125.413 142.275 118.576 142.275 118.576 142.275V144.315C118.576 144.315 125.557 144.315 129.996 148.753" fill="black"/>
<path d="M133.522 212.294C133.522 207.951 129.9 204.424 125.413 204.424C120.927 204.424 117.305 207.951 117.305 212.294C117.305 216.636 120.927 220.163 125.413 220.163C129.9 220.163 133.522 216.636 133.522 212.294Z" fill="black"/>
<path d="M143.983 197.395C143.983 193.053 140.36 189.526 135.874 189.526C131.387 189.526 127.765 193.053 127.765 197.395C127.765 201.738 131.387 205.264 135.874 205.264C140.36 205.264 143.983 201.738 143.983 197.395Z" fill="black"/>
<path d="M123.206 197.347C123.206 195.764 122.726 194.276 121.887 193.029C120.447 190.894 117.928 189.478 115.097 189.478C110.611 189.478 106.988 193.005 106.988 197.347C106.988 201.69 110.611 205.216 115.097 205.216C119.583 205.216 123.206 201.69 123.206 197.347Z" fill="black"/>
<path d="M134.938 182.065C130.931 182.065 128.82 185.328 127.717 188.59C126.613 191.853 126.517 195.116 126.517 195.116H124.454C124.454 195.116 124.07 182.089 116.057 182.065H134.938Z" fill="black"/>
<path d="M119.919 206.512C124.478 201.953 124.478 195.116 124.478 195.116L126.517 195.092C126.517 195.092 126.517 202.073 130.955 206.512" fill="black"/>
<path d="M120.831 191.877C125.389 196.436 132.227 196.436 132.227 196.436V198.475C132.227 198.475 125.245 198.475 120.807 202.913" fill="black"/>
<path d="M129.972 191.853C125.413 196.411 118.576 196.411 118.576 196.411V198.451C118.576 198.451 125.557 198.451 129.996 202.889" fill="black"/>
<path d="M77.5342 53.5905C77.5342 57.9328 81.1568 61.4595 85.6432 61.4595C90.1295 61.4595 93.7521 57.9328 93.7521 53.5905C93.7521 49.2481 90.1295 45.7214 85.6432 45.7214C81.1568 45.7214 77.5342 49.2481 77.5342 53.5905Z" fill="black"/>
<path d="M67.0742 68.4889C67.0742 72.8313 70.6968 76.358 75.1832 76.358C79.6695 76.358 83.2921 72.8313 83.2921 68.4889C83.2921 64.1465 79.6695 60.6198 75.1832 60.6198C70.6968 60.6198 67.0742 64.1465 67.0742 68.4889Z" fill="black"/>
<path d="M87.8505 68.5369C87.8505 70.1203 88.3303 71.6077 89.17 72.8553C90.6095 74.9905 93.1285 76.4059 95.9595 76.4059C100.446 76.4059 104.068 72.8793 104.068 68.5369C104.068 64.1945 100.446 60.6678 95.9595 60.6678C91.4732 60.6678 87.8505 64.1945 87.8505 68.5369Z" fill="black"/>
<path d="M76.1187 83.8192C80.1253 83.8192 82.2365 80.5564 83.3401 77.2936C84.4437 74.0309 84.5396 70.7681 84.5396 70.7681H86.6028C86.6028 70.7681 86.9867 83.7952 94.9997 83.8192H76.1187Z" fill="black"/>
<path d="M91.1373 59.3723C86.579 63.9306 86.579 70.7681 86.579 70.7681L84.5397 70.7921C84.5397 70.7921 84.5397 63.8106 80.1014 59.3723" fill="black"/>
<path d="M90.2255 74.0068C85.6672 69.4485 78.8298 69.4485 78.8298 69.4485V67.4093C78.8298 67.4093 85.8112 67.4093 90.2495 62.9709" fill="black"/>
<path d="M81.085 74.0308C85.6433 69.4725 92.4807 69.4725 92.4807 69.4725V67.4333C92.4807 67.4333 85.4993 67.4333 81.061 62.9949" fill="black"/>
<path d="M93.6084 185.226C93.6084 180.883 89.9858 177.357 85.4994 177.357C81.0131 177.357 77.3904 180.883 77.3904 185.226C77.3904 189.568 81.0131 193.095 85.4994 193.095C89.9858 193.095 93.6084 189.568 93.6084 185.226Z" fill="black"/>
<path d="M104.068 170.327C104.068 165.985 100.446 162.458 95.9594 162.458C91.4731 162.458 87.8504 165.985 87.8504 170.327C87.8504 174.67 91.4731 178.196 95.9594 178.196C100.446 178.196 104.068 174.67 104.068 170.327Z" fill="black"/>
<path d="M83.2921 170.279C83.2921 168.696 82.8122 167.208 81.9726 165.961C80.5331 163.826 78.014 162.41 75.1831 162.41C70.6967 162.41 67.0741 165.937 67.0741 170.279C67.0741 174.622 70.6967 178.148 75.1831 178.148C79.6694 178.148 83.2921 174.622 83.2921 170.279Z" fill="black"/>
<path d="M95.0239 154.997C91.0174 154.997 88.9061 158.26 87.8025 161.522C86.699 164.785 86.603 168.048 86.603 168.048H84.5398C84.5398 168.048 84.1559 155.021 76.1429 154.997H95.0239Z" fill="black"/>
<path d="M80.0053 179.444C84.5636 174.885 84.5636 168.048 84.5636 168.048L86.6029 168.024C86.6029 168.024 86.6029 175.005 91.0412 179.444" fill="black"/>
<path d="M80.9171 164.809C85.4754 169.368 92.3128 169.368 92.3128 169.368V171.407C92.3128 171.407 85.3314 171.407 80.8931 175.845" fill="black"/>
<path d="M90.0576 164.785C85.4993 169.344 78.6618 169.344 78.6618 169.344V171.383C78.6618 171.383 85.6432 171.383 90.0816 175.821" fill="black"/>
</svg>
