<svg width="170" height="261" viewBox="0 0 170 261" fill="none" xmlns="http://www.w3.org/2000/svg">
<path d="M1.80933 245.279C1.80933 249.058 4.89818 252.147 8.67677 252.147H161.465C165.234 252.147 168.322 249.058 168.322 245.279V16.9641C168.322 13.1855 165.234 10.0966 161.465 10.0966H8.67677C4.89818 10.0966 1.80933 13.1855 1.80933 16.9641V245.279Z" fill="white" stroke="black" stroke-width="2.49907"/>
<path d="M15.2309 6.52684V24.7845H11.3707V10.1909H11.2638L7.08269 12.8118V9.38851L11.6025 6.52684H15.2309ZM26.7288 25.1857C25.1955 25.1797 23.8761 24.8023 22.7706 24.0535C21.6711 23.3046 20.8242 22.22 20.2299 20.7995C19.6415 19.3791 19.3503 17.6704 19.3562 15.6735C19.3562 13.6825 19.6504 11.9857 20.2388 10.5831C20.8331 9.1805 21.68 8.11369 22.7795 7.38267C23.885 6.64571 25.2014 6.27723 26.7288 6.27723C28.2562 6.27723 29.5697 6.64571 30.6692 7.38267C31.7746 8.11963 32.6245 9.18942 33.2188 10.592C33.8132 11.9887 34.1074 13.6825 34.1014 15.6735C34.1014 17.6764 33.8043 19.388 33.2099 20.8085C32.6215 22.2289 31.7776 23.3135 30.6781 24.0624C29.5786 24.8112 28.2622 25.1857 26.7288 25.1857ZM26.7288 21.9852C27.7748 21.9852 28.6099 21.4592 29.2339 20.4073C29.8579 19.3553 30.167 17.7774 30.161 15.6735C30.161 14.2887 30.0184 13.1357 29.7331 12.2145C29.4538 11.2933 29.0556 10.6009 28.5385 10.1374C28.0274 9.67379 27.4242 9.442 26.7288 9.442C25.6888 9.442 24.8567 9.96204 24.2327 11.0021C23.6086 12.0422 23.2936 13.5993 23.2877 15.6735C23.2877 17.0761 23.4273 18.2469 23.7067 19.1859C23.992 20.119 24.3931 20.8203 24.9102 21.2899C25.4272 21.7534 26.0335 21.9852 26.7288 21.9852Z" fill="black"/>
<path d="M155.905 254.72V236.462H159.766V251.056H159.873L164.054 248.435V251.858L159.534 254.72H155.905ZM144.408 236.061C145.941 236.067 147.26 236.444 148.366 237.193C149.465 237.942 150.312 239.027 150.906 240.447C151.495 241.868 151.786 243.576 151.78 245.573C151.78 247.564 151.486 249.261 150.898 250.664C150.303 252.066 149.456 253.133 148.357 253.864C147.251 254.601 145.935 254.969 144.408 254.969C142.88 254.969 141.567 254.601 140.467 253.864C139.362 253.127 138.512 252.057 137.918 250.655C137.323 249.258 137.029 247.564 137.035 245.573C137.035 243.57 137.332 241.859 137.926 240.438C138.515 239.018 139.359 237.933 140.458 237.184C141.558 236.435 142.874 236.061 144.408 236.061ZM144.408 239.261C143.362 239.261 142.526 239.787 141.902 240.839C141.278 241.891 140.969 243.469 140.975 245.573C140.975 246.958 141.118 248.111 141.403 249.032C141.683 249.953 142.081 250.646 142.598 251.109C143.109 251.573 143.712 251.805 144.408 251.805C145.448 251.805 146.28 251.285 146.904 250.245C147.528 249.204 147.843 247.647 147.849 245.573C147.849 244.171 147.709 243 147.43 242.061C147.144 241.128 146.743 240.426 146.226 239.957C145.709 239.493 145.103 239.261 144.408 239.261Z" fill="black"/>
<path d="M11.5457 68.1581C13.2151 68.1581 14.0947 66.3788 14.5546 64.5994C15.0144 62.8201 15.0544 61.0408 15.0544 61.0408L15.9041 61.0308C15.9041 61.0308 16.064 68.1581 19.4028 68.1581H11.5457Z" fill="black"/>
<path d="M8.71681 61.0308C8.72681 57.5621 13.9349 55.043 15.4643 52.304C16.9937 55.053 22.2018 57.5721 22.2118 61.0308C22.2118 62.6702 20.7024 63.9997 18.833 63.9997C16.9737 63.9997 15.4643 62.6702 15.4643 61.0308C15.4643 62.6702 13.9549 63.9997 12.0856 63.9997C10.2163 63.9997 8.71681 62.6702 8.71681 61.0308Z" fill="black"/>
<path d="M159.601 193.089C157.931 193.089 157.052 194.868 156.592 196.647C156.132 198.427 156.092 200.206 156.092 200.206L155.242 200.216C155.242 200.216 155.082 193.089 151.744 193.089H159.601Z" fill="black"/>
<path d="M162.43 200.216C162.42 203.685 157.211 206.204 155.682 208.943C154.153 206.194 148.945 203.675 148.935 200.216C148.935 198.577 150.444 197.247 152.313 197.247C154.173 197.247 155.682 198.577 155.682 200.216C155.682 198.577 157.192 197.247 159.061 197.247C160.93 197.247 162.43 198.577 162.43 200.216Z" fill="black"/>
<path d="M36.2528 65.8675C40.2593 65.8675 42.3705 61.5971 43.4741 57.3267C44.5777 53.0563 44.6737 48.7859 44.6737 48.7859L46.7129 48.7619C46.7129 48.7619 47.0968 65.8675 55.1098 65.8675H36.2528Z" fill="black"/>
<path d="M29.4634 48.7619C29.4874 40.437 41.9867 34.3912 45.6573 27.8177C49.328 34.4152 61.8273 40.461 61.8513 48.7619C61.8513 52.6964 58.2287 55.8872 53.7423 55.8872C49.28 55.8872 45.6573 52.6964 45.6573 48.7619C45.6573 52.6964 42.0347 55.8872 37.5484 55.8872C33.062 55.8872 29.4634 52.6964 29.4634 48.7619Z" fill="black"/>
<path d="M36.2528 120.003C40.2593 120.003 42.3705 115.733 43.4741 111.463C44.5777 107.192 44.6737 102.922 44.6737 102.922L46.7129 102.898C46.7129 102.898 47.0968 120.003 55.1098 120.003H36.2528Z" fill="black"/>
<path d="M29.4634 102.898C29.4874 94.5728 41.9867 88.5271 45.6573 81.9535C49.328 88.5511 61.8273 94.5968 61.8513 102.898C61.8513 106.832 58.2287 110.023 53.7423 110.023C49.28 110.023 45.6573 106.832 45.6573 102.898C45.6573 106.832 42.0347 110.023 37.5484 110.023C33.062 110.023 29.4634 106.832 29.4634 102.898Z" fill="black"/>
<path d="M55.062 137.095C51.0555 137.095 48.9443 141.365 47.8407 145.635C46.7371 149.906 46.6411 154.176 46.6411 154.176L44.6019 154.2C44.6019 154.2 44.218 137.095 36.205 137.095H55.062Z" fill="black"/>
<path d="M61.8515 154.2C61.8275 162.525 49.3281 168.571 45.6575 175.144C41.9868 168.547 29.4875 162.501 29.4635 154.2C29.4635 150.266 33.0862 147.075 37.5725 147.075C42.0348 147.075 45.6575 150.266 45.6575 154.2C45.6575 150.266 49.2801 147.075 53.7665 147.075C58.2528 147.075 61.8515 150.266 61.8515 154.2Z" fill="black"/>
<path d="M55.062 191.23C51.0555 191.23 48.9443 195.501 47.8407 199.771C46.7371 204.042 46.6411 208.312 46.6411 208.312L44.6019 208.336C44.6019 208.336 44.218 191.23 36.205 191.23H55.062Z" fill="black"/>
<path d="M61.8515 208.336C61.8275 216.661 49.3281 222.707 45.6575 229.28C41.9868 222.683 29.4875 216.637 29.4635 208.336C29.4635 204.402 33.0862 201.211 37.5725 201.211C42.0348 201.211 45.6575 204.402 45.6575 208.336C45.6575 204.402 49.2801 201.211 53.7665 201.211C58.2528 201.211 61.8515 204.402 61.8515 208.336Z" fill="black"/>
<path d="M116.081 65.8675C120.087 65.8675 122.199 61.5971 123.302 57.3267C124.406 53.0563 124.502 48.7859 124.502 48.7859L126.541 48.7619C126.541 48.7619 126.925 65.8675 134.938 65.8675H116.081Z" fill="black"/>
<path d="M109.291 48.7619C109.315 40.437 121.815 34.3912 125.485 27.8177C129.156 34.4152 141.655 40.461 141.679 48.7619C141.679 52.6964 138.057 55.8872 133.57 55.8872C129.108 55.8872 125.485 52.6964 125.485 48.7619C125.485 52.6964 121.863 55.8872 117.376 55.8872C112.89 55.8872 109.291 52.6964 109.291 48.7619Z" fill="black"/>
<path d="M116.081 120.003C120.087 120.003 122.199 115.733 123.302 111.463C124.406 107.192 124.502 102.922 124.502 102.922L126.541 102.898C126.541 102.898 126.925 120.003 134.938 120.003H116.081Z" fill="black"/>
<path d="M109.291 102.898C109.315 94.5728 121.815 88.5271 125.485 81.9535C129.156 88.5511 141.655 94.5968 141.679 102.898C141.679 106.832 138.057 110.023 133.57 110.023C129.108 110.023 125.485 106.832 125.485 102.898C125.485 106.832 121.863 110.023 117.376 110.023C112.89 110.023 109.291 106.832 109.291 102.898Z" fill="black"/>
<path d="M134.89 137.095C130.883 137.095 128.772 141.365 127.669 145.635C126.565 149.906 126.469 154.176 126.469 154.176L124.43 154.2C124.43 154.2 124.046 137.095 116.033 137.095H134.89Z" fill="black"/>
<path d="M141.679 154.2C141.655 162.525 129.156 168.571 125.485 175.144C121.815 168.547 109.315 162.501 109.291 154.2C109.291 150.266 112.914 147.075 117.4 147.075C121.863 147.075 125.485 150.266 125.485 154.2C125.485 150.266 129.108 147.075 133.594 147.075C138.081 147.075 141.679 150.266 141.679 154.2Z" fill="black"/>
<path d="M134.89 191.23C130.883 191.23 128.772 195.501 127.669 199.771C126.565 204.042 126.469 208.312 126.469 208.312L124.43 208.336C124.43 208.336 124.046 191.23 116.033 191.23H134.89Z" fill="black"/>
<path d="M141.679 208.336C141.655 216.661 129.156 222.707 125.485 229.28C121.815 222.683 109.315 216.637 109.291 208.336C109.291 204.402 112.914 201.211 117.4 201.211C121.863 201.211 125.485 204.402 125.485 208.336C125.485 204.402 129.108 201.211 133.594 201.211C138.081 201.211 141.679 204.402 141.679 208.336Z" fill="black"/>
<path d="M76.1668 92.9366C80.1733 92.9366 82.2845 88.6662 83.3881 84.3958C84.4917 80.1254 84.5876 75.855 84.5876 75.855L86.6269 75.831C86.6269 75.831 87.0107 92.9366 95.0237 92.9366H76.1668Z" fill="black"/>
<path d="M69.3773 75.831C69.4013 67.5061 81.9006 61.4604 85.5713 54.8868C89.2419 61.4844 101.741 67.5301 101.765 75.831C101.765 79.7656 98.1426 82.9564 93.6563 82.9564C89.1939 82.9564 85.5713 79.7656 85.5713 75.831C85.5713 79.7656 81.9486 82.9564 77.4623 82.9564C72.976 82.9564 69.3773 79.7656 69.3773 75.831Z" fill="black"/>
<path d="M94.9758 164.161C90.9693 164.161 88.8581 168.432 87.7545 172.702C86.6509 176.973 86.555 181.243 86.555 181.243L84.5157 181.267C84.5157 181.267 84.1319 164.161 76.1188 164.161H94.9758Z" fill="black"/>
<path d="M101.765 181.267C101.741 189.592 89.2419 195.638 85.5713 202.211C81.9007 195.614 69.4013 189.568 69.3773 181.267C69.3773 177.333 73 174.142 77.4863 174.142C81.9486 174.142 85.5713 177.333 85.5713 181.267C85.5713 177.333 89.194 174.142 93.6803 174.142C98.1666 174.142 101.765 177.333 101.765 181.267Z" fill="black"/>
</svg>
