<svg width="170" height="261" viewBox="0 0 170 261" fill="none" xmlns="http://www.w3.org/2000/svg">
<path d="M1.71265 245.233C1.71265 249.011 4.8015 252.1 8.58009 252.1H161.368C165.137 252.1 168.226 249.011 168.226 245.233V16.9175C168.226 13.1389 165.137 10.05 161.368 10.05H8.58009C4.8015 10.05 1.71265 13.1389 1.71265 16.9175V245.233Z" fill="white" stroke="black" stroke-width="2.49907"/>
<path d="M7.66889 32.7368V29.0573L16.2663 21.0967C16.9975 20.3891 17.6107 19.7523 18.1061 19.1862C18.6092 18.6201 18.9906 18.0658 19.25 17.5233C19.5095 16.973 19.6392 16.3794 19.6392 15.7425C19.6392 15.0349 19.478 14.4256 19.1557 13.9146C18.8333 13.3956 18.393 12.9986 17.8348 12.7234C17.2766 12.4404 16.6437 12.2989 15.9361 12.2989C15.197 12.2989 14.5523 12.4482 14.002 12.747C13.4516 13.0458 13.027 13.4743 12.7283 14.0325C12.4295 14.5907 12.2801 15.2551 12.2801 16.0256H7.43302C7.43302 14.4453 7.79075 13.0733 8.50622 11.9097C9.22169 10.7461 10.2241 9.84583 11.5135 9.20899C12.803 8.57214 14.2889 8.25372 15.9715 8.25372C17.7012 8.25372 19.2068 8.56035 20.4883 9.17361C21.7777 9.779 22.7802 10.6203 23.4956 11.6974C24.2111 12.7745 24.5689 14.0089 24.5689 15.4005C24.5689 16.3126 24.388 17.2128 24.0264 18.1012C23.6726 18.9897 23.0396 19.9764 22.1276 21.0614C21.2156 22.1385 19.9301 23.4318 18.2712 24.9414L14.7449 28.3969V28.562H24.8873V32.7368H7.66889Z" fill="#E6180A"/>
<path d="M163.269 228.415V232.095L154.672 240.056C153.941 240.763 153.327 241.4 152.832 241.966C152.329 242.532 151.947 243.087 151.688 243.629C151.429 244.179 151.299 244.773 151.299 245.41C151.299 246.117 151.46 246.727 151.782 247.238C152.105 247.757 152.545 248.154 153.103 248.429C153.661 248.712 154.294 248.853 155.002 248.853C155.741 248.853 156.386 248.704 156.936 248.405C157.486 248.107 157.911 247.678 158.21 247.12C158.508 246.562 158.658 245.897 158.658 245.127H163.505C163.505 246.707 163.147 248.079 162.432 249.243C161.716 250.406 160.714 251.307 159.424 251.943C158.135 252.58 156.649 252.899 154.967 252.899C153.237 252.899 151.731 252.592 150.45 251.979C149.16 251.373 148.158 250.532 147.442 249.455C146.727 248.378 146.369 247.143 146.369 245.752C146.369 244.84 146.55 243.94 146.912 243.051C147.265 242.163 147.898 241.176 148.81 240.091C149.722 239.014 151.008 237.72 152.667 236.211L156.193 232.755V232.59H146.051V228.415H163.269Z" fill="#E6180A"/>
<path d="M23.0247 56.2548C23.0147 60.9631 17.1169 64.3918 15.3876 68.1204C13.6382 64.4018 7.73041 61.0031 7.69042 56.2948C7.68043 54.0756 9.39979 52.2663 11.509 52.2663C13.6282 52.2663 15.3576 54.0557 15.3576 56.2748C15.3576 54.0457 17.0669 52.2463 19.1762 52.2463C21.2954 52.2363 23.0147 54.0357 23.0247 56.2548Z" fill="#E6180A"/>
<path d="M147.913 204.898C147.923 200.189 153.821 196.761 155.55 193.032C157.3 196.751 163.208 200.149 163.248 204.858C163.258 207.077 161.538 208.886 159.429 208.886C157.31 208.886 155.58 207.097 155.58 204.878C155.58 207.107 153.871 208.906 151.762 208.906C149.643 208.916 147.923 207.117 147.913 204.898Z" fill="#E6180A"/>
<path d="M67.067 219.637C67.0909 208.338 81.2457 200.109 85.3961 191.16C89.5946 200.085 103.773 208.242 103.869 219.541C103.893 224.868 99.7668 229.21 94.7047 229.21C89.6186 229.21 85.4681 224.915 85.4681 219.589C85.4681 224.939 81.3656 229.258 76.3035 229.258C71.2174 229.282 67.0909 224.963 67.067 219.637Z" fill="#E6180A"/>
<path d="M103.869 37.3677C103.845 48.6675 89.6905 56.8964 85.5401 65.8451C81.3416 56.9204 67.1629 48.7634 67.0669 37.4636C67.043 32.1376 71.1694 27.7952 76.2315 27.7952C81.3176 27.7952 85.4681 32.0896 85.4681 37.4157C85.4681 32.0657 89.5706 27.7473 94.6327 27.7473C99.7188 27.7233 103.845 32.0417 103.869 37.3677Z" fill="#E6180A"/>
</svg>
