<svg width="170" height="261" viewBox="0 0 170 261" fill="none" xmlns="http://www.w3.org/2000/svg">
<path d="M1.71265 245.279C1.71265 249.058 4.8015 252.147 8.58009 252.147H161.368C165.137 252.147 168.226 249.058 168.226 245.279V16.9641C168.226 13.1855 165.137 10.0966 161.368 10.0966H8.58009C4.8015 10.0966 1.71265 13.1855 1.71265 16.9641V245.279Z" fill="white" stroke="black" stroke-width="2.49907"/>
<path d="M7.66889 32.7845V29.1049L16.2663 21.1444C16.9975 20.4368 17.6107 19.7999 18.1061 19.2339C18.6092 18.6678 18.9906 18.1135 19.25 17.571C19.5095 17.0206 19.6392 16.427 19.6392 15.7902C19.6392 15.0826 19.478 14.4732 19.1557 13.9622C18.8333 13.4433 18.393 13.0462 17.8348 12.7711C17.2766 12.488 16.6437 12.3465 15.9361 12.3465C15.197 12.3465 14.5523 12.4959 14.002 12.7946C13.4516 13.0934 13.027 13.5219 12.7283 14.0801C12.4295 14.6384 12.2801 15.3027 12.2801 16.0732H7.43302C7.43302 14.4929 7.79075 13.1209 8.50622 11.9573C9.22169 10.7937 10.2241 9.89347 11.5135 9.25662C12.803 8.61978 14.2889 8.30136 15.9715 8.30136C17.7012 8.30136 19.2068 8.60799 20.4883 9.22125C21.7777 9.82664 22.7802 10.6679 23.4956 11.745C24.2111 12.8222 24.5689 14.0565 24.5689 15.4482C24.5689 16.3602 24.388 17.2604 24.0264 18.1489C23.6726 19.0373 23.0396 20.024 22.1276 21.109C21.2156 22.1861 19.9301 23.4795 18.2712 24.989L14.7449 28.4445V28.6096H24.8873V32.7845H7.66889Z" fill="black"/>
<path d="M163.269 228.462V232.142L154.672 240.102C153.941 240.81 153.327 241.447 152.832 242.013C152.329 242.579 151.947 243.133 151.688 243.676C151.429 244.226 151.299 244.82 151.299 245.456C151.299 246.164 151.46 246.773 151.782 247.284C152.105 247.803 152.545 248.2 153.103 248.476C153.661 248.759 154.294 248.9 155.002 248.9C155.741 248.9 156.386 248.751 156.936 248.452C157.486 248.153 157.911 247.725 158.21 247.166C158.508 246.608 158.658 245.944 158.658 245.173H163.505C163.505 246.754 163.147 248.126 162.432 249.289C161.716 250.453 160.714 251.353 159.424 251.99C158.135 252.627 156.649 252.945 154.967 252.945C153.237 252.945 151.731 252.639 150.45 252.025C149.16 251.42 148.158 250.579 147.442 249.502C146.727 248.424 146.369 247.19 146.369 245.798C146.369 244.886 146.55 243.986 146.912 243.098C147.265 242.209 147.898 241.223 148.81 240.138C149.722 239.06 151.008 237.767 152.667 236.258L156.193 232.802V232.637H146.051V228.462H163.269Z" fill="black"/>
<path d="M11.439 68.1581C13.1084 68.1581 13.9881 66.3788 14.4479 64.5994C14.9077 62.8201 14.9477 61.0408 14.9477 61.0408L15.7974 61.0308C15.7974 61.0308 15.9573 68.1581 19.2961 68.1581H11.439Z" fill="black"/>
<path d="M8.61006 61.0308C8.62006 57.5621 13.8281 55.043 15.3576 52.304C16.887 55.053 22.095 57.5721 22.105 61.0308C22.105 62.6702 20.5956 63.9997 18.7263 63.9997C16.867 63.9997 15.3576 62.6702 15.3576 61.0308C15.3576 62.6702 13.8481 63.9997 11.9788 63.9997C10.1095 63.9997 8.61006 62.6702 8.61006 61.0308Z" fill="black"/>
<path d="M159.499 193.089C157.83 193.089 156.95 194.868 156.49 196.647C156.03 198.427 155.99 200.206 155.99 200.206L155.141 200.216C155.141 200.216 154.981 193.089 151.642 193.089H159.499Z" fill="black"/>
<path d="M162.328 200.216C162.318 203.685 157.11 206.204 155.58 208.943C154.051 206.194 148.843 203.675 148.833 200.216C148.833 198.577 150.342 197.247 152.212 197.247C154.071 197.247 155.58 198.577 155.58 200.216C155.58 198.577 157.09 197.247 158.959 197.247C160.828 197.247 162.328 198.577 162.328 200.216Z" fill="black"/>
<path d="M94.8726 191.23C90.8661 191.23 88.7549 195.501 87.6513 199.771C86.5477 204.042 86.4517 208.312 86.4517 208.312L84.4125 208.336C84.4125 208.336 84.0286 191.23 76.0156 191.23H94.8726Z" fill="black"/>
<path d="M101.662 208.336C101.638 216.661 89.1388 222.707 85.4681 229.28C81.7975 222.683 69.2982 216.637 69.2742 208.336C69.2742 204.402 72.8968 201.211 77.3832 201.211C81.8455 201.211 85.4681 204.402 85.4681 208.336C85.4681 204.402 89.0908 201.211 93.5771 201.211C98.0635 201.211 101.662 204.402 101.662 208.336Z" fill="black"/>
<path d="M76.0637 65.8675C80.0702 65.8675 82.1814 61.5971 83.285 57.3267C84.3886 53.0563 84.4845 48.7859 84.4845 48.7859L86.5238 48.7619C86.5238 48.7619 86.9076 65.8675 94.9207 65.8675H76.0637Z" fill="black"/>
<path d="M69.2742 48.7619C69.2981 40.437 81.7975 34.3912 85.4681 27.8177C89.1388 34.4152 101.638 40.461 101.662 48.7619C101.662 52.6964 98.0395 55.8872 93.5531 55.8872C89.0908 55.8872 85.4681 52.6964 85.4681 48.7619C85.4681 52.6964 81.8455 55.8872 77.3591 55.8872C72.8728 55.8872 69.2742 52.6964 69.2742 48.7619Z" fill="black"/>
</svg>
