<svg width="170" height="261" viewBox="0 0 170 261" fill="none" xmlns="http://www.w3.org/2000/svg">
<path d="M2.22534 245.233C2.22534 249.011 5.31419 252.1 9.09279 252.1H161.881C165.65 252.1 168.738 249.011 168.738 245.233V16.9175C168.738 13.1389 165.65 10.05 161.881 10.05H9.09279C5.31419 10.05 2.22534 13.1389 2.22534 16.9175V245.233Z" fill="white" stroke="black" stroke-width="2.49907"/>
<path d="M17.1092 33.0671C15.348 33.0671 13.7795 32.7644 12.4036 32.159C11.0356 31.5457 9.95453 30.7044 9.16044 29.6352C8.37421 28.558 7.9693 27.3158 7.94572 25.9085H13.0876C13.1191 26.4981 13.3117 27.017 13.6655 27.4652C14.0272 27.9055 14.5068 28.2475 15.1043 28.4912C15.7019 28.7349 16.3741 28.8568 17.121 28.8568C17.8994 28.8568 18.5873 28.7192 19.1848 28.444C19.7824 28.1689 20.2502 27.7875 20.5883 27.3001C20.9263 26.8126 21.0954 26.2505 21.0954 25.6136C21.0954 24.9689 20.9145 24.3989 20.5529 23.9036C20.1991 23.4004 19.688 23.0073 19.0197 22.7242C18.3593 22.4412 17.5731 22.2997 16.661 22.2997H14.4085V18.5494H16.661C17.4316 18.5494 18.1116 18.4157 18.7013 18.1484C19.2988 17.8811 19.7627 17.5116 20.0929 17.0398C20.4231 16.5602 20.5883 16.002 20.5883 15.3652C20.5883 14.7598 20.4428 14.2291 20.1519 13.773C19.8689 13.3092 19.4679 12.9475 18.949 12.688C18.4379 12.4286 17.8404 12.2989 17.1564 12.2989C16.4645 12.2989 15.8316 12.4247 15.2576 12.6763C14.6837 12.92 14.2237 13.2699 13.8778 13.7259C13.5319 14.1819 13.3471 14.7165 13.3235 15.3298H8.42925C8.45283 13.9381 8.84988 12.7116 9.62038 11.6502C10.3909 10.5888 11.4287 9.75935 12.7338 9.16181C14.0468 8.55642 15.5289 8.25372 17.18 8.25372C18.8468 8.25372 20.3052 8.55642 21.5553 9.16181C22.8054 9.76721 23.7764 10.5849 24.4683 11.6148C25.168 12.6369 25.514 13.7848 25.5061 15.0585C25.514 16.4108 25.0933 17.5391 24.2442 18.4432C23.4029 19.3474 22.3062 19.9213 20.9538 20.1651V20.3538C22.7307 20.5818 24.083 21.199 25.0108 22.2053C25.9464 23.2038 26.4103 24.4539 26.4024 25.9556C26.4103 27.3315 26.0132 28.5541 25.2113 29.6234C24.4172 30.6927 23.3204 31.5339 21.9209 32.1472C20.5214 32.7604 18.9175 33.0671 17.1092 33.0671Z" fill="#E6180A"/>
<path d="M154.854 228.085C156.615 228.085 158.184 228.388 159.56 228.993C160.928 229.607 162.009 230.448 162.803 231.517C163.589 232.594 163.994 233.837 164.018 235.244H158.876C158.844 234.654 158.652 234.135 158.298 233.687C157.936 233.247 157.457 232.905 156.859 232.661C156.262 232.417 155.589 232.296 154.842 232.296C154.064 232.296 153.376 232.433 152.779 232.708C152.181 232.983 151.713 233.365 151.375 233.852C151.037 234.34 150.868 234.902 150.868 235.539C150.868 236.183 151.049 236.753 151.411 237.249C151.764 237.752 152.275 238.145 152.944 238.428C153.604 238.711 154.39 238.853 155.302 238.853H157.555V242.603H155.302C154.532 242.603 153.852 242.737 153.262 243.004C152.665 243.271 152.201 243.641 151.871 244.113C151.54 244.592 151.375 245.15 151.375 245.787C151.375 246.393 151.521 246.923 151.812 247.379C152.095 247.843 152.496 248.205 153.014 248.464C153.526 248.724 154.123 248.853 154.807 248.853C155.499 248.853 156.132 248.728 156.706 248.476C157.28 248.232 157.74 247.882 158.086 247.426C158.432 246.97 158.616 246.436 158.64 245.823H163.534C163.511 247.214 163.114 248.441 162.343 249.502C161.573 250.564 160.535 251.393 159.23 251.991C157.917 252.596 156.435 252.899 154.783 252.899C153.117 252.899 151.658 252.596 150.408 251.991C149.158 251.385 148.187 250.567 147.495 249.538C146.795 248.515 146.449 247.368 146.457 246.094C146.449 244.742 146.87 243.613 147.719 242.709C148.56 241.805 149.657 241.231 151.01 240.987V240.799C149.233 240.571 147.88 239.953 146.953 238.947C146.017 237.949 145.553 236.698 145.561 235.197C145.553 233.821 145.95 232.598 146.752 231.529C147.546 230.46 148.643 229.618 150.043 229.005C151.442 228.392 153.046 228.085 154.854 228.085Z" fill="#E6180A"/>
<path d="M23.5375 56.2548C23.5275 60.9631 17.6297 64.3918 15.9003 68.1204C14.151 64.4018 8.24316 61.0031 8.20318 56.2948C8.19318 54.0756 9.91254 52.2663 12.0218 52.2663C14.141 52.2663 15.8703 54.0557 15.8703 56.2748C15.8703 54.0457 17.5797 52.2463 19.6889 52.2463C21.8081 52.2363 23.5275 54.0357 23.5375 56.2548Z" fill="#E6180A"/>
<path d="M148.426 204.898C148.436 200.189 154.334 196.761 156.063 193.032C157.813 196.751 163.72 200.149 163.76 204.858C163.77 207.077 162.051 208.886 159.942 208.886C157.823 208.886 156.093 207.097 156.093 204.878C156.093 207.107 154.384 208.906 152.275 208.906C150.155 208.916 148.436 207.117 148.426 204.898Z" fill="#E6180A"/>
<path d="M67.5798 219.637C67.6038 208.338 81.7586 200.109 85.909 191.16C90.1075 200.085 104.286 208.242 104.382 219.541C104.406 224.868 100.28 229.21 95.2176 229.21C90.1314 229.21 85.981 224.915 85.981 219.589C85.981 224.939 81.8785 229.258 76.8164 229.258C71.7303 229.282 67.6038 224.963 67.5798 219.637Z" fill="#E6180A"/>
<path d="M104.382 114.281C104.358 125.58 90.2034 133.809 86.053 142.758C81.8545 133.833 67.6758 125.676 67.5798 114.377C67.5558 109.051 71.6823 104.708 76.7444 104.708C81.8305 104.708 85.981 109.003 85.981 114.329C85.981 108.979 90.0835 104.66 95.1456 104.66C100.232 104.636 104.358 108.955 104.382 114.281Z" fill="#E6180A"/>
<path d="M104.382 37.3677C104.358 48.6675 90.2034 56.8964 86.053 65.8451C81.8545 56.9204 67.6758 48.7634 67.5798 37.4636C67.5558 32.1376 71.6823 27.7952 76.7444 27.7952C81.8305 27.7952 85.981 32.0896 85.981 37.4157C85.981 32.0657 90.0835 27.7473 95.1456 27.7473C100.232 27.7233 104.358 32.0417 104.382 37.3677Z" fill="#E6180A"/>
</svg>
