<svg width="170" height="261" viewBox="0 0 170 261" fill="none" xmlns="http://www.w3.org/2000/svg">
<path d="M2.22534 245.279C2.22534 249.058 5.31419 252.147 9.09279 252.147H161.881C165.65 252.147 168.738 249.058 168.738 245.279V16.9641C168.738 13.1855 165.65 10.0966 161.881 10.0966H9.09279C5.31419 10.0966 2.22534 13.1855 2.22534 16.9641V245.279Z" fill="white" stroke="black" stroke-width="2.49907"/>
<path d="M17.1092 33.1147C15.348 33.1147 13.7795 32.812 12.4036 32.2066C11.0356 31.5934 9.95453 30.7521 9.16044 29.6828C8.37421 28.6057 7.9693 27.3634 7.94572 25.9561H13.0876C13.1191 26.5458 13.3117 27.0647 13.6655 27.5128C14.0272 27.9531 14.5068 28.2951 15.1043 28.5389C15.7019 28.7826 16.3741 28.9045 17.121 28.9045C17.8994 28.9045 18.5873 28.7669 19.1848 28.4917C19.7824 28.2165 20.2502 27.8352 20.5883 27.3477C20.9263 26.8603 21.0954 26.2981 21.0954 25.6613C21.0954 25.0166 20.9145 24.4465 20.5529 23.9512C20.1991 23.448 19.688 23.0549 19.0197 22.7719C18.3593 22.4888 17.5731 22.3473 16.661 22.3473H14.4085V18.597H16.661C17.4316 18.597 18.1116 18.4633 18.7013 18.196C19.2988 17.9287 19.7627 17.5592 20.0929 17.0875C20.4231 16.6079 20.5883 16.0496 20.5883 15.4128C20.5883 14.8074 20.4428 14.2767 20.1519 13.8207C19.8689 13.3568 19.4679 12.9951 18.949 12.7357C18.4379 12.4762 17.8404 12.3465 17.1564 12.3465C16.4645 12.3465 15.8316 12.4723 15.2576 12.7239C14.6837 12.9676 14.2237 13.3175 13.8778 13.7735C13.5319 14.2295 13.3471 14.7641 13.3235 15.3774H8.42925C8.45283 13.9858 8.84988 12.7593 9.62038 11.6979C10.3909 10.6365 11.4287 9.80698 12.7338 9.20945C14.0468 8.60406 15.5289 8.30136 17.18 8.30136C18.8468 8.30136 20.3052 8.60406 21.5553 9.20945C22.8054 9.81485 23.7764 10.6325 24.4683 11.6625C25.168 12.6846 25.514 13.8325 25.5061 15.1062C25.514 16.4585 25.0933 17.5867 24.2442 18.4909C23.4029 19.395 22.3062 19.969 20.9538 20.2127V20.4014C22.7307 20.6294 24.083 21.2466 25.0108 22.253C25.9464 23.2515 26.4103 24.5016 26.4024 26.0033C26.4103 27.3792 26.0132 28.6018 25.2113 29.671C24.4172 30.7403 23.3204 31.5816 21.9209 32.1948C20.5214 32.8081 18.9175 33.1147 17.1092 33.1147Z" fill="black"/>
<path d="M154.854 228.132C156.615 228.132 158.184 228.435 159.56 229.04C160.928 229.653 162.009 230.495 162.803 231.564C163.589 232.641 163.994 233.883 164.018 235.291H158.876C158.844 234.701 158.652 234.182 158.298 233.734C157.936 233.293 157.457 232.951 156.859 232.708C156.262 232.464 155.589 232.342 154.842 232.342C154.064 232.342 153.376 232.48 152.779 232.755C152.181 233.03 151.713 233.411 151.375 233.899C151.037 234.386 150.868 234.949 150.868 235.585C150.868 236.23 151.049 236.8 151.411 237.295C151.764 237.799 152.275 238.192 152.944 238.475C153.604 238.758 154.39 238.899 155.302 238.899H157.555V242.65H155.302C154.532 242.65 153.852 242.783 153.262 243.051C152.665 243.318 152.201 243.687 151.871 244.159C151.54 244.639 151.375 245.197 151.375 245.834C151.375 246.439 151.521 246.97 151.812 247.426C152.095 247.89 152.496 248.251 153.014 248.511C153.526 248.77 154.123 248.9 154.807 248.9C155.499 248.9 156.132 248.774 156.706 248.523C157.28 248.279 157.74 247.929 158.086 247.473C158.432 247.017 158.616 246.482 158.64 245.869H163.534C163.511 247.261 163.114 248.487 162.343 249.549C161.573 250.61 160.535 251.44 159.23 252.037C157.917 252.643 156.435 252.945 154.783 252.945C153.117 252.945 151.658 252.643 150.408 252.037C149.158 251.432 148.187 250.614 147.495 249.584C146.795 248.562 146.449 247.414 146.457 246.14C146.449 244.788 146.87 243.66 147.719 242.756C148.56 241.852 149.657 241.278 151.01 241.034V240.845C149.233 240.617 147.88 240 146.953 238.994C146.017 237.995 145.553 236.745 145.561 235.243C145.553 233.867 145.95 232.645 146.752 231.576C147.546 230.506 148.643 229.665 150.043 229.052C151.442 228.439 153.046 228.132 154.854 228.132Z" fill="black"/>
<path d="M11.9518 68.1581C13.6211 68.1581 14.5008 66.3788 14.9606 64.5994C15.4205 62.8201 15.4605 61.0408 15.4605 61.0408L16.3101 61.0308C16.3101 61.0308 16.4701 68.1581 19.8088 68.1581H11.9518Z" fill="black"/>
<path d="M9.12282 61.0308C9.13281 57.5621 14.3409 55.043 15.8703 52.304C17.3997 55.053 22.6078 57.5721 22.6178 61.0308C22.6178 62.6702 21.1084 63.9997 19.2391 63.9997C17.3797 63.9997 15.8703 62.6702 15.8703 61.0308C15.8703 62.6702 14.3609 63.9997 12.4916 63.9997C10.6223 63.9997 9.12282 62.6702 9.12282 61.0308Z" fill="black"/>
<path d="M160.012 193.089C158.342 193.089 157.463 194.868 157.003 196.647C156.543 198.427 156.503 200.206 156.503 200.206L155.653 200.216C155.653 200.216 155.493 193.089 152.155 193.089H160.012Z" fill="black"/>
<path d="M162.841 200.216C162.831 203.685 157.623 206.204 156.093 208.943C154.564 206.194 149.356 203.675 149.346 200.216C149.346 198.577 150.855 197.247 152.724 197.247C154.584 197.247 156.093 198.577 156.093 200.216C156.093 198.577 157.603 197.247 159.472 197.247C161.341 197.247 162.841 198.577 162.841 200.216Z" fill="black"/>
<path d="M95.3855 191.23C91.379 191.23 89.2678 195.501 88.1642 199.771C87.0606 204.042 86.9646 208.312 86.9646 208.312L84.9254 208.336C84.9254 208.336 84.5415 191.23 76.5285 191.23H95.3855Z" fill="black"/>
<path d="M102.175 208.336C102.151 216.661 89.6517 222.707 85.981 229.28C82.3104 222.683 69.811 216.637 69.787 208.336C69.787 204.402 73.4097 201.211 77.896 201.211C82.3584 201.211 85.981 204.402 85.981 208.336C85.981 204.402 89.6037 201.211 94.09 201.211C98.5763 201.211 102.175 204.402 102.175 208.336Z" fill="black"/>
<path d="M76.5765 142.78C80.583 142.78 82.6942 138.51 83.7978 134.24C84.9014 129.969 84.9974 125.699 84.9974 125.699L87.0366 125.675C87.0366 125.675 87.4205 142.78 95.4335 142.78H76.5765Z" fill="black"/>
<path d="M69.787 125.675C69.811 117.35 82.3103 111.304 85.9809 104.731C89.6516 111.328 102.151 117.374 102.175 125.675C102.175 129.609 98.5523 132.8 94.0659 132.8C89.6036 132.8 85.9809 129.609 85.9809 125.675C85.9809 129.609 82.3583 132.8 77.872 132.8C73.3856 132.8 69.787 129.609 69.787 125.675Z" fill="black"/>
<path d="M76.5765 65.8675C80.583 65.8675 82.6942 61.5971 83.7978 57.3267C84.9014 53.0563 84.9974 48.7859 84.9974 48.7859L87.0366 48.7619C87.0366 48.7619 87.4205 65.8675 95.4335 65.8675H76.5765Z" fill="black"/>
<path d="M69.787 48.7619C69.811 40.437 82.3103 34.3912 85.9809 27.8177C89.6516 34.4152 102.151 40.461 102.175 48.7619C102.175 52.6964 98.5523 55.8872 94.0659 55.8872C89.6036 55.8872 85.9809 52.6964 85.9809 48.7619C85.9809 52.6964 82.3583 55.8872 77.872 55.8872C73.3856 55.8872 69.787 52.6964 69.787 48.7619Z" fill="black"/>
</svg>
