<svg width="170" height="252" viewBox="0 0 170 252" fill="none" xmlns="http://www.w3.org/2000/svg">
<path d="M1.73804 236.138C1.73804 239.917 4.82689 243.006 8.60548 243.006H161.394C165.162 243.006 168.251 239.917 168.251 236.138V7.82327C168.251 4.04467 165.162 0.955811 161.394 0.955811H8.60548C4.82689 0.955811 1.73804 4.04467 1.73804 7.82327V236.138Z" fill="white" stroke="black" stroke-width="2.49907"/>
<path d="M7.32868 19.398V15.3764L17.4121 -0.509295H20.8793V5.0572H18.8273L12.4706 15.117V15.3057H26.7996V19.398H7.32868ZM18.9216 23.6436V18.1715L19.016 16.3907V-0.509295H23.8041V23.6436H18.9216Z" fill="black"/>
<path d="M163.66 223.567V227.588L153.577 243.474H150.109V237.908H152.162L158.518 227.848V227.659H144.189V223.567H163.66ZM152.067 219.321V224.793L151.973 226.574V243.474H147.185V219.321H152.067Z" fill="black"/>
<path d="M12.0341 46.4319C12.0341 48.2412 13.5436 49.7107 15.4129 49.7107C17.2822 49.7107 18.7916 48.2412 18.7916 46.4319C18.7916 44.6226 17.2822 43.1531 15.4129 43.1531C13.5436 43.1531 12.0341 44.6226 12.0341 46.4319Z" fill="black"/>
<path d="M7.6758 52.6396C7.6758 54.4489 9.18524 55.9184 11.0545 55.9184C12.9239 55.9184 14.4333 54.4489 14.4333 52.6396C14.4333 50.8303 12.9239 49.3608 11.0545 49.3608C9.18524 49.3608 7.6758 50.8303 7.6758 52.6396Z" fill="black"/>
<path d="M16.3326 52.6596C16.3326 53.3193 16.5325 53.9391 16.8824 54.4589C17.4822 55.3486 18.5318 55.9384 19.7113 55.9384C21.5806 55.9384 23.0901 54.4689 23.0901 52.6596C23.0901 50.8502 21.5806 49.3808 19.7113 49.3808C17.842 49.3808 16.3326 50.8502 16.3326 52.6596Z" fill="black"/>
<path d="M11.4444 59.0272C13.1138 59.0272 13.9934 57.6677 14.4533 56.3082C14.9131 54.9487 14.9531 53.5892 14.9531 53.5892H15.8128C15.8128 53.5892 15.9727 59.0172 19.3115 59.0272H11.4444Z" fill="black"/>
<path d="M17.7021 48.841C15.8028 50.7403 15.8028 53.5892 15.8028 53.5892L14.9531 53.5992C14.9531 53.5992 14.9531 50.6903 13.1038 48.841" fill="black"/>
<path d="M17.3222 54.9387C15.4229 53.0394 12.574 53.0394 12.574 53.0394V52.1897C12.574 52.1897 15.4829 52.1897 17.3322 50.3404" fill="black"/>
<path d="M13.5136 54.9487C15.4129 53.0494 18.2618 53.0494 18.2618 53.0494V52.1998C18.2618 52.1998 15.3529 52.1998 13.5036 50.3504" fill="black"/>
<path d="M158.955 196.533C158.955 194.724 157.445 193.254 155.576 193.254C153.707 193.254 152.197 194.724 152.197 196.533C152.197 198.342 153.707 199.812 155.576 199.812C157.445 199.812 158.955 198.342 158.955 196.533Z" fill="black"/>
<path d="M163.313 190.325C163.313 188.516 161.804 187.047 159.934 187.047C158.065 187.047 156.555 188.516 156.555 190.325C156.555 192.135 158.065 193.604 159.934 193.604C161.804 193.604 163.313 192.135 163.313 190.325Z" fill="black"/>
<path d="M154.656 190.305C154.656 189.646 154.456 189.026 154.106 188.506C153.507 187.616 152.457 187.027 151.277 187.027C149.408 187.027 147.899 188.496 147.899 190.305C147.899 192.115 149.408 193.584 151.277 193.584C153.147 193.584 154.656 192.115 154.656 190.305Z" fill="black"/>
<path d="M159.544 183.938C157.875 183.938 156.995 185.297 156.535 186.657C156.076 188.016 156.036 189.376 156.036 189.376H155.176C155.176 189.376 155.016 183.948 151.677 183.938H159.544Z" fill="black"/>
<path d="M153.287 194.124C155.186 192.225 155.186 189.376 155.186 189.376L156.036 189.366C156.036 189.366 156.036 192.275 157.885 194.124" fill="black"/>
<path d="M153.667 188.026C155.566 189.926 158.415 189.926 158.415 189.926V190.775C158.415 190.775 155.506 190.775 153.657 192.625" fill="black"/>
<path d="M157.475 188.016C155.576 189.916 152.727 189.916 152.727 189.916V190.765C152.727 190.765 155.636 190.765 157.485 192.615" fill="black"/>
<path d="M37.5429 26.5223C37.5429 30.8647 41.1655 34.3914 45.6519 34.3914C50.1382 34.3914 53.7609 30.8647 53.7609 26.5223C53.7609 22.1799 50.1382 18.6532 45.6519 18.6532C41.1655 18.6532 37.5429 22.1799 37.5429 26.5223Z" fill="black"/>
<path d="M27.0828 41.4207C27.0828 45.7631 30.7055 49.2898 35.1918 49.2898C39.6781 49.2898 43.3008 45.7631 43.3008 41.4207C43.3008 37.0783 39.6781 33.5516 35.1918 33.5516C30.7055 33.5516 27.0828 37.0783 27.0828 41.4207Z" fill="black"/>
<path d="M47.8591 41.4687C47.8591 43.0521 48.3389 44.5396 49.1786 45.7871C50.618 47.9223 53.1371 49.3378 55.968 49.3378C60.4544 49.3378 64.077 45.8111 64.077 41.4687C64.077 37.1263 60.4544 33.5996 55.968 33.5996C51.4817 33.5996 47.8591 37.1263 47.8591 41.4687Z" fill="black"/>
<path d="M36.1274 56.751C40.1339 56.751 42.2451 53.4883 43.3487 50.2255C44.4523 46.9627 44.5483 43.6999 44.5483 43.6999H46.6115C46.6115 43.6999 46.9953 56.727 55.0084 56.751H36.1274Z" fill="black"/>
<path d="M51.1459 32.3041C46.5876 36.8624 46.5876 43.6999 46.5876 43.6999L44.5483 43.7239C44.5483 43.7239 44.5483 36.7425 40.11 32.3041" fill="black"/>
<path d="M50.2341 46.9387C45.6758 42.3804 38.8384 42.3804 38.8384 42.3804V40.3411C38.8384 40.3411 45.8198 40.3411 50.2581 35.9028" fill="black"/>
<path d="M41.0936 46.9626C45.6519 42.4043 52.4894 42.4043 52.4894 42.4043V40.3651C52.4894 40.3651 45.508 40.3651 41.0696 35.9268" fill="black"/>
<path d="M53.6169 212.294C53.6169 207.951 49.9942 204.424 45.5079 204.424C41.0216 204.424 37.3989 207.951 37.3989 212.294C37.3989 216.636 41.0216 220.163 45.5079 220.163C49.9942 220.163 53.6169 216.636 53.6169 212.294Z" fill="black"/>
<path d="M64.077 197.395C64.077 193.053 60.4543 189.526 55.968 189.526C51.4817 189.526 47.859 193.053 47.859 197.395C47.859 201.738 51.4817 205.264 55.968 205.264C60.4543 205.264 64.077 201.738 64.077 197.395Z" fill="black"/>
<path d="M43.3007 197.347C43.3007 195.764 42.8209 194.276 41.9812 193.029C40.5418 190.894 38.0227 189.478 35.1917 189.478C30.7054 189.478 27.0828 193.005 27.0828 197.347C27.0828 201.69 30.7054 205.216 35.1917 205.216C39.6781 205.216 43.3007 201.69 43.3007 197.347Z" fill="black"/>
<path d="M55.0324 182.065C51.0259 182.065 48.9147 185.328 47.8111 188.59C46.7075 191.853 46.6115 195.116 46.6115 195.116H44.5483C44.5483 195.116 44.1644 182.089 36.1514 182.065H55.0324Z" fill="black"/>
<path d="M40.014 206.512C44.5723 201.953 44.5723 195.116 44.5723 195.116L46.6115 195.092C46.6115 195.092 46.6115 202.073 51.0499 206.512" fill="black"/>
<path d="M40.9257 191.877C45.484 196.436 52.3214 196.436 52.3214 196.436V198.475C52.3214 198.475 45.34 198.475 40.9017 202.913" fill="black"/>
<path d="M50.0662 191.853C45.5079 196.411 38.6705 196.411 38.6705 196.411V198.451C38.6705 198.451 45.6519 198.451 50.0902 202.889" fill="black"/>
<path d="M117.371 26.5223C117.371 30.8647 120.994 34.3914 125.48 34.3914C129.966 34.3914 133.589 30.8647 133.589 26.5223C133.589 22.1799 129.966 18.6532 125.48 18.6532C120.994 18.6532 117.371 22.1799 117.371 26.5223Z" fill="black"/>
<path d="M106.911 41.4207C106.911 45.7631 110.533 49.2898 115.02 49.2898C119.506 49.2898 123.129 45.7631 123.129 41.4207C123.129 37.0783 119.506 33.5516 115.02 33.5516C110.533 33.5516 106.911 37.0783 106.911 41.4207Z" fill="black"/>
<path d="M127.687 41.4687C127.687 43.0521 128.167 44.5396 129.007 45.7871C130.446 47.9223 132.965 49.3378 135.796 49.3378C140.282 49.3378 143.905 45.8111 143.905 41.4687C143.905 37.1263 140.282 33.5996 135.796 33.5996C131.31 33.5996 127.687 37.1263 127.687 41.4687Z" fill="black"/>
<path d="M115.955 56.751C119.962 56.751 122.073 53.4883 123.177 50.2255C124.28 46.9627 124.376 43.6999 124.376 43.6999H126.439C126.439 43.6999 126.823 56.727 134.836 56.751H115.955Z" fill="black"/>
<path d="M130.974 32.3041C126.416 36.8624 126.416 43.6999 126.416 43.6999L124.376 43.7239C124.376 43.7239 124.376 36.7425 119.938 32.3041" fill="black"/>
<path d="M130.062 46.9387C125.504 42.3804 118.666 42.3804 118.666 42.3804V40.3411C118.666 40.3411 125.648 40.3411 130.086 35.9028" fill="black"/>
<path d="M120.922 46.9626C125.48 42.4043 132.317 42.4043 132.317 42.4043V40.3651C132.317 40.3651 125.336 40.3651 120.898 35.9268" fill="black"/>
<path d="M133.445 212.294C133.445 207.951 129.822 204.424 125.336 204.424C120.849 204.424 117.227 207.951 117.227 212.294C117.227 216.636 120.849 220.163 125.336 220.163C129.822 220.163 133.445 216.636 133.445 212.294Z" fill="black"/>
<path d="M143.905 197.395C143.905 193.053 140.282 189.526 135.796 189.526C131.31 189.526 127.687 193.053 127.687 197.395C127.687 201.738 131.31 205.264 135.796 205.264C140.282 205.264 143.905 201.738 143.905 197.395Z" fill="black"/>
<path d="M123.129 197.347C123.129 195.764 122.649 194.276 121.809 193.029C120.37 190.894 117.851 189.478 115.02 189.478C110.533 189.478 106.911 193.005 106.911 197.347C106.911 201.69 110.533 205.216 115.02 205.216C119.506 205.216 123.129 201.69 123.129 197.347Z" fill="black"/>
<path d="M134.86 182.065C130.854 182.065 128.743 185.328 127.639 188.59C126.535 191.853 126.439 195.116 126.439 195.116H124.376C124.376 195.116 123.992 182.089 115.979 182.065H134.86Z" fill="black"/>
<path d="M119.842 206.512C124.4 201.953 124.4 195.116 124.4 195.116L126.439 195.092C126.439 195.092 126.439 202.073 130.878 206.512" fill="black"/>
<path d="M120.754 191.877C125.312 196.436 132.149 196.436 132.149 196.436V198.475C132.149 198.475 125.168 198.475 120.73 202.913" fill="black"/>
<path d="M129.894 191.853C125.336 196.411 118.498 196.411 118.498 196.411V198.451C118.498 198.451 125.48 198.451 129.918 202.889" fill="black"/>
</svg>
