<svg width="170" height="261" viewBox="0 0 170 261" fill="none" xmlns="http://www.w3.org/2000/svg">
<path d="M1.73804 245.233C1.73804 249.011 4.82689 252.1 8.60548 252.1H161.394C165.162 252.1 168.251 249.011 168.251 245.233V16.9175C168.251 13.1389 165.162 10.05 161.394 10.05H8.60548C4.82689 10.05 1.73804 13.1389 1.73804 16.9175V245.233Z" fill="white" stroke="black" stroke-width="2.49907"/>
<path d="M7.32868 28.4912V24.4697L17.4121 8.58394H20.8793V14.1504H18.8273L12.4706 24.2102V24.3989H26.7996V28.4912H7.32868ZM18.9216 32.7368V27.2647L19.016 25.4839V8.58394H23.8041V32.7368H18.9216Z" fill="#E6180A"/>
<path d="M163.66 232.661V236.683L153.577 252.568H150.109V247.002H152.162L158.518 236.942V236.753H144.189V232.661H163.66ZM152.067 228.415V233.888L151.973 235.668V252.568H147.185V228.415H152.067Z" fill="#E6180A"/>
<path d="M23.05 56.2548C23.0401 60.9631 17.1422 64.3918 15.4129 68.1204C13.6635 64.4018 7.75574 61.0031 7.71575 56.2948C7.70576 54.0756 9.42512 52.2663 11.5343 52.2663C13.6535 52.2663 15.3829 54.0557 15.3829 56.2748C15.3829 54.0457 17.0923 52.2463 19.2015 52.2463C21.3207 52.2363 23.0401 54.0357 23.05 56.2548Z" fill="#E6180A"/>
<path d="M147.939 204.898C147.949 200.189 153.846 196.761 155.576 193.032C157.325 196.751 163.233 200.149 163.273 204.858C163.283 207.077 161.564 208.886 159.454 208.886C157.335 208.886 155.606 207.097 155.606 204.878C155.606 207.107 153.896 208.906 151.787 208.906C149.668 208.916 147.949 207.117 147.939 204.898Z" fill="#E6180A"/>
<path d="M63.9811 37.3677C63.9571 48.6675 49.8024 56.8964 45.6519 65.8451C41.4535 56.9204 27.2747 48.7634 27.1788 37.4636C27.1548 32.1376 31.2812 27.7952 36.3434 27.7952C41.4295 27.7952 45.5799 32.0896 45.5799 37.4157C45.5799 32.0657 49.6824 27.7473 54.7445 27.7473C59.8306 27.7233 63.9571 32.0417 63.9811 37.3677Z" fill="#E6180A"/>
<path d="M27.1787 219.637C27.2027 208.338 41.3574 200.109 45.5079 191.16C49.7063 200.085 63.8851 208.242 63.981 219.541C64.005 224.868 59.8786 229.21 54.8164 229.21C49.7303 229.21 45.5799 224.915 45.5799 219.589C45.5799 224.939 41.4774 229.258 36.4153 229.258C31.3292 229.282 27.2027 224.963 27.1787 219.637Z" fill="#E6180A"/>
<path d="M143.809 37.3677C143.785 48.6675 129.63 56.8964 125.48 65.8451C121.281 56.9204 107.103 48.7634 107.007 37.4636C106.983 32.1376 111.109 27.7952 116.171 27.7952C121.257 27.7952 125.408 32.0896 125.408 37.4157C125.408 32.0657 129.51 27.7473 134.572 27.7473C139.659 27.7233 143.785 32.0417 143.809 37.3677Z" fill="#E6180A"/>
<path d="M107.007 219.637C107.031 208.338 121.185 200.109 125.336 191.16C129.534 200.085 143.713 208.242 143.809 219.541C143.833 224.868 139.707 229.21 134.644 229.21C129.558 229.21 125.408 224.915 125.408 219.589C125.408 224.939 121.305 229.258 116.243 229.258C111.157 229.282 107.031 224.963 107.007 219.637Z" fill="#E6180A"/>
</svg>
