<svg width="170" height="252" viewBox="0 0 170 252" fill="none" xmlns="http://www.w3.org/2000/svg">
<path d="M1.25073 236.138C1.25073 239.917 4.33958 243.006 8.11818 243.006H160.906C164.675 243.006 167.764 239.917 167.764 236.138V7.82327C167.764 4.04467 164.675 0.955811 160.906 0.955811H8.11818C4.33958 0.955811 1.25073 4.04467 1.25073 7.82327V236.138Z" fill="white" stroke="black" stroke-width="2.49907"/>
<path d="M16.0284 23.9738C14.3616 23.9738 12.8757 23.6672 11.5705 23.0539C10.2733 22.4407 9.2433 21.5955 8.48066 20.5184C7.71802 19.4412 7.32098 18.2069 7.28953 16.8152H12.2428C12.2978 17.7508 12.6909 18.5095 13.4221 19.0914C14.1533 19.6732 15.0221 19.9641 16.0284 19.9641C16.8304 19.9641 17.538 19.7872 18.1513 19.4334C18.7724 19.0717 19.2559 18.5724 19.6019 17.9356C19.9557 17.2909 20.1326 16.5518 20.1326 15.7184C20.1326 14.8693 19.9517 14.1224 19.5901 13.4777C19.2363 12.833 18.7449 12.3298 18.1159 11.9681C17.4869 11.6065 16.7675 11.4217 15.9577 11.4138C15.2501 11.4138 14.5621 11.5593 13.8938 11.8502C13.2334 12.1411 12.7184 12.5382 12.3489 13.0413L7.80844 12.2276L8.9524 -0.509295H23.7178V3.66557H13.1626L12.5376 9.71559H12.6791C13.1037 9.11806 13.7445 8.62274 14.6014 8.22962C15.4584 7.83651 16.4176 7.63995 17.479 7.63995C18.9336 7.63995 20.2308 7.98196 21.3709 8.66598C22.5109 9.35 23.4111 10.2895 24.0716 11.4846C24.732 12.6718 25.0583 14.0398 25.0504 15.5887C25.0583 17.2162 24.6809 18.6629 23.9182 19.9287C23.1635 21.1867 22.106 22.1773 20.7458 22.9006C19.3935 23.6161 17.821 23.9738 16.0284 23.9738Z" fill="black"/>
<path d="M153.986 218.991C155.653 218.991 157.139 219.298 158.444 219.911C159.741 220.524 160.771 221.369 161.534 222.447C162.296 223.524 162.693 224.758 162.725 226.15H157.771C157.716 225.214 157.323 224.455 156.592 223.874C155.861 223.292 154.992 223.001 153.986 223.001C153.184 223.001 152.476 223.178 151.863 223.532C151.242 223.893 150.758 224.392 150.412 225.029C150.059 225.674 149.882 226.413 149.882 227.246C149.882 228.096 150.062 228.843 150.424 229.487C150.778 230.132 151.269 230.635 151.898 230.997C152.527 231.358 153.247 231.543 154.057 231.551C154.764 231.551 155.452 231.406 156.12 231.115C156.781 230.824 157.296 230.427 157.665 229.924L162.206 230.737L161.062 243.474H146.296V239.299H156.852L157.477 233.249H157.335C156.911 233.847 156.27 234.342 155.413 234.735C154.556 235.128 153.597 235.325 152.535 235.325C151.081 235.325 149.783 234.983 148.643 234.299C147.503 233.615 146.603 232.675 145.943 231.48C145.282 230.293 144.956 228.925 144.964 227.376C144.956 225.749 145.333 224.302 146.096 223.036C146.851 221.778 147.908 220.788 149.268 220.064C150.621 219.349 152.193 218.991 153.986 218.991Z" fill="black"/>
<path d="M11.5469 46.4319C11.5469 48.2412 13.0563 49.7107 14.9256 49.7107C16.7949 49.7107 18.3044 48.2412 18.3044 46.4319C18.3044 44.6226 16.7949 43.1531 14.9256 43.1531C13.0563 43.1531 11.5469 44.6226 11.5469 46.4319Z" fill="black"/>
<path d="M7.18856 52.6396C7.18856 54.4489 8.698 55.9184 10.5673 55.9184C12.4366 55.9184 13.946 54.4489 13.946 52.6396C13.946 50.8303 12.4366 49.3608 10.5673 49.3608C8.698 49.3608 7.18856 50.8303 7.18856 52.6396Z" fill="black"/>
<path d="M15.8454 52.6596C15.8454 53.3193 16.0453 53.9391 16.3952 54.4589C16.9949 55.3486 18.0445 55.9384 19.2241 55.9384C21.0934 55.9384 22.6028 54.4689 22.6028 52.6596C22.6028 50.8502 21.0934 49.3808 19.2241 49.3808C17.3548 49.3808 15.8454 50.8502 15.8454 52.6596Z" fill="black"/>
<path d="M10.9571 59.0272C12.6265 59.0272 13.5062 57.6677 13.966 56.3082C14.4259 54.9487 14.4658 53.5892 14.4658 53.5892H15.3255C15.3255 53.5892 15.4855 59.0172 18.8242 59.0272H10.9571Z" fill="black"/>
<path d="M17.2148 48.841C15.3156 50.7403 15.3156 53.5892 15.3156 53.5892L14.4659 53.5992C14.4659 53.5992 14.4659 50.6903 12.6166 48.841" fill="black"/>
<path d="M16.835 54.9387C14.9357 53.0394 12.0867 53.0394 12.0867 53.0394V52.1897C12.0867 52.1897 14.9957 52.1897 16.845 50.3404" fill="black"/>
<path d="M13.0264 54.9487C14.9257 53.0494 17.7746 53.0494 17.7746 53.0494V52.1998C17.7746 52.1998 14.8657 52.1998 13.0164 50.3504" fill="black"/>
<path d="M158.467 196.533C158.467 194.724 156.958 193.254 155.089 193.254C153.219 193.254 151.71 194.724 151.71 196.533C151.71 198.342 153.219 199.812 155.089 199.812C156.958 199.812 158.467 198.342 158.467 196.533Z" fill="black"/>
<path d="M162.826 190.325C162.826 188.516 161.316 187.047 159.447 187.047C157.578 187.047 156.068 188.516 156.068 190.325C156.068 192.135 157.578 193.604 159.447 193.604C161.316 193.604 162.826 192.135 162.826 190.325Z" fill="black"/>
<path d="M154.169 190.305C154.169 189.646 153.969 189.026 153.619 188.506C153.019 187.616 151.97 187.027 150.79 187.027C148.921 187.027 147.411 188.496 147.411 190.305C147.411 192.115 148.921 193.584 150.79 193.584C152.659 193.584 154.169 192.115 154.169 190.305Z" fill="black"/>
<path d="M159.057 183.938C157.388 183.938 156.508 185.297 156.048 186.657C155.588 188.016 155.548 189.376 155.548 189.376H154.689C154.689 189.376 154.529 183.948 151.19 183.938H159.057Z" fill="black"/>
<path d="M152.799 194.124C154.699 192.225 154.699 189.376 154.699 189.376L155.548 189.366C155.548 189.366 155.548 192.275 157.398 194.124" fill="black"/>
<path d="M153.179 188.026C155.079 189.926 157.927 189.926 157.927 189.926V190.775C157.927 190.775 155.019 190.775 153.169 192.625" fill="black"/>
<path d="M156.988 188.016C155.089 189.916 152.24 189.916 152.24 189.916V190.765C152.24 190.765 155.149 190.765 156.998 192.615" fill="black"/>
<path d="M37.0558 26.5223C37.0558 30.8647 40.6785 34.3914 45.1648 34.3914C49.6512 34.3914 53.2738 30.8647 53.2738 26.5223C53.2738 22.1799 49.6512 18.6532 45.1648 18.6532C40.6785 18.6532 37.0558 22.1799 37.0558 26.5223Z" fill="black"/>
<path d="M26.5957 41.4207C26.5957 45.7631 30.2183 49.2898 34.7046 49.2898C39.191 49.2898 42.8136 45.7631 42.8136 41.4207C42.8136 37.0783 39.191 33.5516 34.7046 33.5516C30.2183 33.5516 26.5957 37.0783 26.5957 41.4207Z" fill="black"/>
<path d="M47.3719 41.4687C47.3719 43.0521 47.8518 44.5396 48.6914 45.7871C50.1309 47.9223 52.65 49.3378 55.4809 49.3378C59.9673 49.3378 63.5899 45.8111 63.5899 41.4687C63.5899 37.1263 59.9673 33.5996 55.4809 33.5996C50.9946 33.5996 47.3719 37.1263 47.3719 41.4687Z" fill="black"/>
<path d="M35.6403 56.751C39.6468 56.751 41.758 53.4883 42.8616 50.2255C43.9652 46.9627 44.0611 43.6999 44.0611 43.6999H46.1244C46.1244 43.6999 46.5082 56.727 54.5212 56.751H35.6403Z" fill="black"/>
<path d="M50.6588 32.3041C46.1004 36.8624 46.1004 43.6999 46.1004 43.6999L44.0612 43.7239C44.0612 43.7239 44.0612 36.7425 39.6229 32.3041" fill="black"/>
<path d="M49.7471 46.9387C45.1888 42.3804 38.3513 42.3804 38.3513 42.3804V40.3411C38.3513 40.3411 45.3327 40.3411 49.7711 35.9028" fill="black"/>
<path d="M40.6065 46.9626C45.1648 42.4043 52.0022 42.4043 52.0022 42.4043V40.3651C52.0022 40.3651 45.0208 40.3651 40.5825 35.9268" fill="black"/>
<path d="M53.1299 212.294C53.1299 207.951 49.5072 204.424 45.0209 204.424C40.5346 204.424 36.9119 207.951 36.9119 212.294C36.9119 216.636 40.5346 220.163 45.0209 220.163C49.5072 220.163 53.1299 216.636 53.1299 212.294Z" fill="black"/>
<path d="M63.5901 197.395C63.5901 193.053 59.9674 189.526 55.4811 189.526C50.9948 189.526 47.3721 193.053 47.3721 197.395C47.3721 201.738 50.9948 205.264 55.4811 205.264C59.9674 205.264 63.5901 201.738 63.5901 197.395Z" fill="black"/>
<path d="M42.8137 197.347C42.8137 195.764 42.3339 194.276 41.4942 193.029C40.0548 190.894 37.5357 189.478 34.7047 189.478C30.2184 189.478 26.5958 193.005 26.5958 197.347C26.5958 201.69 30.2184 205.216 34.7047 205.216C39.1911 205.216 42.8137 201.69 42.8137 197.347Z" fill="black"/>
<path d="M54.5454 182.065C50.5389 182.065 48.4277 185.328 47.3241 188.59C46.2205 191.853 46.1245 195.116 46.1245 195.116H44.0613C44.0613 195.116 43.6774 182.089 35.6644 182.065H54.5454Z" fill="black"/>
<path d="M39.5269 206.512C44.0852 201.953 44.0852 195.116 44.0852 195.116L46.1245 195.092C46.1245 195.092 46.1245 202.073 50.5628 206.512" fill="black"/>
<path d="M40.4386 191.877C44.9969 196.436 51.8344 196.436 51.8344 196.436V198.475C51.8344 198.475 44.853 198.475 40.4146 202.913" fill="black"/>
<path d="M49.5792 191.853C45.0209 196.411 38.1834 196.411 38.1834 196.411V198.451C38.1834 198.451 45.1648 198.451 49.6032 202.889" fill="black"/>
<path d="M116.884 26.5223C116.884 30.8647 120.506 34.3914 124.993 34.3914C129.479 34.3914 133.102 30.8647 133.102 26.5223C133.102 22.1799 129.479 18.6532 124.993 18.6532C120.506 18.6532 116.884 22.1799 116.884 26.5223Z" fill="black"/>
<path d="M106.424 41.4207C106.424 45.7631 110.046 49.2898 114.533 49.2898C119.019 49.2898 122.642 45.7631 122.642 41.4207C122.642 37.0783 119.019 33.5516 114.533 33.5516C110.046 33.5516 106.424 37.0783 106.424 41.4207Z" fill="black"/>
<path d="M127.2 41.4687C127.2 43.0521 127.68 44.5396 128.519 45.7871C129.959 47.9223 132.478 49.3378 135.309 49.3378C139.795 49.3378 143.418 45.8111 143.418 41.4687C143.418 37.1263 139.795 33.5996 135.309 33.5996C130.823 33.5996 127.2 37.1263 127.2 41.4687Z" fill="black"/>
<path d="M115.468 56.751C119.475 56.751 121.586 53.4883 122.69 50.2255C123.793 46.9627 123.889 43.6999 123.889 43.6999H125.952C125.952 43.6999 126.336 56.727 134.349 56.751H115.468Z" fill="black"/>
<path d="M130.487 32.3041C125.928 36.8624 125.928 43.6999 125.928 43.6999L123.889 43.7239C123.889 43.7239 123.889 36.7425 119.451 32.3041" fill="black"/>
<path d="M129.575 46.9387C125.017 42.3804 118.179 42.3804 118.179 42.3804V40.3411C118.179 40.3411 125.161 40.3411 129.599 35.9028" fill="black"/>
<path d="M120.434 46.9626C124.993 42.4043 131.83 42.4043 131.83 42.4043V40.3651C131.83 40.3651 124.849 40.3651 120.41 35.9268" fill="black"/>
<path d="M132.958 212.294C132.958 207.951 129.335 204.424 124.849 204.424C120.362 204.424 116.74 207.951 116.74 212.294C116.74 216.636 120.362 220.163 124.849 220.163C129.335 220.163 132.958 216.636 132.958 212.294Z" fill="black"/>
<path d="M143.418 197.395C143.418 193.053 139.795 189.526 135.309 189.526C130.823 189.526 127.2 193.053 127.2 197.395C127.2 201.738 130.823 205.264 135.309 205.264C139.795 205.264 143.418 201.738 143.418 197.395Z" fill="black"/>
<path d="M122.642 197.347C122.642 195.764 122.162 194.276 121.322 193.029C119.883 190.894 117.364 189.478 114.533 189.478C110.046 189.478 106.424 193.005 106.424 197.347C106.424 201.69 110.046 205.216 114.533 205.216C119.019 205.216 122.642 201.69 122.642 197.347Z" fill="black"/>
<path d="M134.373 182.065C130.367 182.065 128.256 185.328 127.152 188.59C126.048 191.853 125.952 195.116 125.952 195.116H123.889C123.889 195.116 123.505 182.089 115.492 182.065H134.373Z" fill="black"/>
<path d="M119.355 206.512C123.913 201.953 123.913 195.116 123.913 195.116L125.952 195.092C125.952 195.092 125.952 202.073 130.391 206.512" fill="black"/>
<path d="M120.266 191.877C124.825 196.436 131.662 196.436 131.662 196.436V198.475C131.662 198.475 124.681 198.475 120.242 202.913" fill="black"/>
<path d="M129.407 191.853C124.849 196.411 118.011 196.411 118.011 196.411V198.451C118.011 198.451 124.993 198.451 129.431 202.889" fill="black"/>
<path d="M76.9698 103.435C76.9698 107.777 80.5924 111.304 85.0788 111.304C89.5651 111.304 93.1877 107.777 93.1877 103.435C93.1877 99.0927 89.5651 95.566 85.0788 95.566C80.5924 95.566 76.9698 99.0927 76.9698 103.435Z" fill="black"/>
<path d="M66.5097 118.334C66.5097 122.676 70.1323 126.203 74.6186 126.203C79.105 126.203 82.7276 122.676 82.7276 118.334C82.7276 113.991 79.105 110.464 74.6186 110.464C70.1323 110.464 66.5097 113.991 66.5097 118.334Z" fill="black"/>
<path d="M87.2859 118.381C87.2859 119.965 87.7658 121.452 88.6054 122.7C90.0449 124.835 92.564 126.251 95.3949 126.251C99.8813 126.251 103.504 122.724 103.504 118.381C103.504 114.039 99.8813 110.512 95.3949 110.512C90.9086 110.512 87.2859 114.039 87.2859 118.381Z" fill="black"/>
<path d="M75.5543 133.664C79.5608 133.664 81.672 130.401 82.7756 127.138C83.8792 123.875 83.9751 120.613 83.9751 120.613H86.0384C86.0384 120.613 86.4222 133.64 94.4352 133.664H75.5543Z" fill="black"/>
<path d="M90.5728 109.217C86.0144 113.775 86.0144 120.613 86.0144 120.613L83.9752 120.637C83.9752 120.637 83.9752 113.655 79.5369 109.217" fill="black"/>
<path d="M89.6611 123.852C85.1028 119.293 78.2653 119.293 78.2653 119.293V117.254C78.2653 117.254 85.2467 117.254 89.6851 112.816" fill="black"/>
<path d="M80.5205 123.875C85.0788 119.317 91.9162 119.317 91.9162 119.317V117.278C91.9162 117.278 84.9348 117.278 80.4965 112.84" fill="black"/>
</svg>
