<svg width="170" height="261" viewBox="0 0 170 261" fill="none" xmlns="http://www.w3.org/2000/svg">
<path d="M1.25073 245.185C1.25073 248.964 4.33958 252.052 8.11818 252.052H160.906C164.675 252.052 167.764 248.964 167.764 245.185V16.8699C167.764 13.0913 164.675 10.0024 160.906 10.0024H8.11818C4.33958 10.0024 1.25073 13.0913 1.25073 16.8699V245.185Z" fill="white" stroke="black" stroke-width="2.49907"/>
<path d="M16.0284 33.0205C14.3616 33.0205 12.8757 32.7138 11.5705 32.1006C10.2733 31.4873 9.2433 30.6421 8.48066 29.565C7.71802 28.4879 7.32098 27.2535 7.28953 25.8619H12.2428C12.2978 26.7975 12.6909 27.5562 13.4221 28.138C14.1533 28.7198 15.0221 29.0107 16.0284 29.0107C16.8304 29.0107 17.538 28.8338 18.1513 28.48C18.7724 28.1183 19.2559 27.6191 19.6019 26.9822C19.9557 26.3375 20.1326 25.5985 20.1326 24.7651C20.1326 23.9159 19.9517 23.169 19.5901 22.5243C19.2363 21.8796 18.7449 21.3764 18.1159 21.0148C17.4869 20.6531 16.7675 20.4683 15.9577 20.4605C15.2501 20.4605 14.5621 20.6059 13.8938 20.8968C13.2334 21.1877 12.7184 21.5848 12.3489 22.088L7.80844 21.2742L8.9524 8.53734H23.7178V12.7122H13.1626L12.5376 18.7622H12.6791C13.1037 18.1647 13.7445 17.6694 14.6014 17.2763C15.4584 16.8831 16.4176 16.6866 17.479 16.6866C18.9336 16.6866 20.2308 17.0286 21.3709 17.7126C22.5109 18.3966 23.4111 19.3362 24.0716 20.5312C24.732 21.7184 25.0583 23.0865 25.0504 24.6353C25.0583 26.2628 24.6809 27.7095 23.9182 28.9753C23.1635 30.2333 22.106 31.2239 20.7458 31.9473C19.3935 32.6627 17.821 33.0205 16.0284 33.0205Z" fill="#E6180A"/>
<path d="M153.986 228.038C155.653 228.038 157.139 228.344 158.444 228.958C159.741 229.571 160.771 230.416 161.534 231.493C162.296 232.57 162.693 233.805 162.725 235.196H157.771C157.716 234.261 157.323 233.502 156.592 232.92C155.861 232.338 154.992 232.048 153.986 232.048C153.184 232.048 152.476 232.224 151.863 232.578C151.242 232.94 150.758 233.439 150.412 234.076C150.059 234.721 149.882 235.46 149.882 236.293C149.882 237.142 150.062 237.889 150.424 238.534C150.778 239.179 151.269 239.682 151.898 240.043C152.527 240.405 153.247 240.59 154.057 240.598C154.764 240.598 155.452 240.452 156.12 240.161C156.781 239.87 157.296 239.473 157.665 238.97L162.206 239.784L161.062 252.521H146.296V248.346H156.852L157.477 242.296H157.335C156.911 242.894 156.27 243.389 155.413 243.782C154.556 244.175 153.597 244.372 152.535 244.372C151.081 244.372 149.783 244.03 148.643 243.346C147.503 242.662 146.603 241.722 145.943 240.527C145.282 239.34 144.956 237.972 144.964 236.423C144.956 234.795 145.333 233.349 146.096 232.083C146.851 230.825 147.908 229.834 149.268 229.111C150.621 228.395 152.193 228.038 153.986 228.038Z" fill="#E6180A"/>
<path d="M14.8957 60.1368C17.4547 60.1368 20.0138 60.1368 22.5728 60.1368C21.6984 60.0978 20.9544 59.532 20.2517 59.0644C18.6733 57.8736 17.1948 56.5082 16.0272 54.9107C15.4825 54.107 14.9101 53.2034 14.8957 52.1998M22.5728 60.1368C21.4632 60.1718 20.5156 60.8778 19.6699 61.5293C18.1755 62.7838 16.8819 64.2763 15.7903 65.8917C15.3895 66.5604 14.9177 67.2692 14.8957 68.0739C14.8957 65.4278 14.8957 62.7828 14.8957 60.1368M14.8957 68.0739C14.8577 66.8923 14.138 65.8687 13.4582 64.955C12.2467 63.4456 10.8112 62.1101 9.23178 60.9935C8.61801 60.6106 7.96625 60.1553 7.21853 60.1368C9.77757 60.1368 12.3366 60.1368 14.8957 60.1368M7.21853 60.1368C8.32811 60.1018 9.27576 59.3961 10.1214 58.7453C11.6159 57.4898 12.9094 55.9973 14.001 54.3819C14.4019 53.7132 14.8732 53.0045 14.8957 52.1998C14.8957 54.8458 14.8957 57.4908 14.8957 60.1368" fill="#E6180A"/>
<path d="M155.119 200.921C152.56 200.921 150 200.921 147.441 200.921C148.316 200.96 149.06 201.526 149.763 201.994C151.341 203.185 152.819 204.55 153.987 206.147C154.532 206.951 155.104 207.855 155.119 208.858M147.441 200.921C148.551 200.886 149.499 200.18 150.344 199.529C151.839 198.274 153.132 196.782 154.224 195.167C154.625 194.498 155.097 193.789 155.119 192.984C155.119 195.63 155.119 198.275 155.119 200.921M155.119 192.984C155.157 194.166 155.876 195.19 156.556 196.103C157.768 197.613 159.203 198.948 160.782 200.065C161.396 200.448 162.048 200.903 162.796 200.921C160.237 200.921 157.678 200.921 155.119 200.921M162.796 200.921C161.686 200.956 160.738 201.662 159.893 202.313C158.398 203.568 157.105 205.061 156.013 206.676C155.612 207.345 155.141 208.054 155.119 208.858C155.119 206.212 155.119 203.567 155.119 200.921" fill="#E6180A"/>
<path d="M45.0928 46.7492C51.2345 46.7492 57.3762 46.7492 63.5179 46.7492C61.4194 46.6557 59.6338 45.2978 57.9472 44.1755C54.159 41.3177 50.6107 38.0405 47.8086 34.2067C46.5011 32.2778 45.1273 30.109 45.0928 27.7003M63.5179 46.7492C60.8549 46.8332 58.5806 48.5277 56.5509 50.0912C52.9643 53.1021 49.8598 56.6839 47.24 60.5609C46.278 62.1659 45.1456 63.8669 45.0928 65.7982C45.0928 59.4477 45.0928 53.0997 45.0928 46.7492M45.0928 65.7982C45.0016 62.9624 43.2743 60.5057 41.6429 58.3129C38.7352 54.6903 35.29 51.4851 31.4995 48.8053C30.0264 47.8864 28.4622 46.7936 26.6677 46.7492C32.8094 46.7492 38.9511 46.7492 45.0928 46.7492M26.6677 46.7492C29.3307 46.6653 31.605 44.9715 33.6347 43.4097C37.2213 40.3964 40.3258 36.8145 42.9456 32.9376C43.9076 31.3326 45.0388 29.6316 45.0928 27.7003C45.0928 34.0508 45.0928 40.3988 45.0928 46.7492" fill="#E6180A"/>
<path d="M45.0929 210.161C38.9512 210.161 32.8094 210.161 26.6677 210.161C28.7662 210.254 30.5519 211.612 32.2385 212.735C36.0266 215.592 39.5749 218.87 42.3771 222.703C43.6846 224.632 45.0583 226.801 45.0929 229.21M26.6677 210.161C29.3307 210.077 31.6051 208.382 33.6347 206.819C37.2214 203.808 40.3258 200.226 42.9457 196.349C43.9077 194.744 45.0401 193.043 45.0929 191.112C45.0929 197.462 45.0929 203.81 45.0929 210.161M45.0929 191.112C45.184 193.948 46.9114 196.404 48.5428 198.597C51.4505 202.22 54.8956 205.425 58.6862 208.105C60.1593 209.024 61.7235 210.117 63.518 210.161C57.3763 210.161 51.2346 210.161 45.0929 210.161M63.518 210.161C60.855 210.245 58.5807 211.939 56.551 213.5C52.9643 216.514 49.8599 220.096 47.2401 223.973C46.278 225.578 45.1469 227.279 45.0929 229.21C45.0929 222.859 45.0929 216.511 45.0929 210.161" fill="#E6180A"/>
<path d="M124.921 46.7492C131.063 46.7492 137.204 46.7492 143.346 46.7492C141.247 46.6557 139.462 45.2978 137.775 44.1755C133.987 41.3177 130.439 38.0405 127.637 34.2067C126.329 32.2778 124.955 30.109 124.921 27.7003M143.346 46.7492C140.683 46.8332 138.409 48.5277 136.379 50.0912C132.792 53.1021 129.688 56.6839 127.068 60.5609C126.106 62.1659 124.974 63.8669 124.921 65.7982C124.921 59.4477 124.921 53.0997 124.921 46.7492M124.921 65.7982C124.83 62.9624 123.102 60.5057 121.471 58.3129C118.563 54.6903 115.118 51.4851 111.327 48.8053C109.854 47.8864 108.29 46.7936 106.496 46.7492C112.637 46.7492 118.779 46.7492 124.921 46.7492M106.496 46.7492C109.159 46.6653 111.433 44.9715 113.463 43.4097C117.049 40.3964 120.154 36.8145 122.774 32.9376C123.736 31.3326 124.867 29.6316 124.921 27.7003C124.921 34.0508 124.921 40.3988 124.921 46.7492" fill="#E6180A"/>
<path d="M124.921 210.161C118.779 210.161 112.637 210.161 106.496 210.161C108.594 210.254 110.38 211.612 112.066 212.735C115.855 215.592 119.403 218.87 122.205 222.703C123.512 224.632 124.886 226.801 124.921 229.21M106.496 210.161C109.159 210.077 111.433 208.382 113.463 206.819C117.049 203.808 120.154 200.226 122.774 196.349C123.736 194.744 124.868 193.043 124.921 191.112C124.921 197.462 124.921 203.81 124.921 210.161M124.921 191.112C125.012 193.948 126.739 196.404 128.371 198.597C131.278 202.22 134.724 205.425 138.514 208.105C139.987 209.024 141.551 210.117 143.346 210.161C137.204 210.161 131.062 210.161 124.921 210.161M143.346 210.161C140.683 210.245 138.409 211.939 136.379 213.5C132.792 216.514 129.688 220.096 127.068 223.973C126.106 225.578 124.975 227.279 124.921 229.21C124.921 222.859 124.921 216.511 124.921 210.161" fill="#E6180A"/>
<path d="M85.0068 123.662C91.1485 123.662 97.2902 123.662 103.432 123.662C101.333 123.568 99.5478 122.21 97.8612 121.088C94.073 118.23 90.5247 114.953 87.7226 111.119C86.4151 109.19 85.0413 107.022 85.0068 104.613M103.432 123.662C100.769 123.746 98.4946 125.44 96.4649 127.004C92.8783 130.015 89.7738 133.596 87.154 137.473C86.192 139.078 85.0596 140.779 85.0068 142.711C85.0068 136.36 85.0068 130.012 85.0068 123.662M85.0068 142.711C84.9156 139.875 83.1883 137.418 81.5569 135.225C78.6492 131.603 75.204 128.398 71.4135 125.718C69.9404 124.799 68.3762 123.706 66.5817 123.662C72.7234 123.662 78.8651 123.662 85.0068 123.662M66.5817 123.662C69.2447 123.578 71.519 121.884 73.5487 120.322C77.1353 117.309 80.2398 113.727 82.8596 109.85C83.8216 108.245 84.9528 106.544 85.0068 104.613C85.0068 110.963 85.0068 117.311 85.0068 123.662" fill="#E6180A"/>
</svg>
