<svg width="170" height="261" viewBox="0 0 170 261" fill="none" xmlns="http://www.w3.org/2000/svg">
<path d="M1.76349 245.185C1.76349 248.964 4.85234 252.052 8.63093 252.052H161.419C165.188 252.052 168.277 248.964 168.277 245.185V16.8699C168.277 13.0913 165.188 10.0024 161.419 10.0024H8.63093C4.85234 10.0024 1.76349 13.0913 1.76349 16.8699V245.185Z" fill="white" stroke="black" stroke-width="2.49907"/>
<path d="M16.9893 33.0205C15.7471 33.0126 14.5481 32.8042 13.3923 32.3954C12.2444 31.9866 11.2145 31.3222 10.3024 30.4023C9.3904 29.4824 8.66707 28.2638 8.13244 26.7464C7.60567 25.2289 7.34228 23.3656 7.34228 21.1563C7.35014 19.1278 7.58208 17.3156 8.03809 15.7195C8.50197 14.1156 9.1624 12.7554 10.0194 11.639C10.8842 10.5226 11.9181 9.67343 13.1211 9.09163C14.324 8.50196 15.6724 8.20712 17.1662 8.20712C18.778 8.20712 20.201 8.52161 21.4354 9.15059C22.6698 9.77171 23.6604 10.6169 24.4073 11.6862C25.1621 12.7554 25.6181 13.9544 25.7754 15.2832H20.7396C20.543 14.4419 20.1303 13.7815 19.5013 13.3019C18.8723 12.8223 18.0939 12.5825 17.1662 12.5825C15.5937 12.5825 14.3987 13.2665 13.581 14.6345C12.7712 16.0026 12.3584 17.862 12.3427 20.2128H12.5078C12.8695 19.4973 13.3569 18.888 13.9702 18.3848C14.5913 17.8738 15.295 17.4846 16.0812 17.2173C16.8753 16.9421 17.7126 16.8045 18.5932 16.8045C20.0241 16.8045 21.2978 17.1426 22.4143 17.8188C23.5307 18.487 24.4113 19.4069 25.056 20.5784C25.7007 21.7499 26.023 23.0904 26.023 24.6C26.023 26.2353 25.6417 27.6898 24.8791 28.9635C24.1243 30.2372 23.0668 31.2357 21.7067 31.9591C20.3543 32.6745 18.7819 33.0283 16.9893 33.0205ZM16.9657 29.0107C17.7519 29.0107 18.4556 28.822 19.0767 28.4446C19.6978 28.0672 20.1853 27.5562 20.5391 26.9115C20.8929 26.2668 21.0698 25.5434 21.0698 24.7415C21.0698 23.9395 20.8929 23.2201 20.5391 22.5833C20.1932 21.9464 19.7136 21.4393 19.1003 21.0619C18.4871 20.6846 17.7873 20.4959 17.0011 20.4959C16.4114 20.4959 15.865 20.6059 15.3618 20.8261C14.8665 21.0462 14.4301 21.3528 14.0527 21.746C13.6832 22.1391 13.3923 22.5951 13.18 23.114C12.9677 23.625 12.8616 24.1715 12.8616 24.7533C12.8616 25.5316 13.0385 26.2432 13.3923 26.8879C13.754 27.5326 14.2414 28.0476 14.8547 28.4328C15.4758 28.8181 16.1795 29.0107 16.9657 29.0107Z" fill="#E6180A"/>
<path d="M154.05 228.038C155.293 228.046 156.492 228.254 157.647 228.663C158.795 229.072 159.825 229.736 160.737 230.656C161.649 231.576 162.373 232.794 162.907 234.312C163.434 235.829 163.697 237.693 163.697 239.902C163.689 241.93 163.458 243.743 163.002 245.339C162.538 246.943 161.877 248.303 161.02 249.419C160.155 250.536 159.121 251.385 157.919 251.967C156.716 252.556 155.367 252.851 153.873 252.851C152.262 252.851 150.839 252.537 149.604 251.908C148.37 251.287 147.379 250.441 146.632 249.372C145.877 248.303 145.421 247.104 145.264 245.775H150.3C150.497 246.616 150.909 247.277 151.538 247.756C152.167 248.236 152.946 248.476 153.873 248.476C155.446 248.476 156.641 247.792 157.459 246.424C158.268 245.056 158.681 243.196 158.697 240.845H158.532C158.17 241.561 157.683 242.17 157.069 242.673C156.448 243.184 155.745 243.574 154.958 243.841C154.164 244.116 153.327 244.254 152.446 244.254C151.015 244.254 149.742 243.916 148.625 243.239C147.509 242.571 146.628 241.651 145.984 240.48C145.339 239.308 145.017 237.968 145.017 236.458C145.017 234.823 145.398 233.368 146.161 232.095C146.915 230.821 147.973 229.823 149.333 229.099C150.685 228.384 152.258 228.03 154.05 228.038ZM154.074 232.048C153.288 232.048 152.584 232.236 151.963 232.614C151.342 232.991 150.854 233.502 150.501 234.147C150.147 234.791 149.97 235.515 149.97 236.317C149.97 237.119 150.147 237.838 150.501 238.475C150.846 239.112 151.326 239.619 151.939 239.996C152.553 240.374 153.252 240.562 154.039 240.562C154.628 240.562 155.175 240.452 155.678 240.232C156.173 240.012 156.609 239.705 156.987 239.312C157.356 238.919 157.647 238.463 157.86 237.944C158.072 237.433 158.178 236.887 158.178 236.305C158.178 235.527 158.001 234.815 157.647 234.17C157.286 233.526 156.798 233.011 156.185 232.625C155.564 232.24 154.86 232.048 154.074 232.048Z" fill="#E6180A"/>
<path d="M15.4084 60.1368C17.9674 60.1368 20.5265 60.1368 23.0855 60.1368C22.2111 60.0978 21.4671 59.532 20.7644 59.0644C19.186 57.8736 17.7075 56.5082 16.5399 54.9107C15.9951 54.107 15.4228 53.2034 15.4084 52.1998M23.0855 60.1368C21.9759 60.1718 21.0283 60.8778 20.1826 61.5293C18.6881 62.7838 17.3946 64.2763 16.303 65.8917C15.9022 66.5604 15.4304 67.2692 15.4084 68.0739C15.4084 65.4278 15.4084 62.7828 15.4084 60.1368M15.4084 68.0739C15.3704 66.8923 14.6506 65.8687 13.9709 64.955C12.7594 63.4456 11.3239 62.1101 9.74447 60.9935C9.1307 60.6106 8.47894 60.1553 7.73122 60.1368C10.2903 60.1368 12.8493 60.1368 15.4084 60.1368M7.73122 60.1368C8.84081 60.1018 9.78846 59.3961 10.6341 58.7453C12.1286 57.4898 13.4221 55.9973 14.5137 54.3819C14.9145 53.7132 15.3859 53.0045 15.4084 52.1998C15.4084 54.8458 15.4084 57.4908 15.4084 60.1368" fill="#E6180A"/>
<path d="M155.631 200.921C153.072 200.921 150.513 200.921 147.954 200.921C148.828 200.96 149.572 201.526 150.275 201.994C151.854 203.185 153.332 204.55 154.5 206.147C155.044 206.951 155.617 207.855 155.631 208.858M147.954 200.921C149.064 200.886 150.011 200.18 150.857 199.529C152.351 198.274 153.645 196.782 154.737 195.167C155.137 194.498 155.609 193.789 155.631 192.984C155.631 195.63 155.631 198.275 155.631 200.921M155.631 192.984C155.669 194.166 156.389 195.19 157.069 196.103C158.28 197.613 159.716 198.948 161.295 200.065C161.909 200.448 162.561 200.903 163.308 200.921C160.749 200.921 158.19 200.921 155.631 200.921M163.308 200.921C162.199 200.956 161.251 201.662 160.405 202.313C158.911 203.568 157.618 205.061 156.526 206.676C156.125 207.345 155.654 208.054 155.631 208.858C155.631 206.212 155.631 203.567 155.631 200.921" fill="#E6180A"/>
<path d="M45.6057 46.7492C51.7475 46.7492 57.8892 46.7492 64.0309 46.7492C61.9324 46.6557 60.1467 45.2978 58.4602 44.1755C54.672 41.3177 51.1237 38.0405 48.3215 34.2067C47.014 32.2778 45.6403 30.109 45.6057 27.7003M64.0309 46.7492C61.3679 46.8332 59.0935 48.5277 57.0639 50.0912C53.4772 53.1021 50.3728 56.6839 47.7529 60.5609C46.7909 62.1659 45.6585 63.8669 45.6057 65.7982C45.6057 59.4477 45.6057 53.0997 45.6057 46.7492M45.6057 65.7982C45.5146 62.9624 43.7872 60.5057 42.1558 58.3129C39.2481 54.6903 35.803 51.4851 32.0124 48.8053C30.5393 47.8864 28.9751 46.7936 27.1806 46.7492C33.3223 46.7492 39.464 46.7492 45.6057 46.7492M27.1806 46.7492C29.8436 46.6653 32.118 44.9715 34.1476 43.4097C37.7343 40.3964 40.8387 36.8145 43.4585 32.9376C44.4206 31.3326 45.5518 29.6316 45.6057 27.7003C45.6057 34.0508 45.6057 40.3988 45.6057 46.7492" fill="#E6180A"/>
<path d="M45.6057 123.662C51.7475 123.662 57.8892 123.662 64.0309 123.662C61.9324 123.568 60.1467 122.21 58.4602 121.088C54.672 118.23 51.1237 114.953 48.3215 111.119C47.014 109.19 45.6403 107.022 45.6057 104.613M64.0309 123.662C61.3679 123.746 59.0935 125.44 57.0639 127.004C53.4772 130.015 50.3728 133.596 47.7529 137.473C46.7909 139.078 45.6585 140.779 45.6057 142.711C45.6057 136.36 45.6057 130.012 45.6057 123.662M45.6057 142.711C45.5146 139.875 43.7872 137.418 42.1558 135.225C39.2481 131.603 35.803 128.398 32.0124 125.718C30.5393 124.799 28.9751 123.706 27.1806 123.662C33.3223 123.662 39.464 123.662 45.6057 123.662M27.1806 123.662C29.8436 123.578 32.118 121.884 34.1476 120.322C37.7343 117.309 40.8387 113.727 43.4585 109.85C44.4206 108.245 45.5518 106.544 45.6057 104.613C45.6057 110.963 45.6057 117.311 45.6057 123.662" fill="#E6180A"/>
<path d="M45.6058 210.161C39.4641 210.161 33.3224 210.161 27.1807 210.161C29.2792 210.254 31.0648 211.612 32.7514 212.735C36.5396 215.592 40.0879 218.87 42.89 222.703C44.1975 224.632 45.5713 226.801 45.6058 229.21M27.1807 210.161C29.8437 210.077 32.118 208.382 34.1477 206.819C37.7343 203.808 40.8388 200.226 43.4586 196.349C44.4207 194.744 45.553 193.043 45.6058 191.112C45.6058 197.462 45.6058 203.81 45.6058 210.161M45.6058 191.112C45.697 193.948 47.4243 196.404 49.0557 198.597C51.9634 202.22 55.4086 205.425 59.1992 208.105C60.6722 209.024 62.2364 210.117 64.031 210.161C57.8892 210.161 51.7475 210.161 45.6058 210.161M64.031 210.161C61.3679 210.245 59.0936 211.939 57.0639 213.5C53.4773 216.514 50.3728 220.096 47.753 223.973C46.791 225.578 45.6598 227.279 45.6058 229.21C45.6058 222.859 45.6058 216.511 45.6058 210.161" fill="#E6180A"/>
<path d="M125.434 46.7492C131.575 46.7492 137.717 46.7492 143.859 46.7492C141.76 46.6557 139.975 45.2978 138.288 44.1755C134.5 41.3177 130.952 38.0405 128.149 34.2067C126.842 32.2778 125.468 30.109 125.434 27.7003M143.859 46.7492C141.196 46.8332 138.921 48.5277 136.892 50.0912C133.305 53.1021 130.201 56.6839 127.581 60.5609C126.619 62.1659 125.486 63.8669 125.434 65.7982C125.434 59.4477 125.434 53.0997 125.434 46.7492M125.434 65.7982C125.343 62.9624 123.615 60.5057 121.984 58.3129C119.076 54.6903 115.631 51.4851 111.84 48.8053C110.367 47.8864 108.803 46.7936 107.009 46.7492C113.15 46.7492 119.292 46.7492 125.434 46.7492M107.009 46.7492C109.672 46.6653 111.946 44.9715 113.976 43.4097C117.562 40.3964 120.667 36.8145 123.286 32.9376C124.249 31.3326 125.38 29.6316 125.434 27.7003C125.434 34.0508 125.434 40.3988 125.434 46.7492" fill="#E6180A"/>
<path d="M125.434 123.662C131.575 123.662 137.717 123.662 143.859 123.662C141.76 123.568 139.975 122.21 138.288 121.088C134.5 118.23 130.952 114.953 128.149 111.119C126.842 109.19 125.468 107.022 125.434 104.613M143.859 123.662C141.196 123.746 138.921 125.44 136.892 127.004C133.305 130.015 130.201 133.596 127.581 137.473C126.619 139.078 125.486 140.779 125.434 142.711C125.434 136.36 125.434 130.012 125.434 123.662M125.434 142.711C125.343 139.875 123.615 137.418 121.984 135.225C119.076 131.603 115.631 128.398 111.84 125.718C110.367 124.799 108.803 123.706 107.009 123.662C113.15 123.662 119.292 123.662 125.434 123.662M107.009 123.662C109.672 123.578 111.946 121.884 113.976 120.322C117.562 117.309 120.667 113.727 123.286 109.85C124.249 108.245 125.38 106.544 125.434 104.613C125.434 110.963 125.434 117.311 125.434 123.662" fill="#E6180A"/>
<path d="M125.434 210.161C119.292 210.161 113.15 210.161 107.008 210.161C109.107 210.254 110.893 211.612 112.579 212.735C116.367 215.592 119.916 218.87 122.718 222.703C124.025 224.632 125.399 226.801 125.434 229.21M107.008 210.161C109.671 210.077 111.946 208.382 113.975 206.819C117.562 203.808 120.667 200.226 123.286 196.349C124.248 194.744 125.381 193.043 125.434 191.112C125.434 197.462 125.434 203.81 125.434 210.161M125.434 191.112C125.525 193.948 127.252 196.404 128.884 198.597C131.791 202.22 135.236 205.425 139.027 208.105C140.5 209.024 142.064 210.117 143.859 210.161C137.717 210.161 131.575 210.161 125.434 210.161M143.859 210.161C141.196 210.245 138.921 211.939 136.892 213.5C133.305 216.514 130.201 220.096 127.581 223.973C126.619 225.578 125.488 227.279 125.434 229.21C125.434 222.859 125.434 216.511 125.434 210.161" fill="#E6180A"/>
</svg>
