<svg width="170" height="261" viewBox="0 0 170 261" fill="none" xmlns="http://www.w3.org/2000/svg">
<path d="M1.76349 245.233C1.76349 249.011 4.85234 252.1 8.63093 252.1H161.419C165.188 252.1 168.277 249.011 168.277 245.233V16.9175C168.277 13.1389 165.188 10.05 161.419 10.05H8.63093C4.85234 10.05 1.76349 13.1389 1.76349 16.9175V245.233Z" fill="white" stroke="black" stroke-width="2.49907"/>
<path d="M16.9893 33.0671C15.7471 33.0592 14.5481 32.8508 13.3923 32.442C12.2444 32.0332 11.2145 31.3688 10.3024 30.4489C9.3904 29.529 8.66707 28.3104 8.13244 26.793C7.60567 25.2755 7.34228 23.4122 7.34228 21.2029C7.35014 19.1744 7.58208 17.3622 8.03809 15.7661C8.50197 14.1622 9.1624 12.802 10.0194 11.6856C10.8842 10.5692 11.9181 9.72003 13.1211 9.13823C14.324 8.54856 15.6724 8.25372 17.1662 8.25372C18.778 8.25372 20.201 8.56821 21.4354 9.19719C22.6698 9.81831 23.6604 10.6635 24.4073 11.7328C25.1621 12.802 25.6181 14.001 25.7754 15.3298H20.7396C20.543 14.4885 20.1303 13.8281 19.5013 13.3485C18.8723 12.8689 18.0939 12.6291 17.1662 12.6291C15.5937 12.6291 14.3987 13.3131 13.581 14.6811C12.7712 16.0492 12.3584 17.9086 12.3427 20.2594H12.5078C12.8695 19.5439 13.3569 18.9346 13.9702 18.4314C14.5913 17.9204 15.295 17.5312 16.0812 17.2639C16.8753 16.9887 17.7126 16.8511 18.5932 16.8511C20.0241 16.8511 21.2978 17.1892 22.4143 17.8654C23.5307 18.5336 24.4113 19.4535 25.056 20.625C25.7007 21.7965 26.023 23.137 26.023 24.6466C26.023 26.2819 25.6417 27.7364 24.8791 29.0101C24.1243 30.2838 23.0668 31.2823 21.7067 32.0057C20.3543 32.7211 18.7819 33.0749 16.9893 33.0671ZM16.9657 29.0573C17.7519 29.0573 18.4556 28.8686 19.0767 28.4912C19.6978 28.1138 20.1853 27.6028 20.5391 26.9581C20.8929 26.3134 21.0698 25.59 21.0698 24.7881C21.0698 23.9861 20.8929 23.2667 20.5391 22.6299C20.1932 21.993 19.7136 21.4859 19.1003 21.1085C18.4871 20.7312 17.7873 20.5425 17.0011 20.5425C16.4114 20.5425 15.865 20.6525 15.3618 20.8727C14.8665 21.0928 14.4301 21.3994 14.0527 21.7926C13.6832 22.1857 13.3923 22.6417 13.18 23.1606C12.9677 23.6716 12.8616 24.2181 12.8616 24.7999C12.8616 25.5782 13.0385 26.2898 13.3923 26.9345C13.754 27.5792 14.2414 28.0942 14.8547 28.4794C15.4758 28.8647 16.1795 29.0573 16.9657 29.0573Z" fill="#E6180A"/>
<path d="M154.05 228.085C155.293 228.093 156.492 228.301 157.647 228.71C158.795 229.119 159.825 229.784 160.737 230.703C161.649 231.623 162.373 232.842 162.907 234.359C163.434 235.877 163.697 237.74 163.697 239.949C163.689 241.978 163.458 243.79 163.002 245.386C162.538 246.99 161.877 248.35 161.02 249.467C160.155 250.583 159.121 251.432 157.919 252.014C156.716 252.604 155.367 252.899 153.873 252.899C152.262 252.899 150.839 252.584 149.604 251.955C148.37 251.334 147.379 250.489 146.632 249.42C145.877 248.35 145.421 247.151 145.264 245.823H150.3C150.497 246.664 150.909 247.324 151.538 247.804C152.167 248.283 152.946 248.523 153.873 248.523C155.446 248.523 156.641 247.839 157.459 246.471C158.268 245.103 158.681 243.244 158.697 240.893H158.532C158.17 241.608 157.683 242.218 157.069 242.721C156.448 243.232 155.745 243.621 154.958 243.888C154.164 244.164 153.327 244.301 152.446 244.301C151.015 244.301 149.742 243.963 148.625 243.287C147.509 242.619 146.628 241.699 145.984 240.527C145.339 239.356 145.017 238.015 145.017 236.506C145.017 234.87 145.398 233.416 146.161 232.142C146.915 230.869 147.973 229.87 149.333 229.147C150.685 228.431 152.258 228.077 154.05 228.085ZM154.074 232.095C153.288 232.095 152.584 232.284 151.963 232.661C151.342 233.039 150.854 233.55 150.501 234.194C150.147 234.839 149.97 235.562 149.97 236.364C149.97 237.166 150.147 237.886 150.501 238.522C150.846 239.159 151.326 239.666 151.939 240.044C152.553 240.421 153.252 240.61 154.039 240.61C154.628 240.61 155.175 240.5 155.678 240.28C156.173 240.06 156.609 239.753 156.987 239.36C157.356 238.967 157.647 238.511 157.86 237.992C158.072 237.481 158.178 236.934 158.178 236.352C158.178 235.574 158.001 234.863 157.647 234.218C157.286 233.573 156.798 233.058 156.185 232.673C155.564 232.288 154.86 232.095 154.074 232.095Z" fill="#E6180A"/>
<path d="M23.0755 56.2548C23.0655 60.9631 17.1677 64.3918 15.4383 68.1204C13.689 64.4018 7.78119 61.0031 7.7412 56.2948C7.73121 54.0756 9.45057 52.2663 11.5598 52.2663C13.679 52.2663 15.4084 54.0557 15.4084 56.2748C15.4084 54.0457 17.1177 52.2463 19.2269 52.2463C21.3461 52.2363 23.0655 54.0357 23.0755 56.2548Z" fill="#E6180A"/>
<path d="M147.964 204.898C147.974 200.189 153.872 196.761 155.601 193.032C157.351 196.751 163.258 200.149 163.298 204.858C163.308 207.077 161.589 208.886 159.48 208.886C157.361 208.886 155.631 207.097 155.631 204.878C155.631 207.107 153.922 208.906 151.813 208.906C149.693 208.916 147.974 207.117 147.964 204.898Z" fill="#E6180A"/>
<path d="M64.0069 37.3677C63.9829 48.6675 49.8282 56.8964 45.6777 65.8451C41.4793 56.9204 27.3005 48.7634 27.2046 37.4636C27.1806 32.1376 31.3071 27.7952 36.3692 27.7952C41.4553 27.7952 45.6057 32.0896 45.6057 37.4157C45.6057 32.0657 49.7082 27.7473 54.7703 27.7473C59.8564 27.7233 63.9829 32.0417 64.0069 37.3677Z" fill="#E6180A"/>
<path d="M64.0069 114.281C63.9829 125.58 49.8282 133.809 45.6777 142.758C41.4793 133.833 27.3005 125.676 27.2046 114.377C27.1806 109.051 31.3071 104.708 36.3692 104.708C41.4553 104.708 45.6057 109.003 45.6057 114.329C45.6057 108.979 49.7082 104.66 54.7703 104.66C59.8564 104.636 63.9829 108.955 64.0069 114.281Z" fill="#E6180A"/>
<path d="M27.2046 219.637C27.2286 208.338 41.3833 200.109 45.5338 191.16C49.7322 200.085 63.9109 208.242 64.0069 219.541C64.0309 224.868 59.9044 229.21 54.8423 229.21C49.7562 229.21 45.6057 224.915 45.6057 219.589C45.6057 224.939 41.5033 229.258 36.4412 229.258C31.355 229.282 27.2286 224.963 27.2046 219.637Z" fill="#E6180A"/>
<path d="M143.835 37.3677C143.811 48.6675 129.656 56.8964 125.506 65.8451C121.307 56.9204 107.129 48.7634 107.033 37.4636C107.009 32.1376 111.135 27.7952 116.197 27.7952C121.283 27.7952 125.434 32.0896 125.434 37.4157C125.434 32.0657 129.536 27.7473 134.598 27.7473C139.684 27.7233 143.811 32.0417 143.835 37.3677Z" fill="#E6180A"/>
<path d="M143.835 114.281C143.811 125.58 129.656 133.809 125.506 142.758C121.307 133.833 107.129 125.676 107.033 114.377C107.009 109.051 111.135 104.708 116.197 104.708C121.283 104.708 125.434 109.003 125.434 114.329C125.434 108.979 129.536 104.66 134.598 104.66C139.684 104.636 143.811 108.955 143.835 114.281Z" fill="#E6180A"/>
<path d="M107.032 219.637C107.056 208.338 121.211 200.109 125.362 191.16C129.56 200.085 143.739 208.242 143.835 219.541C143.859 224.868 139.732 229.21 134.67 229.21C129.584 229.21 125.434 224.915 125.434 219.589C125.434 224.939 121.331 229.258 116.269 229.258C111.183 229.282 107.056 224.963 107.032 219.637Z" fill="#E6180A"/>
</svg>
