<svg width="170" height="261" viewBox="0 0 170 261" fill="none" xmlns="http://www.w3.org/2000/svg">
<path d="M1.76349 245.279C1.76349 249.058 4.85234 252.147 8.63093 252.147H161.419C165.188 252.147 168.277 249.058 168.277 245.279V16.9641C168.277 13.1855 165.188 10.0966 161.419 10.0966H8.63093C4.85234 10.0966 1.76349 13.1855 1.76349 16.9641V245.279Z" fill="white" stroke="black" stroke-width="2.49907"/>
<path d="M16.9893 33.1147C15.7471 33.1068 14.5481 32.8985 13.3923 32.4896C12.2444 32.0808 11.2145 31.4164 10.3024 30.4966C9.3904 29.5767 8.66707 28.358 8.13244 26.8406C7.60567 25.3232 7.34228 23.4598 7.34228 21.2505C7.35014 19.2221 7.58208 17.4098 8.03809 15.8138C8.50197 14.2099 9.1624 12.8497 10.0194 11.7332C10.8842 10.6168 11.9181 9.76767 13.1211 9.18586C14.324 8.59619 15.6724 8.30136 17.1662 8.30136C18.778 8.30136 20.201 8.61585 21.4354 9.24483C22.6698 9.86595 23.6604 10.7111 24.4073 11.7804C25.1621 12.8497 25.6181 14.0487 25.7754 15.3774H20.7396C20.543 14.5361 20.1303 13.8757 19.5013 13.3961C18.8723 12.9165 18.0939 12.6767 17.1662 12.6767C15.5937 12.6767 14.3987 13.3607 13.581 14.7288C12.7712 16.0968 12.3584 17.9562 12.3427 20.3071H12.5078C12.8695 19.5916 13.3569 18.9823 13.9702 18.4791C14.5913 17.968 15.295 17.5788 16.0812 17.3115C16.8753 17.0363 17.7126 16.8988 18.5932 16.8988C20.0241 16.8988 21.2978 17.2368 22.4143 17.913C23.5307 18.5813 24.4113 19.5012 25.056 20.6726C25.7007 21.8441 26.023 23.1846 26.023 24.6942C26.023 26.3296 25.6417 27.7841 24.8791 29.0578C24.1243 30.3315 23.0668 31.33 21.7067 32.0533C20.3543 32.7688 18.7819 33.1226 16.9893 33.1147ZM16.9657 29.1049C17.7519 29.1049 18.4556 28.9162 19.0767 28.5389C19.6978 28.1615 20.1853 27.6504 20.5391 27.0057C20.8929 26.361 21.0698 25.6377 21.0698 24.8357C21.0698 24.0338 20.8929 23.3144 20.5391 22.6775C20.1932 22.0407 19.7136 21.5336 19.1003 21.1562C18.4871 20.7788 17.7873 20.5901 17.0011 20.5901C16.4114 20.5901 15.865 20.7002 15.3618 20.9203C14.8665 21.1405 14.4301 21.4471 14.0527 21.8402C13.6832 22.2333 13.3923 22.6893 13.18 23.2082C12.9677 23.7193 12.8616 24.2657 12.8616 24.8475C12.8616 25.6259 13.0385 26.3374 13.3923 26.9821C13.754 27.6268 14.2414 28.1418 14.8547 28.5271C15.4758 28.9123 16.1795 29.1049 16.9657 29.1049Z" fill="black"/>
<path d="M154.05 228.132C155.293 228.14 156.492 228.348 157.647 228.757C158.795 229.166 159.825 229.83 160.737 230.75C161.649 231.67 162.373 232.889 162.907 234.406C163.434 235.923 163.697 237.787 163.697 239.996C163.689 242.025 163.458 243.837 163.002 245.433C162.538 247.037 161.877 248.397 161.02 249.513C160.155 250.63 159.121 251.479 157.919 252.061C156.716 252.65 155.367 252.945 153.873 252.945C152.262 252.945 150.839 252.631 149.604 252.002C148.37 251.381 147.379 250.535 146.632 249.466C145.877 248.397 145.421 247.198 145.264 245.869H150.3C150.497 246.71 150.909 247.371 151.538 247.85C152.167 248.33 152.946 248.57 153.873 248.57C155.446 248.57 156.641 247.886 157.459 246.518C158.268 245.15 158.681 243.29 158.697 240.94H158.532C158.17 241.655 157.683 242.264 157.069 242.768C156.448 243.279 155.745 243.668 154.958 243.935C154.164 244.21 153.327 244.348 152.446 244.348C151.015 244.348 149.742 244.01 148.625 243.334C147.509 242.665 146.628 241.745 145.984 240.574C145.339 239.402 145.017 238.062 145.017 236.552C145.017 234.917 145.398 233.463 146.161 232.189C146.915 230.915 147.973 229.917 149.333 229.193C150.685 228.478 152.258 228.124 154.05 228.132ZM154.074 232.142C153.288 232.142 152.584 232.33 151.963 232.708C151.342 233.085 150.854 233.596 150.501 234.241C150.147 234.886 149.97 235.609 149.97 236.411C149.97 237.213 150.147 237.932 150.501 238.569C150.846 239.206 151.326 239.713 151.939 240.09C152.553 240.468 153.252 240.657 154.039 240.657C154.628 240.657 155.175 240.546 155.678 240.326C156.173 240.106 156.609 239.8 156.987 239.406C157.356 239.013 157.647 238.557 157.86 238.038C158.072 237.527 158.178 236.981 158.178 236.399C158.178 235.621 158.001 234.909 157.647 234.264C157.286 233.62 156.798 233.105 156.185 232.72C155.564 232.334 154.86 232.142 154.074 232.142Z" fill="black"/>
<path d="M11.4898 68.1581C13.1592 68.1581 14.0388 66.3788 14.4987 64.5994C14.9585 62.8201 14.9985 61.0408 14.9985 61.0408L15.8482 61.0308C15.8482 61.0308 16.0081 68.1581 19.3469 68.1581H11.4898Z" fill="black"/>
<path d="M8.66084 61.0308C8.67084 57.5621 13.8789 55.043 15.4083 52.304C16.9378 55.053 22.1458 57.5721 22.1558 61.0308C22.1558 62.6702 20.6464 63.9997 18.7771 63.9997C16.9178 63.9997 15.4083 62.6702 15.4083 61.0308C15.4083 62.6702 13.8989 63.9997 12.0296 63.9997C10.1603 63.9997 8.66084 62.6702 8.66084 61.0308Z" fill="black"/>
<path d="M159.55 193.089C157.88 193.089 157.001 194.868 156.541 196.647C156.081 198.427 156.041 200.206 156.041 200.206L155.191 200.216C155.191 200.216 155.031 193.089 151.693 193.089H159.55Z" fill="black"/>
<path d="M162.379 200.216C162.369 203.685 157.161 206.204 155.631 208.943C154.102 206.194 148.894 203.675 148.884 200.216C148.884 198.577 150.393 197.247 152.262 197.247C154.122 197.247 155.631 198.577 155.631 200.216C155.631 198.577 157.141 197.247 159.01 197.247C160.879 197.247 162.379 198.577 162.379 200.216Z" fill="black"/>
<path d="M36.2012 65.8675C40.2078 65.8675 42.319 61.5971 43.4226 57.3267C44.5261 53.0563 44.6221 48.7859 44.6221 48.7859L46.6614 48.7619C46.6614 48.7619 47.0452 65.8675 55.0582 65.8675H36.2012Z" fill="black"/>
<path d="M29.4118 48.7619C29.4358 40.437 41.9351 34.3912 45.6058 27.8177C49.2764 34.4152 61.7758 40.461 61.7997 48.7619C61.7997 52.6964 58.1771 55.8872 53.6908 55.8872C49.2284 55.8872 45.6058 52.6964 45.6058 48.7619C45.6058 52.6964 41.9831 55.8872 37.4968 55.8872C33.0104 55.8872 29.4118 52.6964 29.4118 48.7619Z" fill="black"/>
<path d="M36.2012 142.78C40.2078 142.78 42.319 138.51 43.4226 134.24C44.5261 129.969 44.6221 125.699 44.6221 125.699L46.6614 125.675C46.6614 125.675 47.0452 142.78 55.0582 142.78H36.2012Z" fill="black"/>
<path d="M29.4118 125.675C29.4358 117.35 41.9351 111.304 45.6058 104.731C49.2764 111.328 61.7758 117.374 61.7997 125.675C61.7997 129.609 58.1771 132.8 53.6908 132.8C49.2284 132.8 45.6058 129.609 45.6058 125.675C45.6058 129.609 41.9831 132.8 37.4968 132.8C33.0104 132.8 29.4118 129.609 29.4118 125.675Z" fill="black"/>
<path d="M55.0102 191.23C51.0037 191.23 48.8925 195.501 47.7889 199.771C46.6853 204.042 46.5894 208.312 46.5894 208.312L44.5501 208.336C44.5501 208.336 44.1663 191.23 36.1533 191.23H55.0102Z" fill="black"/>
<path d="M61.7998 208.336C61.7758 216.661 49.2764 222.707 45.6058 229.28C41.9351 222.683 29.4358 216.637 29.4118 208.336C29.4118 204.402 33.0345 201.211 37.5208 201.211C41.9831 201.211 45.6058 204.402 45.6058 208.336C45.6058 204.402 49.2284 201.211 53.7148 201.211C58.2011 201.211 61.7998 204.402 61.7998 208.336Z" fill="black"/>
<path d="M116.029 65.8675C120.036 65.8675 122.147 61.5971 123.25 57.3267C124.354 53.0563 124.45 48.7859 124.45 48.7859L126.489 48.7619C126.489 48.7619 126.873 65.8675 134.886 65.8675H116.029Z" fill="black"/>
<path d="M109.24 48.7619C109.264 40.437 121.763 34.3912 125.434 27.8177C129.104 34.4152 141.604 40.461 141.628 48.7619C141.628 52.6964 138.005 55.8872 133.519 55.8872C129.056 55.8872 125.434 52.6964 125.434 48.7619C125.434 52.6964 121.811 55.8872 117.325 55.8872C112.838 55.8872 109.24 52.6964 109.24 48.7619Z" fill="black"/>
<path d="M116.029 142.78C120.036 142.78 122.147 138.51 123.25 134.24C124.354 129.969 124.45 125.699 124.45 125.699L126.489 125.675C126.489 125.675 126.873 142.78 134.886 142.78H116.029Z" fill="black"/>
<path d="M109.24 125.675C109.264 117.35 121.763 111.304 125.434 104.731C129.104 111.328 141.604 117.374 141.628 125.675C141.628 129.609 138.005 132.8 133.519 132.8C129.056 132.8 125.434 129.609 125.434 125.675C125.434 129.609 121.811 132.8 117.325 132.8C112.838 132.8 109.24 129.609 109.24 125.675Z" fill="black"/>
<path d="M134.838 191.23C130.832 191.23 128.72 195.501 127.617 199.771C126.513 204.042 126.417 208.312 126.417 208.312L124.378 208.336C124.378 208.336 123.994 191.23 115.981 191.23H134.838Z" fill="black"/>
<path d="M141.628 208.336C141.604 216.661 129.104 222.707 125.434 229.28C121.763 222.683 109.264 216.637 109.24 208.336C109.24 204.402 112.862 201.211 117.349 201.211C121.811 201.211 125.434 204.402 125.434 208.336C125.434 204.402 129.056 201.211 133.543 201.211C138.029 201.211 141.628 204.402 141.628 208.336Z" fill="black"/>
</svg>
