<svg width="170" height="261" viewBox="0 0 170 261" fill="none" xmlns="http://www.w3.org/2000/svg">
<path d="M1.27618 245.185C1.27618 248.964 4.36504 252.052 8.14363 252.052H160.932C164.7 252.052 167.789 248.964 167.789 245.185V16.8699C167.789 13.0913 164.7 10.0024 160.932 10.0024H8.14363C4.36504 10.0024 1.27618 13.0913 1.27618 16.8699V245.185Z" fill="white" stroke="black" stroke-width="2.49907"/>
<path d="M8.18769 32.6902L18.2003 12.8773V12.7122H6.53661V8.53734H23.4838V12.7712L13.4593 32.6902H8.18769Z" fill="#E6180A"/>
<path d="M161.872 228.368L151.86 248.181V248.346H163.524V252.521H146.576V248.287L156.601 228.368H161.872Z" fill="#E6180A"/>
<path d="M14.9211 60.1368C17.4802 60.1368 20.0392 60.1368 22.5983 60.1368C21.7239 60.0978 20.9799 59.532 20.2771 59.0644C18.6987 57.8736 17.2203 56.5082 16.0527 54.9107C15.5079 54.107 14.9355 53.2034 14.9211 52.1998M22.5983 60.1368C21.4887 60.1718 20.541 60.8778 19.6953 61.5293C18.2009 62.7838 16.9074 64.2763 15.8158 65.8917C15.4149 66.5604 14.9431 67.2692 14.9211 68.0739C14.9211 65.4278 14.9211 62.7828 14.9211 60.1368M14.9211 68.0739C14.8831 66.8923 14.1634 65.8687 13.4837 64.955C12.2721 63.4456 10.8366 62.1101 9.25723 60.9935C8.64346 60.6106 7.9917 60.1553 7.24398 60.1368C9.80303 60.1368 12.3621 60.1368 14.9211 60.1368M7.24398 60.1368C8.35357 60.1018 9.30121 59.3961 10.1469 58.7453C11.6413 57.4898 12.9349 55.9973 14.0265 54.3819C14.4273 53.7132 14.8986 53.0045 14.9211 52.1998C14.9211 54.8458 14.9211 57.4908 14.9211 60.1368" fill="#E6180A"/>
<path d="M155.139 200.921C152.58 200.921 150.021 200.921 147.462 200.921C148.336 200.96 149.08 201.526 149.783 201.994C151.361 203.185 152.84 204.55 154.007 206.147C154.552 206.951 155.125 207.855 155.139 208.858M147.462 200.921C148.571 200.886 149.519 200.18 150.365 199.529C151.859 198.274 153.153 196.782 154.244 195.167C154.645 194.498 155.117 193.789 155.139 192.984C155.139 195.63 155.139 198.275 155.139 200.921M155.139 192.984C155.177 194.166 155.897 195.19 156.576 196.103C157.788 197.613 159.223 198.948 160.803 200.065C161.417 200.448 162.068 200.903 162.816 200.921C160.257 200.921 157.698 200.921 155.139 200.921M162.816 200.921C161.706 200.956 160.759 201.662 159.913 202.313C158.419 203.568 157.125 205.061 156.034 206.676C155.633 207.345 155.161 208.054 155.139 208.858C155.139 206.212 155.139 203.567 155.139 200.921" fill="#E6180A"/>
<path d="M45.1186 46.7492C51.2603 46.7492 57.402 46.7492 63.5437 46.7492C61.4452 46.6557 59.6595 45.2978 57.973 44.1755C54.1848 41.3177 50.6365 38.0405 47.8343 34.2067C46.5268 32.2778 45.1531 30.109 45.1186 27.7003M63.5437 46.7492C60.8807 46.8332 58.6063 48.5277 56.5767 50.0912C52.99 53.1021 49.8856 56.6839 47.2658 60.5609C46.3037 62.1659 45.1713 63.8669 45.1186 65.7982C45.1186 59.4477 45.1186 53.0997 45.1186 46.7492M45.1186 65.7982C45.0274 62.9624 43.3 60.5057 41.6686 58.3129C38.7609 54.6903 35.3158 51.4851 31.5252 48.8053C30.0522 47.8864 28.4879 46.7936 26.6934 46.7492C32.8351 46.7492 38.9768 46.7492 45.1186 46.7492M26.6934 46.7492C29.3564 46.6653 31.6308 44.9715 33.6604 43.4097C37.2471 40.3964 40.3515 36.8145 42.9714 32.9376C43.9334 31.3326 45.0646 29.6316 45.1186 27.7003C45.1186 34.0508 45.1186 40.3988 45.1186 46.7492" fill="#E6180A"/>
<path d="M45.1186 123.662C51.2603 123.662 57.402 123.662 63.5437 123.662C61.4452 123.568 59.6595 122.21 57.973 121.088C54.1848 118.23 50.6365 114.953 47.8343 111.119C46.5268 109.19 45.1531 107.022 45.1186 104.613M63.5437 123.662C60.8807 123.746 58.6063 125.44 56.5767 127.004C52.99 130.015 49.8856 133.596 47.2658 137.473C46.3037 139.078 45.1713 140.779 45.1186 142.711C45.1186 136.36 45.1186 130.012 45.1186 123.662M45.1186 142.711C45.0274 139.875 43.3 137.418 41.6686 135.225C38.7609 131.603 35.3158 128.398 31.5252 125.718C30.0522 124.799 28.4879 123.706 26.6934 123.662C32.8351 123.662 38.9768 123.662 45.1186 123.662M26.6934 123.662C29.3564 123.578 31.6308 121.884 33.6604 120.322C37.2471 117.309 40.3515 113.727 42.9714 109.85C43.9334 108.245 45.0646 106.544 45.1186 104.613C45.1186 110.963 45.1186 117.311 45.1186 123.662" fill="#E6180A"/>
<path d="M45.1188 210.161C38.977 210.161 32.8353 210.161 26.6936 210.161C28.7921 210.254 30.5778 211.612 32.2643 212.735C36.0525 215.592 39.6008 218.87 42.403 222.703C43.7105 224.632 45.0842 226.801 45.1188 229.21M26.6936 210.161C29.3566 210.077 31.631 208.382 33.6606 206.819C37.2473 203.808 40.3517 200.226 42.9715 196.349C43.9336 194.744 45.066 193.043 45.1188 191.112C45.1188 197.462 45.1188 203.81 45.1188 210.161M45.1188 191.112C45.2099 193.948 46.9373 196.404 48.5687 198.597C51.4764 202.22 54.9215 205.425 58.7121 208.105C60.1851 209.024 61.7494 210.117 63.5439 210.161C57.4022 210.161 51.2605 210.161 45.1188 210.161M63.5439 210.161C60.8809 210.245 58.6065 211.939 56.5769 213.5C52.9902 216.514 49.8858 220.096 47.266 223.973C46.3039 225.578 45.1727 227.279 45.1188 229.21C45.1188 222.859 45.1188 216.511 45.1188 210.161" fill="#E6180A"/>
<path d="M124.947 46.7492C131.088 46.7492 137.23 46.7492 143.372 46.7492C141.273 46.6557 139.488 45.2978 137.801 44.1755C134.013 41.3177 130.465 38.0405 127.662 34.2067C126.355 32.2778 124.981 30.109 124.947 27.7003M143.372 46.7492C140.709 46.8332 138.434 48.5277 136.405 50.0912C132.818 53.1021 129.714 56.6839 127.094 60.5609C126.132 62.1659 124.999 63.8669 124.947 65.7982C124.947 59.4477 124.947 53.0997 124.947 46.7492M124.947 65.7982C124.855 62.9624 123.128 60.5057 121.497 58.3129C118.589 54.6903 115.144 51.4851 111.353 48.8053C109.88 47.8864 108.316 46.7936 106.521 46.7492C112.663 46.7492 118.805 46.7492 124.947 46.7492M106.521 46.7492C109.184 46.6653 111.459 44.9715 113.488 43.4097C117.075 40.3964 120.18 36.8145 122.799 32.9376C123.761 31.3326 124.893 29.6316 124.947 27.7003C124.947 34.0508 124.947 40.3988 124.947 46.7492" fill="#E6180A"/>
<path d="M124.947 123.662C131.088 123.662 137.23 123.662 143.372 123.662C141.273 123.568 139.488 122.21 137.801 121.088C134.013 118.23 130.465 114.953 127.662 111.119C126.355 109.19 124.981 107.022 124.947 104.613M143.372 123.662C140.709 123.746 138.434 125.44 136.405 127.004C132.818 130.015 129.714 133.596 127.094 137.473C126.132 139.078 124.999 140.779 124.947 142.711C124.947 136.36 124.947 130.012 124.947 123.662M124.947 142.711C124.855 139.875 123.128 137.418 121.497 135.225C118.589 131.603 115.144 128.398 111.353 125.718C109.88 124.799 108.316 123.706 106.521 123.662C112.663 123.662 118.805 123.662 124.947 123.662M106.521 123.662C109.184 123.578 111.459 121.884 113.488 120.322C117.075 117.309 120.18 113.727 122.799 109.85C123.761 108.245 124.893 106.544 124.947 104.613C124.947 110.963 124.947 117.311 124.947 123.662" fill="#E6180A"/>
<path d="M124.947 210.161C118.805 210.161 112.663 210.161 106.521 210.161C108.62 210.254 110.406 211.612 112.092 212.735C115.88 215.592 119.429 218.87 122.231 222.703C123.538 224.632 124.912 226.801 124.947 229.21M106.521 210.161C109.184 210.077 111.459 208.382 113.488 206.819C117.075 203.808 120.179 200.226 122.799 196.349C123.761 194.744 124.894 193.043 124.947 191.112C124.947 197.462 124.947 203.81 124.947 210.161M124.947 191.112C125.038 193.948 126.765 196.404 128.396 198.597C131.304 202.22 134.749 205.425 138.54 208.105C140.013 209.024 141.577 210.117 143.372 210.161C137.23 210.161 131.088 210.161 124.947 210.161M143.372 210.161C140.709 210.245 138.434 211.939 136.405 213.5C132.818 216.514 129.714 220.096 127.094 223.973C126.132 225.578 125 227.279 124.947 229.21C124.947 222.859 124.947 216.511 124.947 210.161" fill="#E6180A"/>
<path d="M85.0326 100.885C91.1743 100.885 97.316 100.885 103.458 100.885C101.359 100.792 99.5736 99.4339 97.887 98.3116C94.0988 95.4538 90.5506 92.1766 87.7484 88.3428C86.4409 86.4139 85.0672 84.2451 85.0326 81.8364M103.458 100.885C100.795 100.969 98.5204 102.664 96.4908 104.227C92.9041 107.238 89.7996 110.82 87.1798 114.697C86.2178 116.302 85.0854 118.003 85.0326 119.934C85.0326 113.584 85.0326 107.236 85.0326 100.885M85.0326 119.934C84.9415 117.099 83.2141 114.642 81.5827 112.449C78.675 108.826 75.2299 105.621 71.4393 102.941C69.9662 102.023 68.402 100.93 66.6075 100.885C72.7492 100.885 78.8909 100.885 85.0326 100.885M66.6075 100.885C69.2705 100.801 71.5448 99.1076 73.5745 97.5458C77.1611 94.5325 80.2656 90.9506 82.8854 87.0737C83.8475 85.4687 84.9786 83.7677 85.0326 81.8364C85.0326 88.1869 85.0326 94.5349 85.0326 100.885" fill="#E6180A"/>
</svg>
