<svg width="170" height="261" viewBox="0 0 170 261" fill="none" xmlns="http://www.w3.org/2000/svg">
<path d="M1.27618 245.233C1.27618 249.011 4.36504 252.1 8.14363 252.1H160.932C164.7 252.1 167.789 249.011 167.789 245.233V16.9175C167.789 13.1389 164.7 10.05 160.932 10.05H8.14363C4.36504 10.05 1.27618 13.1389 1.27618 16.9175V245.233Z" fill="white" stroke="black" stroke-width="2.49907"/>
<path d="M8.18769 32.7368L18.2003 12.9239V12.7588H6.53661V8.58394H23.4838V12.8178L13.4593 32.7368H8.18769Z" fill="#E6180A"/>
<path d="M161.872 228.415L151.86 248.228V248.394H163.524V252.568H146.576V248.335L156.601 228.415H161.872Z" fill="#E6180A"/>
<path d="M22.5883 56.2548C22.5783 60.9631 16.6805 64.3918 14.9511 68.1204C13.2017 64.4018 7.29394 61.0031 7.25396 56.2948C7.24396 54.0756 8.96332 52.2663 11.0725 52.2663C13.1918 52.2663 14.9211 54.0557 14.9211 56.2748C14.9211 54.0457 16.6305 52.2463 18.7397 52.2463C20.8589 52.2363 22.5783 54.0357 22.5883 56.2548Z" fill="#E6180A"/>
<path d="M147.472 204.898C147.482 200.189 153.38 196.761 155.109 193.032C156.858 196.751 162.766 200.149 162.806 204.858C162.816 207.077 161.097 208.886 158.988 208.886C156.868 208.886 155.139 207.097 155.139 204.878C155.139 207.107 153.43 208.906 151.32 208.906C149.201 208.916 147.482 207.117 147.472 204.898Z" fill="#E6180A"/>
<path d="M63.5198 37.3677C63.4958 48.6675 49.341 56.8964 45.1906 65.8451C40.9922 56.9204 26.8134 48.7634 26.7175 37.4636C26.6935 32.1376 30.8199 27.7952 35.8821 27.7952C40.9682 27.7952 45.1186 32.0896 45.1186 37.4157C45.1186 32.0657 49.2211 27.7473 54.2832 27.7473C59.3693 27.7233 63.4958 32.0417 63.5198 37.3677Z" fill="#E6180A"/>
<path d="M63.5198 114.281C63.4958 125.58 49.341 133.809 45.1906 142.758C40.9922 133.833 26.8134 125.676 26.7175 114.377C26.6935 109.051 30.8199 104.708 35.8821 104.708C40.9682 104.708 45.1186 109.003 45.1186 114.329C45.1186 108.979 49.2211 104.66 54.2832 104.66C59.3693 104.636 63.4958 108.955 63.5198 114.281Z" fill="#E6180A"/>
<path d="M26.7174 219.637C26.7414 208.338 40.8961 200.109 45.0466 191.16C49.245 200.085 63.4238 208.242 63.5197 219.541C63.5437 224.868 59.4172 229.21 54.3551 229.21C49.269 229.21 45.1186 224.915 45.1186 219.589C45.1186 224.939 41.0161 229.258 35.954 229.258C30.8679 229.282 26.7414 224.963 26.7174 219.637Z" fill="#E6180A"/>
<path d="M143.348 37.3677C143.324 48.6675 129.169 56.8964 125.019 65.8451C120.82 56.9204 106.641 48.7634 106.545 37.4636C106.521 32.1376 110.648 27.7952 115.71 27.7952C120.796 27.7952 124.947 32.0896 124.947 37.4157C124.947 32.0657 129.049 27.7473 134.111 27.7473C139.197 27.7233 143.324 32.0417 143.348 37.3677Z" fill="#E6180A"/>
<path d="M143.348 114.281C143.324 125.58 129.169 133.809 125.019 142.758C120.82 133.833 106.641 125.676 106.545 114.377C106.521 109.051 110.648 104.708 115.71 104.708C120.796 104.708 124.947 109.003 124.947 114.329C124.947 108.979 129.049 104.66 134.111 104.66C139.197 104.636 143.324 108.955 143.348 114.281Z" fill="#E6180A"/>
<path d="M106.545 219.637C106.569 208.338 120.724 200.109 124.874 191.16C129.073 200.085 143.252 208.242 143.348 219.541C143.372 224.868 139.245 229.21 134.183 229.21C129.097 229.21 124.946 224.915 124.946 219.589C124.946 224.939 120.844 229.258 115.782 229.258C110.696 229.282 106.569 224.963 106.545 219.637Z" fill="#E6180A"/>
<path d="M103.434 91.5035C103.41 102.803 89.2551 111.032 85.1047 119.981C80.9062 111.056 66.7275 102.899 66.6315 91.5995C66.6075 86.2735 70.734 81.9311 75.7961 81.9311C80.8822 81.9311 85.0327 86.2255 85.0327 91.5515C85.0327 86.2015 89.1352 81.8831 94.1973 81.8831C99.2834 81.8591 103.41 86.1775 103.434 91.5035Z" fill="#E6180A"/>
</svg>
