<svg width="170" height="252" viewBox="0 0 170 252" fill="none" xmlns="http://www.w3.org/2000/svg">
<path d="M1.78394 236.138C1.78394 239.917 4.87279 243.006 8.65138 243.006H161.44C165.208 243.006 168.297 239.917 168.297 236.138V7.82327C168.297 4.04467 165.208 0.955811 161.44 0.955811H8.65138C4.87279 0.955811 1.78394 4.04467 1.78394 7.82327V236.138Z" fill="white" stroke="black" stroke-width="2.49907"/>
<path d="M16.7502 23.9738C14.934 23.9738 13.3183 23.679 11.9031 23.0893C10.4958 22.4918 9.39113 21.678 8.58918 20.6481C7.78723 19.6181 7.38625 18.4506 7.38625 17.1454C7.38625 16.1391 7.61426 15.2153 8.07027 14.374C8.53415 13.5249 9.16313 12.8212 9.95722 12.263C10.7513 11.6969 11.6397 11.3352 12.6225 11.178V11.0129C11.3331 10.7534 10.2874 10.1284 9.48548 9.13772C8.68353 8.13921 8.28255 6.97952 8.28255 5.65866C8.28255 4.40856 8.64815 3.29605 9.37934 2.32112C10.1105 1.33834 11.113 0.567837 12.3867 0.00961546C13.6682 -0.556468 15.1227 -0.83951 16.7502 -0.83951C18.3777 -0.83951 19.8283 -0.556468 21.102 0.00961546C22.3835 0.575699 23.3899 1.35013 24.1211 2.33292C24.8523 3.30784 25.2218 4.41642 25.2297 5.65866C25.2218 6.98739 24.813 8.14707 24.0032 9.13772C23.1934 10.1284 22.1555 10.7534 20.8897 11.0129V11.178C21.8568 11.3352 22.7334 11.6969 23.5196 12.263C24.3137 12.8212 24.9427 13.5249 25.4066 14.374C25.8783 15.2153 26.1181 16.1391 26.126 17.1454C26.1181 18.4506 25.7132 19.6181 24.9113 20.6481C24.1093 21.678 23.0007 22.4918 21.5855 23.0893C20.1782 23.679 18.5664 23.9738 16.7502 23.9738ZM16.7502 20.2235C17.56 20.2235 18.2676 20.0781 18.873 19.7872C19.4784 19.4884 19.9502 19.0796 20.2882 18.5607C20.6342 18.0339 20.8072 17.4285 20.8072 16.7445C20.8072 16.0447 20.6303 15.4275 20.2765 14.8929C19.9227 14.3504 19.4431 13.9258 18.8377 13.6192C18.2323 13.3047 17.5365 13.1475 16.7502 13.1475C15.9719 13.1475 15.276 13.3047 14.6628 13.6192C14.0495 13.9258 13.566 14.3504 13.2122 14.8929C12.8663 15.4275 12.6933 16.0447 12.6933 16.7445C12.6933 17.4285 12.8623 18.0339 13.2004 18.5607C13.5385 19.0796 14.0142 19.4884 14.6274 19.7872C15.2407 20.0781 15.9483 20.2235 16.7502 20.2235ZM16.7502 9.43255C17.4264 9.43255 18.0278 9.29496 18.5546 9.01978C19.0814 8.7446 19.4942 8.36328 19.7929 7.87582C20.0917 7.38836 20.2411 6.82621 20.2411 6.18936C20.2411 5.56038 20.0917 5.01002 19.7929 4.53829C19.4942 4.05869 19.0853 3.68523 18.5664 3.41791C18.0475 3.14273 17.4421 3.00514 16.7502 3.00514C16.0662 3.00514 15.4608 3.14273 14.934 3.41791C14.4073 3.68523 13.9945 4.05869 13.6957 4.53829C13.4048 5.01002 13.2594 5.56038 13.2594 6.18936C13.2594 6.82621 13.4088 7.38836 13.7075 7.87582C14.0063 8.36328 14.4191 8.7446 14.9458 9.01978C15.4726 9.29496 16.0741 9.43255 16.7502 9.43255Z" fill="black"/>
<path d="M154.335 218.991C156.151 218.991 157.767 219.286 159.182 219.876C160.59 220.473 161.694 221.287 162.496 222.317C163.298 223.347 163.699 224.514 163.699 225.819C163.699 226.826 163.471 227.75 163.015 228.591C162.551 229.44 161.922 230.144 161.128 230.702C160.334 231.268 159.446 231.63 158.463 231.787V231.952C159.752 232.211 160.798 232.837 161.6 233.827C162.402 234.826 162.803 235.985 162.803 237.306C162.803 238.556 162.437 239.669 161.706 240.644C160.975 241.627 159.972 242.397 158.699 242.955C157.417 243.521 155.963 243.804 154.335 243.804C152.708 243.804 151.257 243.521 149.983 242.955C148.702 242.389 147.695 241.615 146.964 240.632C146.233 239.657 145.864 238.548 145.856 237.306C145.864 235.978 146.272 234.818 147.082 233.827C147.892 232.837 148.93 232.211 150.196 231.952V231.787C149.229 231.63 148.352 231.268 147.566 230.702C146.772 230.144 146.143 229.44 145.679 228.591C145.207 227.75 144.967 226.826 144.959 225.819C144.967 224.514 145.372 223.347 146.174 222.317C146.976 221.287 148.085 220.473 149.5 219.876C150.907 219.286 152.519 218.991 154.335 218.991ZM154.335 222.741C153.525 222.741 152.818 222.887 152.212 223.178C151.607 223.477 151.135 223.885 150.797 224.404C150.451 224.931 150.278 225.536 150.278 226.22C150.278 226.92 150.455 227.537 150.809 228.072C151.163 228.614 151.642 229.039 152.248 229.346C152.853 229.66 153.549 229.817 154.335 229.817C155.113 229.817 155.809 229.66 156.423 229.346C157.036 229.039 157.519 228.614 157.873 228.072C158.219 227.537 158.392 226.92 158.392 226.22C158.392 225.536 158.223 224.931 157.885 224.404C157.547 223.885 157.071 223.477 156.458 223.178C155.845 222.887 155.137 222.741 154.335 222.741ZM154.335 233.532C153.659 233.532 153.057 233.67 152.531 233.945C152.004 234.22 151.591 234.602 151.292 235.089C150.994 235.577 150.844 236.139 150.844 236.776C150.844 237.405 150.994 237.955 151.292 238.427C151.591 238.906 152 239.28 152.519 239.547C153.038 239.822 153.643 239.96 154.335 239.96C155.019 239.96 155.625 239.822 156.151 239.547C156.678 239.28 157.091 238.906 157.39 238.427C157.681 237.955 157.826 237.405 157.826 236.776C157.826 236.139 157.677 235.577 157.378 235.089C157.079 234.602 156.666 234.22 156.139 233.945C155.613 233.67 155.011 233.532 154.335 233.532Z" fill="black"/>
<path d="M12.0801 46.4319C12.0801 48.2412 13.5895 49.7107 15.4588 49.7107C17.3281 49.7107 18.8375 48.2412 18.8375 46.4319C18.8375 44.6226 17.3281 43.1531 15.4588 43.1531C13.5895 43.1531 12.0801 44.6226 12.0801 46.4319Z" fill="black"/>
<path d="M7.72168 52.6396C7.72168 54.4489 9.23112 55.9184 11.1004 55.9184C12.9697 55.9184 14.4792 54.4489 14.4792 52.6396C14.4792 50.8303 12.9697 49.3608 11.1004 49.3608C9.23112 49.3608 7.72168 50.8303 7.72168 52.6396Z" fill="black"/>
<path d="M16.3784 52.6596C16.3784 53.3193 16.5783 53.9391 16.9282 54.4589C17.5279 55.3486 18.5776 55.9384 19.7571 55.9384C21.6264 55.9384 23.1359 54.4689 23.1359 52.6596C23.1359 50.8502 21.6264 49.3808 19.7571 49.3808C17.8878 49.3808 16.3784 50.8502 16.3784 52.6596Z" fill="black"/>
<path d="M11.4903 59.0272C13.1597 59.0272 14.0393 57.6677 14.4992 56.3082C14.959 54.9487 14.999 53.5892 14.999 53.5892H15.8587C15.8587 53.5892 16.0186 59.0172 19.3574 59.0272H11.4903Z" fill="black"/>
<path d="M17.7479 48.841C15.8486 50.7403 15.8486 53.5892 15.8486 53.5892L14.9989 53.5992C14.9989 53.5992 14.9989 50.6903 13.1496 48.841" fill="black"/>
<path d="M17.368 54.9387C15.4687 53.0394 12.6198 53.0394 12.6198 53.0394V52.1897C12.6198 52.1897 15.5287 52.1897 17.378 50.3404" fill="black"/>
<path d="M13.5595 54.9487C15.4588 53.0494 18.3077 53.0494 18.3077 53.0494V52.1998C18.3077 52.1998 15.3988 52.1998 13.5495 50.3504" fill="black"/>
<path d="M159.005 196.533C159.005 194.724 157.496 193.254 155.627 193.254C153.757 193.254 152.248 194.724 152.248 196.533C152.248 198.342 153.757 199.812 155.627 199.812C157.496 199.812 159.005 198.342 159.005 196.533Z" fill="black"/>
<path d="M163.364 190.325C163.364 188.516 161.854 187.047 159.985 187.047C158.116 187.047 156.606 188.516 156.606 190.325C156.606 192.135 158.116 193.604 159.985 193.604C161.854 193.604 163.364 192.135 163.364 190.325Z" fill="black"/>
<path d="M154.707 190.305C154.707 189.646 154.507 189.026 154.157 188.506C153.557 187.616 152.508 187.027 151.328 187.027C149.459 187.027 147.949 188.496 147.949 190.305C147.949 192.115 149.459 193.584 151.328 193.584C153.198 193.584 154.707 192.115 154.707 190.305Z" fill="black"/>
<path d="M159.595 183.938C157.926 183.938 157.046 185.297 156.586 186.657C156.126 188.016 156.086 189.376 156.086 189.376H155.227C155.227 189.376 155.067 183.948 151.728 183.938H159.595Z" fill="black"/>
<path d="M153.337 194.124C155.237 192.225 155.237 189.376 155.237 189.376L156.086 189.366C156.086 189.366 156.086 192.275 157.936 194.124" fill="black"/>
<path d="M153.717 188.026C155.617 189.926 158.466 189.926 158.466 189.926V190.775C158.466 190.775 155.557 190.775 153.707 192.625" fill="black"/>
<path d="M157.526 188.016C155.627 189.916 152.778 189.916 152.778 189.916V190.765C152.778 190.765 155.687 190.765 157.536 192.615" fill="black"/>
<path d="M37.5946 26.5223C37.5946 30.8647 41.2172 34.3914 45.7036 34.3914C50.1899 34.3914 53.8126 30.8647 53.8126 26.5223C53.8126 22.1799 50.1899 18.6532 45.7036 18.6532C41.2172 18.6532 37.5946 22.1799 37.5946 26.5223Z" fill="black"/>
<path d="M27.1345 41.4207C27.1345 45.7631 30.7571 49.2898 35.2435 49.2898C39.7298 49.2898 43.3524 45.7631 43.3524 41.4207C43.3524 37.0783 39.7298 33.5516 35.2435 33.5516C30.7571 33.5516 27.1345 37.0783 27.1345 41.4207Z" fill="black"/>
<path d="M47.9107 41.4687C47.9107 43.0521 48.3905 44.5396 49.2302 45.7871C50.6697 47.9223 53.1887 49.3378 56.0197 49.3378C60.506 49.3378 64.1287 45.8111 64.1287 41.4687C64.1287 37.1263 60.506 33.5996 56.0197 33.5996C51.5333 33.5996 47.9107 37.1263 47.9107 41.4687Z" fill="black"/>
<path d="M36.179 56.751C40.1855 56.751 42.2968 53.4883 43.4003 50.2255C44.5039 46.9627 44.5999 43.6999 44.5999 43.6999H46.6631C46.6631 43.6999 47.047 56.727 55.06 56.751H36.179Z" fill="black"/>
<path d="M51.1976 32.3041C46.6393 36.8624 46.6393 43.6999 46.6393 43.6999L44.6 43.7239C44.6 43.7239 44.6 36.7425 40.1617 32.3041" fill="black"/>
<path d="M50.2858 46.9387C45.7275 42.3804 38.8901 42.3804 38.8901 42.3804V40.3411C38.8901 40.3411 45.8715 40.3411 50.3098 35.9028" fill="black"/>
<path d="M41.1453 46.9626C45.7036 42.4043 52.5411 42.4043 52.5411 42.4043V40.3651C52.5411 40.3651 45.5596 40.3651 41.1213 35.9268" fill="black"/>
<path d="M37.5946 80.6584C37.5946 85.0008 41.2172 88.5275 45.7036 88.5275C50.1899 88.5275 53.8126 85.0008 53.8126 80.6584C53.8126 76.316 50.1899 72.7893 45.7036 72.7893C41.2172 72.7893 37.5946 76.316 37.5946 80.6584Z" fill="black"/>
<path d="M27.1345 95.5568C27.1345 99.8992 30.7571 103.426 35.2435 103.426C39.7298 103.426 43.3524 99.8992 43.3524 95.5568C43.3524 91.2144 39.7298 87.6878 35.2435 87.6878C30.7571 87.6878 27.1345 91.2144 27.1345 95.5568Z" fill="black"/>
<path d="M47.9107 95.6048C47.9107 97.1882 48.3905 98.6757 49.2302 99.9232C50.6697 102.058 53.1887 103.474 56.0197 103.474C60.506 103.474 64.1287 99.9472 64.1287 95.6048C64.1287 91.2624 60.506 87.7357 56.0197 87.7357C51.5333 87.7357 47.9107 91.2624 47.9107 95.6048Z" fill="black"/>
<path d="M36.179 110.887C40.1855 110.887 42.2968 107.624 43.4003 104.362C44.5039 101.099 44.5999 97.836 44.5999 97.836H46.6631C46.6631 97.836 47.047 110.863 55.06 110.887H36.179Z" fill="black"/>
<path d="M51.1976 86.4402C46.6393 90.9985 46.6393 97.836 46.6393 97.836L44.6 97.86C44.6 97.86 44.6 90.8786 40.1617 86.4402" fill="black"/>
<path d="M50.2858 101.075C45.7275 96.5165 38.8901 96.5165 38.8901 96.5165V94.4772C38.8901 94.4772 45.8715 94.4772 50.3098 90.0389" fill="black"/>
<path d="M41.1453 101.099C45.7036 96.5405 52.5411 96.5405 52.5411 96.5405V94.5013C52.5411 94.5013 45.5596 94.5013 41.1213 90.0629" fill="black"/>
<path d="M53.6685 158.157C53.6685 153.815 50.0458 150.288 45.5595 150.288C41.0732 150.288 37.4505 153.815 37.4505 158.157C37.4505 162.5 41.0732 166.027 45.5595 166.027C50.0458 166.027 53.6685 162.5 53.6685 158.157Z" fill="black"/>
<path d="M64.1287 143.259C64.1287 138.917 60.506 135.39 56.0197 135.39C51.5334 135.39 47.9107 138.917 47.9107 143.259C47.9107 147.601 51.5334 151.128 56.0197 151.128C60.506 151.128 64.1287 147.601 64.1287 143.259Z" fill="black"/>
<path d="M43.3524 143.211C43.3524 141.628 42.8725 140.14 42.0329 138.893C40.5934 136.757 38.0743 135.342 35.2434 135.342C30.7571 135.342 27.1344 138.869 27.1344 143.211C27.1344 147.553 30.7571 151.08 35.2434 151.08C39.7297 151.08 43.3524 147.553 43.3524 143.211Z" fill="black"/>
<path d="M55.084 127.929C51.0775 127.929 48.9663 131.191 47.8627 134.454C46.7591 137.717 46.6632 140.98 46.6632 140.98H44.5999C44.5999 140.98 44.2161 127.953 36.203 127.929H55.084Z" fill="black"/>
<path d="M40.0656 152.376C44.6239 147.817 44.6239 140.98 44.6239 140.98L46.6632 140.956C46.6632 140.956 46.6632 147.937 51.1015 152.376" fill="black"/>
<path d="M40.9772 137.741C45.5355 142.299 52.373 142.299 52.373 142.299V144.339C52.373 144.339 45.3916 144.339 40.9532 148.777" fill="black"/>
<path d="M50.1179 137.717C45.5596 142.275 38.7221 142.275 38.7221 142.275V144.315C38.7221 144.315 45.7035 144.315 50.1419 148.753" fill="black"/>
<path d="M53.6685 212.294C53.6685 207.951 50.0458 204.424 45.5595 204.424C41.0732 204.424 37.4505 207.951 37.4505 212.294C37.4505 216.636 41.0732 220.163 45.5595 220.163C50.0458 220.163 53.6685 216.636 53.6685 212.294Z" fill="black"/>
<path d="M64.1287 197.395C64.1287 193.053 60.506 189.526 56.0197 189.526C51.5334 189.526 47.9107 193.053 47.9107 197.395C47.9107 201.738 51.5334 205.264 56.0197 205.264C60.506 205.264 64.1287 201.738 64.1287 197.395Z" fill="black"/>
<path d="M43.3524 197.347C43.3524 195.764 42.8725 194.276 42.0329 193.029C40.5934 190.894 38.0743 189.478 35.2434 189.478C30.7571 189.478 27.1344 193.005 27.1344 197.347C27.1344 201.69 30.7571 205.216 35.2434 205.216C39.7297 205.216 43.3524 201.69 43.3524 197.347Z" fill="black"/>
<path d="M55.084 182.065C51.0775 182.065 48.9663 185.328 47.8627 188.59C46.7591 191.853 46.6632 195.116 46.6632 195.116H44.5999C44.5999 195.116 44.2161 182.089 36.203 182.065H55.084Z" fill="black"/>
<path d="M40.0656 206.512C44.6239 201.953 44.6239 195.116 44.6239 195.116L46.6632 195.092C46.6632 195.092 46.6632 202.073 51.1015 206.512" fill="black"/>
<path d="M40.9772 191.877C45.5355 196.436 52.373 196.436 52.373 196.436V198.475C52.373 198.475 45.3916 198.475 40.9532 202.913" fill="black"/>
<path d="M50.1179 191.853C45.5596 196.411 38.7221 196.411 38.7221 196.411V198.451C38.7221 198.451 45.7035 198.451 50.1419 202.889" fill="black"/>
<path d="M117.422 26.5223C117.422 30.8647 121.045 34.3914 125.531 34.3914C130.018 34.3914 133.64 30.8647 133.64 26.5223C133.64 22.1799 130.018 18.6532 125.531 18.6532C121.045 18.6532 117.422 22.1799 117.422 26.5223Z" fill="black"/>
<path d="M106.962 41.4207C106.962 45.7631 110.585 49.2898 115.071 49.2898C119.558 49.2898 123.18 45.7631 123.18 41.4207C123.18 37.0783 119.558 33.5516 115.071 33.5516C110.585 33.5516 106.962 37.0783 106.962 41.4207Z" fill="black"/>
<path d="M127.739 41.4687C127.739 43.0521 128.219 44.5396 129.058 45.7871C130.498 47.9223 133.017 49.3378 135.848 49.3378C140.334 49.3378 143.957 45.8111 143.957 41.4687C143.957 37.1263 140.334 33.5996 135.848 33.5996C131.361 33.5996 127.739 37.1263 127.739 41.4687Z" fill="black"/>
<path d="M116.007 56.751C120.014 56.751 122.125 53.4883 123.228 50.2255C124.332 46.9627 124.428 43.6999 124.428 43.6999H126.491C126.491 43.6999 126.875 56.727 134.888 56.751H116.007Z" fill="black"/>
<path d="M131.025 32.3041C126.467 36.8624 126.467 43.6999 126.467 43.6999L124.428 43.7239C124.428 43.7239 124.428 36.7425 119.99 32.3041" fill="black"/>
<path d="M130.114 46.9387C125.556 42.3804 118.718 42.3804 118.718 42.3804V40.3411C118.718 40.3411 125.699 40.3411 130.138 35.9028" fill="black"/>
<path d="M120.973 46.9626C125.531 42.4043 132.369 42.4043 132.369 42.4043V40.3651C132.369 40.3651 125.388 40.3651 120.949 35.9268" fill="black"/>
<path d="M117.422 80.6584C117.422 85.0008 121.045 88.5275 125.531 88.5275C130.018 88.5275 133.64 85.0008 133.64 80.6584C133.64 76.316 130.018 72.7893 125.531 72.7893C121.045 72.7893 117.422 76.316 117.422 80.6584Z" fill="black"/>
<path d="M106.962 95.5568C106.962 99.8992 110.585 103.426 115.071 103.426C119.558 103.426 123.18 99.8992 123.18 95.5568C123.18 91.2144 119.558 87.6878 115.071 87.6878C110.585 87.6878 106.962 91.2144 106.962 95.5568Z" fill="black"/>
<path d="M127.739 95.6048C127.739 97.1882 128.219 98.6757 129.058 99.9232C130.498 102.058 133.017 103.474 135.848 103.474C140.334 103.474 143.957 99.9472 143.957 95.6048C143.957 91.2624 140.334 87.7357 135.848 87.7357C131.361 87.7357 127.739 91.2624 127.739 95.6048Z" fill="black"/>
<path d="M116.007 110.887C120.014 110.887 122.125 107.624 123.228 104.362C124.332 101.099 124.428 97.836 124.428 97.836H126.491C126.491 97.836 126.875 110.863 134.888 110.887H116.007Z" fill="black"/>
<path d="M131.025 86.4402C126.467 90.9985 126.467 97.836 126.467 97.836L124.428 97.86C124.428 97.86 124.428 90.8786 119.99 86.4402" fill="black"/>
<path d="M130.114 101.075C125.556 96.5165 118.718 96.5165 118.718 96.5165V94.4772C118.718 94.4772 125.699 94.4772 130.138 90.0389" fill="black"/>
<path d="M120.973 101.099C125.531 96.5405 132.369 96.5405 132.369 96.5405V94.5013C132.369 94.5013 125.388 94.5013 120.949 90.0629" fill="black"/>
<path d="M133.497 158.157C133.497 153.815 129.874 150.288 125.388 150.288C120.901 150.288 117.279 153.815 117.279 158.157C117.279 162.5 120.901 166.027 125.388 166.027C129.874 166.027 133.497 162.5 133.497 158.157Z" fill="black"/>
<path d="M143.957 143.259C143.957 138.917 140.334 135.39 135.848 135.39C131.361 135.39 127.739 138.917 127.739 143.259C127.739 147.601 131.361 151.128 135.848 151.128C140.334 151.128 143.957 147.601 143.957 143.259Z" fill="black"/>
<path d="M123.18 143.211C123.18 141.628 122.7 140.14 121.861 138.893C120.421 136.757 117.902 135.342 115.071 135.342C110.585 135.342 106.962 138.869 106.962 143.211C106.962 147.553 110.585 151.08 115.071 151.08C119.558 151.08 123.18 147.553 123.18 143.211Z" fill="black"/>
<path d="M134.912 127.929C130.906 127.929 128.794 131.191 127.691 134.454C126.587 137.717 126.491 140.98 126.491 140.98H124.428C124.428 140.98 124.044 127.953 116.031 127.929H134.912Z" fill="black"/>
<path d="M119.894 152.376C124.452 147.817 124.452 140.98 124.452 140.98L126.491 140.956C126.491 140.956 126.491 147.937 130.929 152.376" fill="black"/>
<path d="M120.805 137.741C125.364 142.299 132.201 142.299 132.201 142.299V144.339C132.201 144.339 125.22 144.339 120.781 148.777" fill="black"/>
<path d="M129.946 137.717C125.387 142.275 118.55 142.275 118.55 142.275V144.315C118.55 144.315 125.531 144.315 129.97 148.753" fill="black"/>
<path d="M133.497 212.294C133.497 207.951 129.874 204.424 125.388 204.424C120.901 204.424 117.279 207.951 117.279 212.294C117.279 216.636 120.901 220.163 125.388 220.163C129.874 220.163 133.497 216.636 133.497 212.294Z" fill="black"/>
<path d="M143.957 197.395C143.957 193.053 140.334 189.526 135.848 189.526C131.361 189.526 127.739 193.053 127.739 197.395C127.739 201.738 131.361 205.264 135.848 205.264C140.334 205.264 143.957 201.738 143.957 197.395Z" fill="black"/>
<path d="M123.18 197.347C123.18 195.764 122.7 194.276 121.861 193.029C120.421 190.894 117.902 189.478 115.071 189.478C110.585 189.478 106.962 193.005 106.962 197.347C106.962 201.69 110.585 205.216 115.071 205.216C119.558 205.216 123.18 201.69 123.18 197.347Z" fill="black"/>
<path d="M134.912 182.065C130.906 182.065 128.794 185.328 127.691 188.59C126.587 191.853 126.491 195.116 126.491 195.116H124.428C124.428 195.116 124.044 182.089 116.031 182.065H134.912Z" fill="black"/>
<path d="M119.894 206.512C124.452 201.953 124.452 195.116 124.452 195.116L126.491 195.092C126.491 195.092 126.491 202.073 130.929 206.512" fill="black"/>
<path d="M120.805 191.877C125.364 196.436 132.201 196.436 132.201 196.436V198.475C132.201 198.475 125.22 198.475 120.781 202.913" fill="black"/>
<path d="M129.946 191.853C125.387 196.411 118.55 196.411 118.55 196.411V198.451C118.55 198.451 125.531 198.451 129.97 202.889" fill="black"/>
</svg>
