<svg width="170" height="261" viewBox="0 0 170 261" fill="none" xmlns="http://www.w3.org/2000/svg">
<path d="M1.78394 245.279C1.78394 249.058 4.87279 252.147 8.65138 252.147H161.44C165.208 252.147 168.297 249.058 168.297 245.279V16.9641C168.297 13.1855 165.208 10.0966 161.44 10.0966H8.65138C4.87279 10.0966 1.78394 13.1855 1.78394 16.9641V245.279Z" fill="white" stroke="black" stroke-width="2.49907"/>
<path d="M16.7502 33.1147C14.934 33.1147 13.3183 32.8199 11.9031 32.2302C10.4958 31.6327 9.39113 30.8189 8.58918 29.789C7.78723 28.759 7.38625 27.5915 7.38625 26.2863C7.38625 25.2799 7.61426 24.3561 8.07027 23.5149C8.53415 22.6657 9.16313 21.9621 9.95722 21.4038C10.7513 20.8378 11.6397 20.4761 12.6225 20.3188V20.1537C11.3331 19.8943 10.2874 19.2692 9.48548 18.2786C8.68353 17.2801 8.28255 16.1204 8.28255 14.7995C8.28255 13.5494 8.64815 12.4369 9.37934 11.462C10.1105 10.4792 11.113 9.70871 12.3867 9.15048C13.6682 8.5844 15.1227 8.30136 16.7502 8.30136C18.3777 8.30136 19.8283 8.5844 21.102 9.15048C22.3835 9.71657 23.3899 10.491 24.1211 11.4738C24.8523 12.4487 25.2218 13.5573 25.2297 14.7995C25.2218 16.1283 24.813 17.2879 24.0032 18.2786C23.1934 19.2692 22.1555 19.8943 20.8897 20.1537V20.3188C21.8568 20.4761 22.7334 20.8378 23.5196 21.4038C24.3137 21.9621 24.9427 22.6657 25.4066 23.5149C25.8783 24.3561 26.1181 25.2799 26.126 26.2863C26.1181 27.5915 25.7132 28.759 24.9113 29.789C24.1093 30.8189 23.0007 31.6327 21.5855 32.2302C20.1782 32.8199 18.5664 33.1147 16.7502 33.1147ZM16.7502 29.3644C17.56 29.3644 18.2676 29.2189 18.873 28.928C19.4784 28.6293 19.9502 28.2204 20.2882 27.7015C20.6342 27.1748 20.8072 26.5694 20.8072 25.8853C20.8072 25.1856 20.6303 24.5684 20.2765 24.0338C19.9227 23.4913 19.4431 23.0667 18.8377 22.7601C18.2323 22.4456 17.5365 22.2883 16.7502 22.2883C15.9719 22.2883 15.276 22.4456 14.6628 22.7601C14.0495 23.0667 13.566 23.4913 13.2122 24.0338C12.8663 24.5684 12.6933 25.1856 12.6933 25.8853C12.6933 26.5694 12.8623 27.1748 13.2004 27.7015C13.5385 28.2204 14.0142 28.6293 14.6274 28.928C15.2407 29.2189 15.9483 29.3644 16.7502 29.3644ZM16.7502 18.5734C17.4264 18.5734 18.0278 18.4358 18.5546 18.1607C19.0814 17.8855 19.4942 17.5042 19.7929 17.0167C20.0917 16.5292 20.2411 15.9671 20.2411 15.3302C20.2411 14.7013 20.0917 14.1509 19.7929 13.6792C19.4942 13.1996 19.0853 12.8261 18.5664 12.5588C18.0475 12.2836 17.4421 12.146 16.7502 12.146C16.0662 12.146 15.4608 12.2836 14.934 12.5588C14.4073 12.8261 13.9945 13.1996 13.6957 13.6792C13.4048 14.1509 13.2594 14.7013 13.2594 15.3302C13.2594 15.9671 13.4088 16.5292 13.7075 17.0167C14.0063 17.5042 14.4191 17.8855 14.9458 18.1607C15.4726 18.4358 16.0741 18.5734 16.7502 18.5734Z" fill="black"/>
<path d="M154.335 228.132C156.151 228.132 157.767 228.427 159.182 229.016C160.59 229.614 161.694 230.428 162.496 231.458C163.298 232.488 163.699 233.655 163.699 234.96C163.699 235.967 163.471 236.89 163.015 237.732C162.551 238.581 161.922 239.285 161.128 239.843C160.334 240.409 159.446 240.771 158.463 240.928V241.093C159.752 241.352 160.798 241.977 161.6 242.968C162.402 243.967 162.803 245.126 162.803 246.447C162.803 247.697 162.437 248.81 161.706 249.785C160.975 250.767 159.972 251.538 158.699 252.096C157.417 252.662 155.963 252.945 154.335 252.945C152.708 252.945 151.257 252.662 149.983 252.096C148.702 251.53 147.695 250.756 146.964 249.773C146.233 248.798 145.864 247.689 145.856 246.447C145.864 245.118 146.272 243.959 147.082 242.968C147.892 241.977 148.93 241.352 150.196 241.093V240.928C149.229 240.771 148.352 240.409 147.566 239.843C146.772 239.285 146.143 238.581 145.679 237.732C145.207 236.89 144.967 235.967 144.959 234.96C144.967 233.655 145.372 232.488 146.174 231.458C146.976 230.428 148.085 229.614 149.5 229.016C150.907 228.427 152.519 228.132 154.335 228.132ZM154.335 231.882C153.525 231.882 152.818 232.028 152.212 232.319C151.607 232.617 151.135 233.026 150.797 233.545C150.451 234.072 150.278 234.677 150.278 235.361C150.278 236.061 150.455 236.678 150.809 237.213C151.163 237.755 151.642 238.18 152.248 238.487C152.853 238.801 153.549 238.958 154.335 238.958C155.113 238.958 155.809 238.801 156.423 238.487C157.036 238.18 157.519 237.755 157.873 237.213C158.219 236.678 158.392 236.061 158.392 235.361C158.392 234.677 158.223 234.072 157.885 233.545C157.547 233.026 157.071 232.617 156.458 232.319C155.845 232.028 155.137 231.882 154.335 231.882ZM154.335 242.673C153.659 242.673 153.057 242.811 152.531 243.086C152.004 243.361 151.591 243.742 151.292 244.23C150.994 244.717 150.844 245.28 150.844 245.916C150.844 246.545 150.994 247.096 151.292 247.567C151.591 248.047 152 248.421 152.519 248.688C153.038 248.963 153.643 249.101 154.335 249.101C155.019 249.101 155.625 248.963 156.151 248.688C156.678 248.421 157.091 248.047 157.39 247.567C157.681 247.096 157.826 246.545 157.826 245.916C157.826 245.28 157.677 244.717 157.378 244.23C157.079 243.742 156.666 243.361 156.139 243.086C155.613 242.811 155.011 242.673 154.335 242.673Z" fill="black"/>
<path d="M11.5102 68.1581C13.1796 68.1581 14.0592 66.3788 14.5191 64.5994C14.9789 62.8201 15.0189 61.0408 15.0189 61.0408L15.8686 61.0308C15.8686 61.0308 16.0285 68.1581 19.3673 68.1581H11.5102Z" fill="black"/>
<path d="M8.68129 61.0308C8.69128 57.5621 13.8993 55.043 15.4288 52.304C16.9582 55.053 22.1663 57.5721 22.1763 61.0308C22.1763 62.6702 20.6668 63.9997 18.7975 63.9997C16.9382 63.9997 15.4288 62.6702 15.4288 61.0308C15.4288 62.6702 13.9193 63.9997 12.05 63.9997C10.1807 63.9997 8.68129 62.6702 8.68129 61.0308Z" fill="black"/>
<path d="M159.575 193.089C157.906 193.089 157.026 194.868 156.566 196.647C156.106 198.427 156.066 200.206 156.066 200.206L155.217 200.216C155.217 200.216 155.057 193.089 151.718 193.089H159.575Z" fill="black"/>
<path d="M162.404 200.216C162.394 203.685 157.186 206.204 155.657 208.943C154.127 206.194 148.919 203.675 148.909 200.216C148.909 198.577 150.418 197.247 152.288 197.247C154.147 197.247 155.657 198.577 155.657 200.216C155.657 198.577 157.166 197.247 159.035 197.247C160.905 197.247 162.404 198.577 162.404 200.216Z" fill="black"/>
<path d="M36.2271 65.8675C40.2336 65.8675 42.3448 61.5971 43.4484 57.3267C44.552 53.0563 44.6479 48.7859 44.6479 48.7859L46.6872 48.7619C46.6872 48.7619 47.071 65.8675 55.084 65.8675H36.2271Z" fill="black"/>
<path d="M29.4376 48.7619C29.4616 40.437 41.9609 34.3912 45.6316 27.8177C49.3022 34.4152 61.8016 40.461 61.8256 48.7619C61.8256 52.6964 58.2029 55.8872 53.7166 55.8872C49.2542 55.8872 45.6316 52.6964 45.6316 48.7619C45.6316 52.6964 42.0089 55.8872 37.5226 55.8872C33.0363 55.8872 29.4376 52.6964 29.4376 48.7619Z" fill="black"/>
<path d="M36.2271 120.003C40.2336 120.003 42.3448 115.733 43.4484 111.463C44.552 107.192 44.6479 102.922 44.6479 102.922L46.6872 102.898C46.6872 102.898 47.071 120.003 55.084 120.003H36.2271Z" fill="black"/>
<path d="M29.4376 102.898C29.4616 94.5728 41.9609 88.5271 45.6316 81.9535C49.3022 88.5511 61.8016 94.5968 61.8256 102.898C61.8256 106.832 58.2029 110.023 53.7166 110.023C49.2542 110.023 45.6316 106.832 45.6316 102.898C45.6316 106.832 42.0089 110.023 37.5226 110.023C33.0363 110.023 29.4376 106.832 29.4376 102.898Z" fill="black"/>
<path d="M55.036 137.095C51.0295 137.095 48.9183 141.365 47.8147 145.635C46.7111 149.906 46.6151 154.176 46.6151 154.176L44.5759 154.2C44.5759 154.2 44.192 137.095 36.179 137.095H55.036Z" fill="black"/>
<path d="M61.8255 154.2C61.8015 162.525 49.3021 168.571 45.6315 175.144C41.9608 168.547 29.4615 162.501 29.4375 154.2C29.4375 150.266 33.0602 147.075 37.5465 147.075C42.0088 147.075 45.6315 150.266 45.6315 154.2C45.6315 150.266 49.2541 147.075 53.7405 147.075C58.2268 147.075 61.8255 150.266 61.8255 154.2Z" fill="black"/>
<path d="M55.036 191.23C51.0295 191.23 48.9183 195.501 47.8147 199.771C46.7111 204.042 46.6151 208.312 46.6151 208.312L44.5759 208.336C44.5759 208.336 44.192 191.23 36.179 191.23H55.036Z" fill="black"/>
<path d="M61.8255 208.336C61.8015 216.661 49.3021 222.707 45.6315 229.28C41.9608 222.683 29.4615 216.637 29.4375 208.336C29.4375 204.402 33.0602 201.211 37.5465 201.211C42.0088 201.211 45.6315 204.402 45.6315 208.336C45.6315 204.402 49.2541 201.211 53.7405 201.211C58.2268 201.211 61.8255 204.402 61.8255 208.336Z" fill="black"/>
<path d="M116.055 65.8675C120.061 65.8675 122.173 61.5971 123.276 57.3267C124.38 53.0563 124.476 48.7859 124.476 48.7859L126.515 48.7619C126.515 48.7619 126.899 65.8675 134.912 65.8675H116.055Z" fill="black"/>
<path d="M109.265 48.7619C109.289 40.437 121.789 34.3912 125.459 27.8177C129.13 34.4152 141.629 40.461 141.653 48.7619C141.653 52.6964 138.031 55.8872 133.544 55.8872C129.082 55.8872 125.459 52.6964 125.459 48.7619C125.459 52.6964 121.837 55.8872 117.35 55.8872C112.864 55.8872 109.265 52.6964 109.265 48.7619Z" fill="black"/>
<path d="M116.055 120.003C120.061 120.003 122.173 115.733 123.276 111.463C124.38 107.192 124.476 102.922 124.476 102.922L126.515 102.898C126.515 102.898 126.899 120.003 134.912 120.003H116.055Z" fill="black"/>
<path d="M109.265 102.898C109.289 94.5728 121.789 88.5271 125.459 81.9535C129.13 88.5511 141.629 94.5968 141.653 102.898C141.653 106.832 138.031 110.023 133.544 110.023C129.082 110.023 125.459 106.832 125.459 102.898C125.459 106.832 121.837 110.023 117.35 110.023C112.864 110.023 109.265 106.832 109.265 102.898Z" fill="black"/>
<path d="M134.864 137.095C130.857 137.095 128.746 141.365 127.643 145.635C126.539 149.906 126.443 154.176 126.443 154.176L124.404 154.2C124.404 154.2 124.02 137.095 116.007 137.095H134.864Z" fill="black"/>
<path d="M141.653 154.2C141.629 162.525 129.13 168.571 125.459 175.144C121.789 168.547 109.289 162.501 109.266 154.2C109.266 150.266 112.888 147.075 117.374 147.075C121.837 147.075 125.459 150.266 125.459 154.2C125.459 150.266 129.082 147.075 133.568 147.075C138.055 147.075 141.653 150.266 141.653 154.2Z" fill="black"/>
<path d="M134.864 191.23C130.857 191.23 128.746 195.501 127.643 199.771C126.539 204.042 126.443 208.312 126.443 208.312L124.404 208.336C124.404 208.336 124.02 191.23 116.007 191.23H134.864Z" fill="black"/>
<path d="M141.653 208.336C141.629 216.661 129.13 222.707 125.459 229.28C121.789 222.683 109.289 216.637 109.266 208.336C109.266 204.402 112.888 201.211 117.374 201.211C121.837 201.211 125.459 204.402 125.459 208.336C125.459 204.402 129.082 201.211 133.568 201.211C138.055 201.211 141.653 204.402 141.653 208.336Z" fill="black"/>
</svg>
