<svg width="170" height="261" viewBox="0 0 170 261" fill="none" xmlns="http://www.w3.org/2000/svg">
<path d="M1.30151 245.185C1.30151 248.964 4.39036 252.052 8.16896 252.052H160.957C164.726 252.052 167.815 248.964 167.815 245.185V16.8699C167.815 13.0913 164.726 10.0024 160.957 10.0024H8.16896C4.39036 10.0024 1.30151 13.0913 1.30151 16.8699V245.185Z" fill="white" stroke="black" stroke-width="2.49907"/>
<path d="M15.9967 8.20712C17.2389 8.20712 18.434 8.41547 19.5819 8.83217C20.7376 9.24887 21.7676 9.91323 22.6717 10.8253C23.5838 11.7373 24.3032 12.9481 24.8299 14.4576C25.3646 15.9593 25.6358 17.803 25.6437 19.9887C25.6437 22.0408 25.4117 23.8727 24.9479 25.4845C24.4919 27.0884 23.8354 28.4525 22.9784 29.5768C22.1214 30.7011 21.0875 31.5581 19.8767 32.1477C18.6659 32.7296 17.3136 33.0205 15.8198 33.0205C14.208 33.0205 12.7849 32.7099 11.5506 32.0888C10.3162 31.4598 9.3216 30.6067 8.56682 29.5296C7.81991 28.4446 7.36783 27.226 7.21058 25.8737H12.2464C12.4429 26.7542 12.8557 27.4382 13.4847 27.9257C14.1137 28.4053 14.892 28.6451 15.8198 28.6451C17.3922 28.6451 18.5873 27.9611 19.405 26.5931C20.2226 25.2172 20.6354 23.3341 20.6433 20.944H20.4782C20.1165 21.6516 19.629 22.2609 19.0158 22.772C18.4025 23.2752 17.6989 23.6644 16.9048 23.9395C16.1185 24.2147 15.2812 24.3523 14.3928 24.3523C12.9697 24.3523 11.6999 24.0182 10.5835 23.3499C9.46705 22.6816 8.58648 21.7617 7.94177 20.5902C7.29707 19.4187 6.97471 18.0821 6.97471 16.5804C6.96685 14.9608 7.34031 13.5181 8.09509 12.2523C8.84987 10.9864 9.90341 9.99579 11.2557 9.28032C12.6159 8.55699 14.1962 8.19926 15.9967 8.20712ZM16.0321 12.2169C15.238 12.2169 14.5304 12.4056 13.9092 12.783C13.296 13.1604 12.8085 13.6675 12.4469 14.3043C12.0931 14.9412 11.9201 15.6527 11.9279 16.4389C11.9279 17.233 12.1009 17.9485 12.4469 18.5853C12.8007 19.2143 13.2803 19.7175 13.8857 20.0949C14.4989 20.4644 15.1987 20.6492 15.9849 20.6492C16.5746 20.6492 17.121 20.5391 17.6242 20.319C18.1274 20.0988 18.5637 19.7961 18.9332 19.4109C19.3106 19.0177 19.6055 18.5657 19.8177 18.0546C20.03 17.5436 20.1362 17.0011 20.1362 16.4271C20.1283 15.6645 19.9475 14.9647 19.5937 14.3279C19.2399 13.6911 18.7524 13.18 18.1313 12.7948C17.5102 12.4095 16.8104 12.2169 16.0321 12.2169Z" fill="#E6180A"/>
<path d="M154.114 252.851C152.872 252.851 151.677 252.643 150.529 252.226C149.373 251.809 148.343 251.145 147.439 250.233C146.527 249.321 145.808 248.11 145.281 246.601C144.746 245.099 144.475 243.255 144.467 241.069C144.467 239.017 144.699 237.186 145.163 235.574C145.619 233.97 146.275 232.606 147.132 231.481C147.989 230.357 149.023 229.5 150.234 228.91C151.445 228.329 152.797 228.038 154.291 228.038C155.903 228.038 157.326 228.348 158.56 228.969C159.795 229.598 160.789 230.451 161.544 231.529C162.291 232.614 162.743 233.832 162.9 235.185H157.864C157.668 234.304 157.255 233.62 156.626 233.133C155.997 232.653 155.219 232.413 154.291 232.413C152.718 232.413 151.523 233.097 150.706 234.465C149.888 235.841 149.475 237.724 149.467 240.114H149.633C149.994 239.407 150.482 238.797 151.095 238.286C151.708 237.783 152.412 237.394 153.206 237.119C153.992 236.844 154.83 236.706 155.718 236.706C157.141 236.706 158.411 237.04 159.527 237.708C160.644 238.377 161.524 239.297 162.169 240.468C162.814 241.64 163.136 242.976 163.136 244.478C163.144 246.097 162.77 247.54 162.016 248.806C161.261 250.072 160.207 251.062 158.855 251.778C157.495 252.501 155.915 252.859 154.114 252.851ZM154.079 248.841C154.873 248.841 155.58 248.653 156.201 248.275C156.815 247.898 157.302 247.391 157.664 246.754C158.018 246.117 158.191 245.406 158.183 244.619C158.183 243.825 158.01 243.11 157.664 242.473C157.31 241.844 156.83 241.341 156.225 240.963C155.612 240.594 154.912 240.409 154.126 240.409C153.536 240.409 152.99 240.519 152.487 240.739C151.983 240.959 151.547 241.262 151.177 241.647C150.8 242.04 150.505 242.493 150.293 243.004C150.081 243.515 149.975 244.057 149.975 244.631C149.982 245.394 150.163 246.093 150.517 246.73C150.871 247.367 151.358 247.878 151.979 248.263C152.601 248.649 153.3 248.841 154.079 248.841Z" fill="#E6180A"/>
<path d="M14.9465 60.1368C17.5056 60.1368 20.0646 60.1368 22.6237 60.1368C21.7493 60.0978 21.0053 59.532 20.3025 59.0644C18.7241 57.8736 17.2457 56.5082 16.0781 54.9107C15.5333 54.107 14.9609 53.2034 14.9465 52.1998M22.6237 60.1368C21.5141 60.1718 20.5664 60.8778 19.7207 61.5293C18.2263 62.7838 16.9328 64.2763 15.8412 65.8917C15.4403 66.5604 14.9685 67.2692 14.9465 68.0739C14.9465 65.4278 14.9465 62.7828 14.9465 60.1368M14.9465 68.0739C14.9085 66.8923 14.1888 65.8687 13.509 64.955C12.2975 63.4456 10.862 62.1101 9.28262 60.9935C8.66885 60.6106 8.01709 60.1553 7.26937 60.1368C9.82842 60.1368 12.3875 60.1368 14.9465 60.1368M7.26937 60.1368C8.37896 60.1018 9.3266 59.3961 10.1723 58.7453C11.6667 57.4898 12.9603 55.9973 14.0518 54.3819C14.4527 53.7132 14.924 53.0045 14.9465 52.1998C14.9465 54.8458 14.9465 57.4908 14.9465 60.1368" fill="#E6180A"/>
<path d="M155.164 200.921C152.605 200.921 150.046 200.921 147.487 200.921C148.362 200.96 149.106 201.526 149.808 201.994C151.387 203.185 152.865 204.55 154.033 206.147C154.578 206.951 155.15 207.855 155.164 208.858M147.487 200.921C148.597 200.886 149.544 200.18 150.39 199.529C151.885 198.274 153.178 196.782 154.27 195.167C154.671 194.498 155.142 193.789 155.164 192.984C155.164 195.63 155.164 198.275 155.164 200.921M155.164 192.984C155.202 194.166 155.922 195.19 156.602 196.103C157.813 197.613 159.249 198.948 160.828 200.065C161.442 200.448 162.094 200.903 162.841 200.921C160.282 200.921 157.723 200.921 155.164 200.921M162.841 200.921C161.732 200.956 160.784 201.662 159.939 202.313C158.444 203.568 157.151 205.061 156.059 206.676C155.658 207.345 155.187 208.054 155.164 208.858C155.164 206.212 155.164 203.567 155.164 200.921" fill="#E6180A"/>
<path d="M45.1446 46.7492C51.2863 46.7492 57.428 46.7492 63.5697 46.7492C61.4712 46.6557 59.6855 45.2978 57.999 44.1755C54.2108 41.3177 50.6625 38.0405 47.8603 34.2067C46.5528 32.2778 45.1791 30.109 45.1446 27.7003M63.5697 46.7492C60.9067 46.8332 58.6323 48.5277 56.6027 50.0912C53.016 53.1021 49.9116 56.6839 47.2918 60.5609C46.3297 62.1659 45.1973 63.8669 45.1446 65.7982C45.1446 59.4477 45.1446 53.0997 45.1446 46.7492M45.1446 65.7982C45.0534 62.9624 43.326 60.5057 41.6946 58.3129C38.7869 54.6903 35.3418 51.4851 31.5512 48.8053C30.0782 47.8864 28.5139 46.7936 26.7194 46.7492C32.8611 46.7492 39.0028 46.7492 45.1446 46.7492M26.7194 46.7492C29.3824 46.6653 31.6568 44.9715 33.6864 43.4097C37.2731 40.3964 40.3775 36.8145 42.9974 32.9376C43.9594 31.3326 45.0906 29.6316 45.1446 27.7003C45.1446 34.0508 45.1446 40.3988 45.1446 46.7492" fill="#E6180A"/>
<path d="M45.1446 100.885C51.2863 100.885 57.428 100.885 63.5697 100.885C61.4712 100.792 59.6855 99.4339 57.999 98.3116C54.2108 95.4538 50.6625 92.1766 47.8603 88.3428C46.5528 86.4139 45.1791 84.2451 45.1446 81.8364M63.5697 100.885C60.9067 100.969 58.6323 102.664 56.6027 104.227C53.016 107.238 49.9116 110.82 47.2918 114.697C46.3297 116.302 45.1973 118.003 45.1446 119.934C45.1446 113.584 45.1446 107.236 45.1446 100.885M45.1446 119.934C45.0534 117.099 43.326 114.642 41.6946 112.449C38.7869 108.826 35.3418 105.621 31.5512 102.941C30.0782 102.023 28.5139 100.93 26.7194 100.885C32.8611 100.885 39.0028 100.885 45.1446 100.885M26.7194 100.885C29.3824 100.801 31.6568 99.1076 33.6864 97.5458C37.2731 94.5325 40.3775 90.9506 42.9974 87.0737C43.9594 85.4687 45.0906 83.7677 45.1446 81.8364C45.1446 88.1869 45.1446 94.5349 45.1446 100.885" fill="#E6180A"/>
<path d="M45.1444 156.025C39.0027 156.025 32.861 156.025 26.7192 156.025C28.8177 156.118 30.6034 157.476 32.29 158.599C36.0782 161.456 39.6264 164.734 42.4286 168.567C43.7361 170.496 45.1098 172.665 45.1444 175.074M26.7192 156.025C29.3822 155.941 31.6566 154.246 33.6862 152.683C37.2729 149.672 40.3774 146.09 42.9972 142.213C43.9592 140.608 45.0916 138.907 45.1444 136.976C45.1444 143.326 45.1444 149.674 45.1444 156.025M45.1444 136.976C45.2356 139.812 46.9629 142.268 48.5943 144.461C51.502 148.084 54.9471 151.289 58.7377 153.969C60.2108 154.888 61.775 155.98 63.5695 156.025C57.4278 156.025 51.2861 156.025 45.1444 156.025M63.5695 156.025C60.9065 156.109 58.6322 157.803 56.6025 159.364C53.0159 162.378 49.9114 165.96 47.2916 169.836C46.3295 171.441 45.1984 173.142 45.1444 175.074C45.1444 168.723 45.1444 162.375 45.1444 156.025" fill="#E6180A"/>
<path d="M45.1444 210.161C39.0027 210.161 32.861 210.161 26.7192 210.161C28.8177 210.254 30.6034 211.612 32.29 212.735C36.0782 215.592 39.6264 218.87 42.4286 222.703C43.7361 224.632 45.1098 226.801 45.1444 229.21M26.7192 210.161C29.3822 210.077 31.6566 208.382 33.6862 206.819C37.2729 203.808 40.3774 200.226 42.9972 196.349C43.9592 194.744 45.0916 193.043 45.1444 191.112C45.1444 197.462 45.1444 203.81 45.1444 210.161M45.1444 191.112C45.2356 193.948 46.9629 196.404 48.5943 198.597C51.502 202.22 54.9471 205.425 58.7377 208.105C60.2108 209.024 61.775 210.117 63.5695 210.161C57.4278 210.161 51.2861 210.161 45.1444 210.161M63.5695 210.161C60.9065 210.245 58.6322 211.939 56.6025 213.5C53.0159 216.514 49.9114 220.096 47.2916 223.973C46.3295 225.578 45.1984 227.279 45.1444 229.21C45.1444 222.859 45.1444 216.511 45.1444 210.161" fill="#E6180A"/>
<path d="M124.972 46.7492C131.114 46.7492 137.256 46.7492 143.397 46.7492C141.299 46.6557 139.513 45.2978 137.827 44.1755C134.039 41.3177 130.49 38.0405 127.688 34.2067C126.381 32.2778 125.007 30.109 124.972 27.7003M143.397 46.7492C140.734 46.8332 138.46 48.5277 136.43 50.0912C132.844 53.1021 129.739 56.6839 127.12 60.5609C126.157 62.1659 125.025 63.8669 124.972 65.7982C124.972 59.4477 124.972 53.0997 124.972 46.7492M124.972 65.7982C124.881 62.9624 123.154 60.5057 121.522 58.3129C118.615 54.6903 115.17 51.4851 111.379 48.8053C109.906 47.8864 108.342 46.7936 106.547 46.7492C112.689 46.7492 118.831 46.7492 124.972 46.7492M106.547 46.7492C109.21 46.6653 111.485 44.9715 113.514 43.4097C117.101 40.3964 120.205 36.8145 122.825 32.9376C123.787 31.3326 124.918 29.6316 124.972 27.7003C124.972 34.0508 124.972 40.3988 124.972 46.7492" fill="#E6180A"/>
<path d="M124.972 100.885C131.114 100.885 137.256 100.885 143.397 100.885C141.299 100.792 139.513 99.4339 137.827 98.3116C134.039 95.4538 130.49 92.1766 127.688 88.3428C126.381 86.4139 125.007 84.2451 124.972 81.8364M143.397 100.885C140.734 100.969 138.46 102.664 136.43 104.227C132.844 107.238 129.739 110.82 127.12 114.697C126.157 116.302 125.025 118.003 124.972 119.934C124.972 113.584 124.972 107.236 124.972 100.885M124.972 119.934C124.881 117.099 123.154 114.642 121.522 112.449C118.615 108.826 115.17 105.621 111.379 102.941C109.906 102.023 108.342 100.93 106.547 100.885C112.689 100.885 118.831 100.885 124.972 100.885M106.547 100.885C109.21 100.801 111.485 99.1076 113.514 97.5458C117.101 94.5325 120.205 90.9506 122.825 87.0737C123.787 85.4687 124.918 83.7677 124.972 81.8364C124.972 88.1869 124.972 94.5349 124.972 100.885" fill="#E6180A"/>
<path d="M124.973 156.025C118.831 156.025 112.689 156.025 106.547 156.025C108.646 156.118 110.432 157.476 112.118 158.599C115.906 161.456 119.455 164.734 122.257 168.567C123.564 170.496 124.938 172.665 124.973 175.074M106.547 156.025C109.21 155.941 111.485 154.246 113.514 152.683C117.101 149.672 120.205 146.09 122.825 142.213C123.787 140.608 124.92 138.907 124.973 136.976C124.973 143.326 124.973 149.674 124.973 156.025M124.973 136.976C125.064 139.812 126.791 142.268 128.422 144.461C131.33 148.084 134.775 151.289 138.566 153.969C140.039 154.888 141.603 155.98 143.398 156.025C137.256 156.025 131.114 156.025 124.973 156.025M143.398 156.025C140.735 156.109 138.46 157.803 136.431 159.364C132.844 162.378 129.74 165.96 127.12 169.836C126.158 171.441 125.026 173.142 124.973 175.074C124.973 168.723 124.973 162.375 124.973 156.025" fill="#E6180A"/>
<path d="M124.973 210.161C118.831 210.161 112.689 210.161 106.547 210.161C108.646 210.254 110.432 211.612 112.118 212.735C115.906 215.592 119.455 218.87 122.257 222.703C123.564 224.632 124.938 226.801 124.973 229.21M106.547 210.161C109.21 210.077 111.485 208.382 113.514 206.819C117.101 203.808 120.205 200.226 122.825 196.349C123.787 194.744 124.92 193.043 124.973 191.112C124.973 197.462 124.973 203.81 124.973 210.161M124.973 191.112C125.064 193.948 126.791 196.404 128.422 198.597C131.33 202.22 134.775 205.425 138.566 208.105C140.039 209.024 141.603 210.117 143.398 210.161C137.256 210.161 131.114 210.161 124.973 210.161M143.398 210.161C140.735 210.245 138.46 211.939 136.431 213.5C132.844 216.514 129.74 220.096 127.12 223.973C126.158 225.578 125.026 227.279 124.973 229.21C124.973 222.859 124.973 216.511 124.973 210.161" fill="#E6180A"/>
<path d="M85.0584 73.8172C91.2001 73.8172 97.3418 73.8172 103.484 73.8172C101.385 73.7236 99.5994 72.3657 97.9128 71.2434C94.1246 68.3856 90.5763 65.1084 87.7742 61.2746C86.4666 59.3458 85.0929 57.177 85.0584 54.7683M103.484 73.8172C100.821 73.9011 98.5462 75.5956 96.5165 77.1591C92.9298 80.17 89.8254 83.7519 87.2056 87.6288C86.2435 89.2338 85.1112 90.9348 85.0584 92.8661C85.0584 86.5157 85.0584 80.1676 85.0584 73.8172M85.0584 92.8661C84.9672 90.0303 83.2398 87.5737 81.6085 85.3809C78.7007 81.7582 75.2556 78.553 71.465 75.8732C69.992 74.9544 68.4278 73.8616 66.6332 73.8172C72.7749 73.8172 78.9167 73.8172 85.0584 73.8172M66.6332 73.8172C69.2962 73.7332 71.5706 72.0394 73.6002 70.4776C77.1869 67.4643 80.2913 63.8825 82.9112 60.0055C83.8732 58.4005 85.0044 56.6995 85.0584 54.7683C85.0584 61.1187 85.0584 67.4667 85.0584 73.8172" fill="#E6180A"/>
</svg>
