<svg width="170" height="261" viewBox="0 0 170 261" fill="none" xmlns="http://www.w3.org/2000/svg">
<path d="M1.30151 245.233C1.30151 249.011 4.39036 252.1 8.16896 252.1H160.957C164.726 252.1 167.815 249.011 167.815 245.233V16.9175C167.815 13.1389 164.726 10.05 160.957 10.05H8.16896C4.39036 10.05 1.30151 13.1389 1.30151 16.9175V245.233Z" fill="white" stroke="black" stroke-width="2.49907"/>
<path d="M15.9967 8.25372C17.2389 8.25372 18.434 8.46207 19.5819 8.87877C20.7376 9.29547 21.7676 9.95984 22.6717 10.8719C23.5838 11.7839 24.3032 12.9947 24.8299 14.5042C25.3646 16.0059 25.6358 17.8496 25.6437 20.0353C25.6437 22.0874 25.4117 23.9193 24.9479 25.5311C24.4919 27.135 23.8354 28.4991 22.9784 29.6234C22.1214 30.7477 21.0875 31.6047 19.8767 32.1943C18.6659 32.7762 17.3136 33.0671 15.8198 33.0671C14.208 33.0671 12.7849 32.7565 11.5506 32.1354C10.3162 31.5064 9.3216 30.6533 8.56682 29.5762C7.81991 28.4912 7.36783 27.2726 7.21058 25.9203H12.2464C12.4429 26.8008 12.8557 27.4848 13.4847 27.9723C14.1137 28.4519 14.892 28.6917 15.8198 28.6917C17.3922 28.6917 18.5873 28.0077 19.405 26.6397C20.2226 25.2638 20.6354 23.3807 20.6433 20.9906H20.4782C20.1165 21.6982 19.629 22.3075 19.0158 22.8186C18.4025 23.3218 17.6989 23.711 16.9048 23.9861C16.1185 24.2613 15.2812 24.3989 14.3928 24.3989C12.9697 24.3989 11.6999 24.0648 10.5835 23.3965C9.46705 22.7282 8.58648 21.8083 7.94177 20.6368C7.29707 19.4653 6.97471 18.1287 6.97471 16.627C6.96685 15.0074 7.34031 13.5647 8.09509 12.2989C8.84987 11.033 9.90341 10.0424 11.2557 9.32692C12.6159 8.60359 14.1962 8.24586 15.9967 8.25372ZM16.0321 12.2635C15.238 12.2635 14.5304 12.4522 13.9092 12.8296C13.296 13.207 12.8085 13.7141 12.4469 14.3509C12.0931 14.9878 11.9201 15.6993 11.9279 16.4855C11.9279 17.2796 12.1009 17.9951 12.4469 18.6319C12.8007 19.2609 13.2803 19.7641 13.8857 20.1415C14.4989 20.511 15.1987 20.6958 15.9849 20.6958C16.5746 20.6958 17.121 20.5857 17.6242 20.3656C18.1274 20.1454 18.5637 19.8427 18.9332 19.4575C19.3106 19.0643 19.6055 18.6123 19.8177 18.1012C20.03 17.5902 20.1362 17.0477 20.1362 16.4737C20.1283 15.7111 19.9475 15.0113 19.5937 14.3745C19.2399 13.7377 18.7524 13.2266 18.1313 12.8414C17.5102 12.4561 16.8104 12.2635 16.0321 12.2635Z" fill="#E6180A"/>
<path d="M154.114 252.899C152.872 252.899 151.677 252.69 150.529 252.274C149.373 251.857 148.343 251.193 147.439 250.28C146.527 249.368 145.808 248.158 145.281 246.648C144.746 245.146 144.475 243.303 144.467 241.117C144.467 239.065 144.699 237.233 145.163 235.621C145.619 234.017 146.275 232.653 147.132 231.529C147.989 230.405 149.023 229.548 150.234 228.958C151.445 228.376 152.797 228.085 154.291 228.085C155.903 228.085 157.326 228.396 158.56 229.017C159.795 229.646 160.789 230.499 161.544 231.576C162.291 232.661 162.743 233.88 162.9 235.232H157.864C157.668 234.352 157.255 233.667 156.626 233.18C155.997 232.7 155.219 232.461 154.291 232.461C152.718 232.461 151.523 233.145 150.706 234.513C149.888 235.889 149.475 237.772 149.467 240.162H149.633C149.994 239.454 150.482 238.845 151.095 238.334C151.708 237.831 152.412 237.441 153.206 237.166C153.992 236.891 154.83 236.753 155.718 236.753C157.141 236.753 158.411 237.088 159.527 237.756C160.644 238.424 161.524 239.344 162.169 240.516C162.814 241.687 163.136 243.024 163.136 244.525C163.144 246.145 162.77 247.588 162.016 248.853C161.261 250.119 160.207 251.11 158.855 251.825C157.495 252.549 155.915 252.906 154.114 252.899ZM154.079 248.889C154.873 248.889 155.58 248.7 156.201 248.323C156.815 247.945 157.302 247.438 157.664 246.801C158.018 246.165 158.191 245.453 158.183 244.667C158.183 243.873 158.01 243.157 157.664 242.52C157.31 241.891 156.83 241.388 156.225 241.011C155.612 240.641 154.912 240.457 154.126 240.457C153.536 240.457 152.99 240.567 152.487 240.787C151.983 241.007 151.547 241.31 151.177 241.695C150.8 242.088 150.505 242.54 150.293 243.051C150.081 243.562 149.975 244.105 149.975 244.679C149.982 245.441 150.163 246.141 150.517 246.778C150.871 247.415 151.358 247.926 151.979 248.311C152.601 248.696 153.3 248.889 154.079 248.889Z" fill="#E6180A"/>
<path d="M22.6136 56.2548C22.6037 60.9631 16.7058 64.3918 14.9765 68.1204C13.2271 64.4018 7.31934 61.0031 7.27935 56.2948C7.26935 54.0756 8.98871 52.2663 11.0979 52.2663C13.2171 52.2663 14.9465 54.0557 14.9465 56.2748C14.9465 54.0457 16.6559 52.2463 18.7651 52.2463C20.8843 52.2363 22.6037 54.0357 22.6136 56.2548Z" fill="#E6180A"/>
<path d="M147.497 204.898C147.507 200.189 153.405 196.761 155.134 193.032C156.884 196.751 162.792 200.149 162.831 204.858C162.841 207.077 161.122 208.886 159.013 208.886C156.894 208.886 155.164 207.097 155.164 204.878C155.164 207.107 153.455 208.906 151.346 208.906C149.227 208.916 147.507 207.117 147.497 204.898Z" fill="#E6180A"/>
<path d="M63.5457 37.3677C63.5217 48.6675 49.3669 56.8964 45.2165 65.8451C41.018 56.9204 26.8393 48.7634 26.7433 37.4636C26.7193 32.1376 30.8458 27.7952 35.9079 27.7952C40.994 27.7952 45.1445 32.0896 45.1445 37.4157C45.1445 32.0657 49.247 27.7473 54.3091 27.7473C59.3952 27.7233 63.5217 32.0417 63.5457 37.3677Z" fill="#E6180A"/>
<path d="M63.5457 91.5035C63.5217 102.803 49.3669 111.032 45.2165 119.981C41.018 111.056 26.8393 102.899 26.7433 91.5995C26.7193 86.2735 30.8458 81.9311 35.9079 81.9311C40.994 81.9311 45.1445 86.2255 45.1445 91.5515C45.1445 86.2015 49.247 81.8831 54.3091 81.8831C59.3952 81.8591 63.5217 86.1775 63.5457 91.5035Z" fill="#E6180A"/>
<path d="M26.7433 165.502C26.7673 154.202 40.922 145.973 45.0725 137.024C49.2709 145.949 63.4496 154.106 63.5456 165.406C63.5696 170.732 59.4431 175.074 54.381 175.074C49.2949 175.074 45.1444 170.78 45.1444 165.454C45.1444 170.804 41.042 175.122 35.9799 175.122C30.8937 175.146 26.7673 170.828 26.7433 165.502Z" fill="#E6180A"/>
<path d="M26.7433 219.637C26.7673 208.338 40.922 200.109 45.0725 191.16C49.2709 200.085 63.4496 208.242 63.5456 219.541C63.5696 224.868 59.4431 229.21 54.381 229.21C49.2949 229.21 45.1444 224.915 45.1444 219.589C45.1444 224.939 41.042 229.258 35.9799 229.258C30.8937 229.282 26.7673 224.963 26.7433 219.637Z" fill="#E6180A"/>
<path d="M143.373 37.3677C143.349 48.6675 129.195 56.8964 125.044 65.8451C120.846 56.9204 106.667 48.7634 106.571 37.4636C106.547 32.1376 110.674 27.7952 115.736 27.7952C120.822 27.7952 124.972 32.0896 124.972 37.4157C124.972 32.0657 129.075 27.7473 134.137 27.7473C139.223 27.7233 143.349 32.0417 143.373 37.3677Z" fill="#E6180A"/>
<path d="M143.373 91.5035C143.349 102.803 129.195 111.032 125.044 119.981C120.846 111.056 106.667 102.899 106.571 91.5995C106.547 86.2735 110.674 81.9311 115.736 81.9311C120.822 81.9311 124.972 86.2255 124.972 91.5515C124.972 86.2015 129.075 81.8831 134.137 81.8831C139.223 81.8591 143.349 86.1775 143.373 91.5035Z" fill="#E6180A"/>
<path d="M106.571 165.502C106.595 154.202 120.75 145.973 124.901 137.024C129.099 145.949 143.278 154.106 143.374 165.406C143.398 170.732 139.271 175.074 134.209 175.074C129.123 175.074 124.973 170.78 124.973 165.454C124.973 170.804 120.87 175.122 115.808 175.122C110.722 175.146 106.595 170.828 106.571 165.502Z" fill="#E6180A"/>
<path d="M106.571 219.637C106.595 208.338 120.75 200.109 124.901 191.16C129.099 200.085 143.278 208.242 143.374 219.541C143.398 224.868 139.271 229.21 134.209 229.21C129.123 229.21 124.973 224.915 124.973 219.589C124.973 224.939 120.87 229.258 115.808 229.258C110.722 229.282 106.595 224.963 106.571 219.637Z" fill="#E6180A"/>
<path d="M103.46 64.4368C103.436 75.7366 89.2809 83.9655 85.1304 92.9142C80.932 83.9895 66.7532 75.8325 66.6573 64.5327C66.6333 59.2067 70.7598 54.8643 75.8219 54.8643C80.908 54.8643 85.0584 59.1587 85.0584 64.4848C85.0584 59.1347 89.1609 54.8164 94.223 54.8164C99.3091 54.7924 103.436 59.1108 103.46 64.4368Z" fill="#E6180A"/>
</svg>
