<svg width="170" height="261" viewBox="0 0 170 261" fill="none" xmlns="http://www.w3.org/2000/svg">
<path d="M1.30151 245.279C1.30151 249.058 4.39036 252.147 8.16896 252.147H160.957C164.726 252.147 167.815 249.058 167.815 245.279V16.9641C167.815 13.1855 164.726 10.0966 160.957 10.0966H8.16896C4.39036 10.0966 1.30151 13.1855 1.30151 16.9641V245.279Z" fill="white" stroke="black" stroke-width="2.49907"/>
<path d="M15.9967 8.30136C17.2389 8.30136 18.434 8.50971 19.5819 8.92641C20.7376 9.34311 21.7676 10.0075 22.6717 10.9195C23.5838 11.8315 24.3032 13.0423 24.8299 14.5519C25.3646 16.0536 25.6358 17.8973 25.6437 20.083C25.6437 22.135 25.4117 23.9669 24.9479 25.5787C24.4919 27.1826 23.8354 28.5467 22.9784 29.671C22.1214 30.7953 21.0875 31.6523 19.8767 32.242C18.6659 32.8238 17.3136 33.1147 15.8198 33.1147C14.208 33.1147 12.7849 32.8041 11.5506 32.183C10.3162 31.554 9.3216 30.701 8.56682 29.6238C7.81991 28.5389 7.36783 27.3202 7.21058 25.9679H12.2464C12.4429 26.8485 12.8557 27.5325 13.4847 28.0199C14.1137 28.4995 14.892 28.7393 15.8198 28.7393C17.3922 28.7393 18.5873 28.0553 19.405 26.6873C20.2226 25.3114 20.6354 23.4284 20.6433 21.0382H20.4782C20.1165 21.7458 19.629 22.3552 19.0158 22.8662C18.4025 23.3694 17.6989 23.7586 16.9048 24.0338C16.1185 24.309 15.2812 24.4465 14.3928 24.4465C12.9697 24.4465 11.6999 24.1124 10.5835 23.4441C9.46705 22.7758 8.58648 21.8559 7.94177 20.6844C7.29707 19.513 6.97471 18.1764 6.97471 16.6747C6.96685 15.0551 7.34031 13.6123 8.09509 12.3465C8.84987 11.0807 9.90341 10.09 11.2557 9.37456C12.6159 8.65123 14.1962 8.2935 15.9967 8.30136ZM16.0321 12.3111C15.238 12.3111 14.5304 12.4998 13.9092 12.8772C13.296 13.2546 12.8085 13.7617 12.4469 14.3986C12.0931 15.0354 11.9201 15.7469 11.9279 16.5332C11.9279 17.3273 12.1009 18.0427 12.4469 18.6796C12.8007 19.3085 13.2803 19.8117 13.8857 20.1891C14.4989 20.5586 15.1987 20.7434 15.9849 20.7434C16.5746 20.7434 17.121 20.6333 17.6242 20.4132C18.1274 20.1931 18.5637 19.8904 18.9332 19.5051C19.3106 19.112 19.6055 18.6599 19.8177 18.1489C20.03 17.6378 20.1362 17.0953 20.1362 16.5214C20.1283 15.7587 19.9475 15.059 19.5937 14.4221C19.2399 13.7853 18.7524 13.2742 18.1313 12.889C17.5102 12.5037 16.8104 12.3111 16.0321 12.3111Z" fill="black"/>
<path d="M154.114 252.945C152.872 252.945 151.677 252.737 150.529 252.32C149.373 251.904 148.343 251.239 147.439 250.327C146.527 249.415 145.808 248.204 145.281 246.695C144.746 245.193 144.475 243.349 144.467 241.164C144.467 239.112 144.699 237.28 145.163 235.668C145.619 234.064 146.275 232.7 147.132 231.576C147.989 230.451 149.023 229.594 150.234 229.005C151.445 228.423 152.797 228.132 154.291 228.132C155.903 228.132 157.326 228.442 158.56 229.064C159.795 229.693 160.789 230.546 161.544 231.623C162.291 232.708 162.743 233.926 162.9 235.279H157.864C157.668 234.398 157.255 233.714 156.626 233.227C155.997 232.747 155.219 232.507 154.291 232.507C152.718 232.507 151.523 233.191 150.706 234.559C149.888 235.935 149.475 237.818 149.467 240.208H149.633C149.994 239.501 150.482 238.891 151.095 238.38C151.708 237.877 152.412 237.488 153.206 237.213C153.992 236.938 154.83 236.8 155.718 236.8C157.141 236.8 158.411 237.134 159.527 237.803C160.644 238.471 161.524 239.391 162.169 240.562C162.814 241.734 163.136 243.07 163.136 244.572C163.144 246.192 162.77 247.634 162.016 248.9C161.261 250.166 160.207 251.157 158.855 251.872C157.495 252.595 155.915 252.953 154.114 252.945ZM154.079 248.935C154.873 248.935 155.58 248.747 156.201 248.369C156.815 247.992 157.302 247.485 157.664 246.848C158.018 246.211 158.191 245.5 158.183 244.713C158.183 243.919 158.01 243.204 157.664 242.567C157.31 241.938 156.83 241.435 156.225 241.057C155.612 240.688 154.912 240.503 154.126 240.503C153.536 240.503 152.99 240.613 152.487 240.833C151.983 241.054 151.547 241.356 151.177 241.742C150.8 242.135 150.505 242.587 150.293 243.098C150.081 243.609 149.975 244.151 149.975 244.725C149.982 245.488 150.163 246.188 150.517 246.824C150.871 247.461 151.358 247.972 151.979 248.358C152.601 248.743 153.3 248.935 154.079 248.935Z" fill="black"/>
<path d="M11.0279 68.1581C12.6972 68.1581 13.5769 66.3788 14.0368 64.5994C14.4966 62.8201 14.5366 61.0408 14.5366 61.0408L15.3862 61.0308C15.3862 61.0308 15.5462 68.1581 18.8849 68.1581H11.0279Z" fill="black"/>
<path d="M8.19899 61.0308C8.20898 57.5621 13.417 55.043 14.9465 52.304C16.4759 55.053 21.684 57.5721 21.694 61.0308C21.694 62.6702 20.1845 63.9997 18.3152 63.9997C16.4559 63.9997 14.9465 62.6702 14.9465 61.0308C14.9465 62.6702 13.437 63.9997 11.5677 63.9997C9.69843 63.9997 8.19899 62.6702 8.19899 61.0308Z" fill="black"/>
<path d="M159.083 193.089C157.414 193.089 156.534 194.868 156.074 196.647C155.614 198.427 155.574 200.206 155.574 200.206L154.725 200.216C154.725 200.216 154.565 193.089 151.226 193.089H159.083Z" fill="black"/>
<path d="M161.912 200.216C161.902 203.685 156.694 206.204 155.164 208.943C153.635 206.194 148.427 203.675 148.417 200.216C148.417 198.577 149.926 197.247 151.796 197.247C153.655 197.247 155.164 198.577 155.164 200.216C155.164 198.577 156.674 197.247 158.543 197.247C160.412 197.247 161.912 198.577 161.912 200.216Z" fill="black"/>
<path d="M35.74 65.8675C39.7465 65.8675 41.8577 61.5971 42.9613 57.3267C44.0649 53.0563 44.1609 48.7859 44.1609 48.7859L46.2001 48.7619C46.2001 48.7619 46.584 65.8675 54.597 65.8675H35.74Z" fill="black"/>
<path d="M28.9505 48.7619C28.9745 40.437 41.4739 34.3912 45.1445 27.8177C48.8152 34.4152 61.3145 40.461 61.3385 48.7619C61.3385 52.6964 57.7158 55.8872 53.2295 55.8872C48.7672 55.8872 45.1445 52.6964 45.1445 48.7619C45.1445 52.6964 41.5219 55.8872 37.0355 55.8872C32.5492 55.8872 28.9505 52.6964 28.9505 48.7619Z" fill="black"/>
<path d="M35.74 120.003C39.7465 120.003 41.8577 115.733 42.9613 111.463C44.0649 107.192 44.1609 102.922 44.1609 102.922L46.2001 102.898C46.2001 102.898 46.584 120.003 54.597 120.003H35.74Z" fill="black"/>
<path d="M28.9505 102.898C28.9745 94.5728 41.4739 88.5271 45.1445 81.9535C48.8152 88.5511 61.3145 94.5968 61.3385 102.898C61.3385 106.832 57.7158 110.023 53.2295 110.023C48.7672 110.023 45.1445 106.832 45.1445 102.898C45.1445 106.832 41.5219 110.023 37.0355 110.023C32.5492 110.023 28.9505 106.832 28.9505 102.898Z" fill="black"/>
<path d="M54.5489 137.095C50.5424 137.095 48.4312 141.365 47.3276 145.635C46.224 149.906 46.1281 154.176 46.1281 154.176L44.0888 154.2C44.0888 154.2 43.705 137.095 35.692 137.095H54.5489Z" fill="black"/>
<path d="M61.3384 154.2C61.3144 162.525 48.8151 168.571 45.1444 175.144C41.4738 168.547 28.9744 162.501 28.9504 154.2C28.9504 150.266 32.5731 147.075 37.0594 147.075C41.5218 147.075 45.1444 150.266 45.1444 154.2C45.1444 150.266 48.7671 147.075 53.2534 147.075C57.7397 147.075 61.3384 150.266 61.3384 154.2Z" fill="black"/>
<path d="M54.5489 191.23C50.5424 191.23 48.4312 195.501 47.3276 199.771C46.224 204.042 46.1281 208.312 46.1281 208.312L44.0888 208.336C44.0888 208.336 43.705 191.23 35.692 191.23H54.5489Z" fill="black"/>
<path d="M61.3384 208.336C61.3144 216.661 48.8151 222.707 45.1444 229.28C41.4738 222.683 28.9744 216.637 28.9504 208.336C28.9504 204.402 32.5731 201.211 37.0594 201.211C41.5218 201.211 45.1444 204.402 45.1444 208.336C45.1444 204.402 48.7671 201.211 53.2534 201.211C57.7397 201.211 61.3384 204.402 61.3384 208.336Z" fill="black"/>
<path d="M115.568 65.8675C119.574 65.8675 121.685 61.5971 122.789 57.3267C123.893 53.0563 123.989 48.7859 123.989 48.7859L126.028 48.7619C126.028 48.7619 126.412 65.8675 134.425 65.8675H115.568Z" fill="black"/>
<path d="M108.778 48.7619C108.802 40.437 121.302 34.3912 124.972 27.8177C128.643 34.4152 141.142 40.461 141.166 48.7619C141.166 52.6964 137.544 55.8872 133.057 55.8872C128.595 55.8872 124.972 52.6964 124.972 48.7619C124.972 52.6964 121.35 55.8872 116.863 55.8872C112.377 55.8872 108.778 52.6964 108.778 48.7619Z" fill="black"/>
<path d="M115.568 120.003C119.574 120.003 121.685 115.733 122.789 111.463C123.893 107.192 123.989 102.922 123.989 102.922L126.028 102.898C126.028 102.898 126.412 120.003 134.425 120.003H115.568Z" fill="black"/>
<path d="M108.778 102.898C108.802 94.5728 121.302 88.5271 124.972 81.9535C128.643 88.5511 141.142 94.5968 141.166 102.898C141.166 106.832 137.544 110.023 133.057 110.023C128.595 110.023 124.972 106.832 124.972 102.898C124.972 106.832 121.35 110.023 116.863 110.023C112.377 110.023 108.778 106.832 108.778 102.898Z" fill="black"/>
<path d="M134.377 137.095C130.37 137.095 128.259 141.365 127.156 145.635C126.052 149.906 125.956 154.176 125.956 154.176L123.917 154.2C123.917 154.2 123.533 137.095 115.52 137.095H134.377Z" fill="black"/>
<path d="M141.166 154.2C141.142 162.525 128.643 168.571 124.972 175.144C121.302 168.547 108.802 162.501 108.778 154.2C108.778 150.266 112.401 147.075 116.887 147.075C121.35 147.075 124.972 150.266 124.972 154.2C124.972 150.266 128.595 147.075 133.081 147.075C137.568 147.075 141.166 150.266 141.166 154.2Z" fill="black"/>
<path d="M134.377 191.23C130.37 191.23 128.259 195.501 127.156 199.771C126.052 204.042 125.956 208.312 125.956 208.312L123.917 208.336C123.917 208.336 123.533 191.23 115.52 191.23H134.377Z" fill="black"/>
<path d="M141.166 208.336C141.142 216.661 128.643 222.707 124.972 229.28C121.302 222.683 108.802 216.637 108.778 208.336C108.778 204.402 112.401 201.211 116.887 201.211C121.35 201.211 124.972 204.402 124.972 208.336C124.972 204.402 128.595 201.211 133.081 201.211C137.568 201.211 141.166 204.402 141.166 208.336Z" fill="black"/>
<path d="M75.6539 92.9366C79.6604 92.9366 81.7717 88.6662 82.8753 84.3958C83.9788 80.1254 84.0748 75.855 84.0748 75.855L86.114 75.831C86.114 75.831 86.4979 92.9366 94.5109 92.9366H75.6539Z" fill="black"/>
<path d="M68.8645 75.831C68.8885 67.5061 81.3878 61.4604 85.0585 54.8868C88.7291 61.4844 101.228 67.5301 101.252 75.831C101.252 79.7656 97.6298 82.9564 93.1435 82.9564C88.6811 82.9564 85.0585 79.7656 85.0585 75.831C85.0585 79.7656 81.4358 82.9564 76.9495 82.9564C72.4631 82.9564 68.8645 79.7656 68.8645 75.831Z" fill="black"/>
</svg>
