<svg width="168" height="252" viewBox="0 0 168 252" fill="none" xmlns="http://www.w3.org/2000/svg">
<path d="M0.199951 236.138C0.199951 239.917 3.2888 243.006 7.0674 243.006H159.856C163.624 243.006 166.713 239.917 166.713 236.138V7.82327C166.713 4.04467 163.624 0.955811 159.856 0.955811H7.0674C3.2888 0.955811 0.199951 4.04467 0.199951 7.82327V236.138Z" fill="white" stroke="black" stroke-width="2.49907"/>
<path d="M10.4608 23.6436H4.98865L13.3266 -0.509295H19.9073L28.2335 23.6436H22.7613L16.7113 5.01002H16.5226L10.4608 23.6436ZM10.1188 14.1499H23.0444V18.1361H10.1188V14.1499Z" fill="black"/>
<path d="M157.452 219.321H162.924L154.586 243.474H148.005L139.679 219.321H145.151L151.201 237.955H151.39L157.452 219.321ZM157.794 228.815H144.868V224.829H157.794V228.815Z" fill="black"/>
<path d="M10.4962 46.4319C10.4962 48.2412 12.0056 49.7107 13.8749 49.7107C15.7442 49.7107 17.2537 48.2412 17.2537 46.4319C17.2537 44.6226 15.7442 43.1531 13.8749 43.1531C12.0056 43.1531 10.4962 44.6226 10.4962 46.4319Z" fill="black"/>
<path d="M6.13778 52.6396C6.13778 54.4489 7.64722 55.9184 9.51652 55.9184C11.3858 55.9184 12.8953 54.4489 12.8953 52.6396C12.8953 50.8303 11.3858 49.3608 9.51652 49.3608C7.64722 49.3608 6.13778 50.8303 6.13778 52.6396Z" fill="black"/>
<path d="M14.7945 52.6596C14.7945 53.3193 14.9944 53.9391 15.3443 54.4589C15.9441 55.3486 16.9937 55.9384 18.1733 55.9384C20.0426 55.9384 21.552 54.4689 21.552 52.6596C21.552 50.8502 20.0426 49.3808 18.1733 49.3808C16.304 49.3808 14.7945 50.8502 14.7945 52.6596Z" fill="black"/>
<path d="M9.90636 59.0272C11.5757 59.0272 12.4554 57.6677 12.9152 56.3082C13.3751 54.9487 13.4151 53.5892 13.4151 53.5892H14.2747C14.2747 53.5892 14.4347 59.0172 17.7734 59.0272H9.90636Z" fill="black"/>
<path d="M16.1641 48.841C14.2648 50.7403 14.2648 53.5892 14.2648 53.5892L13.4151 53.5992C13.4151 53.5992 13.4151 50.6903 11.5658 48.841" fill="black"/>
<path d="M15.7842 54.9387C13.8849 53.0394 11.036 53.0394 11.036 53.0394V52.1897C11.036 52.1897 13.9449 52.1897 15.7942 50.3404" fill="black"/>
<path d="M11.9755 54.9487C13.8748 53.0494 16.7238 53.0494 16.7238 53.0494V52.1998C16.7238 52.1998 13.8148 52.1998 11.9655 50.3504" fill="black"/>
<path d="M157.416 196.533C157.416 194.724 155.907 193.254 154.038 193.254C152.168 193.254 150.659 194.724 150.659 196.533C150.659 198.342 152.168 199.812 154.038 199.812C155.907 199.812 157.416 198.342 157.416 196.533Z" fill="black"/>
<path d="M161.775 190.325C161.775 188.516 160.265 187.047 158.396 187.047C156.527 187.047 155.017 188.516 155.017 190.325C155.017 192.135 156.527 193.604 158.396 193.604C160.265 193.604 161.775 192.135 161.775 190.325Z" fill="black"/>
<path d="M153.118 190.305C153.118 189.646 152.918 189.026 152.568 188.506C151.969 187.616 150.919 187.027 149.739 187.027C147.87 187.027 146.361 188.496 146.361 190.305C146.361 192.115 147.87 193.584 149.739 193.584C151.609 193.584 153.118 192.115 153.118 190.305Z" fill="black"/>
<path d="M158.006 183.938C156.337 183.938 155.457 185.297 154.997 186.657C154.538 188.016 154.498 189.376 154.498 189.376H153.638C153.638 189.376 153.478 183.948 150.139 183.938H158.006Z" fill="black"/>
<path d="M151.749 194.124C153.648 192.225 153.648 189.376 153.648 189.376L154.498 189.366C154.498 189.366 154.498 192.275 156.347 194.124" fill="black"/>
<path d="M152.128 188.026C154.028 189.926 156.877 189.926 156.877 189.926V190.775C156.877 190.775 153.968 190.775 152.118 192.625" fill="black"/>
<path d="M155.937 188.016C154.038 189.916 151.189 189.916 151.189 189.916V190.765C151.189 190.765 154.098 190.765 155.947 192.615" fill="black"/>
<path d="M75.9194 103.435C75.9194 107.777 79.542 111.304 84.0283 111.304C88.5147 111.304 92.1373 107.777 92.1373 103.435C92.1373 99.0927 88.5147 95.566 84.0283 95.566C79.542 95.566 75.9194 99.0927 75.9194 103.435Z" fill="black"/>
<path d="M65.4593 118.334C65.4593 122.676 69.0819 126.203 73.5683 126.203C78.0546 126.203 81.6772 122.676 81.6772 118.334C81.6772 113.991 78.0546 110.464 73.5683 110.464C69.0819 110.464 65.4593 113.991 65.4593 118.334Z" fill="black"/>
<path d="M86.2355 118.381C86.2355 119.965 86.7153 121.452 87.555 122.7C88.9945 124.835 91.5136 126.251 94.3445 126.251C98.8308 126.251 102.453 122.724 102.453 118.381C102.453 114.039 98.8308 110.512 94.3445 110.512C89.8582 110.512 86.2355 114.039 86.2355 118.381Z" fill="black"/>
<path d="M74.5039 133.664C78.5104 133.664 80.6216 130.401 81.7252 127.138C82.8288 123.875 82.9248 120.613 82.9248 120.613H84.988C84.988 120.613 85.3719 133.64 93.3849 133.664H74.5039Z" fill="black"/>
<path d="M89.5223 109.217C84.964 113.775 84.964 120.613 84.964 120.613L82.9247 120.637C82.9247 120.637 82.9247 113.655 78.4864 109.217" fill="black"/>
<path d="M88.6107 123.852C84.0523 119.293 77.2149 119.293 77.2149 119.293V117.254C77.2149 117.254 84.1963 117.254 88.6346 112.816" fill="black"/>
<path d="M79.47 123.875C84.0283 119.317 90.8658 119.317 90.8658 119.317V117.278C90.8658 117.278 83.8844 117.278 79.446 112.84" fill="black"/>
<path d="M94.4634 150.685C95.6215 151.159 94.418 151.826 94.4634 150.685ZM78.4569 150.685C79.8004 150.98 78.4569 152.438 78.4569 150.685ZM80.7311 149.572C81.436 149.557 82.5617 150.466 81.3433 150.772C80.5474 150.973 79.6255 149.787 80.7311 149.572ZM86.5039 150.772C87.0523 148.193 84.1738 150.032 86.5039 150.772ZM78.282 148.935C78.7228 149.86 78.9966 151.476 80.2937 151.472C79.7943 150.771 79.3753 150.533 79.2441 149.635C79.5126 149.846 80.8246 151.07 80.6908 151.377C80.0217 152.919 78.2304 151.37 77.5822 150.785C75.9055 149.278 75.734 149.266 78.282 148.935ZM75.2381 148.809C75.483 149.302 75.127 149.443 75.2381 148.809ZM90.6149 148.236C90.5169 148.43 90.3708 148.546 90.1775 148.586C90.2335 148.373 90.3927 148.248 90.6149 148.236ZM89.7402 148.323C89.5084 148.208 89.2749 148.179 89.0405 148.236C89.253 148.435 89.3702 148.669 89.3903 148.935H88.953C89.2932 150.128 89.26 151.01 88.1807 151.847C87.7433 152.187 87.0541 152.681 86.8284 152.084C87.2098 151.503 88.3661 146.061 89.7402 148.323ZM74.8707 148.586C74.6503 150.063 72.1916 148.698 72.2467 147.711C73.1153 148.099 73.9479 148.181 74.8707 148.586ZM88.0783 147.711C87.871 148.21 87.5351 148.603 87.0287 148.76C87.0016 148.223 87.3952 147.357 88.0783 147.711ZM75.2206 147.536C75.7017 148.18 74.5698 148.355 75.2206 147.536ZM80.2062 148.586C80.2264 148.865 75.9702 148.998 76.0953 148.061C77.1064 148.316 76.7355 147.296 77.856 147.599C78.3222 147.725 78.8934 147.691 79.3185 147.886C79.7374 148.314 79.622 148.58 80.2062 148.586ZM98.5744 147.711C98.996 147.726 99.4019 147.611 99.799 147.448C99.3826 147.375 98.9339 147.474 98.5744 147.711ZM90.5274 147.361L90.6149 147.448C90.5012 147.917 89.7997 148.069 90.5274 147.361ZM82.4804 146.836C82.825 147.274 83.1504 147.881 83.53 148.148C83.8012 147.615 83.1478 146.478 82.4804 146.836ZM83.4425 149.198C82.6335 148.996 80.878 147.239 81.8638 146.549C83.4504 145.438 84.2079 147.511 84.4335 148.572C84.5499 149.12 86.8634 152.021 85.7158 152.145C85.0694 152.193 82.8285 149.786 83.4425 149.198ZM97.0875 145.787C97.2082 145.824 97.2729 146.267 97.5248 145.787C97.3411 145.689 97.244 145.815 97.0875 145.787ZM69.6227 144.3C69.5221 144.772 69.5518 145.238 69.7102 145.699C69.1469 145.352 68.0247 143.786 69.6227 144.3ZM93.9386 144.037C94.4888 146.527 90.4907 144.917 90.5274 146.924C89.169 145.171 92.1289 143.525 91.752 145.174C92.4963 144.844 93.182 144.368 93.9386 144.037ZM65.4242 142.988C66.4109 143.749 67.659 144.069 68.4804 145.014C68.6229 145.178 69.4084 146.007 68.4856 145.874C68.1716 145.956 67.8663 145.225 67.7789 145.145C66.9304 144.659 65.6315 143.945 65.4242 142.988ZM92.3642 144.212C91.898 144.128 91.4467 143.59 91.752 143.077C92.3187 142.124 92.9056 143.492 92.3642 144.212ZM87.641 142.375C87.6121 142.667 87.5824 142.959 87.5535 143.25C87.1949 142.971 87.2727 142.602 87.641 142.375ZM86.8538 142.2C86.8853 142.622 86.8459 143.076 86.8538 143.512C86.4733 143.172 86.4864 142.582 86.8538 142.2ZM98.3995 141.676C98.3181 141.885 98.2245 142.047 98.2245 142.288C98.4555 142.219 98.6015 142.044 98.6619 141.763C98.6575 141.756 98.3977 141.596 98.3995 141.676ZM64.7245 141.676C65.1076 141.976 65.3377 142.328 65.3368 142.813C64.8583 142.61 64.6082 142.172 64.7245 141.676ZM99.7115 140.801C99.6529 141.034 99.5952 141.267 99.5366 141.501C99.8462 141.215 99.7264 140.678 99.7115 140.801ZM101.111 140.276C100.658 141.611 98.933 142.421 98.6619 143.512C99.4316 143.301 100.226 143.184 101.024 143.163C100.675 142.894 100.2 142.982 99.7115 142.988C100.171 142.315 100.989 142.195 101.548 141.763H101.198C101.452 141.543 101.627 141.28 101.723 140.976C101.577 141.005 101.432 141.034 101.286 141.063C101.243 139.053 101.302 140.83 101.111 140.276ZM112.394 139.401C112.281 140.581 111.704 142.67 110.071 142.489C108.644 142.331 107.919 144.95 106.511 143.303C105.864 143.143 104.499 143.789 104.216 143.163C103.764 142.165 107.683 142.233 108.108 142.375C107.39 141.355 109.117 141.426 109.683 141.676C109.807 140.495 111.459 139.996 112.394 139.401ZM67.6984 138.614C67.8681 139.125 68.3264 139.631 68.1357 140.189C67.6975 140.108 67.2593 140.05 66.8237 140.101C67.5619 141.389 68.8486 140.304 69.4477 141.763C68.6151 141.795 68.2827 141.296 67.436 141.326C67.6564 141.588 67.8847 141.53 68.2232 141.588C67.9547 142.005 67.7211 141.904 67.6109 142.288C68.5005 142.244 70.214 141.94 70.7598 142.9C70.2787 142.977 69.8772 142.951 69.5352 143.25C70.0364 143.255 70.5315 143.207 71.0222 143.106C71.7446 143.571 72.4313 144.099 73.2088 144.475C72.9106 144.101 72.5913 143.589 72.5966 143.075C71.7648 143.106 71.847 143.054 71.5706 142.223C71.0484 140.65 70.3049 140.237 71.0222 142.2C69.4836 141.981 68.9378 139.34 67.6984 138.614ZM97.5248 144.649C97.6682 143.97 96.7437 145.299 97.6997 143.862C96.909 144.24 95.9731 144.187 95.2506 144.649C95.576 144.338 95.7378 143.99 95.7755 143.512C94.9025 143.849 94.3777 144.887 95.4256 145.174C95.276 146.009 94.3567 145.991 93.7086 146.219C92.9065 146.5 91.94 147.609 91.2271 147.711C91.94 146.324 92.694 146.395 93.8424 145.319C94.1232 145.057 95.311 142.252 94.3322 142.752C93.7926 143.028 92.687 142.687 92.9328 141.857C93.4392 140.398 94.4853 142.151 95.0757 142.025C95.5996 142.365 95.9084 142.742 96.5627 142.486C97.7443 142.025 97.2659 140.036 98.312 139.625C98.6461 139.494 99.0581 140.078 99.4928 139.987C100.374 139.801 100.516 138.236 101.286 138.145C102.037 137.883 101.949 138.92 102.51 139.185C103.304 139.559 104.018 138.326 104.566 139.314C104.839 139.805 104.528 140.117 104.258 140.514C103.03 141.414 103.24 141.41 103.081 142.813C102.812 143.541 100.874 145.549 100.061 145.576C99.1071 145.165 99.0975 144.845 98.1869 145.449C97.7977 146.119 97.0647 147.361 96.2032 146.532C95.6591 145.033 96.0466 144.761 97.5248 144.649ZM111.082 139.576C111.022 139.469 110.993 139.352 110.995 139.227C110.468 139.72 110.222 140.457 109.42 140.713C109.483 140.377 109.433 140.033 109.595 139.664C109.153 140.368 109.064 141.18 108.108 141.326C108.028 140.943 108.115 140.593 108.371 140.276C107.547 141.108 107.306 142.257 106.884 140.626C106.564 140.79 105.849 143.107 104.785 142.269C103.986 141.64 105.643 139.611 106.272 139.282C107.571 139.372 107.837 138.457 108.808 137.994C109.561 137.635 110.2 138.13 111.074 137.827C111.674 137.619 112.749 137.447 112.742 138.352C112.736 139.151 111.64 139.229 111.082 139.576ZM55.8028 137.04C55.6428 137.495 55.9725 138.018 56.2402 138.352C55.4774 138.006 54.7278 137.409 53.966 137.215C54.4567 137.958 55.2527 138.347 55.8028 138.964C55.5588 139.013 55.4836 139.045 55.278 139.052V139.227C57.0895 139.294 58.3805 140.449 60.1762 140.888C59.5928 140.043 58.7645 138.982 57.902 138.439C58.0647 138.959 58.4662 139.328 58.6892 139.839C57.0501 139.411 56.8533 137.847 55.8028 137.04ZM74.0835 145.437C72.7409 145.019 70.57 145.445 70.235 143.6C67.7797 144.412 67.68 143.268 65.8161 142.072C65.6167 141.76 65.5948 141.478 65.4417 141.151C65.6333 140.152 64.2539 139.671 64.463 138.964C64.6502 138.329 64.6694 138.494 65.4277 138.445C66.4599 138.381 66.5027 137.913 66.8797 136.995C68.0238 136.276 68.6273 137.735 68.8556 138.613C69.544 139.268 70.5647 138.783 71.1849 139.382C71.7394 139.918 71.3475 140.729 71.8977 141.297C72.9255 142.355 73.0803 141.253 73.0007 142.856C72.9744 143.386 73.4817 143.476 73.7896 143.868C73.9891 144.311 73.9322 144.961 74.0835 145.437ZM109.945 136.34C109.913 138.188 107.516 137.115 109.945 136.34ZM111.695 134.941C111.741 135.819 111.132 135.629 111.695 134.941ZM106.097 136.865C105.161 136.728 104.665 135.032 105.834 135.036C107.759 135.766 105.826 135.79 106.097 136.865ZM60.3511 134.853C59.8709 135.151 58.6954 134.926 58.9517 134.068C59.0243 133.346 60.5785 133.67 60.3511 134.853ZM111.345 133.191C111.322 133.65 111.268 133.922 110.907 133.978C110.885 133.635 111.018 133.279 111.345 133.191ZM107.308 132.929C108.289 133.634 108.022 135.38 106.578 134.847C105.483 134.443 106.641 133.123 107.308 132.929ZM116.33 132.522C117.718 132.61 116.846 133.743 116.184 134.167C114.666 135.139 115.428 132.841 116.33 132.522ZM112.569 132.492C112.992 133.202 112.879 134.348 112.132 134.766C112.205 134.09 111.911 132.905 112.569 132.492ZM60.0887 131.529C60.9407 134.831 57.3991 132.331 60.0887 131.529ZM113.706 131.005C113.702 131.18 113.628 131.381 113.531 131.529C113.202 131.446 113.043 131.453 113.094 131.18C113.299 131.121 113.502 131.063 113.706 131.005ZM54.2284 130.567C54.8153 130.878 55.0182 132.081 55.1031 132.666C54.5555 132.567 54.2083 131.103 54.2284 130.567ZM49.5926 129.04C50.5845 129.115 51.2974 130.188 50.03 130.479C48.8938 130.593 48.2002 129.404 49.5926 129.04ZM53.7036 129.518C54.1471 128.415 53.024 128.752 53.7036 129.518ZM48.9804 127.418C48.8115 128.002 49.1387 127.986 49.5926 128.206C48.7888 130.498 47.3202 127.333 48.9804 127.418ZM51.167 124.619C51.7286 125.156 52.2858 125.679 52.7415 126.281C51.9403 126.503 51.3149 125.16 51.167 124.619ZM112.919 124.095C113.108 125.263 113.245 126.727 112.657 127.768C112.66 127.53 112.538 127.368 112.307 127.331C112.323 127.526 112.307 129.308 112.773 129.04C113.119 128.841 113.947 126.92 114.056 126.456C113.807 126.664 113.459 127.078 113.356 127.243C113.096 126.199 113.626 125.505 113.881 124.532C113.461 125.003 113.222 124.726 113.181 124.095H112.919ZM117.905 124.007C117.788 124.736 117.671 125.465 117.555 126.194C117.966 125.716 118.202 124.382 117.905 124.007ZM117.73 122.083C117.746 122.413 117.798 123.739 117.03 123.307C117.171 122.811 117.347 122.31 117.73 122.083ZM49.6801 121.208C50.6536 122.048 50.5845 122.369 50.1174 123.482C49.4693 122.952 49.0031 121.86 49.6801 121.208ZM117.205 127.943C117.487 127.545 117.867 127.496 118.342 127.331C117.006 126.894 119.155 125.521 119.829 125.319C118.688 125.042 120.678 123.119 121.054 122.608C120.407 122.925 120.119 123.663 119.479 124.007C119.499 123.557 119.587 123.119 119.742 122.695C119.093 123.377 118.866 124.628 118.393 125.51C117.798 126.619 117.006 127.57 116.243 128.555C116.773 129.176 115.893 129.557 115.318 129.75C113.392 130.398 115.023 128.963 115.505 128.326C115.923 127.774 116.7 126.906 116.7 126.194C116.35 125.587 115.987 124.932 116.363 124.288C116.644 123.805 117.111 123.844 117.642 123.726C118.29 123.246 118.037 123.18 118.199 122.297C118.565 120.301 119.79 121.607 121.096 121.373C122.639 121.096 122.891 121.961 121.738 123.132C121.526 123.909 122.164 124.573 121.965 125.305C121.794 125.939 120.577 125.778 120.091 125.987C118.3 127.365 119.956 127.991 117.205 127.943ZM116.418 120.421C116.531 120.672 116.48 120.914 116.243 121.033C116.24 120.822 116.303 120.602 116.418 120.421ZM50.9921 120.071C51.1443 121.28 51.5843 122.948 53.0039 122.87C52.8744 123.542 50.9248 124.617 50.7813 123.511C50.7245 123.077 51.0533 122.695 50.9746 122.258C50.6554 121.178 49.9084 121.014 50.9921 120.071ZM116.943 119.896C117.201 120.113 117.222 120.336 116.943 120.508C116.81 120.273 116.81 120.069 116.943 119.896ZM51.6919 120.946C51.5467 120.474 51.4671 120.015 51.6044 119.546C52.291 119.697 52.3452 120.759 51.6919 120.946ZM113.444 118.784C114.507 118.67 115.07 119.986 113.969 119.984C113.243 120.061 112.763 119.108 113.444 118.784ZM116.418 118.497C116.687 118.896 116.862 119.334 116.943 119.809C116.521 119.531 116.246 118.975 116.418 118.497ZM51.167 117.797C53.764 118.667 50.6247 119.714 51.167 117.797ZM116.505 117.01C116.476 117.126 116.447 117.243 116.418 117.36C116.685 117.446 116.947 117.417 117.205 117.272C117.222 117.717 117.217 118.156 117.118 118.584C116.642 118.23 115.901 117.372 116.505 117.01ZM50.3798 117.01C50.4988 117.41 50.5574 117.817 50.5548 118.234C49.9451 118.168 50.1795 117.309 50.3798 117.01ZM119.567 116.802C120.249 116.945 121.298 118.35 120.091 118.54C119.172 118.686 119.069 117.252 119.567 116.802ZM114.056 118.234C112.433 119.109 112.715 116.954 113.383 116.888C114.466 116.782 113.694 117.542 114.056 118.234ZM53.7036 118.409C52.954 114.379 51.1408 119.212 53.7036 118.409ZM53.6161 116.572C55.4801 114.28 51.6892 116.254 53.6161 116.572ZM50.7297 114.998C51.3988 115.365 51.3332 116.286 51.4294 116.922C50.7664 116.504 50.4691 115.726 50.7297 114.998ZM49.0678 121.208C48.3847 120.79 48.7136 119.793 48.9804 119.109C47.8477 120.292 48.1302 118.198 48.3681 117.272C48.1984 117.449 48.1267 117.35 47.9308 117.622C47.2581 116.665 46.5094 115.389 47.231 117.797C46.9485 117.908 46.6563 117.878 46.3563 117.71C46.9354 118.414 47.6229 119.066 47.7558 120.071C47.385 119.95 46.938 119.812 46.5313 119.809C46.8252 120.199 47.4226 120.594 47.9308 120.421C48.2824 121.352 48.5973 122.094 49.0678 122.958C48.4967 123.119 47.9325 123.144 47.559 122.695C47.2905 121.407 46.47 121.631 46.0782 120.596C45.9828 120.344 46.1508 119.99 46.1858 119.774C46.3152 118.962 45.6732 118.854 45.3688 118.223C44.935 117.323 46.1718 116.692 45.9374 115.672C45.2744 112.787 47.643 116.035 48.4556 116.31C49.2384 117.072 48.7704 117.18 49.1605 118.191C49.3329 118.638 50.037 118.776 50.1585 119.198C50.3256 119.819 49.4509 120.802 49.0678 121.208ZM50.6422 113.686C50.7979 113.966 50.9737 114.072 50.8172 114.298C50.4411 114.186 50.5224 113.945 50.3798 113.686H50.6422ZM117.03 116.398C116.448 116.061 116.498 115.633 116.505 114.911C116.06 114.105 115.764 114.255 115.973 113.365C116.636 110.541 117.01 116.01 117.03 116.398ZM51.342 113.686C53.1368 111.988 50.735 109.712 51.342 113.686ZM116.505 109.837C116.57 110.351 116.608 110.888 116.593 111.412C115.983 110.946 115.842 110.257 116.505 109.837ZM50.9046 109.663C51.1496 110.237 51.0866 110.887 50.9046 111.499C50.1699 110.984 50.5487 110.114 50.9046 109.663ZM113.969 109.488C113.925 110.013 113.779 110.509 113.531 110.975C112.895 110.777 112.708 110.373 112.307 110.8C112.678 110.928 113.598 111.634 114.014 111.42C114.358 111.243 114.512 109.595 113.969 109.488ZM52.2167 110.537C51.6376 110.162 51.021 109.129 50.9921 108.438C51.7198 108.828 52.1056 109.731 52.2167 110.537ZM48.2806 107.213C48.1844 107.731 48.1827 109.363 47.1103 108.222C46.3502 107.413 47.5931 107.156 48.2806 107.213ZM121.054 107.913C120.468 107.962 119.137 108.624 119.534 107.301C120.834 105.554 120.639 107.174 121.054 107.913ZM115.98 106.426C116.008 106.535 115.983 106.623 115.893 106.689C115.677 106.496 115.675 106.392 115.98 106.426ZM51.2545 105.377C51.6779 105.95 51.6236 106.59 51.342 107.213C50.6982 106.822 50.7778 105.908 51.2545 105.377ZM48.2806 104.852C48.1765 105.014 48.1179 105.189 48.1057 105.377C49.0608 105.314 47.6841 107.044 47.0272 106.651C46.2208 106.169 47.3989 103.934 48.2806 104.852ZM114.668 112.636C114.987 113.552 115.542 114.359 115.893 115.26C114.263 115.055 114.455 113.468 113.05 113.208C111.635 112.945 112.141 111.769 111.52 110.8C111.231 110.351 110.48 110.236 110.578 109.574C111.429 107.874 112.197 109.013 113.356 109.749C113.509 109.12 114.165 107.178 113.531 106.863C113.453 107.295 113.393 107.744 113.356 108.175C112.7 107.398 112.941 106.21 112.569 105.376C112.393 106.59 112.769 107.77 112.919 108.962C111.834 108.346 109.964 107.151 110.957 105.767C111.995 104.985 111.798 104.63 111.981 103.55C112.15 102.562 113.679 103.332 113.83 103.976C113.974 104.584 113.644 105.152 114.274 105.594C114.756 105.932 114.855 106.352 114.565 106.862C114.003 107.854 115.12 107.997 115.438 108.786C115.706 109.45 114.814 109.935 114.88 110.623C115.291 111.292 115.852 112.442 114.668 112.636ZM52.1292 103.802C51.7505 103.668 51.5816 103.318 51.6919 102.928C52.0645 103.065 52.1344 103.354 52.1292 103.802ZM56.0652 102.053C56.4405 102.839 56.7956 102.538 57.3772 102.315C57.4358 102.797 57.3755 103.263 57.1962 103.715C57.3029 104.172 57.6169 104.54 57.5959 105.027C57.5837 105.312 57.1043 105.456 56.9591 105.735C56.7737 106.091 56.9574 106.643 56.9705 107.038C56.3556 108.102 55.7145 107.318 55.4468 108.788C54.7348 109.327 54.2188 109.279 53.3529 109.4C53.3529 108.962 53.5663 108.939 53.7027 108.55C54.7795 107.586 54.0981 108.448 54.3377 107.563C54.4803 107.037 54.9736 106.808 55.2754 106.398C55.425 105.218 56.1702 104.264 56.7641 103.277C56.1632 103.5 55.9087 104.097 55.3646 104.502C54.727 103.727 54.9649 105.928 54.4025 106.339C54.336 105.844 54.2774 105.349 54.2275 104.852C53.7753 105.31 53.7937 106.179 54.4025 106.426C53.938 107.439 53.3074 108.956 52.5657 109.663C52.1948 108.569 54.4033 106.787 53.0905 106.426V107.388C52.1974 106.813 52.57 106.498 52.7406 105.855C53.4701 105.373 53.2085 104.806 53.5103 104.066C53.8978 103.549 54.42 103.704 55.0139 103.467C55.5124 103.146 55.6366 102.425 56.0652 102.053ZM114.493 103.452C115.517 100.614 112.857 103.078 114.493 103.452ZM113.794 100.916C113.506 100.815 113.347 100.6 113.356 100.303C113.739 100.361 113.908 100.548 113.794 100.916ZM54.0535 100.303C54.0176 100.558 53.8715 100.733 53.6161 100.828C53.4946 100.478 53.7788 100.485 54.0535 100.303ZM112.219 99.0789V99.2539H112.044C112.042 99.1507 112.112 99.0973 112.219 99.0789ZM112.569 98.5541C112.538 98.7632 112.494 98.8944 112.307 98.9915C112.372 98.6661 112.282 98.4973 112.569 98.5541ZM56.765 99.6912C56.1028 99.7297 55.5124 99.2084 55.655 98.5104C56.004 96.7952 57.4936 98.0241 56.765 99.6912ZM112.044 97.592C113.704 97.2238 112.331 99.3195 112.044 97.592ZM57.902 98.6416C56.981 98.4772 57.1813 97.0917 58.0289 96.9447C60.0275 96.5992 58.1653 98.2638 57.902 98.6416ZM111.082 96.6299C111.319 97.0086 111.312 97.5107 111.17 97.9419C110.605 97.6742 110.76 97.1424 111.082 96.6299ZM106.446 96.1925C106.919 97.2203 106.816 98.0967 107.729 98.9408C108.304 99.4734 108.534 100.492 109.42 100.566C109.43 99.7752 109.089 98.7763 108.196 98.7579C107.316 98.0381 107.074 97.8675 107.671 96.7173C107.274 96.5162 106.866 96.3412 106.446 96.1925ZM110.12 96.1051C110.184 96.2966 110.123 96.4567 109.945 96.5424C109.953 96.3465 109.968 96.2223 110.12 96.1051ZM114.406 94.7056C114.684 95.7639 115.304 96.9106 115.106 98.0293C114.772 97.6795 114.393 97.3882 113.969 97.1547C114.438 97.9349 115.19 98.5848 115.631 99.4288C116.013 99.4962 116.699 97.3768 116.855 97.0672C116.469 97.0663 116.148 97.2124 115.893 97.5045C115.849 96.7899 116.813 95.3922 115.718 95.1429C115.61 95.5391 115.549 95.9634 115.543 96.3675C115.095 95.8741 114.816 95.0432 114.406 94.7056ZM58.4268 93.3936C60.1674 93.7338 58.2222 94.5954 58.4268 93.3936ZM106.971 92.7813C107.069 93.2038 107.026 93.5632 107.321 93.7434C107.308 93.2449 107.316 92.9545 106.971 92.7813ZM105.572 91.8191C105.65 92.197 105.796 92.5469 106.009 92.8688C106.117 92.4717 105.928 92.0369 105.572 91.8191ZM112.657 93.2186C112.852 92.2775 113.098 92.1428 113.842 92.2556C114.274 92.3212 114.478 93.0323 114.631 93.3936C115.204 93.9883 115.792 93.8274 116.505 94.0128C116.82 94.2499 116.822 94.4274 117.078 94.7056C116.873 96.0167 118.039 95.5077 118.286 96.4549C118.395 96.8721 117.859 97.341 117.698 97.6795C117.57 98.4501 118.492 99.0107 118.092 99.721C117.606 100.583 117.161 100.743 117.493 101.79C117.234 102.561 116.155 103.039 116.594 103.977C117.085 103.404 117.854 102.782 118.102 102.053C118.164 101.008 118.907 100.188 118.814 99.2093C118.751 98.5541 118.25 98.0215 118.633 97.4223C118.936 96.95 119.055 96.3386 118.72 95.8689C117.962 94.8088 117.659 93.9875 116.594 93.3175C115.254 93.3052 114.949 91.9897 113.626 91.6976C112.338 91.4142 112.106 92.232 112.657 93.2186ZM102.161 91.2069C102.346 91.3223 102.149 91.3906 102.51 91.3818C102.418 91.2637 102.301 91.2051 102.161 91.2069ZM103.91 91.0319C103.972 91.1404 104.248 91.9582 104.172 91.8191C103.687 91.939 103.157 91.4737 102.685 91.3818C103.554 92.0378 104.535 92.6588 105.484 93.2186C105.022 92.4734 104.388 91.792 103.91 91.0319ZM54.4908 92.8688C54.4042 92.8005 54.1156 92.5819 53.966 92.5189C53.952 93.4635 53.9573 94.3365 53.5287 95.2304C53.1464 94.7965 53.2007 93.1968 52.6076 93.3061C52.4414 93.3367 52.8779 96.5546 52.7415 96.9797C52.4143 96.6167 52.2919 95.9896 51.6919 96.28C52.3715 97.3663 52.3557 98.492 52.4791 99.6912C52.7791 99.3632 52.961 98.6023 53.0913 98.0311C53.4989 97.4039 54.3517 97.0838 54.8669 96.5205C56.3915 94.8516 53.6231 97.0453 53.3537 97.243C53.5593 95.6336 55.1337 94.8403 55.8903 93.5694C55.3051 93.5204 54.8993 94.2166 54.4908 94.5315C54.9728 93.0778 55.8326 89.0788 54.4908 92.8688ZM60.2637 92.6064C61.7235 92.4489 63.0451 93.1145 64.4621 93.3061C64.2522 93.0638 63.9425 92.853 63.6749 92.6938C64.7254 92.2215 65.2502 93.0437 66.2115 93.0437C66.0269 92.7953 65.8686 92.3544 65.6866 92.169C66.3007 92.0404 66.8998 92.2232 67.5235 92.2565C67.2042 91.8445 67.2917 91.5532 67.7859 91.3818C66.2587 91.0276 66.696 91.5979 65.2493 91.9232C64.5496 92.0999 64.2224 91.5751 63.325 92.1909C62.9708 92.2582 62.7749 91.8638 62.4486 91.9066C61.6754 92.2302 60.8296 92.3352 60.0013 92.211C59.6138 92.5171 59.4572 92.7174 58.9517 92.6938C59.4179 92.3098 59.9217 91.7299 60.5112 91.4605C60.9599 91.2559 61.4384 91.471 61.8381 91.2629C62.8711 90.7241 62.6891 89.4094 64.0213 90.1608C64.7892 90.5937 64.7368 90.5482 65.6508 90.1896C66.9777 89.6692 66.5674 90.2946 67.7421 90.4538C68.0369 90.494 69.9656 90.1179 69.3996 91.1903C69.0708 91.8139 68.5145 91.9573 68.0273 92.4725C67.6765 92.8434 67.478 93.7469 66.996 93.9499C66.2552 94.2621 65.5362 93.642 64.8058 94.1878C63.9749 94.8079 63.4134 93.7128 62.5816 93.635C61.6194 93.5458 60.5462 93.9735 60.2637 92.6064ZM54.9281 89.5747C55.4538 89.5896 55.7486 89.9832 56.011 90.4197C56.0294 91.3486 56.9836 91.8244 57.002 92.6064C57.0212 93.4198 56.3084 93.7845 56.416 94.6863C56.611 96.3246 55.0777 97.7241 53.7919 98.4737C53.1701 99.4288 53.3354 99.8915 52.2175 100.478C51.6394 100.478 51.5834 99.3326 51.4058 98.9574C51.1426 98.4028 50.5758 97.9734 50.5556 97.3296C50.5399 96.8232 51.0638 96.5214 51.1119 96.0176C50.3851 93.7662 51.1268 95.0152 52.1108 93.3936C52.7528 92.3343 51.9446 92.0474 53.4928 91.4649C54.6421 91.0311 53.9179 89.985 54.9281 89.5747ZM106.709 95.3178C106.168 95.2181 105.285 94.5884 104.522 94.3898C103.638 94.7161 102.988 94.6374 102.545 93.8396C102.1 93.0358 101.528 93.6708 100.872 93.1688C100.501 92.8854 99.4255 90.8588 99.5112 90.5946C99.8838 89.4444 101.747 90.138 102.598 89.8074C102.72 90.5544 103.66 90.3663 104.26 90.5071C103.745 88.5662 101.923 89.7462 100.499 89.5686C98.2604 90.0296 99.3861 91.0599 99.8777 92.3168C100.463 93.8108 101.474 93.7434 102.693 94.6269C103.315 95.0773 103.965 94.9496 104.696 94.7476C105.237 95.0318 106.056 95.7219 106.709 95.3178ZM109.071 88.8453C108.81 89.3963 108.327 89.28 107.846 88.9905C107.699 88.9021 107.661 88.6922 107.727 88.561C107.968 88.0834 108.765 88.7823 109.071 88.8453ZM63.4125 88.4954C64.9974 88.4202 63.4186 86.7627 63.4125 88.4954ZM60.1762 87.0084C60.2829 87.7073 60.2365 88.4403 60.0013 89.1077C59.5561 88.5435 59.5727 87.3504 60.1762 87.0084ZM65.7741 86.1338C65.7225 86.5064 65.5187 86.8379 65.1618 86.921C65.0796 86.5344 65.3788 86.2763 65.7741 86.1338ZM107.933 85.8495C108.622 86.4451 108.739 88.3869 107.35 87.9496C106.54 87.6951 106.984 85.8757 107.933 85.8495ZM62.7128 84.6468C62.4486 85.7804 62.2334 87.1414 61.2258 87.8831C61.2967 86.9087 61.9474 85.267 62.7128 84.6468ZM92.4517 84.2969C91.9269 84.3328 91.6645 84.0774 91.4895 84.5593C92.5217 84.7185 94.2684 85.4515 93.0211 83.7398C92.5269 83.564 92.5138 83.864 92.4517 84.2969ZM71.6344 84.9092C72.3534 85.3326 72.9473 85.183 73.731 85.399C74.6897 85.6632 75.5687 86.1486 76.5326 86.3962C76.0349 85.1524 78.1464 86.5344 78.5444 86.746C78.3659 85.5565 79.8083 85.9545 80.3812 85.6964C79.2537 85.6291 78.072 85.937 76.97 85.5215C77.1659 85.1681 77.5918 85.0177 78.0196 84.8218C77.0084 84.8357 76.0839 85.748 75.1331 85.2591C75.2049 84.9355 75.4087 84.7019 75.7454 84.5593C75.1305 84.8191 72.9587 85.5836 72.482 84.7343C71.7473 83.424 75.9562 83.6663 75.9676 83.6619C76.7163 83.3864 76.5938 83.347 77.3146 83.6637C78.0563 83.9891 79.2205 83.2307 79.7383 83.6523C80.3165 84.6319 80.2395 84.6451 81.3424 84.939C81.5646 85.1314 81.9783 85.4358 81.9425 85.7839C81.8515 86.6673 80.8981 86.5265 80.2998 86.9017C79.8896 87.1598 79.5669 87.7021 79.0683 87.7808C78.5794 87.8577 78.1665 87.4029 77.6688 87.4781C76.2903 87.6854 76.8834 88.5724 75.6527 87.5612C74.8279 86.8834 73.9899 87.1615 73.1266 86.3822C72.6412 85.9405 71.8382 85.4288 71.6344 84.9092ZM90.7023 83.2473C90.6918 83.5998 90.7216 83.9497 90.7898 84.2969C90.1032 83.9733 89.8644 84.4535 90.0026 85.1716C90.0665 85.1095 92.7902 83.494 90.7023 83.2473ZM97.4373 83.0724V83.2473H98.1371C97.9446 83.0925 97.7111 83.0339 97.4373 83.0724ZM88.8655 83.1599C87.6978 82.259 87.8693 83.8465 88.4282 83.9471C88.4885 83.8395 88.5183 83.7223 88.5157 83.5972C89.0789 83.7818 89.574 84.0398 90.1775 84.0345C89.9204 83.403 88.9731 81.7595 88.8655 83.1599ZM99.2742 81.7604C99.2934 82.028 99.4106 82.2607 99.624 82.4601C99.8689 82.021 99.5182 82.0237 99.2742 81.7604ZM98.2245 81.7604C97.8152 81.7744 98.1589 81.9589 97.3499 81.8479C97.7723 82.2537 98.6645 82.461 98.3995 83.1599C99.3135 83.1039 99.8978 83.0138 99.4491 83.8596C99.945 83.9514 100.44 83.9514 100.936 83.8596C100.175 82.8861 99.1771 82.5144 98.2245 81.7604ZM68.8355 81.3231C68.7156 82.1767 68.8136 83.1485 67.9608 83.5972C67.9818 82.7619 66.3313 82.0394 67.1981 81.0965C67.7036 80.5472 68.3614 81.0983 68.8355 81.3231ZM91.4895 81.4105C91.6452 81.8102 91.8228 82.4164 92.1893 82.7287C92.9538 82.9954 93.6552 83.8045 94.3322 83.9812C94.8763 84.1229 96.3834 84.2208 95.2612 85.1226C94.5395 85.7025 93.9955 85.4891 93.1514 85.5871C92.4867 86.2002 92.526 86.4434 91.6986 85.9378C90.4015 85.1463 91.2648 86.1224 89.9151 85.958C88.66 85.5425 88.8944 85.036 87.6165 85.4262C86.4033 85.797 86.5004 84.8847 86.5835 84.0337C86.2301 83.2272 85.6406 83.5097 84.9295 83.0881C83.7496 82.3875 85.9878 81.0528 86.329 80.36C86.7007 80.4904 87.6865 81.1289 88.0591 81.1114C88.2191 81.1044 88.4352 80.3294 88.7754 80.4475C89.3545 80.6487 89.3921 81.3895 90.0892 81.707C90.6193 81.8531 90.9936 81.5242 91.4895 81.4105ZM93.7637 81.4105C94.1389 80.4571 95.4772 82.6202 95.304 83.2692C95.0888 84.0757 92.4281 81.24 92.1176 80.9977C91.6671 80.6452 89.8408 81.3729 90.1216 80.4562C90.6577 78.706 93.2984 81.0362 93.7637 81.4105ZM80.2937 79.7486V79.9236C80.5736 80.0425 80.836 80.0425 81.0809 79.9236C80.8579 79.7679 80.5754 79.7093 80.2937 79.7486ZM101.548 84.5593H101.111V84.7343C102.744 84.7343 101.128 83.3803 101.596 82.7295C101.886 81.6922 103.413 84.694 103.452 85.0842C102.816 86.7277 103.299 86.1023 101.461 86.3507C101.079 86.2195 100.828 86.2195 100.567 85.8722C99.8235 84.8856 99.1281 86.0218 98.1922 85.434C97.5423 84.2191 96.7796 84.9809 96.093 84.0345C95.7746 82.7864 95.7615 82.1382 94.8308 81.1263C94.4906 80.7563 94.0314 80.4361 94.5509 79.9787C94.9778 79.6008 95.9626 80.0347 96.3877 80.1492C97.6945 79.5466 98.019 79.8247 99.0992 80.5805C99.6144 80.8219 100.2 80.6565 100.556 81.1254C101.092 81.8304 101.611 83.6173 101.548 84.5593ZM78.7193 78.699C77.723 80.4816 75.8171 81.4385 79.594 80.8857C78.6948 80.8717 78.5881 80.7545 78.7193 80.0985C78.414 80.3382 78.093 80.4256 77.7572 80.3609C78.1989 79.9253 78.903 79.0463 78.7193 78.699ZM80.0313 77.9993C79.6902 78.497 79.4453 79.0681 79.3316 79.6612C79.5371 79.6629 79.768 79.5868 79.9438 79.4862C79.7812 78.9431 80.3296 78.225 80.0313 77.9993ZM66.6488 85.3466C67.0686 85.2022 67.4377 84.8699 67.7859 84.5593C68.3701 84.2733 68.8792 84.6232 69.4477 84.122C69.0708 84.1824 68.692 84.2121 68.3107 84.2095C68.6675 82.5502 69.9804 83.2132 70.9347 82.4601C68.7445 82.6045 70.8271 81.3458 71.6344 81.1481C70.793 80.8621 71.1394 80.7493 71.372 79.9236C71.058 80.3495 70.3723 81.1341 70.4974 79.9236C70.2183 80.3329 69.9507 82.2852 69.2728 82.2852C68.5407 82.2852 69.5064 79.1399 69.6227 78.7865C70.7265 79.4792 71.0178 78.6194 71.9843 78.1366C72.7934 77.7316 73.5893 78.1803 73.4354 79.0743C73.1957 80.4667 73.5692 81.8505 72.0377 82.6482C71.6467 83.4704 71.5959 83.9619 70.6522 84.3031C70.0749 84.5112 69.8755 84.3757 69.6306 84.9101C69.3235 85.5801 68.7707 85.6212 68.1104 85.7883C66.8368 86.1101 66.5692 86.858 66.2193 85.5512C65.6762 83.5246 68.3754 83.3217 66.6488 85.3466ZM82.4804 77.7369C82.3868 77.8375 82.3282 77.9547 82.3055 78.0868C82.4935 78.0308 82.5661 77.9057 82.4804 77.7369ZM88.8655 79.3988C89.1376 79.2221 89.6309 78.0133 90.1609 78.4795C90.4469 78.7314 89.8198 79.9384 90.7898 79.2238C90.8502 80.8052 87.3952 79.4355 87.5194 78.0894C87.5806 77.4307 88.4562 76.9226 89.037 77.303C89.7481 77.7701 88.6565 78.8031 88.8655 79.3988ZM86.7663 77.1246C87.0952 77.6459 88.1527 79.7032 87.8308 80.186C87.5456 80.6137 86.4882 79.9979 86.1103 80.0452C85.4167 80.1317 84.9793 80.9872 84.5901 81.4752C83.5659 82.7593 84.2822 83.3532 85.7071 83.7057C86.0027 84.129 85.575 84.5611 85.7709 85.0842C86.2529 86.0507 86.8643 86.0524 87.7232 85.8425C88.5646 85.6369 88.3241 85.6929 88.9696 86.1845C89.6833 86.7277 90.1959 86.5247 91.0513 86.2781C91.6461 86.3384 92.1657 87.0557 92.8462 86.6971C93.3115 86.4513 93.5459 86.104 94.027 85.9247C95.4405 86.132 96.1857 84.5217 97.342 84.9967C97.7496 85.1637 97.7417 85.8626 98.2254 86.0918C99.7902 86.53 99.6791 85.3798 100.762 87.0084C99.3905 86.6454 98.5998 87.1991 97.2948 87.4012C96.2836 87.5577 94.8815 87.2918 94.1144 87.9706C95.1256 87.6671 97.1286 87.9024 95.6889 89.2826C96.3143 88.6581 97.0472 88.2618 97.8213 87.8403C99.2733 87.0487 100.187 87.807 101.638 87.3618C102.193 87.793 103.031 87.8455 103.522 88.2627C104.011 89.1715 104.277 90.3987 105.399 90.3348C105.944 90.7127 106.484 91.1876 107.061 91.5576C108.036 91.7361 108.131 91.3451 108.412 92.3868C108.591 93.0524 108.389 93.8659 108.534 94.3566C108.97 95.0861 109.405 95.4412 109.073 96.2809C108.401 95.8558 108.057 94.7554 107.236 94.7065C107.711 95.4053 108.156 96.126 108.684 96.7873C109.186 97.4162 109.222 98.4632 110.035 98.1177C109.97 98.5883 110.182 98.8918 110.648 98.9924C110.456 99.3475 110.301 99.7507 110.21 100.129C110.611 100.084 110.961 100.2 111.26 100.479C110.872 99.6659 111.361 98.7746 112.047 98.2926C111.867 98.8209 112.316 99.4918 111.697 99.6046C111.787 100.277 111.84 99.986 111.96 100.304C112.181 100.221 112.386 100.105 112.572 99.9545C112.434 100.717 112.171 101.425 111.435 100.567C111.886 102.772 112.648 100.307 113.184 100.479C112.903 101.647 112.834 102.22 111.785 103.039C111.507 103.574 111.388 103.943 111.48 104.59C111.288 105.043 110.801 105.294 110.53 105.737C109.603 107.26 110.893 107.122 110.997 108.176C111.102 109.245 109.384 109.459 110.654 110.626C111.475 111.382 111.267 112.328 111.959 113.25C112.448 113.662 113.219 113.675 113.742 114.039C113.944 115.072 114.803 115.281 115.625 115.788C115.976 116.365 115.864 117.111 115.841 117.776C115.799 118.988 115.901 122.335 115.195 122.958C115.069 122.222 114.934 121.481 114.934 120.731C114.934 119.762 115.504 119.106 115.232 118.121C114.922 116.998 113.996 116.48 113.533 115.524C112.4 116.394 111.848 119.371 113.468 120.172C113.73 120.301 114.177 120.198 114.378 120.39C114.764 120.756 114.768 122.602 114.758 123.046C113.759 122.344 112.878 121.095 111.81 122.628C111.245 123.439 111.907 124.163 111.112 124.894C111.025 125.408 111.391 126.255 111.176 126.632C110.78 127.324 109.682 127.951 110.324 128.85C110.819 129.544 111.4 129.6 111.696 130.481C111.741 130.974 111.145 131.684 110.997 132.143C111.603 131.563 112.155 130.824 112.658 130.131C112.226 129.972 110.648 128.9 110.529 128.381C110.438 127.99 110.646 127.76 110.822 127.432C111.572 126.829 111.831 126.793 111.543 125.891C111.382 125.387 111.793 123.296 112.115 122.778C112.604 121.994 113.189 122.121 113.73 122.796C114.026 123.698 115.008 124.037 115.18 124.884C114.891 126.03 114.368 126.521 115.283 127.42C115.17 128.202 114.885 128.675 114.059 128.907C114.08 128.807 114.152 128.226 114.146 128.295C112.902 129.374 114.317 129.945 112.998 130.767C110.801 132.136 110.235 134.944 108.285 136.429C108.14 135.559 108.182 134.655 108.423 133.805C108.152 133.141 108.045 132.421 108.11 131.706C106.958 132.465 103.852 135.051 104.989 136.688C106.902 139.443 101.788 137.423 100.85 137.893C100.472 138.203 99.8532 139.538 99.317 139.395C98.8289 139.266 98.6094 138.955 98.0514 139.126C97.2886 139.724 96.8627 142.034 95.9513 141.965C95.2664 141.914 95.2165 141.518 95.4273 140.89C93.8853 140.977 91.8079 140.818 91.1406 142.595C90.4819 144.349 88.7168 148.138 86.2433 147.1C87.2133 145.722 89.7691 144.613 88.5332 142.666C87.7171 141.381 86.0167 141.767 84.7344 141.802C83.1294 141.844 81.7037 141.593 80.1398 141.278C75.2416 140.29 76.5484 145.634 80.4704 146.051C79.6814 145.205 78.3782 144.826 77.5761 143.777C77.1536 143.051 77.1081 141.741 78.1962 141.746C79.4077 141.75 81.2454 141.375 82.2276 142.367C82.6562 142.799 82.3203 143.505 82.9195 143.689C82.9851 142.366 82.9597 141.708 83.7942 143.077C83.928 141.919 84.4458 142.227 84.7563 143.252C85.1272 143.225 84.9837 142.491 85.3686 142.202C85.3686 142.619 85.4272 143.027 85.5435 143.427C86.0342 143.12 85.6135 142.486 86.0683 142.202C86.2301 142.944 85.7963 143.867 86.1558 144.214C85.8103 144.768 85.3135 145.243 85.1062 145.788C85.7088 145.282 86.4567 144.661 87.2054 144.389C87.564 145.383 85.7149 146.95 84.8438 147.027C84.5236 147.055 83.7277 146.343 83.4242 146.209C82.1069 145.627 81.5331 145.202 80.7328 143.952C82.2757 144.219 83.9052 144.614 85.456 144.214C84.0137 143.985 79.1575 142.293 78.1962 143.777C79.3167 143.777 79.0254 143.399 79.6578 144.311C80.1441 145.013 80.7337 144.858 81.255 145.422C82.0527 146.285 80.9865 146.497 80.5579 147.188C80.892 147.205 81.1159 147.391 81.1701 147.713C79.796 147.383 78.1184 147.486 76.844 146.898C75.8425 146.436 75.6107 145.836 74.6975 145.963C75.2101 145.456 74.8165 143.869 74.5261 143.212C73.9138 141.825 74.3975 141.587 73.0357 140.54C72.433 139.494 71.5094 138.064 70.0618 138.323C69.383 137.886 69.1836 137.056 68.4261 136.63C66.8351 135.734 66.6138 137.314 65.6009 137.926C64.9012 137.867 64.0195 137.983 63.8078 138.791C63.5411 139.808 64.8601 139.973 64.8137 140.803C64.0256 140.441 62.976 139.873 62.3314 139.228C61.8425 138.037 60.7701 137.517 60.3275 136.298C60.0467 135.525 61.4515 134.697 61.5862 133.764C61.7865 132.38 60.7299 131.317 60.0905 130.219C59.8823 130.705 59.5552 131.076 59.2053 131.495C58.4959 132.344 58.621 133.94 57.5539 132.931C57.8382 133.788 58.1251 134.655 58.5773 135.443C58.9534 136.097 59.654 136.514 59.9969 137.134C60.2654 137.621 59.7712 137.82 59.3033 137.828C59.2324 137.621 59.0724 137.461 58.8659 137.391C58.7181 138.507 59.5456 138.644 60.4823 138.626C61.2039 138.612 61.3369 138.908 61.7585 139.524C62.4827 140.581 62.4652 141.135 63.7632 141.589C63.5691 141.76 63.4527 141.963 63.4134 142.201C62.5151 141.75 61.8529 141.111 61.1392 140.539C61.2573 141.434 62.2466 141.791 61.7515 142.551C63.0582 142.169 64.421 143.177 65.2502 144.126C66.7249 143.589 64.0545 144.62 64.288 144.563H65.1627C64.1595 145.123 65.4312 145.812 65.4251 146.837C65.8135 146.535 67.785 145.48 67.3721 146.925C66.9269 148.484 62.7906 146.634 63.5883 144.65C63.0014 144.83 62.4792 144.681 62.0139 144.913C62.7337 144.944 62.7696 145.342 62.8308 145.962C63.2717 146.855 64.1586 147.46 65.1164 147.677C66.1284 147.906 67.1858 147.773 67.8095 146.905C68.5495 145.876 69.3192 146.167 70.4982 146.487C70.4589 146.057 70.3583 145.503 70.3233 145.175C71.0108 145.577 73.794 146.415 74.3468 145.525C74.4885 146.039 74.2532 146.423 73.6471 146.4C73.6759 146.748 73.8509 147.04 74.1719 147.274C73.5456 147.213 71.4971 147.373 71.9852 146.137C71.5426 145.99 71.0598 146.354 70.8481 146.662C71.0449 146.932 71.2784 147.165 71.5478 147.362C71.3073 147.44 71.3117 147.427 71.1105 147.449C72.5074 149.04 70.2043 148.912 70.6732 147.537C70.1352 147.53 69.7574 147.866 69.9035 148.368C69.9927 148.674 70.2971 148.914 70.5857 149.061C71.9143 149.249 72.9482 148.774 74.1614 149.699C75.0247 150.357 72.4794 150.952 73.2535 151.557C74.0275 152.161 75.853 152.555 76.621 151.91C75.8521 151.929 74.6836 152.211 75.4839 151.21C75.0614 151.383 74.6241 151.499 74.1719 151.56C74.0459 148.838 76.9253 150.456 77.7886 151.534C79.6351 153.839 81.1369 150.633 82.7874 150.135C83.4268 149.941 84.1948 151.573 84.521 151.971C85.6607 153.023 87.2176 152.753 88.4413 152.014C88.8647 151.758 89.5364 150.788 90.07 151.189C90.8851 151.802 91.1239 153.146 92.4534 152.786C91.3723 152.615 89.7551 151.015 91.4038 150.337C91.5866 151.002 93.399 153.401 93.8529 152.348C92.7701 152.201 91.8106 151.207 91.8412 150.074C92.5155 150.359 94.3996 152.144 95.1649 151.88C95.9565 151.606 95.6609 150.772 95.074 150.479C93.8555 149.872 92.0109 150.765 91.0531 149.094C90.8677 148.769 91.1082 148.89 91.1423 148.602C91.4231 148.417 91.7318 148.328 92.0677 148.335C92.4718 148.048 92.2164 147.47 92.7167 147.1C92.6852 147.554 92.896 147.871 93.329 147.975C93.1943 146.34 94.543 146.302 95.5393 147.05C97.6254 148.616 100.389 148.521 102.863 148.412C101.633 148.037 100.844 148.423 99.5995 148.187C98.4056 147.96 96.4595 148.054 97.8292 146.877C98.1756 146.58 98.3794 145.855 98.8394 145.722C99.1587 145.629 99.75 146.178 100.242 146.162C101.38 146.127 102.064 146.48 103.12 145.812C103.452 145.861 103.483 145.767 103.722 146.094C103.967 146.43 104.178 147.082 104.35 147.468C104.419 147.623 104.932 147.574 104.978 147.889C104.914 148.338 104.532 148.371 104.175 148.532C103.891 148.794 103.627 149.074 103.383 149.374C102.545 149.571 102.009 149.195 101.183 149.533C99.7342 150.125 99.0362 148.579 97.5274 149.606C96.1481 149.773 95.7527 146.853 93.7663 147.188C94.3777 147.818 95.3609 147.976 95.9469 148.883C96.1612 149.214 96.3457 149.702 96.7402 149.899C97.454 150.044 98.3732 149.526 98.9427 149.668C99.9144 151.287 101.143 150.014 102.467 150.058C103.683 150.1 104.794 149.331 105.673 148.519C106.222 148.012 106.01 147.731 105.807 147.253C104.816 146.777 104.593 145.52 103.475 145.358C102.911 145.277 102.134 146.24 101.716 145.701C101.198 145.019 102.308 144.519 102.682 144.313C103.203 143.983 103.057 143.861 103.54 143.809C104.334 144.691 105.744 143.921 106.745 144.203C108.316 144.646 108.605 143.271 109.856 143.167C111.129 143.061 111.079 142.521 112.138 141.811C113.737 140.741 114.151 136.71 111.335 137.649C111.053 137.744 109.74 138.28 109.843 137.434C109.934 136.686 110.308 135.519 110.996 135.116C111.013 135.91 110.375 136.603 111.52 136.603C112.534 136.214 113.46 135.618 114.232 134.854C115.678 134.819 116.448 134.359 117.376 133.28C118.113 131.736 115.998 132.471 115.571 132.831C114.537 133.704 113.347 136.094 111.832 135.991C113.361 133.838 113.4 131.695 115.864 130.179C116.99 129.486 117.38 128.632 118.779 129.008C119.881 128.564 119.837 127.575 120.616 126.935C121.732 126.733 122.882 125.928 122.752 124.688C122.712 124.298 122.352 123.706 122.422 123.352C122.524 122.827 122.981 122.477 123.106 121.909C123.11 120.754 122.039 120.676 121.174 120.9C120.147 121.167 119.54 120.582 118.43 120.947C118.79 119.434 120.139 119.106 121.316 118.444C122.704 117.305 121.673 115.819 121.928 114.387C121.171 115.028 119.851 114.933 119.479 116.049C120.323 115.612 121.338 114.824 121.753 116.311C120.678 116.586 120.409 116.562 119.304 116.223C118.815 117.033 118.744 117.807 119.184 118.673C119.051 119.333 117.953 120.32 117.555 121.034C117.404 119.258 117.638 117.048 118.104 115.307C118.422 114.122 118.855 112.973 119.179 111.791C119.545 110.458 119.982 111.425 120.528 110.451C119.887 110.5 118.041 109.586 118.866 108.705C119.388 107.869 120.991 109.393 120.965 110.101C122.418 109.186 121.713 106.587 121.665 105.203C120.975 105.45 119.352 106.987 118.962 107.595C118.302 108.623 118.426 109.427 118.887 110.538C118.839 110.907 118.705 111.243 118.486 111.545C117.746 112.06 117.94 112.663 117.554 113.424C116.119 111.011 116.03 106.849 116.504 104.153C115.731 104.208 115.282 104.247 115.033 103.191C115.485 101.963 114.745 101.429 114.24 100.399C113.97 99.8487 113.238 99.7839 113.056 99.1673C112.882 98.5795 113.614 98.0486 113.161 97.5107C111.681 96.2572 112.81 96.2739 112.306 94.7065C111.918 94.9837 111.693 95.5698 111.519 96.1059C110.18 95.1692 111.121 94.1327 110.732 92.7822C111.095 91.1596 110.18 90.9733 109.711 89.5774C109.364 88.5487 109.479 86.9839 108.876 86.0935C108.498 85.5337 107.612 85.3745 107.058 85.085C106.737 86.6717 106.315 89.3263 108.632 89.601C109.984 90.7442 109.372 92.2425 109.944 93.7452C109.015 93.914 109.073 91.1115 108.02 90.5964C108.122 92.6746 106.313 89.3473 106.075 88.8348C105.236 87.0251 105.224 88.4245 104.171 88.7595C105.276 85.2285 103.531 82.9036 100.994 80.702C99.4963 79.4031 98.0391 79.7976 96.3869 79.8169C95.3145 79.3445 93.873 79.6743 93.8503 80.9749C93.0806 80.4335 92.2986 79.9113 91.5254 79.376C91.1922 78.9466 91.2464 78.371 90.9359 77.9136C89.8898 76.7607 88.1562 76.9033 86.7663 77.1246ZM80.6436 79.1364C80.9646 78.9317 83.007 75.2546 83.6761 77.2156C83.8047 77.5926 83.5178 77.8077 83.3192 78.1095C82.9379 78.6903 83.4697 79.2107 83.0953 79.7338C82.825 80.1125 82.1498 80.1492 81.8104 80.3137C81.569 80.4842 81.6188 80.8883 81.4404 81.1088C80.9305 81.7394 79.5275 81.484 78.8295 81.8207C78.0624 82.1907 77.1116 82.3044 76.6201 81.5846C76.1889 79.893 77.4869 80.2078 77.2682 78.6107C77.8822 77.8322 78.4315 78.0605 79.1715 77.3686C79.5214 77.1561 79.5354 76.2001 80.1345 76.857C81.1728 77.9949 80.8561 77.4185 80.6436 79.1364ZM60.5261 90.5071C60.1001 88.4866 63.0714 86.0638 63.5 84.0345C61.8818 83.3366 61.4777 86.5011 60.7885 86.921C60.7517 85.9588 61.0955 84.827 59.9138 84.7343C59.6488 86.6227 59.48 88.5225 59.2928 90.4205C59.1756 91.6049 58.5895 91.4763 58.4268 92.4314C57.1717 91.1255 54.8582 87.1344 53.6992 90.7258C53.4893 91.3757 52.2272 91.3888 51.8327 91.9958C51.0393 93.2169 51.7128 93.2239 50.2548 94.2053C49.8437 94.8998 50.3449 95.4735 50.2924 96.1925C49.5078 97.8072 50.5915 98.8918 51.216 100.391C51.8755 101.973 50.7761 104.255 50.4953 105.851C50.1411 107.867 49.8699 109.899 49.6801 111.937C49.548 111.538 49.4369 110.902 49.1063 110.537C48.6725 110.312 48.1783 109.999 48.1669 109.446C48.1555 108.912 48.6996 108.847 49.0153 108.499C49.6897 107.754 49.3932 106.915 49.1465 106.047C48.9366 105.308 48.5115 103.797 47.7917 103.405C47.4156 103.2 46.7158 104.841 46.5689 105.149C45.3916 107.613 47.4374 108.738 48.1066 110.887C47.6115 110.784 47.2756 110.535 46.7945 110.537C47.5686 111.631 48.9489 111.321 49.3232 112.989C49.6075 114.255 50.1717 115.165 50.2058 116.572C49.3932 115.689 48.3978 114.895 47.461 114.192C46.8435 113.728 45.8665 113.774 45.4607 114.473C45.3487 114.666 45.3767 114.959 45.3076 115.173C45.6496 116.298 45.2035 116.653 44.8073 117.71C44.8055 118.229 44.8668 118.332 45.2114 118.821C45.8324 119.701 45.3365 119.598 45.4274 120.508C45.5105 121.343 46.5085 121.492 46.9275 122.085C47.378 122.721 47.1365 123.008 47.9316 123.434C49.318 123.202 50.5504 125 51.3192 125.919C52.5377 127.376 53.0144 129.336 53.617 131.092C52.214 130.769 54.0911 132.236 54.2293 132.404C52.5062 132.75 51.1688 130.806 51.3254 129.343C50.8872 127.105 49.5314 127.375 48.1713 126.281C47.4147 126.512 47.5975 129.021 48.0121 129.782C48.4704 130.622 49.3521 131.029 50.2924 130.859C51.1898 131.207 52.0942 131.945 52.8919 132.502C53.8374 133.163 57.0702 135.552 54.1479 135.848C53.101 135.953 52.8709 136.065 52.312 136.897C51.7382 137.752 52.982 138.356 53.2042 139.008C53.5313 139.969 53.3634 140.678 54.4033 141.272C55.4914 141.589 55.8667 141.565 56.9119 142.107C57.8574 142.598 58.3166 141.704 59.1266 141.919C60.0765 142.466 60.2934 143.163 61.4882 142.9C60.6634 142.158 59.3697 141.244 58.2152 141.774C57.1332 142.271 56.5717 141.016 55.5457 140.894C54.3211 140.748 54.2888 140.228 53.9599 139.101C53.757 138.409 52.5254 137.566 52.9199 136.883C53.3773 136.091 53.7578 136.503 54.6657 136.37C55.8457 136.042 55.753 135.302 56.7002 136.778C57.5321 137.192 57.4665 136.775 58.4268 136.691C57.6414 136.302 57.3851 135.732 57.2898 134.767C57.1035 134.907 57.016 135.111 57.0274 135.379C56.1265 134.94 55.327 134.214 54.9281 133.28C55.5037 133.762 55.8824 133.103 55.9778 132.842C56.0897 133.534 56.018 134.176 56.4151 134.504C56.4151 133.024 56.4265 133.017 56.0197 132.097C55.4748 131.297 54.6771 130.506 54.2713 129.693C53.9975 129.146 54.6797 128.98 54.0867 128.382C53.6607 127.954 53.0896 128.135 52.8237 127.419C52.6881 126.889 53.3817 126.528 53.3214 126.02C52.3837 124.396 53.1219 124.661 53.6669 123.265C53.9161 122.627 53.2706 122.102 53.8208 121.618C54.7812 120.774 55.5737 122.672 56.2402 123.086C58.2204 122.783 57.4673 123.894 57.8111 124.97C58.007 125.583 58.5064 125.77 58.6359 126.37C58.6735 126.546 58.2843 126.797 58.2956 126.982C58.3569 127.2 58.8073 128.198 58.7111 128.381C58.5755 128.639 58.1872 128.87 57.9816 129.083C57.8102 129.44 58.1548 129.786 58.0857 130.175C58.0569 130.34 57.9125 130.783 57.6396 130.698C56.9049 130.468 57.393 128.258 57.5522 127.769C57.3694 127.916 57.1682 128.106 57.0274 128.294C56.5935 127.223 56.7798 126.38 57.2023 125.32C56.7938 125.273 56.4335 125.712 56.2402 126.02C55.9699 125.192 56.2533 124.814 56.3276 124.008C56.0862 124.027 56.0145 124.193 55.8903 124.358C55.5894 123.941 55.3865 122.802 54.7532 122.958C54.9229 123.418 55.069 123.884 55.1906 124.358C54.8914 124.183 54.5704 124.066 54.2284 124.008C54.7383 124.868 55.5395 125.368 55.8028 126.37C55.3611 126.182 54.245 125.391 53.8785 125.932C55.0314 126.26 55.9708 127.144 56.3276 128.294C55.7775 128.146 55.5422 127.95 55.0156 127.944C55.7766 128.79 56.5585 128.922 56.8244 130.134C57.0116 130.989 57.0702 132.087 57.5522 132.755C57.9029 130.903 59.9444 129.359 59.4082 127.419C59.5377 126.475 60.0537 126.484 59.4782 125.609C58.9333 124.779 58.6962 123.46 58.0639 122.806C57.5609 122.287 57.1 122.411 56.5026 122.102C56.046 121.534 55.411 121.115 54.6972 120.951C53.3642 120.645 52.3015 121.946 52.4974 119.461C52.5534 119.354 52.5884 119.28 52.6724 119.199C53.7675 119.175 54.3552 118.854 54.8494 117.864C55.4591 116.642 55.0541 115.388 55.0156 114.123C54.4541 115.056 53.0493 115.034 52.1537 115.72C51.2178 115.457 52.0277 113.292 52.3496 112.724C52.3295 111.966 52.3715 110.972 52.8788 110.362C53.5689 109.533 54.5127 109.968 55.3812 109.549C56.018 109.242 56.1335 109.055 56.2113 108.439C56.7492 107.911 57.4114 107.801 57.6248 106.964C57.8067 106.252 58.4164 105.943 58.5476 105.288C58.6796 104.626 58.4776 103.962 58.5589 103.279C58.6604 102.424 58.5056 102.119 57.7271 101.62C57.2618 101.462 55.8474 101.071 55.411 101.394C54.9299 103.042 54.8704 102.619 53.8785 103.289C53.2776 103.695 53.1508 103.428 52.9321 104.291C52.7843 104.873 52.8351 105.255 52.2167 105.376C53.0284 103.343 54.2678 101.516 55.1906 99.5154C57.4979 101.594 59.2403 98.485 59.9138 96.629C58.6149 96.3535 57.5006 96.7917 56.2874 97.0943C56.3801 96.2109 57.7516 95.5995 58.5493 95.2671C59.7074 94.7843 58.9403 94.821 59.5281 94.1274C59.8762 93.7163 60.6293 94.472 60.7885 94.5735C61.322 94.7117 61.5188 94.7082 62.1084 94.5534C63.1099 94.291 63.3364 94.8307 64.3257 94.7204C65.1881 94.6251 65.4837 94.2105 66.3724 94.2612C67.2427 94.3111 67.7456 93.977 68.3422 93.349C68.853 92.811 70.5988 91.9451 70.4221 91.0241C70.1387 89.5502 67.5707 89.3771 66.2989 89.4811C65.2178 90.0611 64.7805 90.299 63.8936 89.4129C63.7151 89.2345 63.7081 89.0718 63.8481 88.8592C64.4805 87.8997 66.7266 87.1029 67.7439 86.5912C69.7688 85.5731 70.9522 84.8646 72.6534 86.6594C73.3628 87.4082 73.9025 87.5796 74.9582 87.6251C75.3343 87.9338 75.6973 88.3423 76.1827 88.4412C76.7504 88.5566 77.3775 88.1875 77.8446 87.8892C78.31 88.0283 79.0823 88.1744 79.5476 87.9706C80.0882 87.7344 81.6188 86.8615 82.0151 86.4618C82.3203 86.1539 82.3028 85.7314 82.1472 85.3457C81.7579 84.3818 80.662 84.6381 80.1818 83.5981C79.3307 83.1205 78.8951 83.6829 78.0196 83.5718C76.6831 82.8765 76.6043 83.4485 75.2643 83.4625C74.8384 83.4669 74.3197 83.3051 74.3433 82.8152C74.3879 81.8951 76.251 82.8319 76.6271 82.684C79.2257 81.6651 81.7544 82.6132 83.7006 80.0093C84.1773 78.7191 85.1184 76.1572 82.6746 76.5167C81.792 76.6462 81.5506 76.822 80.7022 76.5298C80.0471 76.3042 79.7514 76.3733 79.1558 76.6637C78.7438 76.8106 78.2618 77.4439 77.7335 77.659C76.3376 78.2293 77.0548 79.1049 75.9746 80.0338C75.874 80.2297 75.8617 81.0493 75.6273 81.1149C74.178 81.5207 74.4815 79.7583 74.366 78.7191C74.1701 76.9523 72.4846 76.8981 71.2933 78.099C70.6216 78.7769 69.8387 77.9905 69.2177 78.6299C68.8049 79.0541 68.7401 79.6944 68.2521 80.0189C67.5112 80.5114 66.6059 80.5848 66.473 81.6703C66.6147 82.4033 67.2313 82.9569 66.5648 83.5631C66.0479 84.0337 65.5703 83.9829 65.545 84.7754C65.4732 87.0303 61.6045 88.5277 60.5261 90.5071Z" fill="black"/>
</svg>
