<svg width="168" height="261" viewBox="0 0 168 261" fill="none" xmlns="http://www.w3.org/2000/svg">
<path d="M0.199951 245.185C0.199951 248.964 3.2888 252.052 7.0674 252.052H159.856C163.624 252.052 166.713 248.964 166.713 245.185V16.8699C166.713 13.0913 163.624 10.0024 159.856 10.0024H7.0674C3.2888 10.0024 0.199951 13.0913 0.199951 16.8699V245.185Z" fill="white" stroke="black" stroke-width="2.49907"/>
<path d="M10.4608 32.6902H4.98865L13.3266 8.53734H19.9073L28.2335 32.6902H22.7613L16.7113 14.0567H16.5226L10.4608 32.6902ZM10.1188 23.1965H23.0444V27.1827H10.1188V23.1965Z" fill="#E6180A"/>
<path d="M157.452 228.368H162.924L154.586 252.521H148.005L139.679 228.368H145.151L151.201 247.002H151.39L157.452 228.368ZM157.794 237.862H144.868V233.876H157.794V237.862Z" fill="#E6180A"/>
<path d="M13.8448 60.1368C16.4039 60.1368 18.9629 60.1368 21.522 60.1368C20.6476 60.0978 19.9036 59.532 19.2008 59.0644C17.6224 57.8736 16.144 56.5082 14.9764 54.9107C14.4316 54.107 13.8592 53.2034 13.8448 52.1998M21.522 60.1368C20.4124 60.1718 19.4647 60.8778 18.6191 61.5293C17.1246 62.7838 15.8311 64.2763 14.7395 65.8917C14.3386 66.5604 13.8668 67.2692 13.8448 68.0739C13.8448 65.4278 13.8448 62.7828 13.8448 60.1368M13.8448 68.0739C13.8068 66.8923 13.0871 65.8687 12.4074 64.955C11.1958 63.4456 9.76035 62.1101 8.18094 60.9935C7.56716 60.6106 6.91541 60.1553 6.16768 60.1368C8.72673 60.1368 11.2858 60.1368 13.8448 60.1368M6.16768 60.1368C7.27727 60.1018 8.22492 59.3961 9.0706 58.7453C10.565 57.4898 11.8586 55.9973 12.9502 54.3819C13.351 53.7132 13.8223 53.0045 13.8448 52.1998C13.8448 54.8458 13.8448 57.4908 13.8448 60.1368" fill="#E6180A"/>
<path d="M154.068 200.921C151.509 200.921 148.95 200.921 146.391 200.921C147.265 200.96 148.009 201.526 148.712 201.994C150.29 203.185 151.769 204.55 152.936 206.147C153.481 206.951 154.053 207.855 154.068 208.858M146.391 200.921C147.5 200.886 148.448 200.18 149.294 199.529C150.788 198.274 152.082 196.782 153.173 195.167C153.574 194.498 154.046 193.789 154.068 192.984C154.068 195.63 154.068 198.275 154.068 200.921M154.068 192.984C154.106 194.166 154.825 195.19 155.505 196.103C156.717 197.613 158.152 198.948 159.732 200.065C160.345 200.448 160.997 200.903 161.745 200.921C159.186 200.921 156.627 200.921 154.068 200.921M161.745 200.921C160.635 200.956 159.688 201.662 158.842 202.313C157.348 203.568 156.054 205.061 154.962 206.676C154.562 207.345 154.09 208.054 154.068 208.858C154.068 206.212 154.068 203.567 154.068 200.921" fill="#E6180A"/>
<path d="M83.9564 123.662C90.0981 123.662 96.2398 123.662 102.382 123.662C100.283 123.568 98.4974 122.21 96.8108 121.088C93.0226 118.23 89.4743 114.953 86.6722 111.119C85.3647 109.19 83.9909 107.022 83.9564 104.613M102.382 123.662C99.7185 123.746 97.4442 125.44 95.4145 127.004C91.8279 130.015 88.7234 133.596 86.1036 137.473C85.1415 139.078 84.0092 140.779 83.9564 142.711C83.9564 136.36 83.9564 130.012 83.9564 123.662M83.9564 142.711C83.8652 139.875 82.1379 137.418 80.5065 135.225C77.5987 131.603 74.1536 128.398 70.363 125.718C68.89 124.799 67.3258 123.706 65.5312 123.662C71.673 123.662 77.8147 123.662 83.9564 123.662M65.5312 123.662C68.1942 123.578 70.4686 121.884 72.4982 120.322C76.0849 117.309 79.1894 113.727 81.8092 109.85C82.7712 108.245 83.9024 106.544 83.9564 104.613C83.9564 110.963 83.9564 117.311 83.9564 123.662" fill="#E6180A"/>
</svg>
