<svg width="168" height="261" viewBox="0 0 168 261" fill="none" xmlns="http://www.w3.org/2000/svg">
<path d="M0.199951 245.279C0.199951 249.058 3.2888 252.147 7.0674 252.147H159.856C163.624 252.147 166.713 249.058 166.713 245.279V16.9641C166.713 13.1855 163.624 10.0966 159.856 10.0966H7.0674C3.2888 10.0966 0.199951 13.1855 0.199951 16.9641V245.279Z" fill="white" stroke="black" stroke-width="2.49907"/>
<path d="M10.4608 32.7845H4.98865L13.3266 8.63157H19.9073L28.2335 32.7845H22.7613L16.7113 14.1509H16.5226L10.4608 32.7845ZM10.1188 23.2908H23.0444V27.277H10.1188V23.2908Z" fill="black"/>
<path d="M157.452 228.462H162.924L154.586 252.615H148.005L139.679 228.462H145.151L151.201 247.096H151.39L157.452 228.462ZM157.794 237.956H144.868V233.97H157.794V237.956Z" fill="black"/>
<path d="M9.92637 68.1581C11.5957 68.1581 12.4754 66.3788 12.9353 64.5994C13.3951 62.8201 13.4351 61.0408 13.4351 61.0408L14.2847 61.0308C14.2847 61.0308 14.4447 68.1581 17.7834 68.1581H9.92637Z" fill="black"/>
<path d="M7.09743 61.0308C7.10742 57.5621 12.3155 55.043 13.8449 52.304C15.3743 55.053 20.5824 57.5721 20.5924 61.0308C20.5924 62.6702 19.083 63.9997 17.2137 63.9997C15.3544 63.9997 13.8449 62.6702 13.8449 61.0308C13.8449 62.6702 12.3355 63.9997 10.4662 63.9997C8.59687 63.9997 7.09743 62.6702 7.09743 61.0308Z" fill="black"/>
<path d="M157.986 193.089C156.317 193.089 155.437 194.868 154.977 196.647C154.518 198.427 154.478 200.206 154.478 200.206L153.628 200.216C153.628 200.216 153.468 193.089 150.129 193.089H157.986Z" fill="black"/>
<path d="M160.815 200.216C160.805 203.685 155.597 206.204 154.068 208.943C152.538 206.194 147.33 203.675 147.32 200.216C147.32 198.577 148.83 197.247 150.699 197.247C152.558 197.247 154.068 198.577 154.068 200.216C154.068 198.577 155.577 197.247 157.446 197.247C159.316 197.247 160.815 198.577 160.815 200.216Z" fill="black"/>
<path d="M74.5519 142.78C78.5584 142.78 80.6696 138.51 81.7732 134.24C82.8768 129.969 82.9728 125.699 82.9728 125.699L85.012 125.675C85.012 125.675 85.3959 142.78 93.4089 142.78H74.5519Z" fill="black"/>
<path d="M67.7624 125.675C67.7864 117.35 80.2858 111.304 83.9564 104.731C87.627 111.328 100.126 117.374 100.15 125.675C100.15 129.609 96.5277 132.8 92.0414 132.8C87.5791 132.8 83.9564 129.609 83.9564 125.675C83.9564 129.609 80.3338 132.8 75.8474 132.8C71.3611 132.8 67.7624 129.609 67.7624 125.675Z" fill="black"/>
</svg>
