<svg width="170" height="261" viewBox="0 0 170 261" fill="none" xmlns="http://www.w3.org/2000/svg">
<path d="M1.80933 245.185C1.80933 248.964 4.89818 252.052 8.67677 252.052H161.465C165.234 252.052 168.322 248.964 168.322 245.185V16.8699C168.322 13.0913 165.234 10.0024 161.465 10.0024H8.67677C4.89818 10.0024 1.80933 13.0913 1.80933 16.8699V245.185Z" fill="white" stroke="black" stroke-width="2.49907"/>
<path d="M15.2309 6.4326V24.6902H11.3707V10.0966H11.2638L7.08269 12.7176V9.29428L11.6025 6.4326H15.2309ZM26.7288 25.0914C25.1955 25.0855 23.8761 24.7081 22.7706 23.9592C21.6711 23.2104 20.8242 22.1257 20.2299 20.7053C19.6415 19.2849 19.3503 17.5762 19.3562 15.5793C19.3562 13.5883 19.6504 11.8915 20.2388 10.4889C20.8331 9.08626 21.68 8.01945 22.7795 7.28843C23.885 6.55147 25.2014 6.18299 26.7288 6.18299C28.2562 6.18299 29.5697 6.55147 30.6692 7.28843C31.7746 8.02539 32.6245 9.09518 33.2188 10.4978C33.8132 11.8944 34.1074 13.5883 34.1014 15.5793C34.1014 17.5821 33.8043 19.2938 33.2099 20.7142C32.6215 22.1347 31.7776 23.2193 30.6781 23.9681C29.5786 24.717 28.2622 25.0914 26.7288 25.0914ZM26.7288 21.891C27.7748 21.891 28.6099 21.365 29.2339 20.313C29.8579 19.2611 30.167 17.6832 30.161 15.5793C30.161 14.1945 30.0184 13.0415 29.7331 12.1203C29.4538 11.1991 29.0556 10.5067 28.5385 10.0431C28.0274 9.57955 27.4242 9.34777 26.7288 9.34777C25.6888 9.34777 24.8567 9.8678 24.2327 10.9079C23.6086 11.9479 23.2936 13.5051 23.2877 15.5793C23.2877 16.9819 23.4273 18.1527 23.7067 19.0917C23.992 20.0248 24.3931 20.7261 24.9102 21.1956C25.4272 21.6592 26.0335 21.891 26.7288 21.891Z" fill="#E6180A"/>
<path d="M155.905 254.626V236.368H159.766V250.962H159.873L164.054 248.341V251.764L159.534 254.626H155.905ZM144.408 235.967C145.941 235.973 147.26 236.35 148.366 237.099C149.465 237.848 150.312 238.932 150.906 240.353C151.495 241.773 151.786 243.482 151.78 245.479C151.78 247.47 151.486 249.167 150.898 250.569C150.303 251.972 149.456 253.039 148.357 253.77C147.251 254.507 145.935 254.875 144.408 254.875C142.88 254.875 141.567 254.507 140.467 253.77C139.362 253.033 138.512 251.963 137.918 250.56C137.323 249.164 137.029 247.47 137.035 245.479C137.035 243.476 137.332 241.764 137.926 240.344C138.515 238.924 139.359 237.839 140.458 237.09C141.558 236.341 142.874 235.967 144.408 235.967ZM144.408 239.167C143.362 239.167 142.526 239.693 141.902 240.745C141.278 241.797 140.969 243.375 140.975 245.479C140.975 246.864 141.118 248.017 141.403 248.938C141.683 249.859 142.081 250.552 142.598 251.015C143.109 251.479 143.712 251.71 144.408 251.71C145.448 251.71 146.28 251.19 146.904 250.15C147.528 249.11 147.843 247.553 147.849 245.479C147.849 244.076 147.709 242.906 147.43 241.967C147.144 241.033 146.743 240.332 146.226 239.863C145.709 239.399 145.103 239.167 144.408 239.167Z" fill="#E6180A"/>
<path d="M15.4643 60.1368C18.0234 60.1368 20.5824 60.1368 23.1415 60.1368C22.2671 60.0978 21.5231 59.532 20.8203 59.0644C19.2419 57.8736 17.7635 56.5082 16.5959 54.9107C16.0511 54.107 15.4787 53.2034 15.4643 52.1998M23.1415 60.1368C22.0319 60.1718 21.0842 60.8778 20.2386 61.5293C18.7441 62.7838 17.4506 64.2763 16.359 65.8917C15.9582 66.5604 15.4863 67.2692 15.4643 68.0739C15.4643 65.4278 15.4643 62.7828 15.4643 60.1368M15.4643 68.0739C15.4263 66.8923 14.7066 65.8687 14.0269 64.955C12.8153 63.4456 11.3799 62.1101 9.80044 60.9935C9.18667 60.6106 8.53491 60.1553 7.78719 60.1368C10.3462 60.1368 12.9053 60.1368 15.4643 60.1368M7.78719 60.1368C8.89678 60.1018 9.84443 59.3961 10.6901 58.7453C12.1846 57.4898 13.4781 55.9973 14.5697 54.3819C14.9705 53.7132 15.4418 53.0045 15.4643 52.1998C15.4643 54.8458 15.4643 57.4908 15.4643 60.1368" fill="#E6180A"/>
<path d="M155.682 200.921C153.123 200.921 150.564 200.921 148.005 200.921C148.879 200.96 149.623 201.526 150.326 201.994C151.904 203.185 153.383 204.55 154.55 206.147C155.095 206.951 155.668 207.855 155.682 208.858M148.005 200.921C149.114 200.886 150.062 200.18 150.908 199.529C152.402 198.274 153.696 196.782 154.787 195.167C155.188 194.498 155.66 193.789 155.682 192.984C155.682 195.63 155.682 198.275 155.682 200.921M155.682 192.984C155.72 194.166 156.44 195.19 157.119 196.103C158.331 197.613 159.767 198.948 161.346 200.065C161.96 200.448 162.611 200.903 163.359 200.921C160.8 200.921 158.241 200.921 155.682 200.921M163.359 200.921C162.25 200.956 161.302 201.662 160.456 202.313C158.962 203.568 157.668 205.061 156.577 206.676C156.176 207.345 155.705 208.054 155.682 208.858C155.682 206.212 155.682 203.567 155.682 200.921" fill="#E6180A"/>
<path d="M45.6573 46.7492C51.799 46.7492 57.9407 46.7492 64.0824 46.7492C61.9839 46.6557 60.1982 45.2978 58.5117 44.1755C54.7235 41.3177 51.1752 38.0405 48.373 34.2067C47.0655 32.2778 45.6918 30.109 45.6573 27.7003M64.0824 46.7492C61.4194 46.8332 59.145 48.5277 57.1154 50.0912C53.5287 53.1021 50.4243 56.6839 47.8045 60.5609C46.8424 62.1659 45.71 63.8669 45.6573 65.7982C45.6573 59.4477 45.6573 53.0997 45.6573 46.7492M45.6573 65.7982C45.5661 62.9624 43.8387 60.5057 42.2073 58.3129C39.2996 54.6903 35.8545 51.4851 32.0639 48.8053C30.5909 47.8864 29.0266 46.7936 27.2321 46.7492C33.3738 46.7492 39.5155 46.7492 45.6573 46.7492M27.2321 46.7492C29.8951 46.6653 32.1695 44.9715 34.1991 43.4097C37.7858 40.3964 40.8902 36.8145 43.51 32.9376C44.4721 31.3326 45.6033 29.6316 45.6573 27.7003C45.6573 34.0508 45.6573 40.3988 45.6573 46.7492" fill="#E6180A"/>
<path d="M45.6573 100.885C51.799 100.885 57.9407 100.885 64.0824 100.885C61.9839 100.792 60.1982 99.4339 58.5117 98.3116C54.7235 95.4538 51.1752 92.1766 48.373 88.3428C47.0655 86.4139 45.6918 84.2451 45.6573 81.8364M64.0824 100.885C61.4194 100.969 59.145 102.664 57.1154 104.227C53.5287 107.238 50.4243 110.82 47.8045 114.697C46.8424 116.302 45.71 118.003 45.6573 119.934C45.6573 113.584 45.6573 107.236 45.6573 100.885M45.6573 119.934C45.5661 117.099 43.8387 114.642 42.2073 112.449C39.2996 108.826 35.8545 105.621 32.0639 102.941C30.5909 102.023 29.0266 100.93 27.2321 100.885C33.3738 100.885 39.5155 100.885 45.6573 100.885M27.2321 100.885C29.8951 100.801 32.1695 99.1076 34.1991 97.5458C37.7858 94.5325 40.8902 90.9506 43.51 87.0737C44.4721 85.4687 45.6033 83.7677 45.6573 81.8364C45.6573 88.1869 45.6573 94.5349 45.6573 100.885" fill="#E6180A"/>
<path d="M45.6576 156.025C39.5159 156.025 33.3741 156.025 27.2324 156.025C29.3309 156.118 31.1166 157.476 32.8032 158.599C36.5913 161.456 40.1396 164.734 42.9418 168.567C44.2493 170.496 45.623 172.665 45.6576 175.074M27.2324 156.025C29.8954 155.941 32.1698 154.246 34.1994 152.683C37.7861 149.672 40.8905 146.09 43.5104 142.213C44.4724 140.608 45.6048 138.907 45.6576 136.976C45.6576 143.326 45.6576 149.674 45.6576 156.025M45.6576 136.976C45.7487 139.812 47.4761 142.268 49.1075 144.461C52.0152 148.084 55.4603 151.289 59.2509 153.969C60.724 154.888 62.2882 155.98 64.0827 156.025C57.941 156.025 51.7993 156.025 45.6576 156.025M64.0827 156.025C61.4197 156.109 59.1454 157.803 57.1157 159.364C53.529 162.378 50.4246 165.96 47.8048 169.836C46.8427 171.441 45.7115 173.142 45.6576 175.074C45.6576 168.723 45.6576 162.375 45.6576 156.025" fill="#E6180A"/>
<path d="M45.6576 210.161C39.5159 210.161 33.3741 210.161 27.2324 210.161C29.3309 210.254 31.1166 211.612 32.8032 212.735C36.5913 215.592 40.1396 218.87 42.9418 222.703C44.2493 224.632 45.623 226.801 45.6576 229.21M27.2324 210.161C29.8954 210.077 32.1698 208.382 34.1994 206.819C37.7861 203.808 40.8905 200.226 43.5104 196.349C44.4724 194.744 45.6048 193.043 45.6576 191.112C45.6576 197.462 45.6576 203.81 45.6576 210.161M45.6576 191.112C45.7487 193.948 47.4761 196.404 49.1075 198.597C52.0152 202.22 55.4603 205.425 59.2509 208.105C60.724 209.024 62.2882 210.117 64.0827 210.161C57.941 210.161 51.7993 210.161 45.6576 210.161M64.0827 210.161C61.4197 210.245 59.1454 211.939 57.1157 213.5C53.529 216.514 50.4246 220.096 47.8048 223.973C46.8427 225.578 45.7115 227.279 45.6576 229.21C45.6576 222.859 45.6576 216.511 45.6576 210.161" fill="#E6180A"/>
<path d="M125.485 46.7492C131.627 46.7492 137.769 46.7492 143.91 46.7492C141.812 46.6557 140.026 45.2978 138.34 44.1755C134.551 41.3177 131.003 38.0405 128.201 34.2067C126.894 32.2778 125.52 30.109 125.485 27.7003M143.91 46.7492C141.247 46.8332 138.973 48.5277 136.943 50.0912C133.357 53.1021 130.252 56.6839 127.632 60.5609C126.67 62.1659 125.538 63.8669 125.485 65.7982C125.485 59.4477 125.485 53.0997 125.485 46.7492M125.485 65.7982C125.394 62.9624 123.667 60.5057 122.035 58.3129C119.128 54.6903 115.683 51.4851 111.892 48.8053C110.419 47.8864 108.855 46.7936 107.06 46.7492C113.202 46.7492 119.344 46.7492 125.485 46.7492M107.06 46.7492C109.723 46.6653 111.997 44.9715 114.027 43.4097C117.614 40.3964 120.718 36.8145 123.338 32.9376C124.3 31.3326 125.431 29.6316 125.485 27.7003C125.485 34.0508 125.485 40.3988 125.485 46.7492" fill="#E6180A"/>
<path d="M125.485 100.885C131.627 100.885 137.769 100.885 143.91 100.885C141.812 100.792 140.026 99.4339 138.34 98.3116C134.551 95.4538 131.003 92.1766 128.201 88.3428C126.894 86.4139 125.52 84.2451 125.485 81.8364M143.91 100.885C141.247 100.969 138.973 102.664 136.943 104.227C133.357 107.238 130.252 110.82 127.632 114.697C126.67 116.302 125.538 118.003 125.485 119.934C125.485 113.584 125.485 107.236 125.485 100.885M125.485 119.934C125.394 117.099 123.667 114.642 122.035 112.449C119.128 108.826 115.683 105.621 111.892 102.941C110.419 102.023 108.855 100.93 107.06 100.885C113.202 100.885 119.344 100.885 125.485 100.885M107.06 100.885C109.723 100.801 111.997 99.1076 114.027 97.5458C117.614 94.5325 120.718 90.9506 123.338 87.0737C124.3 85.4687 125.431 83.7677 125.485 81.8364C125.485 88.1869 125.485 94.5349 125.485 100.885" fill="#E6180A"/>
<path d="M125.485 156.025C119.344 156.025 113.202 156.025 107.06 156.025C109.159 156.118 110.944 157.476 112.631 158.599C116.419 161.456 119.967 164.734 122.77 168.567C124.077 170.496 125.451 172.665 125.485 175.074M107.06 156.025C109.723 155.941 111.998 154.246 114.027 152.683C117.614 149.672 120.718 146.09 123.338 142.213C124.3 140.608 125.433 138.907 125.485 136.976C125.485 143.326 125.485 149.674 125.485 156.025M125.485 136.976C125.576 139.812 127.304 142.268 128.935 144.461C131.843 148.084 135.288 151.289 139.079 153.969C140.552 154.888 142.116 155.98 143.91 156.025C137.769 156.025 131.627 156.025 125.485 156.025M143.91 156.025C141.247 156.109 138.973 157.803 136.943 159.364C133.357 162.378 130.252 165.96 127.633 169.836C126.67 171.441 125.539 173.142 125.485 175.074C125.485 168.723 125.485 162.375 125.485 156.025" fill="#E6180A"/>
<path d="M125.485 210.161C119.344 210.161 113.202 210.161 107.06 210.161C109.159 210.254 110.944 211.612 112.631 212.735C116.419 215.592 119.967 218.87 122.77 222.703C124.077 224.632 125.451 226.801 125.485 229.21M107.06 210.161C109.723 210.077 111.998 208.382 114.027 206.819C117.614 203.808 120.718 200.226 123.338 196.349C124.3 194.744 125.433 193.043 125.485 191.112C125.485 197.462 125.485 203.81 125.485 210.161M125.485 191.112C125.576 193.948 127.304 196.404 128.935 198.597C131.843 202.22 135.288 205.425 139.079 208.105C140.552 209.024 142.116 210.117 143.91 210.161C137.769 210.161 131.627 210.161 125.485 210.161M143.91 210.161C141.247 210.245 138.973 211.939 136.943 213.5C133.357 216.514 130.252 220.096 127.633 223.973C126.67 225.578 125.539 227.279 125.485 229.21C125.485 222.859 125.485 216.511 125.485 210.161" fill="#E6180A"/>
<path d="M85.5713 73.8172C91.713 73.8172 97.8547 73.8172 103.996 73.8172C101.898 73.7236 100.112 72.3657 98.4257 71.2434C94.6375 68.3856 91.0893 65.1084 88.2871 61.2746C86.9796 59.3458 85.6059 57.177 85.5713 54.7683M103.996 73.8172C101.333 73.9011 99.0591 75.5956 97.0295 77.1591C93.4428 80.17 90.3383 83.7519 87.7185 87.6288C86.7565 89.2338 85.6241 90.9348 85.5713 92.8661C85.5713 86.5157 85.5713 80.1676 85.5713 73.8172M85.5713 92.8661C85.4801 90.0303 83.7528 87.5737 82.1214 85.3809C79.2137 81.7582 75.7686 78.553 71.978 75.8732C70.5049 74.9544 68.9407 73.8616 67.1462 73.8172C73.2879 73.8172 79.4296 73.8172 85.5713 73.8172M67.1462 73.8172C69.8092 73.7332 72.0835 72.0394 74.1132 70.4776C77.6998 67.4643 80.8043 63.8825 83.4241 60.0055C84.3862 58.4005 85.5173 56.6995 85.5713 54.7683C85.5713 61.1187 85.5713 67.4667 85.5713 73.8172" fill="#E6180A"/>
<path d="M85.5714 183.093C79.4297 183.093 73.288 183.093 67.1462 183.093C69.2447 183.186 71.0304 184.544 72.717 185.667C76.5052 188.525 80.0534 191.802 82.8556 195.635C84.1631 197.564 85.5368 199.733 85.5714 202.142M67.1462 183.093C69.8092 183.009 72.0836 181.314 74.1132 179.751C77.6999 176.74 80.8044 173.158 83.4242 169.281C84.3862 167.676 85.5186 165.975 85.5714 164.044C85.5714 170.394 85.5714 176.742 85.5714 183.093M85.5714 164.044C85.6626 166.88 87.3899 169.336 89.0213 171.529C91.929 175.152 95.3741 178.357 99.1647 181.037C100.638 181.956 102.202 183.049 103.997 183.093C97.8548 183.093 91.7131 183.093 85.5714 183.093M103.997 183.093C101.334 183.177 99.0592 184.871 97.0295 186.432C93.4429 189.446 90.3384 193.028 87.7186 196.905C86.7565 198.51 85.6254 200.211 85.5714 202.142C85.5714 195.791 85.5714 189.443 85.5714 183.093" fill="#E6180A"/>
</svg>
