<svg width="170" height="261" viewBox="0 0 170 261" fill="none" xmlns="http://www.w3.org/2000/svg">
<path d="M1.80933 245.233C1.80933 249.011 4.89818 252.1 8.67677 252.1H161.465C165.234 252.1 168.322 249.011 168.322 245.233V16.9175C168.322 13.1389 165.234 10.05 161.465 10.05H8.67677C4.89818 10.05 1.80933 13.1389 1.80933 16.9175V245.233Z" fill="white" stroke="black" stroke-width="2.49907"/>
<path d="M15.2309 6.4792V24.7368H11.3707V10.1432H11.2638L7.08269 12.7642V9.34088L11.6025 6.4792H15.2309ZM26.7288 25.138C25.1955 25.1321 23.8761 24.7547 22.7706 24.0058C21.6711 23.257 20.8242 22.1723 20.2299 20.7519C19.6415 19.3315 19.3503 17.6228 19.3562 15.6259C19.3562 13.6349 19.6504 11.9381 20.2388 10.5355C20.8331 9.13286 21.68 8.06605 22.7795 7.33503C23.885 6.59807 25.2014 6.22959 26.7288 6.22959C28.2562 6.22959 29.5697 6.59807 30.6692 7.33503C31.7746 8.07199 32.6245 9.14178 33.2188 10.5444C33.8132 11.941 34.1074 13.6349 34.1014 15.6259C34.1014 17.6287 33.8043 19.3404 33.2099 20.7608C32.6215 22.1813 31.7776 23.2659 30.6781 24.0147C29.5786 24.7636 28.2622 25.138 26.7288 25.138ZM26.7288 21.9376C27.7748 21.9376 28.6099 21.4116 29.2339 20.3596C29.8579 19.3077 30.167 17.7298 30.161 15.6259C30.161 14.2411 30.0184 13.0881 29.7331 12.1669C29.4538 11.2457 29.0556 10.5533 28.5385 10.0897C28.0274 9.62615 27.4242 9.39437 26.7288 9.39437C25.6888 9.39437 24.8567 9.9144 24.2327 10.9545C23.6086 11.9945 23.2936 13.5517 23.2877 15.6259C23.2877 17.0285 23.4273 18.1993 23.7067 19.1383C23.992 20.0714 24.3931 20.7727 24.9102 21.2422C25.4272 21.7058 26.0335 21.9376 26.7288 21.9376Z" fill="#E6180A"/>
<path d="M155.905 254.673V236.415H159.766V251.009H159.873L164.054 248.388V251.811L159.534 254.673H155.905ZM144.408 236.014C145.941 236.02 147.26 236.398 148.366 237.147C149.465 237.895 150.312 238.98 150.906 240.4C151.495 241.821 151.786 243.53 151.78 245.526C151.78 247.517 151.486 249.214 150.898 250.617C150.303 252.019 149.456 253.086 148.357 253.817C147.251 254.554 145.935 254.923 144.408 254.923C142.88 254.923 141.567 254.554 140.467 253.817C139.362 253.08 138.512 252.011 137.918 250.608C137.323 249.211 137.029 247.517 137.035 245.526C137.035 243.524 137.332 241.812 137.926 240.392C138.515 238.971 139.359 237.886 140.458 237.138C141.558 236.389 142.874 236.014 144.408 236.014ZM144.408 239.215C143.362 239.215 142.526 239.741 141.902 240.793C141.278 241.845 140.969 243.423 140.975 245.526C140.975 246.911 141.118 248.064 141.403 248.985C141.683 249.907 142.081 250.599 142.598 251.063C143.109 251.526 143.712 251.758 144.408 251.758C145.448 251.758 146.28 251.238 146.904 250.198C147.528 249.158 147.843 247.601 147.849 245.526C147.849 244.124 147.709 242.953 147.43 242.014C147.144 241.081 146.743 240.38 146.226 239.91C145.709 239.447 145.103 239.215 144.408 239.215Z" fill="#E6180A"/>
<path d="M23.1315 56.2548C23.1215 60.9631 17.2237 64.3918 15.4943 68.1204C13.745 64.4018 7.83716 61.0031 7.79717 56.2948C7.78718 54.0756 9.50654 52.2663 11.6158 52.2663C13.735 52.2663 15.4643 54.0557 15.4643 56.2748C15.4643 54.0457 17.1737 52.2463 19.2829 52.2463C21.4021 52.2363 23.1215 54.0357 23.1315 56.2548Z" fill="#E6180A"/>
<path d="M148.015 204.898C148.025 200.189 153.923 196.761 155.652 193.032C157.401 196.751 163.309 200.149 163.349 204.858C163.359 207.077 161.64 208.886 159.531 208.886C157.411 208.886 155.682 207.097 155.682 204.878C155.682 207.107 153.973 208.906 151.863 208.906C149.744 208.916 148.025 207.117 148.015 204.898Z" fill="#E6180A"/>
<path d="M64.0583 37.3677C64.0344 48.6675 49.8796 56.8964 45.7292 65.8451C41.5307 56.9204 27.352 48.7634 27.256 37.4636C27.232 32.1376 31.3585 27.7952 36.4206 27.7952C41.5067 27.7952 45.6572 32.0896 45.6572 37.4157C45.6572 32.0657 49.7597 27.7473 54.8218 27.7473C59.9079 27.7233 64.0344 32.0417 64.0583 37.3677Z" fill="#E6180A"/>
<path d="M64.0583 91.5035C64.0344 102.803 49.8796 111.032 45.7292 119.981C41.5307 111.056 27.352 102.899 27.256 91.5995C27.232 86.2735 31.3585 81.9311 36.4206 81.9311C41.5067 81.9311 45.6572 86.2255 45.6572 91.5515C45.6572 86.2015 49.7597 81.8831 54.8218 81.8831C59.9079 81.8591 64.0344 86.1775 64.0583 91.5035Z" fill="#E6180A"/>
<path d="M27.2562 165.502C27.2802 154.202 41.435 145.973 45.5854 137.024C49.7838 145.949 63.9626 154.106 64.0585 165.406C64.0825 170.732 59.9561 175.074 54.894 175.074C49.8078 175.074 45.6574 170.78 45.6574 165.454C45.6574 170.804 41.5549 175.122 36.4928 175.122C31.4067 175.146 27.2802 170.828 27.2562 165.502Z" fill="#E6180A"/>
<path d="M27.2562 219.637C27.2802 208.338 41.435 200.109 45.5854 191.16C49.7838 200.085 63.9626 208.242 64.0585 219.541C64.0825 224.868 59.9561 229.21 54.894 229.21C49.8078 229.21 45.6574 224.915 45.6574 219.589C45.6574 224.939 41.5549 229.258 36.4928 229.258C31.4067 229.282 27.2802 224.963 27.2562 219.637Z" fill="#E6180A"/>
<path d="M143.886 37.3677C143.862 48.6675 129.708 56.8964 125.557 65.8451C121.359 56.9204 107.18 48.7634 107.084 37.4636C107.06 32.1376 111.187 27.7952 116.249 27.7952C121.335 27.7952 125.485 32.0896 125.485 37.4157C125.485 32.0657 129.588 27.7473 134.65 27.7473C139.736 27.7233 143.862 32.0417 143.886 37.3677Z" fill="#E6180A"/>
<path d="M143.886 91.5035C143.862 102.803 129.708 111.032 125.557 119.981C121.359 111.056 107.18 102.899 107.084 91.5995C107.06 86.2735 111.187 81.9311 116.249 81.9311C121.335 81.9311 125.485 86.2255 125.485 91.5515C125.485 86.2015 129.588 81.8831 134.65 81.8831C139.736 81.8591 143.862 86.1775 143.886 91.5035Z" fill="#E6180A"/>
<path d="M107.084 165.502C107.108 154.202 121.263 145.973 125.413 137.024C129.612 145.949 143.791 154.106 143.887 165.406C143.911 170.732 139.784 175.074 134.722 175.074C129.636 175.074 125.485 170.78 125.485 165.454C125.485 170.804 121.383 175.122 116.321 175.122C111.235 175.146 107.108 170.828 107.084 165.502Z" fill="#E6180A"/>
<path d="M107.084 219.637C107.108 208.338 121.263 200.109 125.413 191.16C129.612 200.085 143.791 208.242 143.887 219.541C143.911 224.868 139.784 229.21 134.722 229.21C129.636 229.21 125.485 224.915 125.485 219.589C125.485 224.939 121.383 229.258 116.321 229.258C111.235 229.282 107.108 224.963 107.084 219.637Z" fill="#E6180A"/>
<path d="M103.973 64.4368C103.949 75.7366 89.7938 83.9655 85.6433 92.9142C81.4449 83.9895 67.2662 75.8325 67.1702 64.5327C67.1462 59.2067 71.2727 54.8643 76.3348 54.8643C81.4209 54.8643 85.5714 59.1587 85.5714 64.4848C85.5714 59.1347 89.6739 54.8164 94.736 54.8164C99.8221 54.7924 103.949 59.1108 103.973 64.4368Z" fill="#E6180A"/>
<path d="M67.1702 192.568C67.1942 181.269 81.3489 173.04 85.4994 164.091C89.6978 173.016 103.877 181.173 103.972 192.472C103.996 197.798 99.87 202.141 94.8079 202.141C89.7218 202.141 85.5713 197.846 85.5713 192.52C85.5713 197.87 81.4688 202.189 76.4067 202.189C71.3206 202.213 67.1942 197.894 67.1702 192.568Z" fill="#E6180A"/>
</svg>
