<svg width="170" height="252" viewBox="0 0 170 252" fill="none" xmlns="http://www.w3.org/2000/svg">
<path d="M1.71265 236.138C1.71265 239.917 4.8015 243.006 8.58009 243.006H161.368C165.137 243.006 168.226 239.917 168.226 236.138V7.82327C168.226 4.04467 165.137 0.955811 161.368 0.955811H8.58009C4.8015 0.955811 1.71265 4.04467 1.71265 7.82327V236.138Z" fill="white" stroke="black" stroke-width="2.49907"/>
<path d="M7.66889 23.6436V19.9641L16.2663 12.0035C16.9975 11.2959 17.6107 10.6591 18.1061 10.093C18.6092 9.5269 18.9906 8.97261 19.25 8.43011C19.5095 7.87975 19.6392 7.28615 19.6392 6.64931C19.6392 5.9417 19.478 5.33238 19.1557 4.82133C18.8333 4.30242 18.393 3.90537 17.8348 3.63019C17.2766 3.34715 16.6437 3.20563 15.9361 3.20563C15.197 3.20563 14.5523 3.35501 14.002 3.65378C13.4516 3.95255 13.027 4.38104 12.7283 4.93926C12.4295 5.49748 12.2801 6.16185 12.2801 6.93235H7.43302C7.43302 5.35203 7.79075 3.98006 8.50622 2.81645C9.22169 1.65283 10.2241 0.752601 11.5135 0.115755C12.803 -0.521088 14.2889 -0.83951 15.9715 -0.83951C17.7012 -0.83951 19.2068 -0.532882 20.4883 0.0803761C21.7777 0.685771 22.7802 1.52703 23.4956 2.60417C24.2111 3.6813 24.5689 4.91568 24.5689 6.3073C24.5689 7.21932 24.388 8.11955 24.0264 9.00799C23.6726 9.89643 23.0396 10.8831 22.1276 11.9681C21.2156 13.0453 19.9301 14.3386 18.2712 15.8482L14.7449 19.3036V19.4687H24.8873V23.6436H7.66889Z" fill="black"/>
<path d="M163.269 219.321V223.001L154.672 230.961C153.941 231.669 153.327 232.306 152.832 232.872C152.329 233.438 151.947 233.992 151.688 234.535C151.429 235.085 151.299 235.679 151.299 236.316C151.299 237.023 151.46 237.633 151.782 238.144C152.105 238.662 152.545 239.06 153.103 239.335C153.661 239.618 154.294 239.759 155.002 239.759C155.741 239.759 156.386 239.61 156.936 239.311C157.486 239.012 157.911 238.584 158.21 238.026C158.508 237.467 158.658 236.803 158.658 236.033H163.505C163.505 237.613 163.147 238.985 162.432 240.148C161.716 241.312 160.714 242.212 159.424 242.849C158.135 243.486 156.649 243.804 154.967 243.804C153.237 243.804 151.731 243.498 150.45 242.885C149.16 242.279 148.158 241.438 147.442 240.361C146.727 239.284 146.369 238.049 146.369 236.658C146.369 235.746 146.55 234.845 146.912 233.957C147.265 233.068 147.898 232.082 148.81 230.997C149.722 229.92 151.008 228.626 152.667 227.117L156.193 223.661V223.496H146.051V219.321H163.269Z" fill="black"/>
<path d="M12.0088 46.4319C12.0088 48.2412 13.5182 49.7107 15.3876 49.7107C17.2569 49.7107 18.7663 48.2412 18.7663 46.4319C18.7663 44.6226 17.2569 43.1531 15.3876 43.1531C13.5182 43.1531 12.0088 44.6226 12.0088 46.4319Z" fill="black"/>
<path d="M7.65041 52.6396C7.65041 54.4489 9.15985 55.9184 11.0292 55.9184C12.8985 55.9184 14.4079 54.4489 14.4079 52.6396C14.4079 50.8303 12.8985 49.3608 11.0292 49.3608C9.15985 49.3608 7.65041 50.8303 7.65041 52.6396Z" fill="black"/>
<path d="M16.3072 52.6596C16.3072 53.3193 16.5071 53.9391 16.857 54.4589C17.4568 55.3486 18.5064 55.9384 19.686 55.9384C21.5553 55.9384 23.0647 54.4689 23.0647 52.6596C23.0647 50.8502 21.5553 49.3808 19.686 49.3808C17.8166 49.3808 16.3072 50.8502 16.3072 52.6596Z" fill="black"/>
<path d="M11.419 59.0272C13.0884 59.0272 13.968 57.6677 14.4279 56.3082C14.8877 54.9487 14.9277 53.5892 14.9277 53.5892H15.7874C15.7874 53.5892 15.9473 59.0172 19.2861 59.0272H11.419Z" fill="black"/>
<path d="M17.6767 48.841C15.7774 50.7403 15.7774 53.5892 15.7774 53.5892L14.9277 53.5992C14.9277 53.5992 14.9277 50.6903 13.0784 48.841" fill="black"/>
<path d="M17.2968 54.9387C15.3975 53.0394 12.5486 53.0394 12.5486 53.0394V52.1897C12.5486 52.1897 15.4575 52.1897 17.3068 50.3404" fill="black"/>
<path d="M13.4883 54.9487C15.3876 53.0494 18.2365 53.0494 18.2365 53.0494V52.1998C18.2365 52.1998 15.3276 52.1998 13.4783 50.3504" fill="black"/>
<path d="M158.929 196.533C158.929 194.724 157.42 193.254 155.55 193.254C153.681 193.254 152.172 194.724 152.172 196.533C152.172 198.342 153.681 199.812 155.55 199.812C157.42 199.812 158.929 198.342 158.929 196.533Z" fill="black"/>
<path d="M163.288 190.325C163.288 188.516 161.778 187.047 159.909 187.047C158.04 187.047 156.53 188.516 156.53 190.325C156.53 192.135 158.04 193.604 159.909 193.604C161.778 193.604 163.288 192.135 163.288 190.325Z" fill="black"/>
<path d="M154.631 190.305C154.631 189.646 154.431 189.026 154.081 188.506C153.481 187.616 152.432 187.027 151.252 187.027C149.383 187.027 147.873 188.496 147.873 190.305C147.873 192.115 149.383 193.584 151.252 193.584C153.121 193.584 154.631 192.115 154.631 190.305Z" fill="black"/>
<path d="M159.519 183.938C157.85 183.938 156.97 185.297 156.51 186.657C156.05 188.016 156.01 189.376 156.01 189.376H155.151C155.151 189.376 154.991 183.948 151.652 183.938H159.519Z" fill="black"/>
<path d="M153.261 194.124C155.161 192.225 155.161 189.376 155.161 189.376L156.01 189.366C156.01 189.366 156.01 192.275 157.86 194.124" fill="black"/>
<path d="M153.641 188.026C155.54 189.926 158.389 189.926 158.389 189.926V190.775C158.389 190.775 155.48 190.775 153.631 192.625" fill="black"/>
<path d="M157.45 188.016C155.55 189.916 152.701 189.916 152.701 189.916V190.765C152.701 190.765 155.61 190.765 157.46 192.615" fill="black"/>
<path d="M93.5051 212.294C93.5051 207.951 89.8825 204.424 85.3962 204.424C80.9098 204.424 77.2872 207.951 77.2872 212.294C77.2872 216.636 80.9098 220.163 85.3962 220.163C89.8825 220.163 93.5051 216.636 93.5051 212.294Z" fill="black"/>
<path d="M103.965 197.395C103.965 193.053 100.343 189.526 95.8562 189.526C91.3699 189.526 87.7473 193.053 87.7473 197.395C87.7473 201.738 91.3699 205.264 95.8562 205.264C100.343 205.264 103.965 201.738 103.965 197.395Z" fill="black"/>
<path d="M83.189 197.347C83.189 195.764 82.7092 194.276 81.8695 193.029C80.43 190.894 77.9109 189.478 75.08 189.478C70.5937 189.478 66.971 193.005 66.971 197.347C66.971 201.69 70.5937 205.216 75.08 205.216C79.5663 205.216 83.189 201.69 83.189 197.347Z" fill="black"/>
<path d="M94.9206 182.065C90.9141 182.065 88.8029 185.328 87.6993 188.59C86.5957 191.853 86.4997 195.116 86.4997 195.116H84.4365C84.4365 195.116 84.0526 182.089 76.0396 182.065H94.9206Z" fill="black"/>
<path d="M79.9022 206.512C84.4605 201.953 84.4605 195.116 84.4605 195.116L86.4998 195.092C86.4998 195.092 86.4998 202.073 90.9381 206.512" fill="black"/>
<path d="M80.8138 191.877C85.3722 196.436 92.2096 196.436 92.2096 196.436V198.475C92.2096 198.475 85.2282 198.475 80.7899 202.913" fill="black"/>
<path d="M89.9545 191.853C85.3962 196.411 78.5587 196.411 78.5587 196.411V198.451C78.5587 198.451 85.5401 198.451 89.9785 202.889" fill="black"/>
<path d="M77.4311 26.5223C77.4311 30.8647 81.0537 34.3914 85.5401 34.3914C90.0264 34.3914 93.649 30.8647 93.649 26.5223C93.649 22.1799 90.0264 18.6532 85.5401 18.6532C81.0537 18.6532 77.4311 22.1799 77.4311 26.5223Z" fill="black"/>
<path d="M66.971 41.4207C66.971 45.7631 70.5936 49.2898 75.08 49.2898C79.5663 49.2898 83.189 45.7631 83.189 41.4207C83.189 37.0783 79.5663 33.5516 75.08 33.5516C70.5936 33.5516 66.971 37.0783 66.971 41.4207Z" fill="black"/>
<path d="M87.7472 41.4687C87.7472 43.0521 88.2271 44.5396 89.0667 45.7871C90.5062 47.9223 93.0253 49.3378 95.8562 49.3378C100.343 49.3378 103.965 45.8111 103.965 41.4687C103.965 37.1263 100.343 33.5996 95.8562 33.5996C91.3699 33.5996 87.7472 37.1263 87.7472 41.4687Z" fill="black"/>
<path d="M76.0156 56.751C80.0221 56.751 82.1334 53.4883 83.2369 50.2255C84.3405 46.9627 84.4365 43.6999 84.4365 43.6999H86.4997C86.4997 43.6999 86.8836 56.727 94.8966 56.751H76.0156Z" fill="black"/>
<path d="M91.034 32.3041C86.4757 36.8624 86.4757 43.6999 86.4757 43.6999L84.4365 43.7239C84.4365 43.7239 84.4365 36.7425 79.9981 32.3041" fill="black"/>
<path d="M90.1224 46.9387C85.5641 42.3804 78.7266 42.3804 78.7266 42.3804V40.3411C78.7266 40.3411 85.708 40.3411 90.1464 35.9028" fill="black"/>
<path d="M80.9817 46.9626C85.54 42.4043 92.3775 42.4043 92.3775 42.4043V40.3651C92.3775 40.3651 85.3961 40.3651 80.9577 35.9268" fill="black"/>
</svg>
