<svg width="170" height="261" viewBox="0 0 170 261" fill="none" xmlns="http://www.w3.org/2000/svg">
<path d="M1.71265 245.185C1.71265 248.964 4.8015 252.052 8.58009 252.052H161.368C165.137 252.052 168.226 248.964 168.226 245.185V16.8699C168.226 13.0913 165.137 10.0024 161.368 10.0024H8.58009C4.8015 10.0024 1.71265 13.0913 1.71265 16.8699V245.185Z" fill="white" stroke="black" stroke-width="2.49907"/>
<path d="M7.66889 32.6902V29.0107L16.2663 21.0501C16.9975 20.3425 17.6107 19.7057 18.1061 19.1396C18.6092 18.5735 18.9906 18.0192 19.25 17.4767C19.5095 16.9264 19.6392 16.3328 19.6392 15.6959C19.6392 14.9883 19.478 14.379 19.1557 13.868C18.8333 13.349 18.393 12.952 17.8348 12.6768C17.2766 12.3938 16.6437 12.2523 15.9361 12.2523C15.197 12.2523 14.5523 12.4016 14.002 12.7004C13.4516 12.9992 13.027 13.4277 12.7283 13.9859C12.4295 14.5441 12.2801 15.2085 12.2801 15.979H7.43302C7.43302 14.3987 7.79075 13.0267 8.50622 11.8631C9.22169 10.6995 10.2241 9.79923 11.5135 9.16239C12.803 8.52554 14.2889 8.20712 15.9715 8.20712C17.7012 8.20712 19.2068 8.51375 20.4883 9.12701C21.7777 9.7324 22.7802 10.5737 23.4956 11.6508C24.2111 12.7279 24.5689 13.9623 24.5689 15.3539C24.5689 16.266 24.388 17.1662 24.0264 18.0546C23.6726 18.9431 23.0396 19.9298 22.1276 21.0148C21.2156 22.0919 19.9301 23.3852 18.2712 24.8948L14.7449 28.3503V28.5154H24.8873V32.6902H7.66889Z" fill="#E6180A"/>
<path d="M163.269 228.368V232.048L154.672 240.008C153.941 240.716 153.327 241.353 152.832 241.919C152.329 242.485 151.947 243.039 151.688 243.581C151.429 244.132 151.299 244.725 151.299 245.362C151.299 246.07 151.46 246.679 151.782 247.19C152.105 247.709 152.545 248.106 153.103 248.381C153.661 248.664 154.294 248.806 155.002 248.806C155.741 248.806 156.386 248.657 156.936 248.358C157.486 248.059 157.911 247.631 158.21 247.072C158.508 246.514 158.658 245.85 158.658 245.079H163.505C163.505 246.66 163.147 248.032 162.432 249.195C161.716 250.359 160.714 251.259 159.424 251.896C158.135 252.533 156.649 252.851 154.967 252.851C153.237 252.851 151.731 252.544 150.45 251.931C149.16 251.326 148.158 250.485 147.442 249.407C146.727 248.33 146.369 247.096 146.369 245.704C146.369 244.792 146.55 243.892 146.912 243.004C147.265 242.115 147.898 241.128 148.81 240.043C149.722 238.966 151.008 237.673 152.667 236.163L156.193 232.708V232.543H146.051V228.368H163.269Z" fill="#E6180A"/>
<path d="M15.3576 60.1368C17.9166 60.1368 20.4757 60.1368 23.0347 60.1368C22.1604 60.0978 21.4163 59.532 20.7136 59.0644C19.1352 57.8736 17.6567 56.5082 16.4892 54.9107C15.9444 54.107 15.372 53.2034 15.3576 52.1998M23.0347 60.1368C21.9251 60.1718 20.9775 60.8778 20.1318 61.5293C18.6374 62.7838 17.3438 64.2763 16.2523 65.8917C15.8514 66.5604 15.3796 67.2692 15.3576 68.0739C15.3576 65.4278 15.3576 62.7828 15.3576 60.1368M15.3576 68.0739C15.3196 66.8923 14.5999 65.8687 13.9201 64.955C12.7086 63.4456 11.2731 62.1101 9.69369 60.9935C9.07992 60.6106 8.42816 60.1553 7.68044 60.1368C10.2395 60.1368 12.7985 60.1368 15.3576 60.1368M7.68044 60.1368C8.79003 60.1018 9.73768 59.3961 10.5834 58.7453C12.0778 57.4898 13.3713 55.9973 14.4629 54.3819C14.8638 53.7132 15.3351 53.0045 15.3576 52.1998C15.3576 54.8458 15.3576 57.4908 15.3576 60.1368" fill="#E6180A"/>
<path d="M155.58 200.921C153.021 200.921 150.462 200.921 147.903 200.921C148.778 200.96 149.522 201.526 150.224 201.994C151.803 203.185 153.281 204.55 154.449 206.147C154.994 206.951 155.566 207.855 155.58 208.858M147.903 200.921C149.013 200.886 149.961 200.18 150.806 199.529C152.301 198.274 153.594 196.782 154.686 195.167C155.087 194.498 155.558 193.789 155.58 192.984C155.58 195.63 155.58 198.275 155.58 200.921M155.58 192.984C155.618 194.166 156.338 195.19 157.018 196.103C158.229 197.613 159.665 198.948 161.244 200.065C161.858 200.448 162.51 200.903 163.258 200.921C160.699 200.921 158.14 200.921 155.58 200.921M163.258 200.921C162.148 200.956 161.2 201.662 160.355 202.313C158.86 203.568 157.567 205.061 156.475 206.676C156.074 207.345 155.603 208.054 155.58 208.858C155.58 206.212 155.58 203.567 155.58 200.921" fill="#E6180A"/>
<path d="M85.4681 210.161C79.3264 210.161 73.1847 210.161 67.043 210.161C69.1415 210.254 70.9271 211.612 72.6137 212.735C76.4019 215.592 79.9502 218.87 82.7523 222.703C84.0598 224.632 85.4336 226.801 85.4681 229.21M67.043 210.161C69.706 210.077 71.9803 208.382 74.01 206.819C77.5966 203.808 80.7011 200.226 83.3209 196.349C84.283 194.744 85.4153 193.043 85.4681 191.112C85.4681 197.462 85.4681 203.81 85.4681 210.161M85.4681 191.112C85.5593 193.948 87.2866 196.404 88.918 198.597C91.8258 202.22 95.2709 205.425 99.0615 208.105C100.535 209.024 102.099 210.117 103.893 210.161C97.7515 210.161 91.6098 210.161 85.4681 210.161M103.893 210.161C101.23 210.245 98.9559 211.939 96.9263 213.5C93.3396 216.514 90.2351 220.096 87.6153 223.973C86.6533 225.578 85.5221 227.279 85.4681 229.21C85.4681 222.859 85.4681 216.511 85.4681 210.161" fill="#E6180A"/>
<path d="M85.4681 46.7492C91.6098 46.7492 97.7515 46.7492 103.893 46.7492C101.795 46.6557 100.009 45.2978 98.3225 44.1755C94.5343 41.3177 90.9861 38.0405 88.1839 34.2067C86.8764 32.2778 85.5026 30.109 85.4681 27.7003M103.893 46.7492C101.23 46.8332 98.9559 48.5277 96.9262 50.0912C93.3396 53.1021 90.2351 56.6839 87.6153 60.5609C86.6533 62.1659 85.5209 63.8669 85.4681 65.7982C85.4681 59.4477 85.4681 53.0997 85.4681 46.7492M85.4681 65.7982C85.3769 62.9624 83.6496 60.5057 82.0182 58.3129C79.1105 54.6903 75.6653 51.4851 71.8748 48.8053C70.4017 47.8864 68.8375 46.7936 67.043 46.7492C73.1847 46.7492 79.3264 46.7492 85.4681 46.7492M67.043 46.7492C69.706 46.6653 71.9803 44.9715 74.01 43.4097C77.5966 40.3964 80.7011 36.8145 83.3209 32.9376C84.2829 31.3326 85.4141 29.6316 85.4681 27.7003C85.4681 34.0508 85.4681 40.3988 85.4681 46.7492" fill="#E6180A"/>
</svg>
