<svg width="170" height="252" viewBox="0 0 170 252" fill="none" xmlns="http://www.w3.org/2000/svg">
<path d="M2.22534 236.138C2.22534 239.917 5.31419 243.006 9.09279 243.006H161.881C165.65 243.006 168.738 239.917 168.738 236.138V7.82327C168.738 4.04467 165.65 0.955811 161.881 0.955811H9.09279C5.31419 0.955811 2.22534 4.04467 2.22534 7.82327V236.138Z" fill="white" stroke="black" stroke-width="2.49907"/>
<path d="M17.1092 23.9738C15.348 23.9738 13.7795 23.6711 12.4036 23.0657C11.0356 22.4525 9.95453 21.6112 9.16044 20.5419C8.37421 19.4648 7.9693 18.2226 7.94572 16.8152H13.0876C13.1191 17.4049 13.3117 17.9238 13.6655 18.372C14.0272 18.8122 14.5068 19.1543 15.1043 19.398C15.7019 19.6417 16.3741 19.7636 17.121 19.7636C17.8994 19.7636 18.5873 19.626 19.1848 19.3508C19.7824 19.0756 20.2502 18.6943 20.5883 18.2069C20.9263 17.7194 21.0954 17.1572 21.0954 16.5204C21.0954 15.8757 20.9145 15.3057 20.5529 14.8103C20.1991 14.3072 19.688 13.914 19.0197 13.631C18.3593 13.348 17.5731 13.2064 16.661 13.2064H14.4085V9.45614H16.661C17.4316 9.45614 18.1116 9.32248 18.7013 9.05516C19.2988 8.78785 19.7627 8.41832 20.0929 7.94658C20.4231 7.46698 20.5883 6.90876 20.5883 6.27192C20.5883 5.66652 20.4428 5.13582 20.1519 4.67981C19.8689 4.21593 19.4679 3.85427 18.949 3.59481C18.4379 3.33536 17.8404 3.20563 17.1564 3.20563C16.4645 3.20563 15.8316 3.33143 15.2576 3.58302C14.6837 3.82675 14.2237 4.17662 13.8778 4.63263C13.5319 5.08865 13.3471 5.62328 13.3235 6.23654H8.42925C8.45283 4.84491 8.84988 3.6184 9.62038 2.55699C10.3909 1.49559 11.4287 0.666115 12.7338 0.0685823C14.0468 -0.536813 15.5289 -0.83951 17.18 -0.83951C18.8468 -0.83951 20.3052 -0.536813 21.5553 0.0685823C22.8054 0.673978 23.7764 1.49165 24.4683 2.52161C25.168 3.54371 25.514 4.6916 25.5061 5.96529C25.514 7.3176 25.0933 8.44584 24.2442 9.35C23.4029 10.2542 22.3062 10.8281 20.9538 11.0718V11.2605C22.7307 11.4885 24.083 12.1057 25.0108 13.1121C25.9464 14.1106 26.4103 15.3607 26.4024 16.8624C26.4103 18.2383 26.0132 19.4609 25.2113 20.5302C24.4172 21.5994 23.3204 22.4407 21.9209 23.0539C20.5214 23.6672 18.9175 23.9738 17.1092 23.9738Z" fill="black"/>
<path d="M154.854 218.991C156.615 218.991 158.184 219.294 159.56 219.899C160.928 220.512 162.009 221.354 162.803 222.423C163.589 223.5 163.994 224.742 164.018 226.15H158.876C158.844 225.56 158.652 225.041 158.298 224.593C157.936 224.153 157.457 223.811 156.859 223.567C156.262 223.323 155.589 223.201 154.842 223.201C154.064 223.201 153.376 223.339 152.779 223.614C152.181 223.889 151.713 224.271 151.375 224.758C151.037 225.246 150.868 225.808 150.868 226.445C150.868 227.089 151.049 227.659 151.411 228.155C151.764 228.658 152.275 229.051 152.944 229.334C153.604 229.617 154.39 229.758 155.302 229.758H157.555V233.509H155.302C154.532 233.509 153.852 233.642 153.262 233.91C152.665 234.177 152.201 234.547 151.871 235.018C151.54 235.498 151.375 236.056 151.375 236.693C151.375 237.298 151.521 237.829 151.812 238.285C152.095 238.749 152.496 239.111 153.014 239.37C153.526 239.63 154.123 239.759 154.807 239.759C155.499 239.759 156.132 239.633 156.706 239.382C157.28 239.138 157.74 238.788 158.086 238.332C158.432 237.876 158.616 237.342 158.64 236.728H163.534C163.511 238.12 163.114 239.347 162.343 240.408C161.573 241.469 160.535 242.299 159.23 242.896C157.917 243.502 156.435 243.804 154.783 243.804C153.117 243.804 151.658 243.502 150.408 242.896C149.158 242.291 148.187 241.473 147.495 240.443C146.795 239.421 146.449 238.273 146.457 237C146.449 235.647 146.87 234.519 147.719 233.615C148.56 232.711 149.657 232.137 151.01 231.893V231.704C149.233 231.476 147.88 230.859 146.953 229.853C146.017 228.854 145.553 227.604 145.561 226.103C145.553 224.727 145.95 223.504 146.752 222.435C147.546 221.365 148.643 220.524 150.043 219.911C151.442 219.298 153.046 218.991 154.854 218.991Z" fill="black"/>
<path d="M12.5215 46.4319C12.5215 48.2412 14.0309 49.7107 15.9002 49.7107C17.7696 49.7107 19.279 48.2412 19.279 46.4319C19.279 44.6226 17.7696 43.1531 15.9002 43.1531C14.0309 43.1531 12.5215 44.6226 12.5215 46.4319Z" fill="black"/>
<path d="M8.16311 52.6396C8.16311 54.4489 9.67255 55.9184 11.5418 55.9184C13.4112 55.9184 14.9206 54.4489 14.9206 52.6396C14.9206 50.8303 13.4112 49.3608 11.5418 49.3608C9.67255 49.3608 8.16311 50.8303 8.16311 52.6396Z" fill="black"/>
<path d="M16.8199 52.6596C16.8199 53.3193 17.0198 53.9391 17.3697 54.4589C17.9695 55.3486 19.0191 55.9384 20.1986 55.9384C22.068 55.9384 23.5774 54.4689 23.5774 52.6596C23.5774 50.8502 22.068 49.3808 20.1986 49.3808C18.3293 49.3808 16.8199 50.8502 16.8199 52.6596Z" fill="black"/>
<path d="M11.9318 59.0272C13.6011 59.0272 14.4808 57.6677 14.9406 56.3082C15.4005 54.9487 15.4404 53.5892 15.4404 53.5892H16.3001C16.3001 53.5892 16.4601 59.0172 19.7988 59.0272H11.9318Z" fill="black"/>
<path d="M18.1894 48.841C16.2901 50.7403 16.2901 53.5892 16.2901 53.5892L15.4404 53.5992C15.4404 53.5992 15.4404 50.6903 13.5911 48.841" fill="black"/>
<path d="M17.8096 54.9387C15.9103 53.0394 13.0613 53.0394 13.0613 53.0394V52.1897C13.0613 52.1897 15.9703 52.1897 17.8196 50.3404" fill="black"/>
<path d="M14.001 54.9487C15.9003 53.0494 18.7492 53.0494 18.7492 53.0494V52.1998C18.7492 52.1998 15.8403 52.1998 13.991 50.3504" fill="black"/>
<path d="M159.442 196.533C159.442 194.724 157.932 193.254 156.063 193.254C154.194 193.254 152.684 194.724 152.684 196.533C152.684 198.342 154.194 199.812 156.063 199.812C157.932 199.812 159.442 198.342 159.442 196.533Z" fill="black"/>
<path d="M163.8 190.325C163.8 188.516 162.291 187.047 160.422 187.047C158.552 187.047 157.043 188.516 157.043 190.325C157.043 192.135 158.552 193.604 160.422 193.604C162.291 193.604 163.8 192.135 163.8 190.325Z" fill="black"/>
<path d="M155.143 190.305C155.143 189.646 154.944 189.026 154.594 188.506C153.994 187.616 152.944 187.027 151.765 187.027C149.895 187.027 148.386 188.496 148.386 190.305C148.386 192.115 149.895 193.584 151.765 193.584C153.634 193.584 155.143 192.115 155.143 190.305Z" fill="black"/>
<path d="M160.032 183.938C158.362 183.938 157.483 185.297 157.023 186.657C156.563 188.016 156.523 189.376 156.523 189.376H155.663C155.663 189.376 155.503 183.948 152.165 183.938H160.032Z" fill="black"/>
<path d="M153.774 194.124C155.673 192.225 155.673 189.376 155.673 189.376L156.523 189.366C156.523 189.366 156.523 192.275 158.372 194.124" fill="black"/>
<path d="M154.154 188.026C156.053 189.926 158.902 189.926 158.902 189.926V190.775C158.902 190.775 155.993 190.775 154.144 192.625" fill="black"/>
<path d="M157.962 188.016C156.063 189.916 153.214 189.916 153.214 189.916V190.765C153.214 190.765 156.123 190.765 157.972 192.615" fill="black"/>
<path d="M94.018 212.294C94.018 207.951 90.3954 204.424 85.909 204.424C81.4227 204.424 77.8 207.951 77.8 212.294C77.8 216.636 81.4227 220.163 85.909 220.163C90.3954 220.163 94.018 216.636 94.018 212.294Z" fill="black"/>
<path d="M104.478 197.395C104.478 193.053 100.855 189.526 96.3691 189.526C91.8828 189.526 88.2601 193.053 88.2601 197.395C88.2601 201.738 91.8828 205.264 96.3691 205.264C100.855 205.264 104.478 201.738 104.478 197.395Z" fill="black"/>
<path d="M83.7019 197.347C83.7019 195.764 83.222 194.276 82.3823 193.029C80.9429 190.894 78.4238 189.478 75.5929 189.478C71.1065 189.478 67.4839 193.005 67.4839 197.347C67.4839 201.69 71.1065 205.216 75.5929 205.216C80.0792 205.216 83.7019 201.69 83.7019 197.347Z" fill="black"/>
<path d="M95.4335 182.065C91.427 182.065 89.3158 185.328 88.2122 188.59C87.1086 191.853 87.0127 195.116 87.0127 195.116H84.9494C84.9494 195.116 84.5656 182.089 76.5526 182.065H95.4335Z" fill="black"/>
<path d="M80.4151 206.512C84.9734 201.953 84.9734 195.116 84.9734 195.116L87.0126 195.092C87.0126 195.092 87.0126 202.073 91.451 206.512" fill="black"/>
<path d="M81.3268 191.877C85.8851 196.436 92.7225 196.436 92.7225 196.436V198.475C92.7225 198.475 85.7411 198.475 81.3028 202.913" fill="black"/>
<path d="M90.4674 191.853C85.9091 196.411 79.0716 196.411 79.0716 196.411V198.451C79.0716 198.451 86.053 198.451 90.4913 202.889" fill="black"/>
<path d="M77.944 103.435C77.944 107.777 81.5667 111.304 86.053 111.304C90.5393 111.304 94.162 107.777 94.162 103.435C94.162 99.0927 90.5393 95.566 86.053 95.566C81.5667 95.566 77.944 99.0927 77.944 103.435Z" fill="black"/>
<path d="M67.4839 118.334C67.4839 122.676 71.1066 126.203 75.5929 126.203C80.0793 126.203 83.7019 122.676 83.7019 118.334C83.7019 113.991 80.0793 110.464 75.5929 110.464C71.1066 110.464 67.4839 113.991 67.4839 118.334Z" fill="black"/>
<path d="M88.2602 118.381C88.2602 119.965 88.74 121.452 89.5797 122.7C91.0192 124.835 93.5382 126.251 96.3692 126.251C100.855 126.251 104.478 122.724 104.478 118.381C104.478 114.039 100.855 110.512 96.3692 110.512C91.8828 110.512 88.2602 114.039 88.2602 118.381Z" fill="black"/>
<path d="M76.5285 133.664C80.535 133.664 82.6462 130.401 83.7498 127.138C84.8534 123.875 84.9494 120.613 84.9494 120.613H87.0126C87.0126 120.613 87.3965 133.64 95.4095 133.664H76.5285Z" fill="black"/>
<path d="M91.5469 109.217C86.9886 113.775 86.9886 120.613 86.9886 120.613L84.9494 120.637C84.9494 120.637 84.9494 113.655 80.511 109.217" fill="black"/>
<path d="M90.6353 123.852C86.077 119.293 79.2395 119.293 79.2395 119.293V117.254C79.2395 117.254 86.221 117.254 90.6593 112.816" fill="black"/>
<path d="M81.4947 123.875C86.053 119.317 92.8904 119.317 92.8904 119.317V117.278C92.8904 117.278 85.909 117.278 81.4707 112.84" fill="black"/>
<path d="M77.944 26.5223C77.944 30.8647 81.5667 34.3914 86.053 34.3914C90.5393 34.3914 94.162 30.8647 94.162 26.5223C94.162 22.1799 90.5393 18.6532 86.053 18.6532C81.5667 18.6532 77.944 22.1799 77.944 26.5223Z" fill="black"/>
<path d="M67.4839 41.4207C67.4839 45.7631 71.1066 49.2898 75.5929 49.2898C80.0793 49.2898 83.7019 45.7631 83.7019 41.4207C83.7019 37.0783 80.0793 33.5516 75.5929 33.5516C71.1066 33.5516 67.4839 37.0783 67.4839 41.4207Z" fill="black"/>
<path d="M88.2602 41.4687C88.2602 43.0521 88.74 44.5396 89.5797 45.7871C91.0192 47.9223 93.5382 49.3378 96.3692 49.3378C100.855 49.3378 104.478 45.8111 104.478 41.4687C104.478 37.1263 100.855 33.5996 96.3692 33.5996C91.8828 33.5996 88.2602 37.1263 88.2602 41.4687Z" fill="black"/>
<path d="M76.5285 56.751C80.535 56.751 82.6462 53.4883 83.7498 50.2255C84.8534 46.9627 84.9494 43.6999 84.9494 43.6999H87.0126C87.0126 43.6999 87.3965 56.727 95.4095 56.751H76.5285Z" fill="black"/>
<path d="M91.5469 32.3041C86.9886 36.8624 86.9886 43.6999 86.9886 43.6999L84.9494 43.7239C84.9494 43.7239 84.9494 36.7425 80.511 32.3041" fill="black"/>
<path d="M90.6353 46.9387C86.077 42.3804 79.2395 42.3804 79.2395 42.3804V40.3411C79.2395 40.3411 86.221 40.3411 90.6593 35.9028" fill="black"/>
<path d="M81.4947 46.9626C86.053 42.4043 92.8904 42.4043 92.8904 42.4043V40.3651C92.8904 40.3651 85.909 40.3651 81.4707 35.9268" fill="black"/>
</svg>
