<svg width="170" height="261" viewBox="0 0 170 261" fill="none" xmlns="http://www.w3.org/2000/svg">
<path d="M2.22534 245.185C2.22534 248.964 5.31419 252.052 9.09279 252.052H161.881C165.65 252.052 168.738 248.964 168.738 245.185V16.8699C168.738 13.0913 165.65 10.0024 161.881 10.0024H9.09279C5.31419 10.0024 2.22534 13.0913 2.22534 16.8699V245.185Z" fill="white" stroke="black" stroke-width="2.49907"/>
<path d="M17.1092 33.0205C15.348 33.0205 13.7795 32.7178 12.4036 32.1124C11.0356 31.4991 9.95453 30.6578 9.16044 29.5886C8.37421 28.5114 7.9693 27.2692 7.94572 25.8619H13.0876C13.1191 26.4515 13.3117 26.9704 13.6655 27.4186C14.0272 27.8589 14.5068 28.2009 15.1043 28.4446C15.7019 28.6883 16.3741 28.8102 17.121 28.8102C17.8994 28.8102 18.5873 28.6726 19.1848 28.3974C19.7824 28.1223 20.2502 27.7409 20.5883 27.2535C20.9263 26.766 21.0954 26.2039 21.0954 25.567C21.0954 24.9223 20.9145 24.3523 20.5529 23.857C20.1991 23.3538 19.688 22.9607 19.0197 22.6776C18.3593 22.3946 17.5731 22.2531 16.661 22.2531H14.4085V18.5028H16.661C17.4316 18.5028 18.1116 18.3691 18.7013 18.1018C19.2988 17.8345 19.7627 17.465 20.0929 16.9932C20.4231 16.5136 20.5883 15.9554 20.5883 15.3185C20.5883 14.7132 20.4428 14.1825 20.1519 13.7264C19.8689 13.2626 19.4679 12.9009 18.949 12.6414C18.4379 12.382 17.8404 12.2523 17.1564 12.2523C16.4645 12.2523 15.8316 12.3781 15.2576 12.6297C14.6837 12.8734 14.2237 13.2233 13.8778 13.6793C13.5319 14.1353 13.3471 14.6699 13.3235 15.2832H8.42925C8.45283 13.8915 8.84988 12.665 9.62038 11.6036C10.3909 10.5422 11.4287 9.71275 12.7338 9.11521C14.0468 8.50982 15.5289 8.20712 17.18 8.20712C18.8468 8.20712 20.3052 8.50982 21.5553 9.11521C22.8054 9.72061 23.7764 10.5383 24.4683 11.5682C25.168 12.5903 25.514 13.7382 25.5061 15.0119C25.514 16.3642 25.0933 17.4925 24.2442 18.3966C23.4029 19.3008 22.3062 19.8747 20.9538 20.1185V20.3072C22.7307 20.5352 24.083 21.1524 25.0108 22.1587C25.9464 23.1572 26.4103 24.4073 26.4024 25.909C26.4103 27.2849 26.0132 28.5075 25.2113 29.5768C24.4172 30.6461 23.3204 31.4873 21.9209 32.1006C20.5214 32.7138 18.9175 33.0205 17.1092 33.0205Z" fill="#E6180A"/>
<path d="M154.854 228.038C156.615 228.038 158.184 228.34 159.56 228.946C160.928 229.559 162.009 230.4 162.803 231.47C163.589 232.547 163.994 233.789 164.018 235.196H158.876C158.844 234.607 158.652 234.088 158.298 233.64C157.936 233.199 157.457 232.857 156.859 232.614C156.262 232.37 155.589 232.248 154.842 232.248C154.064 232.248 153.376 232.386 152.779 232.661C152.181 232.936 151.713 233.317 151.375 233.805C151.037 234.292 150.868 234.854 150.868 235.491C150.868 236.136 151.049 236.706 151.411 237.201C151.764 237.704 152.275 238.098 152.944 238.381C153.604 238.664 154.39 238.805 155.302 238.805H157.555V242.555H155.302C154.532 242.555 153.852 242.689 153.262 242.956C152.665 243.224 152.201 243.593 151.871 244.065C151.54 244.545 151.375 245.103 151.375 245.74C151.375 246.345 151.521 246.876 151.812 247.332C152.095 247.796 152.496 248.157 153.014 248.417C153.526 248.676 154.123 248.806 154.807 248.806C155.499 248.806 156.132 248.68 156.706 248.429C157.28 248.185 157.74 247.835 158.086 247.379C158.432 246.923 158.616 246.388 158.64 245.775H163.534C163.511 247.167 163.114 248.393 162.343 249.455C161.573 250.516 160.535 251.345 159.23 251.943C157.917 252.548 156.435 252.851 154.783 252.851C153.117 252.851 151.658 252.548 150.408 251.943C149.158 251.338 148.187 250.52 147.495 249.49C146.795 248.468 146.449 247.32 146.457 246.046C146.449 244.694 146.87 243.566 147.719 242.662C148.56 241.757 149.657 241.183 151.01 240.94V240.751C149.233 240.523 147.88 239.906 146.953 238.899C146.017 237.901 145.553 236.651 145.561 235.149C145.553 233.773 145.95 232.551 146.752 231.481C147.546 230.412 148.643 229.571 150.043 228.958C151.442 228.344 153.046 228.038 154.854 228.038Z" fill="#E6180A"/>
<path d="M15.8703 60.1368C18.4293 60.1368 20.9884 60.1368 23.5474 60.1368C22.673 60.0978 21.929 59.532 21.2263 59.0644C19.6479 57.8736 18.1694 56.5082 17.0019 54.9107C16.4571 54.107 15.8847 53.2034 15.8703 52.1998M23.5474 60.1368C22.4378 60.1718 21.4902 60.8778 20.6445 61.5293C19.1501 62.7838 17.8565 64.2763 16.7649 65.8917C16.3641 66.5604 15.8923 67.2692 15.8703 68.0739C15.8703 65.4278 15.8703 62.7828 15.8703 60.1368M15.8703 68.0739C15.8323 66.8923 15.1126 65.8687 14.4328 64.955C13.2213 63.4456 11.7858 62.1101 10.2064 60.9935C9.59262 60.6106 8.94086 60.1553 8.19314 60.1368C10.7522 60.1368 13.3112 60.1368 15.8703 60.1368M8.19314 60.1368C9.30272 60.1018 10.2504 59.3961 11.0961 58.7453C12.5905 57.4898 13.884 55.9973 14.9756 54.3819C15.3765 53.7132 15.8478 53.0045 15.8703 52.1998C15.8703 54.8458 15.8703 57.4908 15.8703 60.1368" fill="#E6180A"/>
<path d="M156.093 200.921C153.534 200.921 150.975 200.921 148.416 200.921C149.29 200.96 150.034 201.526 150.737 201.994C152.316 203.185 153.794 204.55 154.962 206.147C155.506 206.951 156.079 207.855 156.093 208.858M148.416 200.921C149.526 200.886 150.473 200.18 151.319 199.529C152.813 198.274 154.107 196.782 155.198 195.167C155.599 194.498 156.071 193.789 156.093 192.984C156.093 195.63 156.093 198.275 156.093 200.921M156.093 192.984C156.131 194.166 156.851 195.19 157.531 196.103C158.742 197.613 160.178 198.948 161.757 200.065C162.371 200.448 163.023 200.903 163.77 200.921C161.211 200.921 158.652 200.921 156.093 200.921M163.77 200.921C162.661 200.956 161.713 201.662 160.867 202.313C159.373 203.568 158.079 205.061 156.988 206.676C156.587 207.345 156.116 208.054 156.093 208.858C156.093 206.212 156.093 203.567 156.093 200.921" fill="#E6180A"/>
<path d="M85.9811 210.161C79.8393 210.161 73.6976 210.161 67.5559 210.161C69.6544 210.254 71.4401 211.612 73.1266 212.735C76.9148 215.592 80.4631 218.87 83.2653 222.703C84.5728 224.632 85.9465 226.801 85.9811 229.21M67.5559 210.161C70.2189 210.077 72.4933 208.382 74.5229 206.819C78.1096 203.808 81.214 200.226 83.8339 196.349C84.7959 194.744 85.9283 193.043 85.9811 191.112C85.9811 197.462 85.9811 203.81 85.9811 210.161M85.9811 191.112C86.0722 193.948 87.7996 196.404 89.431 198.597C92.3387 202.22 95.7838 205.425 99.5744 208.105C101.047 209.024 102.612 210.117 104.406 210.161C98.2645 210.161 92.1228 210.161 85.9811 210.161M104.406 210.161C101.743 210.245 99.4688 211.939 97.4392 213.5C93.8525 216.514 90.7481 220.096 88.1283 223.973C87.1662 225.578 86.035 227.279 85.9811 229.21C85.9811 222.859 85.9811 216.511 85.9811 210.161" fill="#E6180A"/>
<path d="M85.981 123.662C92.1227 123.662 98.2644 123.662 104.406 123.662C102.308 123.568 100.522 122.21 98.8354 121.088C95.0472 118.23 91.4989 114.953 88.6968 111.119C87.3893 109.19 86.0155 107.022 85.981 104.613M104.406 123.662C101.743 123.746 99.4688 125.44 97.4391 127.004C93.8525 130.015 90.748 133.596 88.1282 137.473C87.1661 139.078 86.0338 140.779 85.981 142.711C85.981 136.36 85.981 130.012 85.981 123.662M85.981 142.711C85.8898 139.875 84.1625 137.418 82.5311 135.225C79.6233 131.603 76.1782 128.398 72.3876 125.718C70.9146 124.799 69.3504 123.706 67.5558 123.662C73.6976 123.662 79.8393 123.662 85.981 123.662M67.5558 123.662C70.2188 123.578 72.4932 121.884 74.5228 120.322C78.1095 117.309 81.214 113.727 83.8338 109.85C84.7958 108.245 85.927 106.544 85.981 104.613C85.981 110.963 85.981 117.311 85.981 123.662" fill="#E6180A"/>
<path d="M85.981 46.7492C92.1227 46.7492 98.2644 46.7492 104.406 46.7492C102.308 46.6557 100.522 45.2978 98.8354 44.1755C95.0472 41.3177 91.4989 38.0405 88.6968 34.2067C87.3893 32.2778 86.0155 30.109 85.981 27.7003M104.406 46.7492C101.743 46.8332 99.4688 48.5277 97.4391 50.0912C93.8525 53.1021 90.748 56.6839 88.1282 60.5609C87.1661 62.1659 86.0338 63.8669 85.981 65.7982C85.981 59.4477 85.981 53.0997 85.981 46.7492M85.981 65.7982C85.8898 62.9624 84.1625 60.5057 82.5311 58.3129C79.6233 54.6903 76.1782 51.4851 72.3876 48.8053C70.9146 47.8864 69.3504 46.7936 67.5558 46.7492C73.6976 46.7492 79.8393 46.7492 85.981 46.7492M67.5558 46.7492C70.2188 46.6653 72.4932 44.9715 74.5228 43.4097C78.1095 40.3964 81.214 36.8145 83.8338 32.9376C84.7958 31.3326 85.927 29.6316 85.981 27.7003C85.981 34.0508 85.981 40.3988 85.981 46.7492" fill="#E6180A"/>
</svg>
