<svg width="170" height="261" viewBox="0 0 170 261" fill="none" xmlns="http://www.w3.org/2000/svg">
<path d="M1.73804 245.185C1.73804 248.964 4.82689 252.052 8.60548 252.052H161.394C165.162 252.052 168.251 248.964 168.251 245.185V16.8699C168.251 13.0913 165.162 10.0024 161.394 10.0024H8.60548C4.82689 10.0024 1.73804 13.0913 1.73804 16.8699V245.185Z" fill="white" stroke="black" stroke-width="2.49907"/>
<path d="M7.32868 28.4446V24.4231L17.4121 8.53734H20.8793V14.1038H18.8273L12.4706 24.1636V24.3523H26.7996V28.4446H7.32868ZM18.9216 32.6902V27.2181L19.016 25.4373V8.53734H23.8041V32.6902H18.9216Z" fill="#E6180A"/>
<path d="M163.66 232.614V236.635L153.577 252.521H150.109V246.954H152.162L158.518 236.895V236.706H144.189V232.614H163.66ZM152.067 228.368V233.84L151.973 235.621V252.521H147.185V228.368H152.067Z" fill="#E6180A"/>
<path d="M15.3829 60.1368C17.942 60.1368 20.501 60.1368 23.0601 60.1368C22.1857 60.0978 21.4417 59.532 20.7389 59.0644C19.1605 57.8736 17.6821 56.5082 16.5145 54.9107C15.9697 54.107 15.3973 53.2034 15.3829 52.1998M23.0601 60.1368C21.9505 60.1718 21.0028 60.8778 20.1571 61.5293C18.6627 62.7838 17.3692 64.2763 16.2776 65.8917C15.8767 66.5604 15.4049 67.2692 15.3829 68.0739C15.3829 65.4278 15.3829 62.7828 15.3829 60.1368M15.3829 68.0739C15.3449 66.8923 14.6252 65.8687 13.9454 64.955C12.7339 63.4456 11.2984 62.1101 9.71902 60.9935C9.10525 60.6106 8.45349 60.1553 7.70577 60.1368C10.2648 60.1368 12.8239 60.1368 15.3829 60.1368M7.70577 60.1368C8.81536 60.1018 9.76301 59.3961 10.6087 58.7453C12.1031 57.4898 13.3967 55.9973 14.4882 54.3819C14.8891 53.7132 15.3604 53.0045 15.3829 52.1998C15.3829 54.8458 15.3829 57.4908 15.3829 60.1368" fill="#E6180A"/>
<path d="M155.606 200.921C153.047 200.921 150.488 200.921 147.929 200.921C148.803 200.96 149.547 201.526 150.25 201.994C151.828 203.185 153.307 204.55 154.474 206.147C155.019 206.951 155.591 207.855 155.606 208.858M147.929 200.921C149.038 200.886 149.986 200.18 150.832 199.529C152.326 198.274 153.62 196.782 154.711 195.167C155.112 194.498 155.584 193.789 155.606 192.984C155.606 195.63 155.606 198.275 155.606 200.921M155.606 192.984C155.644 194.166 156.364 195.19 157.043 196.103C158.255 197.613 159.69 198.948 161.27 200.065C161.883 200.448 162.535 200.903 163.283 200.921C160.724 200.921 158.165 200.921 155.606 200.921M163.283 200.921C162.173 200.956 161.226 201.662 160.38 202.313C158.886 203.568 157.592 205.061 156.5 206.676C156.1 207.345 155.628 208.054 155.606 208.858C155.606 206.212 155.606 203.567 155.606 200.921" fill="#E6180A"/>
<path d="M45.58 46.7492C51.7217 46.7492 57.8634 46.7492 64.0051 46.7492C61.9066 46.6557 60.121 45.2978 58.4344 44.1755C54.6462 41.3177 51.0979 38.0405 48.2958 34.2067C46.9883 32.2778 45.6145 30.109 45.58 27.7003M64.0051 46.7492C61.3421 46.8332 59.0678 48.5277 57.0381 50.0912C53.4515 53.1021 50.347 56.6839 47.7272 60.5609C46.7651 62.1659 45.6328 63.8669 45.58 65.7982C45.58 59.4477 45.58 53.0997 45.58 46.7492M45.58 65.7982C45.4888 62.9624 43.7615 60.5057 42.1301 58.3129C39.2223 54.6903 35.7772 51.4851 31.9866 48.8053C30.5136 47.8864 28.9494 46.7936 27.1548 46.7492C33.2965 46.7492 39.4383 46.7492 45.58 46.7492M27.1548 46.7492C29.8178 46.6653 32.0922 44.9715 34.1218 43.4097C37.7085 40.3964 40.813 36.8145 43.4328 32.9376C44.3948 31.3326 45.526 29.6316 45.58 27.7003C45.58 34.0508 45.58 40.3988 45.58 46.7492" fill="#E6180A"/>
<path d="M45.5799 210.161C39.4382 210.161 33.2965 210.161 27.1548 210.161C29.2533 210.254 31.0389 211.612 32.7255 212.735C36.5137 215.592 40.062 218.87 42.8641 222.703C44.1717 224.632 45.5454 226.801 45.5799 229.21M27.1548 210.161C29.8178 210.077 32.0921 208.382 34.1218 206.819C37.7085 203.808 40.8129 200.226 43.4327 196.349C44.3948 194.744 45.5272 193.043 45.5799 191.112C45.5799 197.462 45.5799 203.81 45.5799 210.161M45.5799 191.112C45.6711 193.948 47.3985 196.404 49.0298 198.597C51.9376 202.22 55.3827 205.425 59.1733 208.105C60.6463 209.024 62.2105 210.117 64.0051 210.161C57.8634 210.161 51.7216 210.161 45.5799 210.161M64.0051 210.161C61.3421 210.245 59.0677 211.939 57.0381 213.5C53.4514 216.514 50.347 220.096 47.7271 223.973C46.7651 225.578 45.6339 227.279 45.5799 229.21C45.5799 222.859 45.5799 216.511 45.5799 210.161" fill="#E6180A"/>
<path d="M125.408 46.7492C131.55 46.7492 137.691 46.7492 143.833 46.7492C141.734 46.6557 139.949 45.2978 138.262 44.1755C134.474 41.3177 130.926 38.0405 128.124 34.2067C126.816 32.2778 125.442 30.109 125.408 27.7003M143.833 46.7492C141.17 46.8332 138.896 48.5277 136.866 50.0912C133.279 53.1021 130.175 56.6839 127.555 60.5609C126.593 62.1659 125.461 63.8669 125.408 65.7982C125.408 59.4477 125.408 53.0997 125.408 46.7492M125.408 65.7982C125.317 62.9624 123.589 60.5057 121.958 58.3129C119.05 54.6903 115.605 51.4851 111.814 48.8053C110.341 47.8864 108.777 46.7936 106.983 46.7492C113.124 46.7492 119.266 46.7492 125.408 46.7492M106.983 46.7492C109.646 46.6653 111.92 44.9715 113.95 43.4097C117.536 40.3964 120.641 36.8145 123.261 32.9376C124.223 31.3326 125.354 29.6316 125.408 27.7003C125.408 34.0508 125.408 40.3988 125.408 46.7492" fill="#E6180A"/>
<path d="M125.408 210.161C119.266 210.161 113.124 210.161 106.983 210.161C109.081 210.254 110.867 211.612 112.553 212.735C116.342 215.592 119.89 218.87 122.692 222.703C124 224.632 125.373 226.801 125.408 229.21M106.983 210.161C109.646 210.077 111.92 208.382 113.95 206.819C117.536 203.808 120.641 200.226 123.261 196.349C124.223 194.744 125.355 193.043 125.408 191.112C125.408 197.462 125.408 203.81 125.408 210.161M125.408 191.112C125.499 193.948 127.226 196.404 128.858 198.597C131.765 202.22 135.211 205.425 139.001 208.105C140.474 209.024 142.038 210.117 143.833 210.161C137.691 210.161 131.55 210.161 125.408 210.161M143.833 210.161C141.17 210.245 138.896 211.939 136.866 213.5C133.279 216.514 130.175 220.096 127.555 223.973C126.593 225.578 125.462 227.279 125.408 229.21C125.408 222.859 125.408 216.511 125.408 210.161" fill="#E6180A"/>
</svg>
