<svg width="170" height="261" viewBox="0 0 170 261" fill="none" xmlns="http://www.w3.org/2000/svg">
<path d="M1.73804 245.279C1.73804 249.058 4.82689 252.147 8.60548 252.147H161.394C165.162 252.147 168.251 249.058 168.251 245.279V16.9641C168.251 13.1855 165.162 10.0966 161.394 10.0966H8.60548C4.82689 10.0966 1.73804 13.1855 1.73804 16.9641V245.279Z" fill="white" stroke="black" stroke-width="2.49907"/>
<path d="M7.32868 28.5389V24.5173L17.4121 8.63157H20.8793V14.1981H18.8273L12.4706 24.2578V24.4465H26.7996V28.5389H7.32868ZM18.9216 32.7845V27.3123L19.016 25.5315V8.63157H23.8041V32.7845H18.9216Z" fill="black"/>
<path d="M163.66 232.708V236.729L153.577 252.615H150.109V247.049H152.162L158.518 236.989V236.8H144.189V232.708H163.66ZM152.067 228.462V233.934L151.973 235.715V252.615H147.185V228.462H152.067Z" fill="black"/>
<path d="M11.4645 68.1581C13.1338 68.1581 14.0135 66.3788 14.4733 64.5994C14.9332 62.8201 14.9732 61.0408 14.9732 61.0408L15.8228 61.0308C15.8228 61.0308 15.9828 68.1581 19.3215 68.1581H11.4645Z" fill="black"/>
<path d="M8.63551 61.0308C8.64551 57.5621 13.8536 55.043 15.383 52.304C16.9124 55.053 22.1205 57.5721 22.1305 61.0308C22.1305 62.6702 20.6211 63.9997 18.7517 63.9997C16.8924 63.9997 15.383 62.6702 15.383 61.0308C15.383 62.6702 13.8736 63.9997 12.0043 63.9997C10.135 63.9997 8.63551 62.6702 8.63551 61.0308Z" fill="black"/>
<path d="M159.524 193.089C157.855 193.089 156.975 194.868 156.516 196.647C156.056 198.427 156.016 200.206 156.016 200.206L155.166 200.216C155.166 200.216 155.006 193.089 151.667 193.089H159.524Z" fill="black"/>
<path d="M162.353 200.216C162.343 203.685 157.135 206.204 155.606 208.943C154.076 206.194 148.868 203.675 148.858 200.216C148.858 198.577 150.368 197.247 152.237 197.247C154.096 197.247 155.606 198.577 155.606 200.216C155.606 198.577 157.115 197.247 158.985 197.247C160.854 197.247 162.353 198.577 162.353 200.216Z" fill="black"/>
<path d="M36.1754 65.8675C40.1819 65.8675 42.2931 61.5971 43.3967 57.3267C44.5003 53.0563 44.5963 48.7859 44.5963 48.7859L46.6355 48.7619C46.6355 48.7619 47.0194 65.8675 55.0324 65.8675H36.1754Z" fill="black"/>
<path d="M29.386 48.7619C29.41 40.437 41.9093 34.3912 45.5799 27.8177C49.2506 34.4152 61.7499 40.461 61.7739 48.7619C61.7739 52.6964 58.1513 55.8872 53.6649 55.8872C49.2026 55.8872 45.5799 52.6964 45.5799 48.7619C45.5799 52.6964 41.9573 55.8872 37.471 55.8872C32.9846 55.8872 29.386 52.6964 29.386 48.7619Z" fill="black"/>
<path d="M54.9845 191.23C50.978 191.23 48.8668 195.501 47.7632 199.771C46.6596 204.042 46.5636 208.312 46.5636 208.312L44.5244 208.336C44.5244 208.336 44.1405 191.23 36.1275 191.23H54.9845Z" fill="black"/>
<path d="M61.7739 208.336C61.75 216.661 49.2506 222.707 45.58 229.28C41.9093 222.683 29.41 216.637 29.386 208.336C29.386 204.402 33.0086 201.211 37.495 201.211C41.9573 201.211 45.58 204.402 45.58 208.336C45.58 204.402 49.2026 201.211 53.6889 201.211C58.1753 201.211 61.7739 204.402 61.7739 208.336Z" fill="black"/>
<path d="M116.003 65.8675C120.01 65.8675 122.121 61.5971 123.225 57.3267C124.328 53.0563 124.424 48.7859 124.424 48.7859L126.463 48.7619C126.463 48.7619 126.847 65.8675 134.86 65.8675H116.003Z" fill="black"/>
<path d="M109.214 48.7619C109.238 40.437 121.737 34.3912 125.408 27.8177C129.078 34.4152 141.578 40.461 141.602 48.7619C141.602 52.6964 137.979 55.8872 133.493 55.8872C129.031 55.8872 125.408 52.6964 125.408 48.7619C125.408 52.6964 121.785 55.8872 117.299 55.8872C112.813 55.8872 109.214 52.6964 109.214 48.7619Z" fill="black"/>
<path d="M134.812 191.23C130.806 191.23 128.695 195.501 127.591 199.771C126.487 204.042 126.391 208.312 126.391 208.312L124.352 208.336C124.352 208.336 123.968 191.23 115.955 191.23H134.812Z" fill="black"/>
<path d="M141.602 208.336C141.578 216.661 129.078 222.707 125.408 229.28C121.737 222.683 109.238 216.637 109.214 208.336C109.214 204.402 112.836 201.211 117.323 201.211C121.785 201.211 125.408 204.402 125.408 208.336C125.408 204.402 129.03 201.211 133.517 201.211C138.003 201.211 141.602 204.402 141.602 208.336Z" fill="black"/>
</svg>
