<svg width="170" height="261" viewBox="0 0 170 261" fill="none" xmlns="http://www.w3.org/2000/svg">
<path d="M1.25073 245.233C1.25073 249.011 4.33958 252.1 8.11818 252.1H160.906C164.675 252.1 167.764 249.011 167.764 245.233V16.9175C167.764 13.1389 164.675 10.05 160.906 10.05H8.11818C4.33958 10.05 1.25073 13.1389 1.25073 16.9175V245.233Z" fill="white" stroke="black" stroke-width="2.49907"/>
<path d="M16.0284 33.0671C14.3616 33.0671 12.8757 32.7604 11.5705 32.1472C10.2733 31.5339 9.2433 30.6887 8.48066 29.6116C7.71802 28.5345 7.32098 27.3001 7.28953 25.9085H12.2428C12.2978 26.8441 12.6909 27.6028 13.4221 28.1846C14.1533 28.7664 15.0221 29.0573 16.0284 29.0573C16.8304 29.0573 17.538 28.8804 18.1513 28.5266C18.7724 28.1649 19.2559 27.6657 19.6019 27.0288C19.9557 26.3841 20.1326 25.6451 20.1326 24.8117C20.1326 23.9625 19.9517 23.2156 19.5901 22.5709C19.2363 21.9262 18.7449 21.423 18.1159 21.0614C17.4869 20.6997 16.7675 20.5149 15.9577 20.5071C15.2501 20.5071 14.5621 20.6525 13.8938 20.9434C13.2334 21.2343 12.7184 21.6314 12.3489 22.1346L7.80844 21.3208L8.9524 8.58394H23.7178V12.7588H13.1626L12.5376 18.8088H12.6791C13.1037 18.2113 13.7445 17.716 14.6014 17.3229C15.4584 16.9297 16.4176 16.7332 17.479 16.7332C18.9336 16.7332 20.2308 17.0752 21.3709 17.7592C22.5109 18.4432 23.4111 19.3828 24.0716 20.5778C24.732 21.765 25.0583 23.1331 25.0504 24.6819C25.0583 26.3094 24.6809 27.7561 23.9182 29.0219C23.1635 30.2799 22.106 31.2705 20.7458 31.9939C19.3935 32.7093 17.821 33.0671 16.0284 33.0671Z" fill="#E6180A"/>
<path d="M153.986 228.085C155.653 228.085 157.139 228.392 158.444 229.005C159.741 229.618 160.771 230.464 161.534 231.541C162.296 232.618 162.693 233.852 162.725 235.244H157.771C157.716 234.308 157.323 233.55 156.592 232.968C155.861 232.386 154.992 232.095 153.986 232.095C153.184 232.095 152.476 232.272 151.863 232.626C151.242 232.987 150.758 233.487 150.412 234.124C150.059 234.768 149.882 235.507 149.882 236.341C149.882 237.19 150.062 237.937 150.424 238.581C150.778 239.226 151.269 239.729 151.898 240.091C152.527 240.453 153.247 240.637 154.057 240.645C154.764 240.645 155.452 240.5 156.12 240.209C156.781 239.918 157.296 239.521 157.665 239.018L162.206 239.832L161.062 252.568H146.296V248.394H156.852L157.477 242.344H157.335C156.911 242.941 156.27 243.436 155.413 243.829C154.556 244.223 153.597 244.419 152.535 244.419C151.081 244.419 149.783 244.077 148.643 243.393C147.503 242.709 146.603 241.77 145.943 240.575C145.282 239.387 144.956 238.019 144.964 236.47C144.956 234.843 145.333 233.396 146.096 232.13C146.851 230.872 147.908 229.882 149.268 229.158C150.621 228.443 152.193 228.085 153.986 228.085Z" fill="#E6180A"/>
<path d="M22.5628 56.2548C22.5528 60.9631 16.655 64.3918 14.9256 68.1204C13.1763 64.4018 7.26849 61.0031 7.22851 56.2948C7.21851 54.0756 8.93787 52.2663 11.0471 52.2663C13.1663 52.2663 14.8957 54.0557 14.8957 56.2748C14.8957 54.0457 16.605 52.2463 18.7142 52.2463C20.8334 52.2363 22.5528 54.0357 22.5628 56.2548Z" fill="#E6180A"/>
<path d="M147.451 204.898C147.461 200.189 153.359 196.761 155.089 193.032C156.838 196.751 162.746 200.149 162.786 204.858C162.796 207.077 161.076 208.886 158.967 208.886C156.848 208.886 155.119 207.097 155.119 204.878C155.119 207.107 153.409 208.906 151.3 208.906C149.181 208.916 147.461 207.117 147.451 204.898Z" fill="#E6180A"/>
<path d="M63.494 37.3677C63.47 48.6675 49.3153 56.8964 45.1648 65.8451C40.9664 56.9204 26.7877 48.7634 26.6917 37.4636C26.6677 32.1376 30.7942 27.7952 35.8563 27.7952C40.9424 27.7952 45.0929 32.0896 45.0929 37.4157C45.0929 32.0657 49.1953 27.7473 54.2575 27.7473C59.3436 27.7233 63.47 32.0417 63.494 37.3677Z" fill="#E6180A"/>
<path d="M26.6917 219.637C26.7156 208.338 40.8704 200.109 45.0208 191.16C49.2193 200.085 63.398 208.242 63.494 219.541C63.518 224.868 59.3915 229.21 54.3294 229.21C49.2433 229.21 45.0928 224.915 45.0928 219.589C45.0928 224.939 40.9903 229.258 35.9282 229.258C30.8421 229.282 26.7156 224.963 26.6917 219.637Z" fill="#E6180A"/>
<path d="M143.322 37.3677C143.298 48.6675 129.143 56.8964 124.993 65.8451C120.794 56.9204 106.616 48.7634 106.52 37.4636C106.496 32.1376 110.622 27.7952 115.684 27.7952C120.77 27.7952 124.921 32.0896 124.921 37.4157C124.921 32.0657 129.023 27.7473 134.085 27.7473C139.172 27.7233 143.298 32.0417 143.322 37.3677Z" fill="#E6180A"/>
<path d="M106.52 219.637C106.544 208.338 120.698 200.109 124.849 191.16C129.047 200.085 143.226 208.242 143.322 219.541C143.346 224.868 139.219 229.21 134.157 229.21C129.071 229.21 124.921 224.915 124.921 219.589C124.921 224.939 120.818 229.258 115.756 229.258C110.67 229.282 106.544 224.963 106.52 219.637Z" fill="#E6180A"/>
<path d="M103.408 114.281C103.384 125.58 89.2293 133.809 85.0788 142.758C80.8804 133.833 66.7017 125.676 66.6057 114.377C66.5817 109.051 70.7082 104.708 75.7703 104.708C80.8564 104.708 85.0069 109.003 85.0069 114.329C85.0069 108.979 89.1093 104.66 94.1715 104.66C99.2576 104.636 103.384 108.955 103.408 114.281Z" fill="#E6180A"/>
</svg>
