<svg width="170" height="261" viewBox="0 0 170 261" fill="none" xmlns="http://www.w3.org/2000/svg">
<path d="M1.25073 245.279C1.25073 249.058 4.33958 252.147 8.11818 252.147H160.906C164.675 252.147 167.764 249.058 167.764 245.279V16.9641C167.764 13.1855 164.675 10.0966 160.906 10.0966H8.11818C4.33958 10.0966 1.25073 13.1855 1.25073 16.9641V245.279Z" fill="white" stroke="black" stroke-width="2.49907"/>
<path d="M16.0284 33.1147C14.3616 33.1147 12.8757 32.8081 11.5705 32.1948C10.2733 31.5816 9.2433 30.7364 8.48066 29.6592C7.71802 28.5821 7.32098 27.3477 7.28953 25.9561H12.2428C12.2978 26.8917 12.6909 27.6504 13.4221 28.2322C14.1533 28.814 15.0221 29.1049 16.0284 29.1049C16.8304 29.1049 17.538 28.928 18.1513 28.5742C18.7724 28.2126 19.2559 27.7133 19.6019 27.0765C19.9557 26.4318 20.1326 25.6927 20.1326 24.8593C20.1326 24.0102 19.9517 23.2633 19.5901 22.6186C19.2363 21.9739 18.7449 21.4707 18.1159 21.109C17.4869 20.7473 16.7675 20.5626 15.9577 20.5547C15.2501 20.5547 14.5621 20.7002 13.8938 20.9911C13.2334 21.282 12.7184 21.679 12.3489 22.1822L7.80844 21.3685L8.9524 8.63157H23.7178V12.8064H13.1626L12.5376 18.8565H12.6791C13.1037 18.2589 13.7445 17.7636 14.6014 17.3705C15.4584 16.9774 16.4176 16.7808 17.479 16.7808C18.9336 16.7808 20.2308 17.1228 21.3709 17.8068C22.5109 18.4909 23.4111 19.4304 24.0716 20.6255C24.732 21.8127 25.0583 23.1807 25.0504 24.7296C25.0583 26.3571 24.6809 27.8037 23.9182 29.0696C23.1635 30.3275 22.106 31.3182 20.7458 32.0415C19.3935 32.757 17.821 33.1147 16.0284 33.1147Z" fill="black"/>
<path d="M153.986 228.132C155.653 228.132 157.139 228.439 158.444 229.052C159.741 229.665 160.771 230.51 161.534 231.587C162.296 232.665 162.693 233.899 162.725 235.291H157.771C157.716 234.355 157.323 233.596 156.592 233.014C155.861 232.433 154.992 232.142 153.986 232.142C153.184 232.142 152.476 232.319 151.863 232.672C151.242 233.034 150.758 233.533 150.412 234.17C150.059 234.815 149.882 235.554 149.882 236.387C149.882 237.236 150.062 237.983 150.424 238.628C150.778 239.273 151.269 239.776 151.898 240.138C152.527 240.499 153.247 240.684 154.057 240.692C154.764 240.692 155.452 240.546 156.12 240.256C156.781 239.965 157.296 239.568 157.665 239.064L162.206 239.878L161.062 252.615H146.296V248.44H156.852L157.477 242.39H157.335C156.911 242.988 156.27 243.483 155.413 243.876C154.556 244.269 153.597 244.466 152.535 244.466C151.081 244.466 149.783 244.124 148.643 243.44C147.503 242.756 146.603 241.816 145.943 240.621C145.282 239.434 144.956 238.066 144.964 236.517C144.956 234.89 145.333 233.443 146.096 232.177C146.851 230.919 147.908 229.928 149.268 229.205C150.621 228.49 152.193 228.132 153.986 228.132Z" fill="black"/>
<path d="M10.9772 68.1581C12.6465 68.1581 13.5262 66.3788 13.986 64.5994C14.4459 62.8201 14.4858 61.0408 14.4858 61.0408L15.3355 61.0308C15.3355 61.0308 15.4955 68.1581 18.8342 68.1581H10.9772Z" fill="black"/>
<path d="M8.14821 61.0308C8.1582 57.5621 13.3663 55.043 14.8957 52.304C16.4251 55.053 21.6332 57.5721 21.6432 61.0308C21.6432 62.6702 20.1337 63.9997 18.2644 63.9997C16.4051 63.9997 14.8957 62.6702 14.8957 61.0308C14.8957 62.6702 13.3863 63.9997 11.517 63.9997C9.64765 63.9997 8.14821 62.6702 8.14821 61.0308Z" fill="black"/>
<path d="M159.037 193.089C157.368 193.089 156.488 194.868 156.028 196.647C155.568 198.427 155.528 200.206 155.528 200.206L154.679 200.216C154.679 200.216 154.519 193.089 151.18 193.089H159.037Z" fill="black"/>
<path d="M161.866 200.216C161.856 203.685 156.648 206.204 155.119 208.943C153.589 206.194 148.381 203.675 148.371 200.216C148.371 198.577 149.88 197.247 151.75 197.247C153.609 197.247 155.119 198.577 155.119 200.216C155.119 198.577 156.628 197.247 158.497 197.247C160.367 197.247 161.866 198.577 161.866 200.216Z" fill="black"/>
<path d="M35.6884 65.8675C39.6949 65.8675 41.8061 61.5971 42.9097 57.3267C44.0133 53.0563 44.1092 48.7859 44.1092 48.7859L46.1485 48.7619C46.1485 48.7619 46.5323 65.8675 54.5453 65.8675H35.6884Z" fill="black"/>
<path d="M28.8989 48.7619C28.9229 40.437 41.4223 34.3912 45.0929 27.8177C48.7635 34.4152 61.2629 40.461 61.2869 48.7619C61.2869 52.6964 57.6642 55.8872 53.1779 55.8872C48.7155 55.8872 45.0929 52.6964 45.0929 48.7619C45.0929 52.6964 41.4702 55.8872 36.9839 55.8872C32.4976 55.8872 28.8989 52.6964 28.8989 48.7619Z" fill="black"/>
<path d="M54.4974 191.23C50.4909 191.23 48.3796 195.501 47.2761 199.771C46.1725 204.042 46.0765 208.312 46.0765 208.312L44.0373 208.336C44.0373 208.336 43.6534 191.23 35.6404 191.23H54.4974Z" fill="black"/>
<path d="M61.2869 208.336C61.2629 216.661 48.7635 222.707 45.0929 229.28C41.4223 222.683 28.9229 216.637 28.8989 208.336C28.8989 204.402 32.5216 201.211 37.0079 201.211C41.4703 201.211 45.0929 204.402 45.0929 208.336C45.0929 204.402 48.7156 201.211 53.2019 201.211C57.6882 201.211 61.2869 204.402 61.2869 208.336Z" fill="black"/>
<path d="M115.516 65.8675C119.523 65.8675 121.634 61.5971 122.738 57.3267C123.841 53.0563 123.937 48.7859 123.937 48.7859L125.976 48.7619C125.976 48.7619 126.36 65.8675 134.373 65.8675H115.516Z" fill="black"/>
<path d="M108.727 48.7619C108.751 40.437 121.25 34.3912 124.921 27.8177C128.591 34.4152 141.091 40.461 141.115 48.7619C141.115 52.6964 137.492 55.8872 133.006 55.8872C128.543 55.8872 124.921 52.6964 124.921 48.7619C124.921 52.6964 121.298 55.8872 116.812 55.8872C112.325 55.8872 108.727 52.6964 108.727 48.7619Z" fill="black"/>
<path d="M134.325 191.23C130.319 191.23 128.208 195.501 127.104 199.771C126 204.042 125.904 208.312 125.904 208.312L123.865 208.336C123.865 208.336 123.481 191.23 115.468 191.23H134.325Z" fill="black"/>
<path d="M141.115 208.336C141.091 216.661 128.591 222.707 124.921 229.28C121.25 222.683 108.751 216.637 108.727 208.336C108.727 204.402 112.349 201.211 116.836 201.211C121.298 201.211 124.921 204.402 124.921 208.336C124.921 204.402 128.543 201.211 133.03 201.211C137.516 201.211 141.115 204.402 141.115 208.336Z" fill="black"/>
<path d="M75.6023 142.78C79.6088 142.78 81.72 138.51 82.8236 134.24C83.9272 129.969 84.0232 125.699 84.0232 125.699L86.0624 125.675C86.0624 125.675 86.4463 142.78 94.4593 142.78H75.6023Z" fill="black"/>
<path d="M68.8128 125.675C68.8368 117.35 81.3361 111.304 85.0068 104.731C88.6774 111.328 101.177 117.374 101.201 125.675C101.201 129.609 97.5781 132.8 93.0918 132.8C88.6294 132.8 85.0068 129.609 85.0068 125.675C85.0068 129.609 81.3841 132.8 76.8978 132.8C72.4114 132.8 68.8128 129.609 68.8128 125.675Z" fill="black"/>
</svg>
