<svg width="170" height="252" viewBox="0 0 170 252" fill="none" xmlns="http://www.w3.org/2000/svg">
<path d="M1.76349 236.138C1.76349 239.917 4.85234 243.006 8.63093 243.006H161.419C165.188 243.006 168.277 239.917 168.277 236.138V7.82327C168.277 4.04467 165.188 0.955811 161.419 0.955811H8.63093C4.85234 0.955811 1.76349 4.04467 1.76349 7.82327V236.138Z" fill="white" stroke="black" stroke-width="2.49907"/>
<path d="M16.9893 23.9738C15.7471 23.966 14.5481 23.7576 13.3923 23.3488C12.2444 22.9399 11.2145 22.2756 10.3024 21.3557C9.3904 20.4358 8.66707 19.2172 8.13244 17.6997C7.60567 16.1823 7.34228 14.319 7.34228 12.1097C7.35014 10.0812 7.58208 8.26894 8.03809 6.67289C8.50197 5.06899 9.1624 3.70882 10.0194 2.59237C10.8842 1.47593 11.9181 0.626804 13.1211 0.0449948C14.324 -0.544675 15.6724 -0.83951 17.1662 -0.83951C18.778 -0.83951 20.201 -0.525019 21.4354 0.103964C22.6698 0.725083 23.6604 1.57028 24.4073 2.63955C25.1621 3.70882 25.6181 4.90781 25.7754 6.23654H20.7396C20.543 5.39527 20.1303 4.73484 19.5013 4.25525C18.8723 3.77565 18.0939 3.53585 17.1662 3.53585C15.5937 3.53585 14.3987 4.21986 13.581 5.5879C12.7712 6.95594 12.3584 8.81536 12.3427 11.1662H12.5078C12.8695 10.4507 13.3569 9.84139 13.9702 9.33821C14.5913 8.82716 15.295 8.43797 16.0812 8.17066C16.8753 7.89548 17.7126 7.75789 18.5932 7.75789C20.0241 7.75789 21.2978 8.09597 22.4143 8.77212C23.5307 9.44041 24.4113 10.3603 25.056 11.5318C25.7007 12.7033 26.023 14.0438 26.023 15.5533C26.023 17.1887 25.6417 18.6432 24.8791 19.9169C24.1243 21.1906 23.0668 22.1891 21.7067 22.9124C20.3543 23.6279 18.7819 23.9817 16.9893 23.9738ZM16.9657 19.9641C17.7519 19.9641 18.4556 19.7754 19.0767 19.398C19.6978 19.0206 20.1853 18.5095 20.5391 17.8648C20.8929 17.2201 21.0698 16.4968 21.0698 15.6949C21.0698 14.8929 20.8929 14.1735 20.5391 13.5367C20.1932 12.8998 19.7136 12.3927 19.1003 12.0153C18.4871 11.6379 17.7873 11.4492 17.0011 11.4492C16.4114 11.4492 15.865 11.5593 15.3618 11.7794C14.8665 11.9996 14.4301 12.3062 14.0527 12.6993C13.6832 13.0924 13.3923 13.5485 13.18 14.0674C12.9677 14.5784 12.8616 15.1248 12.8616 15.7066C12.8616 16.485 13.0385 17.1965 13.3923 17.8413C13.754 18.486 14.2414 19.0009 14.8547 19.3862C15.4758 19.7714 16.1795 19.9641 16.9657 19.9641Z" fill="black"/>
<path d="M154.05 218.991C155.293 218.999 156.492 219.207 157.647 219.616C158.795 220.025 159.825 220.689 160.737 221.609C161.649 222.529 162.373 223.748 162.907 225.265C163.434 226.783 163.697 228.646 163.697 230.855C163.689 232.884 163.458 234.696 163.002 236.292C162.538 237.896 161.877 239.256 161.02 240.373C160.155 241.489 159.121 242.338 157.919 242.92C156.716 243.51 155.367 243.804 153.873 243.804C152.262 243.804 150.839 243.49 149.604 242.861C148.37 242.24 147.379 241.395 146.632 240.325C145.877 239.256 145.421 238.057 145.264 236.728H150.3C150.497 237.57 150.909 238.23 151.538 238.71C152.167 239.189 152.946 239.429 153.873 239.429C155.446 239.429 156.641 238.745 157.459 237.377C158.268 236.009 158.681 234.15 158.697 231.799H158.532C158.17 232.514 157.683 233.124 157.069 233.627C156.448 234.138 155.745 234.527 154.958 234.794C154.164 235.069 153.327 235.207 152.446 235.207C151.015 235.207 149.742 234.869 148.625 234.193C147.509 233.524 146.628 232.605 145.984 231.433C145.339 230.262 145.017 228.921 145.017 227.412C145.017 225.776 145.398 224.322 146.161 223.048C146.915 221.774 147.973 220.776 149.333 220.052C150.685 219.337 152.258 218.983 154.05 218.991ZM154.074 223.001C153.288 223.001 152.584 223.19 151.963 223.567C151.342 223.944 150.854 224.455 150.501 225.1C150.147 225.745 149.97 226.468 149.97 227.27C149.97 228.072 150.147 228.791 150.501 229.428C150.846 230.065 151.326 230.572 151.939 230.95C152.553 231.327 153.252 231.516 154.039 231.516C154.628 231.516 155.175 231.406 155.678 231.185C156.173 230.965 156.609 230.659 156.987 230.266C157.356 229.872 157.647 229.416 157.86 228.898C158.072 228.386 158.178 227.84 158.178 227.258C158.178 226.48 158.001 225.768 157.647 225.124C157.286 224.479 156.798 223.964 156.185 223.579C155.564 223.193 154.86 223.001 154.074 223.001Z" fill="black"/>
<path d="M12.0596 46.4319C12.0596 48.2412 13.569 49.7107 15.4383 49.7107C17.3077 49.7107 18.8171 48.2412 18.8171 46.4319C18.8171 44.6226 17.3077 43.1531 15.4383 43.1531C13.569 43.1531 12.0596 44.6226 12.0596 46.4319Z" fill="black"/>
<path d="M7.70125 52.6396C7.70125 54.4489 9.21069 55.9184 11.08 55.9184C12.9493 55.9184 14.4587 54.4489 14.4587 52.6396C14.4587 50.8303 12.9493 49.3608 11.08 49.3608C9.21069 49.3608 7.70125 50.8303 7.70125 52.6396Z" fill="black"/>
<path d="M16.3581 52.6596C16.3581 53.3193 16.558 53.9391 16.9078 54.4589C17.5076 55.3486 18.5572 55.9384 19.7368 55.9384C21.6061 55.9384 23.1155 54.4689 23.1155 52.6596C23.1155 50.8502 21.6061 49.3808 19.7368 49.3808C17.8675 49.3808 16.3581 50.8502 16.3581 52.6596Z" fill="black"/>
<path d="M11.4698 59.0272C13.1392 59.0272 14.0189 57.6677 14.4787 56.3082C14.9385 54.9487 14.9785 53.5892 14.9785 53.5892H15.8382C15.8382 53.5892 15.9982 59.0172 19.3369 59.0272H11.4698Z" fill="black"/>
<path d="M17.7275 48.841C15.8282 50.7403 15.8282 53.5892 15.8282 53.5892L14.9785 53.5992C14.9785 53.5992 14.9785 50.6903 13.1292 48.841" fill="black"/>
<path d="M17.3477 54.9387C15.4484 53.0394 12.5994 53.0394 12.5994 53.0394V52.1897C12.5994 52.1897 15.5084 52.1897 17.3577 50.3404" fill="black"/>
<path d="M13.5391 54.9487C15.4384 53.0494 18.2873 53.0494 18.2873 53.0494V52.1998C18.2873 52.1998 15.3784 52.1998 13.5291 50.3504" fill="black"/>
<path d="M158.98 196.533C158.98 194.724 157.471 193.254 155.601 193.254C153.732 193.254 152.223 194.724 152.223 196.533C152.223 198.342 153.732 199.812 155.601 199.812C157.471 199.812 158.98 198.342 158.98 196.533Z" fill="black"/>
<path d="M163.338 190.325C163.338 188.516 161.829 187.047 159.96 187.047C158.09 187.047 156.581 188.516 156.581 190.325C156.581 192.135 158.09 193.604 159.96 193.604C161.829 193.604 163.338 192.135 163.338 190.325Z" fill="black"/>
<path d="M154.682 190.305C154.682 189.646 154.482 189.026 154.132 188.506C153.532 187.616 152.482 187.027 151.303 187.027C149.434 187.027 147.924 188.496 147.924 190.305C147.924 192.115 149.434 193.584 151.303 193.584C153.172 193.584 154.682 192.115 154.682 190.305Z" fill="black"/>
<path d="M159.57 183.938C157.9 183.938 157.021 185.297 156.561 186.657C156.101 188.016 156.061 189.376 156.061 189.376H155.201C155.201 189.376 155.041 183.948 151.703 183.938H159.57Z" fill="black"/>
<path d="M153.312 194.124C155.211 192.225 155.211 189.376 155.211 189.376L156.061 189.366C156.061 189.366 156.061 192.275 157.91 194.124" fill="black"/>
<path d="M153.692 188.026C155.591 189.926 158.44 189.926 158.44 189.926V190.775C158.44 190.775 155.531 190.775 153.682 192.625" fill="black"/>
<path d="M157.501 188.016C155.601 189.916 152.752 189.916 152.752 189.916V190.765C152.752 190.765 155.661 190.765 157.511 192.615" fill="black"/>
<path d="M37.5688 26.5223C37.5688 30.8647 41.1914 34.3914 45.6778 34.3914C50.1641 34.3914 53.7867 30.8647 53.7867 26.5223C53.7867 22.1799 50.1641 18.6532 45.6778 18.6532C41.1914 18.6532 37.5688 22.1799 37.5688 26.5223Z" fill="black"/>
<path d="M27.1086 41.4207C27.1086 45.7631 30.7313 49.2898 35.2176 49.2898C39.7039 49.2898 43.3266 45.7631 43.3266 41.4207C43.3266 37.0783 39.7039 33.5516 35.2176 33.5516C30.7313 33.5516 27.1086 37.0783 27.1086 41.4207Z" fill="black"/>
<path d="M47.8849 41.4687C47.8849 43.0521 48.3647 44.5396 49.2044 45.7871C50.6438 47.9223 53.1629 49.3378 55.9939 49.3378C60.4802 49.3378 64.1028 45.8111 64.1028 41.4687C64.1028 37.1263 60.4802 33.5996 55.9939 33.5996C51.5075 33.5996 47.8849 37.1263 47.8849 41.4687Z" fill="black"/>
<path d="M36.1533 56.751C40.1598 56.751 42.271 53.4883 43.3746 50.2255C44.4782 46.9627 44.5741 43.6999 44.5741 43.6999H46.6374C46.6374 43.6999 47.0212 56.727 55.0343 56.751H36.1533Z" fill="black"/>
<path d="M51.1717 32.3041C46.6134 36.8624 46.6134 43.6999 46.6134 43.6999L44.5741 43.7239C44.5741 43.7239 44.5741 36.7425 40.1358 32.3041" fill="black"/>
<path d="M50.2601 46.9387C45.7018 42.3804 38.8643 42.3804 38.8643 42.3804V40.3411C38.8643 40.3411 45.8457 40.3411 50.2841 35.9028" fill="black"/>
<path d="M41.1194 46.9626C45.6777 42.4043 52.5152 42.4043 52.5152 42.4043V40.3651C52.5152 40.3651 45.5338 40.3651 41.0954 35.9268" fill="black"/>
<path d="M37.5688 103.435C37.5688 107.777 41.1914 111.304 45.6778 111.304C50.1641 111.304 53.7867 107.777 53.7867 103.435C53.7867 99.0927 50.1641 95.566 45.6778 95.566C41.1914 95.566 37.5688 99.0927 37.5688 103.435Z" fill="black"/>
<path d="M27.1086 118.334C27.1086 122.676 30.7313 126.203 35.2176 126.203C39.7039 126.203 43.3266 122.676 43.3266 118.334C43.3266 113.991 39.7039 110.464 35.2176 110.464C30.7313 110.464 27.1086 113.991 27.1086 118.334Z" fill="black"/>
<path d="M47.8849 118.381C47.8849 119.965 48.3647 121.452 49.2044 122.7C50.6438 124.835 53.1629 126.251 55.9939 126.251C60.4802 126.251 64.1028 122.724 64.1028 118.381C64.1028 114.039 60.4802 110.512 55.9939 110.512C51.5075 110.512 47.8849 114.039 47.8849 118.381Z" fill="black"/>
<path d="M36.1533 133.664C40.1598 133.664 42.271 130.401 43.3746 127.138C44.4782 123.875 44.5741 120.613 44.5741 120.613H46.6374C46.6374 120.613 47.0212 133.64 55.0343 133.664H36.1533Z" fill="black"/>
<path d="M51.1717 109.217C46.6134 113.775 46.6134 120.613 46.6134 120.613L44.5741 120.637C44.5741 120.637 44.5741 113.655 40.1358 109.217" fill="black"/>
<path d="M50.2601 123.852C45.7018 119.293 38.8643 119.293 38.8643 119.293V117.254C38.8643 117.254 45.8457 117.254 50.2841 112.816" fill="black"/>
<path d="M41.1194 123.875C45.6777 119.317 52.5152 119.317 52.5152 119.317V117.278C52.5152 117.278 45.5338 117.278 41.0954 112.84" fill="black"/>
<path d="M53.6428 212.294C53.6428 207.951 50.0201 204.424 45.5338 204.424C41.0475 204.424 37.4248 207.951 37.4248 212.294C37.4248 216.636 41.0475 220.163 45.5338 220.163C50.0201 220.163 53.6428 216.636 53.6428 212.294Z" fill="black"/>
<path d="M64.1029 197.395C64.1029 193.053 60.4803 189.526 55.994 189.526C51.5076 189.526 47.885 193.053 47.885 197.395C47.885 201.738 51.5076 205.264 55.994 205.264C60.4803 205.264 64.1029 201.738 64.1029 197.395Z" fill="black"/>
<path d="M43.3266 197.347C43.3266 195.764 42.8468 194.276 42.0071 193.029C40.5676 190.894 38.0486 189.478 35.2176 189.478C30.7313 189.478 27.1086 193.005 27.1086 197.347C27.1086 201.69 30.7313 205.216 35.2176 205.216C39.704 205.216 43.3266 201.69 43.3266 197.347Z" fill="black"/>
<path d="M55.0583 182.065C51.0518 182.065 48.9405 185.328 47.837 188.59C46.7334 191.853 46.6374 195.116 46.6374 195.116H44.5742C44.5742 195.116 44.1903 182.089 36.1773 182.065H55.0583Z" fill="black"/>
<path d="M40.0398 206.512C44.5981 201.953 44.5981 195.116 44.5981 195.116L46.6374 195.092C46.6374 195.092 46.6374 202.073 51.0757 206.512" fill="black"/>
<path d="M40.9515 191.877C45.5098 196.436 52.3472 196.436 52.3472 196.436V198.475C52.3472 198.475 45.3658 198.475 40.9275 202.913" fill="black"/>
<path d="M50.0921 191.853C45.5338 196.411 38.6963 196.411 38.6963 196.411V198.451C38.6963 198.451 45.6777 198.451 50.1161 202.889" fill="black"/>
<path d="M117.397 26.5223C117.397 30.8647 121.019 34.3914 125.506 34.3914C129.992 34.3914 133.615 30.8647 133.615 26.5223C133.615 22.1799 129.992 18.6532 125.506 18.6532C121.019 18.6532 117.397 22.1799 117.397 26.5223Z" fill="black"/>
<path d="M106.936 41.4207C106.936 45.7631 110.559 49.2898 115.045 49.2898C119.532 49.2898 123.154 45.7631 123.154 41.4207C123.154 37.0783 119.532 33.5516 115.045 33.5516C110.559 33.5516 106.936 37.0783 106.936 41.4207Z" fill="black"/>
<path d="M127.713 41.4687C127.713 43.0521 128.193 44.5396 129.032 45.7871C130.472 47.9223 132.991 49.3378 135.822 49.3378C140.308 49.3378 143.931 45.8111 143.931 41.4687C143.931 37.1263 140.308 33.5996 135.822 33.5996C131.335 33.5996 127.713 37.1263 127.713 41.4687Z" fill="black"/>
<path d="M115.981 56.751C119.988 56.751 122.099 53.4883 123.202 50.2255C124.306 46.9627 124.402 43.6999 124.402 43.6999H126.465C126.465 43.6999 126.849 56.727 134.862 56.751H115.981Z" fill="black"/>
<path d="M131 32.3041C126.441 36.8624 126.441 43.6999 126.441 43.6999L124.402 43.7239C124.402 43.7239 124.402 36.7425 119.964 32.3041" fill="black"/>
<path d="M130.088 46.9387C125.53 42.3804 118.692 42.3804 118.692 42.3804V40.3411C118.692 40.3411 125.674 40.3411 130.112 35.9028" fill="black"/>
<path d="M120.947 46.9626C125.506 42.4043 132.343 42.4043 132.343 42.4043V40.3651C132.343 40.3651 125.362 40.3651 120.923 35.9268" fill="black"/>
<path d="M117.397 103.435C117.397 107.777 121.019 111.304 125.506 111.304C129.992 111.304 133.615 107.777 133.615 103.435C133.615 99.0927 129.992 95.566 125.506 95.566C121.019 95.566 117.397 99.0927 117.397 103.435Z" fill="black"/>
<path d="M106.936 118.334C106.936 122.676 110.559 126.203 115.045 126.203C119.532 126.203 123.154 122.676 123.154 118.334C123.154 113.991 119.532 110.464 115.045 110.464C110.559 110.464 106.936 113.991 106.936 118.334Z" fill="black"/>
<path d="M127.713 118.381C127.713 119.965 128.193 121.452 129.032 122.7C130.472 124.835 132.991 126.251 135.822 126.251C140.308 126.251 143.931 122.724 143.931 118.381C143.931 114.039 140.308 110.512 135.822 110.512C131.335 110.512 127.713 114.039 127.713 118.381Z" fill="black"/>
<path d="M115.981 133.664C119.988 133.664 122.099 130.401 123.202 127.138C124.306 123.875 124.402 120.613 124.402 120.613H126.465C126.465 120.613 126.849 133.64 134.862 133.664H115.981Z" fill="black"/>
<path d="M131 109.217C126.441 113.775 126.441 120.613 126.441 120.613L124.402 120.637C124.402 120.637 124.402 113.655 119.964 109.217" fill="black"/>
<path d="M130.088 123.852C125.53 119.293 118.692 119.293 118.692 119.293V117.254C118.692 117.254 125.674 117.254 130.112 112.816" fill="black"/>
<path d="M120.947 123.875C125.506 119.317 132.343 119.317 132.343 119.317V117.278C132.343 117.278 125.362 117.278 120.923 112.84" fill="black"/>
<path d="M133.471 212.294C133.471 207.951 129.848 204.424 125.362 204.424C120.875 204.424 117.253 207.951 117.253 212.294C117.253 216.636 120.875 220.163 125.362 220.163C129.848 220.163 133.471 216.636 133.471 212.294Z" fill="black"/>
<path d="M143.931 197.395C143.931 193.053 140.308 189.526 135.822 189.526C131.336 189.526 127.713 193.053 127.713 197.395C127.713 201.738 131.336 205.264 135.822 205.264C140.308 205.264 143.931 201.738 143.931 197.395Z" fill="black"/>
<path d="M123.155 197.347C123.155 195.764 122.675 194.276 121.835 193.029C120.396 190.894 117.877 189.478 115.046 189.478C110.559 189.478 106.937 193.005 106.937 197.347C106.937 201.69 110.559 205.216 115.046 205.216C119.532 205.216 123.155 201.69 123.155 197.347Z" fill="black"/>
<path d="M134.886 182.065C130.88 182.065 128.768 185.328 127.665 188.59C126.561 191.853 126.465 195.116 126.465 195.116H124.402C124.402 195.116 124.018 182.089 116.005 182.065H134.886Z" fill="black"/>
<path d="M119.868 206.512C124.426 201.953 124.426 195.116 124.426 195.116L126.465 195.092C126.465 195.092 126.465 202.073 130.904 206.512" fill="black"/>
<path d="M120.779 191.877C125.338 196.436 132.175 196.436 132.175 196.436V198.475C132.175 198.475 125.194 198.475 120.755 202.913" fill="black"/>
<path d="M129.92 191.853C125.362 196.411 118.524 196.411 118.524 196.411V198.451C118.524 198.451 125.506 198.451 129.944 202.889" fill="black"/>
</svg>
