<svg width="170" height="252" viewBox="0 0 170 252" fill="none" xmlns="http://www.w3.org/2000/svg">
<path d="M1.27618 236.138C1.27618 239.917 4.36504 243.006 8.14363 243.006H160.932C164.7 243.006 167.789 239.917 167.789 236.138V7.82327C167.789 4.04467 164.7 0.955811 160.932 0.955811H8.14363C4.36504 0.955811 1.27618 4.04467 1.27618 7.82327V236.138Z" fill="white" stroke="black" stroke-width="2.49907"/>
<path d="M8.18769 23.6436L18.2003 3.83068V3.66557H6.53661V-0.509295H23.4838V3.72454L13.4593 23.6436H8.18769Z" fill="black"/>
<path d="M161.872 219.321L151.86 239.134V239.299H163.524V243.474H146.576V239.24L156.601 219.321H161.872Z" fill="black"/>
<path d="M11.5724 46.4319C11.5724 48.2412 13.0818 49.7107 14.9511 49.7107C16.8204 49.7107 18.3298 48.2412 18.3298 46.4319C18.3298 44.6226 16.8204 43.1531 14.9511 43.1531C13.0818 43.1531 11.5724 44.6226 11.5724 46.4319Z" fill="black"/>
<path d="M7.21399 52.6396C7.21399 54.4489 8.72343 55.9184 10.5927 55.9184C12.462 55.9184 13.9715 54.4489 13.9715 52.6396C13.9715 50.8303 12.462 49.3608 10.5927 49.3608C8.72343 49.3608 7.21399 50.8303 7.21399 52.6396Z" fill="black"/>
<path d="M15.8708 52.6596C15.8708 53.3193 16.0707 53.9391 16.4206 54.4589C17.0204 55.3486 18.07 55.9384 19.2496 55.9384C21.1189 55.9384 22.6283 54.4689 22.6283 52.6596C22.6283 50.8502 21.1189 49.3808 19.2496 49.3808C17.3802 49.3808 15.8708 50.8502 15.8708 52.6596Z" fill="black"/>
<path d="M10.9826 59.0272C12.652 59.0272 13.5316 57.6677 13.9915 56.3082C14.4513 54.9487 14.4913 53.5892 14.4913 53.5892H15.351C15.351 53.5892 15.5109 59.0172 18.8497 59.0272H10.9826Z" fill="black"/>
<path d="M17.2403 48.841C15.341 50.7403 15.341 53.5892 15.341 53.5892L14.4913 53.5992C14.4913 53.5992 14.4913 50.6903 12.642 48.841" fill="black"/>
<path d="M16.8604 54.9387C14.9611 53.0394 12.1122 53.0394 12.1122 53.0394V52.1897C12.1122 52.1897 15.0211 52.1897 16.8704 50.3404" fill="black"/>
<path d="M13.0518 54.9487C14.9511 53.0494 17.8001 53.0494 17.8001 53.0494V52.1998C17.8001 52.1998 14.8912 52.1998 13.0418 50.3504" fill="black"/>
<path d="M158.488 196.533C158.488 194.724 156.978 193.254 155.109 193.254C153.24 193.254 151.73 194.724 151.73 196.533C151.73 198.342 153.24 199.812 155.109 199.812C156.978 199.812 158.488 198.342 158.488 196.533Z" fill="black"/>
<path d="M162.846 190.325C162.846 188.516 161.337 187.047 159.467 187.047C157.598 187.047 156.089 188.516 156.089 190.325C156.089 192.135 157.598 193.604 159.467 193.604C161.337 193.604 162.846 192.135 162.846 190.325Z" fill="black"/>
<path d="M154.189 190.305C154.189 189.646 153.989 189.026 153.64 188.506C153.04 187.616 151.99 187.027 150.811 187.027C148.941 187.027 147.432 188.496 147.432 190.305C147.432 192.115 148.941 193.584 150.811 193.584C152.68 193.584 154.189 192.115 154.189 190.305Z" fill="black"/>
<path d="M159.077 183.938C157.408 183.938 156.528 185.297 156.069 186.657C155.609 188.016 155.569 189.376 155.569 189.376H154.709C154.709 189.376 154.549 183.948 151.21 183.938H159.077Z" fill="black"/>
<path d="M152.82 194.124C154.719 192.225 154.719 189.376 154.719 189.376L155.569 189.366C155.569 189.366 155.569 192.275 157.418 194.124" fill="black"/>
<path d="M153.2 188.026C155.099 189.926 157.948 189.926 157.948 189.926V190.775C157.948 190.775 155.039 190.775 153.19 192.625" fill="black"/>
<path d="M157.008 188.016C155.109 189.916 152.26 189.916 152.26 189.916V190.765C152.26 190.765 155.169 190.765 157.018 192.615" fill="black"/>
<path d="M37.0816 26.5223C37.0816 30.8647 40.7043 34.3914 45.1906 34.3914C49.677 34.3914 53.2996 30.8647 53.2996 26.5223C53.2996 22.1799 49.677 18.6532 45.1906 18.6532C40.7043 18.6532 37.0816 22.1799 37.0816 26.5223Z" fill="black"/>
<path d="M26.6215 41.4207C26.6215 45.7631 30.2442 49.2898 34.7305 49.2898C39.2169 49.2898 42.8395 45.7631 42.8395 41.4207C42.8395 37.0783 39.2169 33.5516 34.7305 33.5516C30.2442 33.5516 26.6215 37.0783 26.6215 41.4207Z" fill="black"/>
<path d="M47.3978 41.4687C47.3978 43.0521 47.8776 44.5396 48.7173 45.7871C50.1567 47.9223 52.6758 49.3378 55.5067 49.3378C59.9931 49.3378 63.6157 45.8111 63.6157 41.4687C63.6157 37.1263 59.9931 33.5996 55.5067 33.5996C51.0204 33.5996 47.3978 37.1263 47.3978 41.4687Z" fill="black"/>
<path d="M35.6661 56.751C39.6726 56.751 41.7838 53.4883 42.8874 50.2255C43.991 46.9627 44.087 43.6999 44.087 43.6999H46.1502C46.1502 43.6999 46.5341 56.727 54.5471 56.751H35.6661Z" fill="black"/>
<path d="M50.6846 32.3041C46.1263 36.8624 46.1263 43.6999 46.1263 43.6999L44.0871 43.7239C44.0871 43.7239 44.0871 36.7425 39.6487 32.3041" fill="black"/>
<path d="M49.7729 46.9387C45.2146 42.3804 38.3771 42.3804 38.3771 42.3804V40.3411C38.3771 40.3411 45.3585 40.3411 49.7969 35.9028" fill="black"/>
<path d="M40.6324 46.9626C45.1907 42.4043 52.0281 42.4043 52.0281 42.4043V40.3651C52.0281 40.3651 45.0467 40.3651 40.6084 35.9268" fill="black"/>
<path d="M37.0816 103.435C37.0816 107.777 40.7043 111.304 45.1906 111.304C49.677 111.304 53.2996 107.777 53.2996 103.435C53.2996 99.0927 49.677 95.566 45.1906 95.566C40.7043 95.566 37.0816 99.0927 37.0816 103.435Z" fill="black"/>
<path d="M26.6215 118.334C26.6215 122.676 30.2442 126.203 34.7305 126.203C39.2169 126.203 42.8395 122.676 42.8395 118.334C42.8395 113.991 39.2169 110.464 34.7305 110.464C30.2442 110.464 26.6215 113.991 26.6215 118.334Z" fill="black"/>
<path d="M47.3978 118.381C47.3978 119.965 47.8776 121.452 48.7173 122.7C50.1567 124.835 52.6758 126.251 55.5067 126.251C59.9931 126.251 63.6157 122.724 63.6157 118.381C63.6157 114.039 59.9931 110.512 55.5067 110.512C51.0204 110.512 47.3978 114.039 47.3978 118.381Z" fill="black"/>
<path d="M35.6661 133.664C39.6726 133.664 41.7838 130.401 42.8874 127.138C43.991 123.875 44.087 120.613 44.087 120.613H46.1502C46.1502 120.613 46.5341 133.64 54.5471 133.664H35.6661Z" fill="black"/>
<path d="M50.6846 109.217C46.1263 113.775 46.1263 120.613 46.1263 120.613L44.0871 120.637C44.0871 120.637 44.0871 113.655 39.6487 109.217" fill="black"/>
<path d="M49.7729 123.852C45.2146 119.293 38.3771 119.293 38.3771 119.293V117.254C38.3771 117.254 45.3585 117.254 49.7969 112.816" fill="black"/>
<path d="M40.6324 123.875C45.1907 119.317 52.0281 119.317 52.0281 119.317V117.278C52.0281 117.278 45.0467 117.278 40.6084 112.84" fill="black"/>
<path d="M53.1557 212.294C53.1557 207.951 49.533 204.424 45.0467 204.424C40.5603 204.424 36.9377 207.951 36.9377 212.294C36.9377 216.636 40.5603 220.163 45.0467 220.163C49.533 220.163 53.1557 216.636 53.1557 212.294Z" fill="black"/>
<path d="M63.6159 197.395C63.6159 193.053 59.9932 189.526 55.5069 189.526C51.0206 189.526 47.3979 193.053 47.3979 197.395C47.3979 201.738 51.0206 205.264 55.5069 205.264C59.9932 205.264 63.6159 201.738 63.6159 197.395Z" fill="black"/>
<path d="M42.8396 197.347C42.8396 195.764 42.3597 194.276 41.52 193.029C40.0806 190.894 37.5615 189.478 34.7306 189.478C30.2442 189.478 26.6216 193.005 26.6216 197.347C26.6216 201.69 30.2442 205.216 34.7306 205.216C39.2169 205.216 42.8396 201.69 42.8396 197.347Z" fill="black"/>
<path d="M54.5712 182.065C50.5647 182.065 48.4535 185.328 47.3499 188.59C46.2463 191.853 46.1503 195.116 46.1503 195.116H44.0871C44.0871 195.116 43.7033 182.089 35.6902 182.065H54.5712Z" fill="black"/>
<path d="M39.5528 206.512C44.1111 201.953 44.1111 195.116 44.1111 195.116L46.1504 195.092C46.1504 195.092 46.1504 202.073 50.5887 206.512" fill="black"/>
<path d="M40.4644 191.877C45.0227 196.436 51.8602 196.436 51.8602 196.436V198.475C51.8602 198.475 44.8788 198.475 40.4404 202.913" fill="black"/>
<path d="M49.6051 191.853C45.0468 196.411 38.2093 196.411 38.2093 196.411V198.451C38.2093 198.451 45.1907 198.451 49.6291 202.889" fill="black"/>
<path d="M116.91 26.5223C116.91 30.8647 120.532 34.3914 125.019 34.3914C129.505 34.3914 133.128 30.8647 133.128 26.5223C133.128 22.1799 129.505 18.6532 125.019 18.6532C120.532 18.6532 116.91 22.1799 116.91 26.5223Z" fill="black"/>
<path d="M106.449 41.4207C106.449 45.7631 110.072 49.2898 114.558 49.2898C119.045 49.2898 122.667 45.7631 122.667 41.4207C122.667 37.0783 119.045 33.5516 114.558 33.5516C110.072 33.5516 106.449 37.0783 106.449 41.4207Z" fill="black"/>
<path d="M127.226 41.4687C127.226 43.0521 127.706 44.5396 128.545 45.7871C129.985 47.9223 132.504 49.3378 135.335 49.3378C139.821 49.3378 143.444 45.8111 143.444 41.4687C143.444 37.1263 139.821 33.5996 135.335 33.5996C130.848 33.5996 127.226 37.1263 127.226 41.4687Z" fill="black"/>
<path d="M115.494 56.751C119.501 56.751 121.612 53.4883 122.715 50.2255C123.819 46.9627 123.915 43.6999 123.915 43.6999H125.978C125.978 43.6999 126.362 56.727 134.375 56.751H115.494Z" fill="black"/>
<path d="M130.513 32.3041C125.954 36.8624 125.954 43.6999 125.954 43.6999L123.915 43.7239C123.915 43.7239 123.915 36.7425 119.477 32.3041" fill="black"/>
<path d="M129.601 46.9387C125.043 42.3804 118.205 42.3804 118.205 42.3804V40.3411C118.205 40.3411 125.187 40.3411 129.625 35.9028" fill="black"/>
<path d="M120.46 46.9626C125.019 42.4043 131.856 42.4043 131.856 42.4043V40.3651C131.856 40.3651 124.875 40.3651 120.436 35.9268" fill="black"/>
<path d="M116.91 103.435C116.91 107.777 120.532 111.304 125.019 111.304C129.505 111.304 133.128 107.777 133.128 103.435C133.128 99.0927 129.505 95.566 125.019 95.566C120.532 95.566 116.91 99.0927 116.91 103.435Z" fill="black"/>
<path d="M106.449 118.334C106.449 122.676 110.072 126.203 114.558 126.203C119.045 126.203 122.667 122.676 122.667 118.334C122.667 113.991 119.045 110.464 114.558 110.464C110.072 110.464 106.449 113.991 106.449 118.334Z" fill="black"/>
<path d="M127.226 118.381C127.226 119.965 127.706 121.452 128.545 122.7C129.985 124.835 132.504 126.251 135.335 126.251C139.821 126.251 143.444 122.724 143.444 118.381C143.444 114.039 139.821 110.512 135.335 110.512C130.848 110.512 127.226 114.039 127.226 118.381Z" fill="black"/>
<path d="M115.494 133.664C119.501 133.664 121.612 130.401 122.715 127.138C123.819 123.875 123.915 120.613 123.915 120.613H125.978C125.978 120.613 126.362 133.64 134.375 133.664H115.494Z" fill="black"/>
<path d="M130.513 109.217C125.954 113.775 125.954 120.613 125.954 120.613L123.915 120.637C123.915 120.637 123.915 113.655 119.477 109.217" fill="black"/>
<path d="M129.601 123.852C125.043 119.293 118.205 119.293 118.205 119.293V117.254C118.205 117.254 125.187 117.254 129.625 112.816" fill="black"/>
<path d="M120.46 123.875C125.019 119.317 131.856 119.317 131.856 119.317V117.278C131.856 117.278 124.875 117.278 120.436 112.84" fill="black"/>
<path d="M132.984 212.294C132.984 207.951 129.361 204.424 124.875 204.424C120.388 204.424 116.766 207.951 116.766 212.294C116.766 216.636 120.388 220.163 124.875 220.163C129.361 220.163 132.984 216.636 132.984 212.294Z" fill="black"/>
<path d="M143.444 197.395C143.444 193.053 139.821 189.526 135.335 189.526C130.848 189.526 127.226 193.053 127.226 197.395C127.226 201.738 130.848 205.264 135.335 205.264C139.821 205.264 143.444 201.738 143.444 197.395Z" fill="black"/>
<path d="M122.667 197.347C122.667 195.764 122.188 194.276 121.348 193.029C119.908 190.894 117.389 189.478 114.558 189.478C110.072 189.478 106.449 193.005 106.449 197.347C106.449 201.69 110.072 205.216 114.558 205.216C119.045 205.216 122.667 201.69 122.667 197.347Z" fill="black"/>
<path d="M134.399 182.065C130.393 182.065 128.281 185.328 127.178 188.59C126.074 191.853 125.978 195.116 125.978 195.116H123.915C123.915 195.116 123.531 182.089 115.518 182.065H134.399Z" fill="black"/>
<path d="M119.381 206.512C123.939 201.953 123.939 195.116 123.939 195.116L125.978 195.092C125.978 195.092 125.978 202.073 130.417 206.512" fill="black"/>
<path d="M120.292 191.877C124.851 196.436 131.688 196.436 131.688 196.436V198.475C131.688 198.475 124.707 198.475 120.268 202.913" fill="black"/>
<path d="M129.433 191.853C124.875 196.411 118.037 196.411 118.037 196.411V198.451C118.037 198.451 125.019 198.451 129.457 202.889" fill="black"/>
<path d="M76.9956 80.6584C76.9956 85.0008 80.6182 88.5275 85.1046 88.5275C89.5909 88.5275 93.2136 85.0008 93.2136 80.6584C93.2136 76.316 89.5909 72.7893 85.1046 72.7893C80.6182 72.7893 76.9956 76.316 76.9956 80.6584Z" fill="black"/>
<path d="M66.5354 95.5568C66.5354 99.8992 70.158 103.426 74.6443 103.426C79.1307 103.426 82.7533 99.8992 82.7533 95.5568C82.7533 91.2144 79.1307 87.6878 74.6443 87.6878C70.158 87.6878 66.5354 91.2144 66.5354 95.5568Z" fill="black"/>
<path d="M87.3117 95.6048C87.3117 97.1882 87.7915 98.6757 88.6312 99.9232C90.0707 102.058 92.5897 103.474 95.4207 103.474C99.907 103.474 103.53 99.9472 103.53 95.6048C103.53 91.2624 99.907 87.7357 95.4207 87.7357C90.9343 87.7357 87.3117 91.2624 87.3117 95.6048Z" fill="black"/>
<path d="M75.58 110.887C79.5865 110.887 81.6978 107.624 82.8013 104.362C83.9049 101.099 84.0009 97.836 84.0009 97.836H86.0641C86.0641 97.836 86.448 110.863 94.461 110.887H75.58Z" fill="black"/>
<path d="M90.5986 86.4402C86.0403 90.9985 86.0403 97.836 86.0403 97.836L84.001 97.86C84.001 97.86 84.001 90.8786 79.5627 86.4402" fill="black"/>
<path d="M89.6868 101.075C85.1285 96.5165 78.2911 96.5165 78.2911 96.5165V94.4772C78.2911 94.4772 85.2725 94.4772 89.7108 90.0389" fill="black"/>
<path d="M80.5463 101.099C85.1046 96.5405 91.9421 96.5405 91.9421 96.5405V94.5013C91.9421 94.5013 84.9606 94.5013 80.5223 90.0629" fill="black"/>
</svg>
