<svg width="170" height="261" viewBox="0 0 170 261" fill="none" xmlns="http://www.w3.org/2000/svg">
<path d="M1.27618 245.279C1.27618 249.058 4.36504 252.147 8.14363 252.147H160.932C164.7 252.147 167.789 249.058 167.789 245.279V16.9641C167.789 13.1855 164.7 10.0966 160.932 10.0966H8.14363C4.36504 10.0966 1.27618 13.1855 1.27618 16.9641V245.279Z" fill="white" stroke="black" stroke-width="2.49907"/>
<path d="M8.18769 32.7845L18.2003 12.9716V12.8064H6.53661V8.63157H23.4838V12.8654L13.4593 32.7845H8.18769Z" fill="black"/>
<path d="M161.872 228.462L151.86 248.275V248.44H163.524V252.615H146.576V248.381L156.601 228.462H161.872Z" fill="black"/>
<path d="M11.0026 68.1581C12.672 68.1581 13.5517 66.3788 14.0115 64.5994C14.4713 62.8201 14.5113 61.0408 14.5113 61.0408L15.361 61.0308C15.361 61.0308 15.5209 68.1581 18.8597 68.1581H11.0026Z" fill="black"/>
<path d="M8.17372 61.0308C8.18372 57.5621 13.3918 55.043 14.9212 52.304C16.4506 55.053 21.6587 57.5721 21.6687 61.0308C21.6687 62.6702 20.1593 63.9997 18.29 63.9997C16.4306 63.9997 14.9212 62.6702 14.9212 61.0308C14.9212 62.6702 13.4118 63.9997 11.5425 63.9997C9.67316 63.9997 8.17372 62.6702 8.17372 61.0308Z" fill="black"/>
<path d="M159.058 193.089C157.388 193.089 156.509 194.868 156.049 196.647C155.589 198.427 155.549 200.206 155.549 200.206L154.699 200.216C154.699 200.216 154.539 193.089 151.2 193.089H159.058Z" fill="black"/>
<path d="M161.886 200.216C161.876 203.685 156.668 206.204 155.139 208.943C153.61 206.194 148.401 203.675 148.391 200.216C148.391 198.577 149.901 197.247 151.77 197.247C153.63 197.247 155.139 198.577 155.139 200.216C155.139 198.577 156.648 197.247 158.518 197.247C160.387 197.247 161.886 198.577 161.886 200.216Z" fill="black"/>
<path d="M35.7141 65.8675C39.7206 65.8675 41.8318 61.5971 42.9354 57.3267C44.039 53.0563 44.135 48.7859 44.135 48.7859L46.1742 48.7619C46.1742 48.7619 46.5581 65.8675 54.5711 65.8675H35.7141Z" fill="black"/>
<path d="M28.9247 48.7619C28.9487 40.437 41.448 34.3912 45.1186 27.8177C48.7893 34.4152 61.2886 40.461 61.3126 48.7619C61.3126 52.6964 57.69 55.8872 53.2036 55.8872C48.7413 55.8872 45.1186 52.6964 45.1186 48.7619C45.1186 52.6964 41.496 55.8872 37.0097 55.8872C32.5233 55.8872 28.9247 52.6964 28.9247 48.7619Z" fill="black"/>
<path d="M35.7141 142.78C39.7206 142.78 41.8318 138.51 42.9354 134.24C44.039 129.969 44.135 125.699 44.135 125.699L46.1742 125.675C46.1742 125.675 46.5581 142.78 54.5711 142.78H35.7141Z" fill="black"/>
<path d="M28.9247 125.675C28.9487 117.35 41.448 111.304 45.1186 104.731C48.7893 111.328 61.2886 117.374 61.3126 125.675C61.3126 129.609 57.69 132.8 53.2036 132.8C48.7413 132.8 45.1186 129.609 45.1186 125.675C45.1186 129.609 41.496 132.8 37.0097 132.8C32.5233 132.8 28.9247 129.609 28.9247 125.675Z" fill="black"/>
<path d="M54.5232 191.23C50.5167 191.23 48.4055 195.501 47.3019 199.771C46.1983 204.042 46.1023 208.312 46.1023 208.312L44.0631 208.336C44.0631 208.336 43.6792 191.23 35.6662 191.23H54.5232Z" fill="black"/>
<path d="M61.3126 208.336C61.2886 216.661 48.7893 222.707 45.1187 229.28C41.448 222.683 28.9487 216.637 28.9247 208.336C28.9247 204.402 32.5473 201.211 37.0337 201.211C41.496 201.211 45.1187 204.402 45.1187 208.336C45.1187 204.402 48.7413 201.211 53.2276 201.211C57.714 201.211 61.3126 204.402 61.3126 208.336Z" fill="black"/>
<path d="M115.542 65.8675C119.549 65.8675 121.66 61.5971 122.763 57.3267C123.867 53.0563 123.963 48.7859 123.963 48.7859L126.002 48.7619C126.002 48.7619 126.386 65.8675 134.399 65.8675H115.542Z" fill="black"/>
<path d="M108.753 48.7619C108.777 40.437 121.276 34.3912 124.947 27.8177C128.617 34.4152 141.117 40.461 141.141 48.7619C141.141 52.6964 137.518 55.8872 133.032 55.8872C128.569 55.8872 124.947 52.6964 124.947 48.7619C124.947 52.6964 121.324 55.8872 116.838 55.8872C112.351 55.8872 108.753 52.6964 108.753 48.7619Z" fill="black"/>
<path d="M115.542 142.78C119.549 142.78 121.66 138.51 122.763 134.24C123.867 129.969 123.963 125.699 123.963 125.699L126.002 125.675C126.002 125.675 126.386 142.78 134.399 142.78H115.542Z" fill="black"/>
<path d="M108.753 125.675C108.777 117.35 121.276 111.304 124.947 104.731C128.617 111.328 141.117 117.374 141.141 125.675C141.141 129.609 137.518 132.8 133.032 132.8C128.569 132.8 124.947 129.609 124.947 125.675C124.947 129.609 121.324 132.8 116.838 132.8C112.351 132.8 108.753 129.609 108.753 125.675Z" fill="black"/>
<path d="M134.351 191.23C130.345 191.23 128.233 195.501 127.13 199.771C126.026 204.042 125.93 208.312 125.93 208.312L123.891 208.336C123.891 208.336 123.507 191.23 115.494 191.23H134.351Z" fill="black"/>
<path d="M141.141 208.336C141.117 216.661 128.617 222.707 124.947 229.28C121.276 222.683 108.777 216.637 108.753 208.336C108.753 204.402 112.375 201.211 116.862 201.211C121.324 201.211 124.947 204.402 124.947 208.336C124.947 204.402 128.569 201.211 133.056 201.211C137.542 201.211 141.141 204.402 141.141 208.336Z" fill="black"/>
<path d="M75.6281 120.003C79.6346 120.003 81.7458 115.733 82.8494 111.463C83.953 107.192 84.0489 102.922 84.0489 102.922L86.0882 102.898C86.0882 102.898 86.472 120.003 94.4851 120.003H75.6281Z" fill="black"/>
<path d="M68.8386 102.898C68.8626 94.5728 81.3619 88.5271 85.0326 81.9535C88.7032 88.5511 101.203 94.5968 101.227 102.898C101.227 106.832 97.6039 110.023 93.1176 110.023C88.6552 110.023 85.0326 106.832 85.0326 102.898C85.0326 106.832 81.4099 110.023 76.9236 110.023C72.4373 110.023 68.8386 106.832 68.8386 102.898Z" fill="black"/>
</svg>
