<svg width="170" height="261" viewBox="0 0 170 261" fill="none" xmlns="http://www.w3.org/2000/svg">
<path d="M1.78394 245.185C1.78394 248.964 4.87279 252.052 8.65138 252.052H161.44C165.208 252.052 168.297 248.964 168.297 245.185V16.8699C168.297 13.0913 165.208 10.0024 161.44 10.0024H8.65138C4.87279 10.0024 1.78394 13.0913 1.78394 16.8699V245.185Z" fill="white" stroke="black" stroke-width="2.49907"/>
<path d="M16.7502 33.0205C14.934 33.0205 13.3183 32.7256 11.9031 32.136C10.4958 31.5384 9.39113 30.7247 8.58918 29.6947C7.78723 28.6648 7.38625 27.4972 7.38625 26.1921C7.38625 25.1857 7.61426 24.2619 8.07027 23.4206C8.53415 22.5715 9.16313 21.8678 9.95722 21.3096C10.7513 20.7435 11.6397 20.3819 12.6225 20.2246V20.0595C11.3331 19.8 10.2874 19.175 9.48548 18.1843C8.68353 17.1858 8.28255 16.0262 8.28255 14.7053C8.28255 13.4552 8.64815 12.3427 9.37934 11.3678C10.1105 10.385 11.113 9.61447 12.3867 9.05625C13.6682 8.49016 15.1227 8.20712 16.7502 8.20712C18.3777 8.20712 19.8283 8.49016 21.102 9.05625C22.3835 9.62233 23.3899 10.3968 24.1211 11.3795C24.8523 12.3545 25.2218 13.4631 25.2297 14.7053C25.2218 16.034 24.813 17.1937 24.0032 18.1843C23.1934 19.175 22.1555 19.8 20.8897 20.0595V20.2246C21.8568 20.3819 22.7334 20.7435 23.5196 21.3096C24.3137 21.8678 24.9427 22.5715 25.4066 23.4206C25.8783 24.2619 26.1181 25.1857 26.126 26.1921C26.1181 27.4972 25.7132 28.6648 24.9113 29.6947C24.1093 30.7247 23.0007 31.5384 21.5855 32.136C20.1782 32.7256 18.5664 33.0205 16.7502 33.0205ZM16.7502 29.2702C17.56 29.2702 18.2676 29.1247 18.873 28.8338C19.4784 28.535 19.9502 28.1262 20.2882 27.6073C20.6342 27.0805 20.8072 26.4751 20.8072 25.7911C20.8072 25.0914 20.6303 24.4742 20.2765 23.9395C19.9227 23.397 19.4431 22.9725 18.8377 22.6658C18.2323 22.3514 17.5365 22.1941 16.7502 22.1941C15.9719 22.1941 15.276 22.3514 14.6628 22.6658C14.0495 22.9725 13.566 23.397 13.2122 23.9395C12.8663 24.4742 12.6933 25.0914 12.6933 25.7911C12.6933 26.4751 12.8623 27.0805 13.2004 27.6073C13.5385 28.1262 14.0142 28.535 14.6274 28.8338C15.2407 29.1247 15.9483 29.2702 16.7502 29.2702ZM16.7502 18.4792C17.4264 18.4792 18.0278 18.3416 18.5546 18.0664C19.0814 17.7912 19.4942 17.4099 19.7929 16.9225C20.0917 16.435 20.2411 15.8728 20.2411 15.236C20.2411 14.607 20.0917 14.0567 19.7929 13.5849C19.4942 13.1053 19.0853 12.7319 18.5664 12.4645C18.0475 12.1894 17.4421 12.0518 16.7502 12.0518C16.0662 12.0518 15.4608 12.1894 14.934 12.4645C14.4073 12.7319 13.9945 13.1053 13.6957 13.5849C13.4048 14.0567 13.2594 14.607 13.2594 15.236C13.2594 15.8728 13.4088 16.435 13.7075 16.9225C14.0063 17.4099 14.4191 17.7912 14.9458 18.0664C15.4726 18.3416 16.0741 18.4792 16.7502 18.4792Z" fill="#E6180A"/>
<path d="M154.335 228.038C156.151 228.038 157.767 228.333 159.182 228.922C160.59 229.52 161.694 230.334 162.496 231.364C163.298 232.393 163.699 233.561 163.699 234.866C163.699 235.873 163.471 236.796 163.015 237.638C162.551 238.487 161.922 239.19 161.128 239.749C160.334 240.315 159.446 240.676 158.463 240.834V240.999C159.752 241.258 160.798 241.883 161.6 242.874C162.402 243.872 162.803 245.032 162.803 246.353C162.803 247.603 162.437 248.716 161.706 249.69C160.975 250.673 159.972 251.444 158.699 252.002C157.417 252.568 155.963 252.851 154.335 252.851C152.708 252.851 151.257 252.568 149.983 252.002C148.702 251.436 147.695 250.661 146.964 249.679C146.233 248.704 145.864 247.595 145.856 246.353C145.864 245.024 146.272 243.865 147.082 242.874C147.892 241.883 148.93 241.258 150.196 240.999V240.834C149.229 240.676 148.352 240.315 147.566 239.749C146.772 239.19 146.143 238.487 145.679 237.638C145.207 236.796 144.967 235.873 144.959 234.866C144.967 233.561 145.372 232.393 146.174 231.364C146.976 230.334 148.085 229.52 149.5 228.922C150.907 228.333 152.519 228.038 154.335 228.038ZM154.335 231.788C153.525 231.788 152.818 231.934 152.212 232.224C151.607 232.523 151.135 232.932 150.797 233.451C150.451 233.978 150.278 234.583 150.278 235.267C150.278 235.967 150.455 236.584 150.809 237.119C151.163 237.661 151.642 238.086 152.248 238.392C152.853 238.707 153.549 238.864 154.335 238.864C155.113 238.864 155.809 238.707 156.423 238.392C157.036 238.086 157.519 237.661 157.873 237.119C158.219 236.584 158.392 235.967 158.392 235.267C158.392 234.583 158.223 233.978 157.885 233.451C157.547 232.932 157.071 232.523 156.458 232.224C155.845 231.934 155.137 231.788 154.335 231.788ZM154.335 242.579C153.659 242.579 153.057 242.717 152.531 242.992C152.004 243.267 151.591 243.648 151.292 244.136C150.994 244.623 150.844 245.185 150.844 245.822C150.844 246.451 150.994 247.002 151.292 247.473C151.591 247.953 152 248.326 152.519 248.594C153.038 248.869 153.643 249.006 154.335 249.006C155.019 249.006 155.625 248.869 156.151 248.594C156.678 248.326 157.091 247.953 157.39 247.473C157.681 247.002 157.826 246.451 157.826 245.822C157.826 245.185 157.677 244.623 157.378 244.136C157.079 243.648 156.666 243.267 156.139 242.992C155.613 242.717 155.011 242.579 154.335 242.579Z" fill="#E6180A"/>
<path d="M15.4288 60.1368C17.9879 60.1368 20.5469 60.1368 23.106 60.1368C22.2316 60.0978 21.4876 59.532 20.7848 59.0644C19.2064 57.8736 17.728 56.5082 16.5604 54.9107C16.0156 54.107 15.4432 53.2034 15.4288 52.1998M23.106 60.1368C21.9964 60.1718 21.0487 60.8778 20.203 61.5293C18.7086 62.7838 17.4151 64.2763 16.3235 65.8917C15.9226 66.5604 15.4508 67.2692 15.4288 68.0739C15.4288 65.4278 15.4288 62.7828 15.4288 60.1368M15.4288 68.0739C15.3908 66.8923 14.6711 65.8687 13.9913 64.955C12.7798 63.4456 11.3443 62.1101 9.76492 60.9935C9.15115 60.6106 8.49939 60.1553 7.75167 60.1368C10.3107 60.1368 12.8698 60.1368 15.4288 60.1368M7.75167 60.1368C8.86126 60.1018 9.8089 59.3961 10.6546 58.7453C12.149 57.4898 13.4426 55.9973 14.5341 54.3819C14.935 53.7132 15.4063 53.0045 15.4288 52.1998C15.4288 54.8458 15.4288 57.4908 15.4288 60.1368" fill="#E6180A"/>
<path d="M155.657 200.921C153.097 200.921 150.538 200.921 147.979 200.921C148.854 200.96 149.598 201.526 150.301 201.994C151.879 203.185 153.357 204.55 154.525 206.147C155.07 206.951 155.642 207.855 155.657 208.858M147.979 200.921C149.089 200.886 150.037 200.18 150.882 199.529C152.377 198.274 153.67 196.782 154.762 195.167C155.163 194.498 155.635 193.789 155.657 192.984C155.657 195.63 155.657 198.275 155.657 200.921M155.657 192.984C155.695 194.166 156.414 195.19 157.094 196.103C158.306 197.613 159.741 198.948 161.32 200.065C161.934 200.448 162.586 200.903 163.334 200.921C160.775 200.921 158.216 200.921 155.657 200.921M163.334 200.921C162.224 200.956 161.276 201.662 160.431 202.313C158.936 203.568 157.643 205.061 156.551 206.676C156.15 207.345 155.679 208.054 155.657 208.858C155.657 206.212 155.657 203.567 155.657 200.921" fill="#E6180A"/>
<path d="M45.6315 46.7492C51.7732 46.7492 57.9149 46.7492 64.0566 46.7492C61.9581 46.6557 60.1725 45.2978 58.4859 44.1755C54.6977 41.3177 51.1494 38.0405 48.3473 34.2067C47.0398 32.2778 45.666 30.109 45.6315 27.7003M64.0566 46.7492C61.3936 46.8332 59.1193 48.5277 57.0896 50.0912C53.503 53.1021 50.3985 56.6839 47.7787 60.5609C46.8167 62.1659 45.6843 63.8669 45.6315 65.7982C45.6315 59.4477 45.6315 53.0997 45.6315 46.7492M45.6315 65.7982C45.5403 62.9624 43.813 60.5057 42.1816 58.3129C39.2739 54.6903 35.8287 51.4851 32.0382 48.8053C30.5651 47.8864 29.0009 46.7936 27.2063 46.7492C33.3481 46.7492 39.4898 46.7492 45.6315 46.7492M27.2063 46.7492C29.8694 46.6653 32.1437 44.9715 34.1734 43.4097C37.76 40.3964 40.8645 36.8145 43.4843 32.9376C44.4463 31.3326 45.5775 29.6316 45.6315 27.7003C45.6315 34.0508 45.6315 40.3988 45.6315 46.7492" fill="#E6180A"/>
<path d="M45.6315 100.885C51.7732 100.885 57.9149 100.885 64.0566 100.885C61.9581 100.792 60.1725 99.4339 58.4859 98.3116C54.6977 95.4538 51.1494 92.1766 48.3473 88.3428C47.0398 86.4139 45.666 84.2451 45.6315 81.8364M64.0566 100.885C61.3936 100.969 59.1193 102.664 57.0896 104.227C53.503 107.238 50.3985 110.82 47.7787 114.697C46.8167 116.302 45.6843 118.003 45.6315 119.934C45.6315 113.584 45.6315 107.236 45.6315 100.885M45.6315 119.934C45.5403 117.099 43.813 114.642 42.1816 112.449C39.2739 108.826 35.8287 105.621 32.0382 102.941C30.5651 102.023 29.0009 100.93 27.2063 100.885C33.3481 100.885 39.4898 100.885 45.6315 100.885M27.2063 100.885C29.8694 100.801 32.1437 99.1076 34.1734 97.5458C37.76 94.5325 40.8645 90.9506 43.4843 87.0737C44.4463 85.4687 45.5775 83.7677 45.6315 81.8364C45.6315 88.1869 45.6315 94.5349 45.6315 100.885" fill="#E6180A"/>
<path d="M45.6316 156.025C39.4899 156.025 33.3481 156.025 27.2064 156.025C29.3049 156.118 31.0906 157.476 32.7771 158.599C36.5653 161.456 40.1136 164.734 42.9158 168.567C44.2233 170.496 45.597 172.665 45.6316 175.074M27.2064 156.025C29.8694 155.941 32.1438 154.246 34.1734 152.683C37.7601 149.672 40.8645 146.09 43.4844 142.213C44.4464 140.608 45.5788 138.907 45.6316 136.976C45.6316 143.326 45.6316 149.674 45.6316 156.025M45.6316 136.976C45.7227 139.812 47.4501 142.268 49.0815 144.461C51.9892 148.084 55.4343 151.289 59.2249 153.969C60.698 154.888 62.2622 155.98 64.0567 156.025C57.915 156.025 51.7733 156.025 45.6316 156.025M64.0567 156.025C61.3937 156.109 59.1193 157.803 57.0897 159.364C53.503 162.378 50.3986 165.96 47.7788 169.836C46.8167 171.441 45.6855 173.142 45.6316 175.074C45.6316 168.723 45.6316 162.375 45.6316 156.025" fill="#E6180A"/>
<path d="M45.6316 210.161C39.4899 210.161 33.3481 210.161 27.2064 210.161C29.3049 210.254 31.0906 211.612 32.7771 212.735C36.5653 215.592 40.1136 218.87 42.9158 222.703C44.2233 224.632 45.597 226.801 45.6316 229.21M27.2064 210.161C29.8694 210.077 32.1438 208.382 34.1734 206.819C37.7601 203.808 40.8645 200.226 43.4844 196.349C44.4464 194.744 45.5788 193.043 45.6316 191.112C45.6316 197.462 45.6316 203.81 45.6316 210.161M45.6316 191.112C45.7227 193.948 47.4501 196.404 49.0815 198.597C51.9892 202.22 55.4343 205.425 59.2249 208.105C60.698 209.024 62.2622 210.117 64.0567 210.161C57.915 210.161 51.7733 210.161 45.6316 210.161M64.0567 210.161C61.3937 210.245 59.1193 211.939 57.0897 213.5C53.503 216.514 50.3986 220.096 47.7788 223.973C46.8167 225.578 45.6855 227.279 45.6316 229.21C45.6316 222.859 45.6316 216.511 45.6316 210.161" fill="#E6180A"/>
<path d="M125.459 46.7492C131.601 46.7492 137.743 46.7492 143.885 46.7492C141.786 46.6557 140 45.2978 138.314 44.1755C134.526 41.3177 130.977 38.0405 128.175 34.2067C126.868 32.2778 125.494 30.109 125.459 27.7003M143.885 46.7492C141.222 46.8332 138.947 48.5277 136.918 50.0912C133.331 53.1021 130.227 56.6839 127.607 60.5609C126.645 62.1659 125.512 63.8669 125.459 65.7982C125.459 59.4477 125.459 53.0997 125.459 46.7492M125.459 65.7982C125.368 62.9624 123.641 60.5057 122.01 58.3129C119.102 54.6903 115.657 51.4851 111.866 48.8053C110.393 47.8864 108.829 46.7936 107.034 46.7492C113.176 46.7492 119.318 46.7492 125.459 46.7492M107.034 46.7492C109.697 46.6653 111.972 44.9715 114.001 43.4097C117.588 40.3964 120.692 36.8145 123.312 32.9376C124.274 31.3326 125.406 29.6316 125.459 27.7003C125.459 34.0508 125.459 40.3988 125.459 46.7492" fill="#E6180A"/>
<path d="M125.459 100.885C131.601 100.885 137.743 100.885 143.885 100.885C141.786 100.792 140 99.4339 138.314 98.3116C134.526 95.4538 130.977 92.1766 128.175 88.3428C126.868 86.4139 125.494 84.2451 125.459 81.8364M143.885 100.885C141.222 100.969 138.947 102.664 136.918 104.227C133.331 107.238 130.227 110.82 127.607 114.697C126.645 116.302 125.512 118.003 125.459 119.934C125.459 113.584 125.459 107.236 125.459 100.885M125.459 119.934C125.368 117.099 123.641 114.642 122.01 112.449C119.102 108.826 115.657 105.621 111.866 102.941C110.393 102.023 108.829 100.93 107.034 100.885C113.176 100.885 119.318 100.885 125.459 100.885M107.034 100.885C109.697 100.801 111.972 99.1076 114.001 97.5458C117.588 94.5325 120.692 90.9506 123.312 87.0737C124.274 85.4687 125.406 83.7677 125.459 81.8364C125.459 88.1869 125.459 94.5349 125.459 100.885" fill="#E6180A"/>
<path d="M125.46 156.025C119.318 156.025 113.176 156.025 107.034 156.025C109.133 156.118 110.919 157.476 112.605 158.599C116.393 161.456 119.942 164.734 122.744 168.567C124.051 170.496 125.425 172.665 125.46 175.074M107.034 156.025C109.697 155.941 111.972 154.246 114.001 152.683C117.588 149.672 120.693 146.09 123.312 142.213C124.274 140.608 125.407 138.907 125.46 136.976C125.46 143.326 125.46 149.674 125.46 156.025M125.46 136.976C125.551 139.812 127.278 142.268 128.909 144.461C131.817 148.084 135.262 151.289 139.053 153.969C140.526 154.888 142.09 155.98 143.885 156.025C137.743 156.025 131.601 156.025 125.46 156.025M143.885 156.025C141.222 156.109 138.947 157.803 136.918 159.364C133.331 162.378 130.227 165.96 127.607 169.836C126.645 171.441 125.514 173.142 125.46 175.074C125.46 168.723 125.46 162.375 125.46 156.025" fill="#E6180A"/>
<path d="M125.46 210.161C119.318 210.161 113.176 210.161 107.034 210.161C109.133 210.254 110.919 211.612 112.605 212.735C116.393 215.592 119.942 218.87 122.744 222.703C124.051 224.632 125.425 226.801 125.46 229.21M107.034 210.161C109.697 210.077 111.972 208.382 114.001 206.819C117.588 203.808 120.693 200.226 123.312 196.349C124.274 194.744 125.407 193.043 125.46 191.112C125.46 197.462 125.46 203.81 125.46 210.161M125.46 191.112C125.551 193.948 127.278 196.404 128.909 198.597C131.817 202.22 135.262 205.425 139.053 208.105C140.526 209.024 142.09 210.117 143.885 210.161C137.743 210.161 131.601 210.161 125.46 210.161M143.885 210.161C141.222 210.245 138.947 211.939 136.918 213.5C133.331 216.514 130.227 220.096 127.607 223.973C126.645 225.578 125.514 227.279 125.46 229.21C125.46 222.859 125.46 216.511 125.46 210.161" fill="#E6180A"/>
</svg>
