<svg width="170" height="261" viewBox="0 0 170 261" fill="none" xmlns="http://www.w3.org/2000/svg">
<path d="M1.78394 245.233C1.78394 249.011 4.87279 252.1 8.65138 252.1H161.44C165.208 252.1 168.297 249.011 168.297 245.233V16.9175C168.297 13.1389 165.208 10.05 161.44 10.05H8.65138C4.87279 10.05 1.78394 13.1389 1.78394 16.9175V245.233Z" fill="white" stroke="black" stroke-width="2.49907"/>
<path d="M16.7502 33.0671C14.934 33.0671 13.3183 32.7722 11.9031 32.1826C10.4958 31.585 9.39113 30.7713 8.58918 29.7413C7.78723 28.7114 7.38625 27.5438 7.38625 26.2387C7.38625 25.2323 7.61426 24.3085 8.07027 23.4672C8.53415 22.6181 9.16313 21.9144 9.95722 21.3562C10.7513 20.7901 11.6397 20.4285 12.6225 20.2712V20.1061C11.3331 19.8466 10.2874 19.2216 9.48548 18.2309C8.68353 17.2324 8.28255 16.0728 8.28255 14.7519C8.28255 13.5018 8.64815 12.3893 9.37934 11.4144C10.1105 10.4316 11.113 9.66107 12.3867 9.10285C13.6682 8.53676 15.1227 8.25372 16.7502 8.25372C18.3777 8.25372 19.8283 8.53676 21.102 9.10285C22.3835 9.66893 23.3899 10.4434 24.1211 11.4261C24.8523 12.4011 25.2218 13.5097 25.2297 14.7519C25.2218 16.0806 24.813 17.2403 24.0032 18.2309C23.1934 19.2216 22.1555 19.8466 20.8897 20.1061V20.2712C21.8568 20.4285 22.7334 20.7901 23.5196 21.3562C24.3137 21.9144 24.9427 22.6181 25.4066 23.4672C25.8783 24.3085 26.1181 25.2323 26.126 26.2387C26.1181 27.5438 25.7132 28.7114 24.9113 29.7413C24.1093 30.7713 23.0007 31.585 21.5855 32.1826C20.1782 32.7722 18.5664 33.0671 16.7502 33.0671ZM16.7502 29.3168C17.56 29.3168 18.2676 29.1713 18.873 28.8804C19.4784 28.5816 19.9502 28.1728 20.2882 27.6539C20.6342 27.1271 20.8072 26.5217 20.8072 25.8377C20.8072 25.138 20.6303 24.5208 20.2765 23.9861C19.9227 23.4436 19.4431 23.0191 18.8377 22.7124C18.2323 22.398 17.5365 22.2407 16.7502 22.2407C15.9719 22.2407 15.276 22.398 14.6628 22.7124C14.0495 23.0191 13.566 23.4436 13.2122 23.9861C12.8663 24.5208 12.6933 25.138 12.6933 25.8377C12.6933 26.5217 12.8623 27.1271 13.2004 27.6539C13.5385 28.1728 14.0142 28.5816 14.6274 28.8804C15.2407 29.1713 15.9483 29.3168 16.7502 29.3168ZM16.7502 18.5258C17.4264 18.5258 18.0278 18.3882 18.5546 18.113C19.0814 17.8378 19.4942 17.4565 19.7929 16.9691C20.0917 16.4816 20.2411 15.9194 20.2411 15.2826C20.2411 14.6536 20.0917 14.1033 19.7929 13.6315C19.4942 13.1519 19.0853 12.7785 18.5664 12.5111C18.0475 12.236 17.4421 12.0984 16.7502 12.0984C16.0662 12.0984 15.4608 12.236 14.934 12.5111C14.4073 12.7785 13.9945 13.1519 13.6957 13.6315C13.4048 14.1033 13.2594 14.6536 13.2594 15.2826C13.2594 15.9194 13.4088 16.4816 13.7075 16.9691C14.0063 17.4565 14.4191 17.8378 14.9458 18.113C15.4726 18.3882 16.0741 18.5258 16.7502 18.5258Z" fill="#E6180A"/>
<path d="M154.335 228.085C156.151 228.085 157.767 228.38 159.182 228.97C160.59 229.567 161.694 230.381 162.496 231.411C163.298 232.441 163.699 233.609 163.699 234.914C163.699 235.92 163.471 236.844 163.015 237.685C162.551 238.534 161.922 239.238 161.128 239.796C160.334 240.362 159.446 240.724 158.463 240.881V241.046C159.752 241.306 160.798 241.931 161.6 242.921C162.402 243.92 162.803 245.08 162.803 246.4C162.803 247.651 162.437 248.763 161.706 249.738C160.975 250.721 159.972 251.491 158.699 252.049C157.417 252.616 155.963 252.899 154.335 252.899C152.708 252.899 151.257 252.616 149.983 252.049C148.702 251.483 147.695 250.709 146.964 249.726C146.233 248.751 145.864 247.643 145.856 246.4C145.864 245.072 146.272 243.912 147.082 242.921C147.892 241.931 148.93 241.306 150.196 241.046V240.881C149.229 240.724 148.352 240.362 147.566 239.796C146.772 239.238 146.143 238.534 145.679 237.685C145.207 236.844 144.967 235.92 144.959 234.914C144.967 233.609 145.372 232.441 146.174 231.411C146.976 230.381 148.085 229.567 149.5 228.97C150.907 228.38 152.519 228.085 154.335 228.085ZM154.335 231.836C153.525 231.836 152.818 231.981 152.212 232.272C151.607 232.571 151.135 232.98 150.797 233.498C150.451 234.025 150.278 234.631 150.278 235.315C150.278 236.014 150.455 236.632 150.809 237.166C151.163 237.709 151.642 238.133 152.248 238.44C152.853 238.754 153.549 238.912 154.335 238.912C155.113 238.912 155.809 238.754 156.423 238.44C157.036 238.133 157.519 237.709 157.873 237.166C158.219 236.632 158.392 236.014 158.392 235.315C158.392 234.631 158.223 234.025 157.885 233.498C157.547 232.98 157.071 232.571 156.458 232.272C155.845 231.981 155.137 231.836 154.335 231.836ZM154.335 242.627C153.659 242.627 153.057 242.764 152.531 243.039C152.004 243.315 151.591 243.696 151.292 244.183C150.994 244.671 150.844 245.233 150.844 245.87C150.844 246.499 150.994 247.049 151.292 247.521C151.591 248 152 248.374 152.519 248.641C153.038 248.916 153.643 249.054 154.335 249.054C155.019 249.054 155.625 248.916 156.151 248.641C156.678 248.374 157.091 248 157.39 247.521C157.681 247.049 157.826 246.499 157.826 245.87C157.826 245.233 157.677 244.671 157.378 244.183C157.079 243.696 156.666 243.315 156.139 243.039C155.613 242.764 155.011 242.627 154.335 242.627Z" fill="#E6180A"/>
<path d="M23.0959 56.2548C23.086 60.9631 17.1881 64.3918 15.4588 68.1204C13.7094 64.4018 7.80163 61.0031 7.76165 56.2948C7.75165 54.0756 9.47101 52.2663 11.5802 52.2663C13.6994 52.2663 15.4288 54.0557 15.4288 56.2748C15.4288 54.0457 17.1382 52.2463 19.2474 52.2463C21.3666 52.2363 23.086 54.0357 23.0959 56.2548Z" fill="#E6180A"/>
<path d="M147.989 204.898C147.999 200.189 153.897 196.761 155.627 193.032C157.376 196.751 163.284 200.149 163.324 204.858C163.334 207.077 161.614 208.886 159.505 208.886C157.386 208.886 155.657 207.097 155.657 204.878C155.657 207.107 153.947 208.906 151.838 208.906C149.719 208.916 147.999 207.117 147.989 204.898Z" fill="#E6180A"/>
<path d="M64.0327 37.3677C64.0087 48.6675 49.854 56.8964 45.7035 65.8451C41.5051 56.9204 27.3264 48.7634 27.2304 37.4636C27.2064 32.1376 31.3329 27.7952 36.395 27.7952C41.4811 27.7952 45.6316 32.0896 45.6316 37.4157C45.6316 32.0657 49.734 27.7473 54.7961 27.7473C59.8823 27.7233 64.0087 32.0417 64.0327 37.3677Z" fill="#E6180A"/>
<path d="M64.0327 91.5035C64.0087 102.803 49.854 111.032 45.7035 119.981C41.5051 111.056 27.3264 102.899 27.2304 91.5995C27.2064 86.2735 31.3329 81.9311 36.395 81.9311C41.4811 81.9311 45.6316 86.2255 45.6316 91.5515C45.6316 86.2015 49.734 81.8831 54.7961 81.8831C59.8823 81.8591 64.0087 86.1775 64.0327 91.5035Z" fill="#E6180A"/>
<path d="M27.2303 165.502C27.2543 154.202 41.4091 145.973 45.5595 137.024C49.758 145.949 63.9367 154.106 64.0327 165.406C64.0567 170.732 59.9302 175.074 54.8681 175.074C49.782 175.074 45.6315 170.78 45.6315 165.454C45.6315 170.804 41.529 175.122 36.4669 175.122C31.3808 175.146 27.2543 170.828 27.2303 165.502Z" fill="#E6180A"/>
<path d="M27.2303 219.637C27.2543 208.338 41.4091 200.109 45.5595 191.16C49.758 200.085 63.9367 208.242 64.0327 219.541C64.0567 224.868 59.9302 229.21 54.8681 229.21C49.782 229.21 45.6315 224.915 45.6315 219.589C45.6315 224.939 41.529 229.258 36.4669 229.258C31.3808 229.282 27.2543 224.963 27.2303 219.637Z" fill="#E6180A"/>
<path d="M143.861 37.3677C143.837 48.6675 129.682 56.8964 125.531 65.8451C121.333 56.9204 107.154 48.7634 107.058 37.4636C107.034 32.1376 111.161 27.7952 116.223 27.7952C121.309 27.7952 125.459 32.0896 125.459 37.4157C125.459 32.0657 129.562 27.7473 134.624 27.7473C139.71 27.7233 143.837 32.0417 143.861 37.3677Z" fill="#E6180A"/>
<path d="M143.861 91.5035C143.837 102.803 129.682 111.032 125.531 119.981C121.333 111.056 107.154 102.899 107.058 91.5995C107.034 86.2735 111.161 81.9311 116.223 81.9311C121.309 81.9311 125.459 86.2255 125.459 91.5515C125.459 86.2015 129.562 81.8831 134.624 81.8831C139.71 81.8591 143.837 86.1775 143.861 91.5035Z" fill="#E6180A"/>
<path d="M107.058 165.502C107.082 154.202 121.237 145.973 125.388 137.024C129.586 145.949 143.765 154.106 143.861 165.406C143.885 170.732 139.758 175.074 134.696 175.074C129.61 175.074 125.46 170.78 125.46 165.454C125.46 170.804 121.357 175.122 116.295 175.122C111.209 175.146 107.082 170.828 107.058 165.502Z" fill="#E6180A"/>
<path d="M107.058 219.637C107.082 208.338 121.237 200.109 125.388 191.16C129.586 200.085 143.765 208.242 143.861 219.541C143.885 224.868 139.758 229.21 134.696 229.21C129.61 229.21 125.46 224.915 125.46 219.589C125.46 224.939 121.357 229.258 116.295 229.258C111.209 229.282 107.082 224.963 107.058 219.637Z" fill="#E6180A"/>
</svg>
