<svg width="170" height="252" viewBox="0 0 170 252" fill="none" xmlns="http://www.w3.org/2000/svg">
<path d="M1.30151 236.138C1.30151 239.917 4.39036 243.006 8.16896 243.006H160.957C164.726 243.006 167.815 239.917 167.815 236.138V7.82327C167.815 4.04467 164.726 0.955811 160.957 0.955811H8.16896C4.39036 0.955811 1.30151 4.04467 1.30151 7.82327V236.138Z" fill="white" stroke="black" stroke-width="2.49907"/>
<path d="M15.9967 -0.83951C17.2389 -0.83951 18.434 -0.63116 19.5819 -0.21446C20.7376 0.202241 21.7676 0.866604 22.6717 1.77863C23.5838 2.69065 24.3032 3.90144 24.8299 5.411C25.3646 6.91269 25.6358 8.7564 25.6437 10.9421C25.6437 12.9942 25.4117 14.8261 24.9479 16.4378C24.4919 18.0417 23.8354 19.4058 22.9784 20.5302C22.1214 21.6545 21.0875 22.5114 19.8767 23.1011C18.6659 23.6829 17.3136 23.9738 15.8198 23.9738C14.208 23.9738 12.7849 23.6633 11.5506 23.0422C10.3162 22.4132 9.3216 21.5601 8.56682 20.483C7.81991 19.398 7.36783 18.1793 7.21058 16.827H12.2464C12.4429 17.7076 12.8557 18.3916 13.4847 18.8791C14.1137 19.3587 14.892 19.5985 15.8198 19.5985C17.3922 19.5985 18.5873 18.9145 19.405 17.5464C20.2226 16.1705 20.6354 14.2875 20.6433 11.8974H20.4782C20.1165 12.605 19.629 13.2143 19.0158 13.7254C18.4025 14.2285 17.6989 14.6177 16.9048 14.8929C16.1185 15.1681 15.2812 15.3057 14.3928 15.3057C12.9697 15.3057 11.6999 14.9715 10.5835 14.3032C9.46705 13.6349 8.58648 12.7151 7.94177 11.5436C7.29707 10.3721 6.97471 9.03551 6.97471 7.53381C6.96685 5.91418 7.34031 4.47146 8.09509 3.20563C8.84987 1.9398 9.90341 0.949158 11.2557 0.233691C12.6159 -0.489639 14.1962 -0.847373 15.9967 -0.83951ZM16.0321 3.17025C15.238 3.17025 14.5304 3.35894 13.9092 3.73633C13.296 4.11372 12.8085 4.62084 12.4469 5.25768C12.0931 5.89453 11.9201 6.60606 11.9279 7.39229C11.9279 8.18638 12.1009 8.90185 12.4469 9.53869C12.8007 10.1677 13.2803 10.6709 13.8857 11.0483C14.4989 11.4178 15.1987 11.6025 15.9849 11.6025C16.5746 11.6025 17.121 11.4925 17.6242 11.2723C18.1274 11.0522 18.5637 10.7495 18.9332 10.3642C19.3106 9.97112 19.6055 9.51904 19.8177 9.00799C20.03 8.49694 20.1362 7.95444 20.1362 7.3805C20.1283 6.61786 19.9475 5.91812 19.5937 5.28127C19.2399 4.64443 18.7524 4.13338 18.1313 3.74813C17.5102 3.36288 16.8104 3.17025 16.0321 3.17025Z" fill="black"/>
<path d="M154.114 243.804C152.872 243.804 151.677 243.596 150.529 243.179C149.373 242.763 148.343 242.098 147.439 241.186C146.527 240.274 145.808 239.063 145.281 237.554C144.746 236.052 144.475 234.209 144.467 232.023C144.467 229.971 144.699 228.139 145.163 226.527C145.619 224.923 146.275 223.559 147.132 222.435C147.989 221.31 149.023 220.453 150.234 219.864C151.445 219.282 152.797 218.991 154.291 218.991C155.903 218.991 157.326 219.302 158.56 219.923C159.795 220.552 160.789 221.405 161.544 222.482C162.291 223.567 162.743 224.786 162.9 226.138H157.864C157.668 225.257 157.255 224.573 156.626 224.086C155.997 223.606 155.219 223.366 154.291 223.366C152.718 223.366 151.523 224.05 150.706 225.418C149.888 226.794 149.475 228.677 149.467 231.068H149.633C149.994 230.36 150.482 229.751 151.095 229.24C151.708 228.736 152.412 228.347 153.206 228.072C153.992 227.797 154.83 227.659 155.718 227.659C157.141 227.659 158.411 227.993 159.527 228.662C160.644 229.33 161.524 230.25 162.169 231.421C162.814 232.593 163.136 233.929 163.136 235.431C163.144 237.051 162.77 238.493 162.016 239.759C161.261 241.025 160.207 242.016 158.855 242.731C157.495 243.455 155.915 243.812 154.114 243.804ZM154.079 239.795C154.873 239.795 155.58 239.606 156.201 239.229C156.815 238.851 157.302 238.344 157.664 237.707C158.018 237.07 158.191 236.359 158.183 235.573C158.183 234.779 158.01 234.063 157.664 233.426C157.31 232.797 156.83 232.294 156.225 231.917C155.612 231.547 154.912 231.362 154.126 231.362C153.536 231.362 152.99 231.472 152.487 231.693C151.983 231.913 151.547 232.215 151.177 232.601C150.8 232.994 150.505 233.446 150.293 233.957C150.081 234.468 149.975 235.01 149.975 235.584C149.982 236.347 150.163 237.047 150.517 237.684C150.871 238.32 151.358 238.832 151.979 239.217C152.601 239.602 153.3 239.795 154.079 239.795Z" fill="black"/>
<path d="M11.5978 46.4319C11.5978 48.2412 13.1072 49.7107 14.9765 49.7107C16.8458 49.7107 18.3552 48.2412 18.3552 46.4319C18.3552 44.6226 16.8458 43.1531 14.9765 43.1531C13.1072 43.1531 11.5978 44.6226 11.5978 46.4319Z" fill="black"/>
<path d="M7.23938 52.6396C7.23938 54.4489 8.74882 55.9184 10.6181 55.9184C12.4874 55.9184 13.9969 54.4489 13.9969 52.6396C13.9969 50.8303 12.4874 49.3608 10.6181 49.3608C8.74882 49.3608 7.23938 50.8303 7.23938 52.6396Z" fill="black"/>
<path d="M15.8961 52.6596C15.8961 53.3193 16.096 53.9391 16.4459 54.4589C17.0456 55.3486 18.0953 55.9384 19.2748 55.9384C21.1441 55.9384 22.6536 54.4689 22.6536 52.6596C22.6536 50.8502 21.1441 49.3808 19.2748 49.3808C17.4055 49.3808 15.8961 50.8502 15.8961 52.6596Z" fill="black"/>
<path d="M11.008 59.0272C12.6774 59.0272 13.557 57.6677 14.0169 56.3082C14.4767 54.9487 14.5167 53.5892 14.5167 53.5892H15.3764C15.3764 53.5892 15.5363 59.0172 18.8751 59.0272H11.008Z" fill="black"/>
<path d="M17.2655 48.841C15.3663 50.7403 15.3663 53.5892 15.3663 53.5892L14.5166 53.5992C14.5166 53.5992 14.5166 50.6903 12.6673 48.841" fill="black"/>
<path d="M16.8857 54.9387C14.9864 53.0394 12.1375 53.0394 12.1375 53.0394V52.1897C12.1375 52.1897 15.0464 52.1897 16.8957 50.3404" fill="black"/>
<path d="M13.0772 54.9487C14.9765 53.0494 17.8254 53.0494 17.8254 53.0494V52.1998C17.8254 52.1998 14.9165 52.1998 13.0672 50.3504" fill="black"/>
<path d="M158.513 196.533C158.513 194.724 157.004 193.254 155.134 193.254C153.265 193.254 151.756 194.724 151.756 196.533C151.756 198.342 153.265 199.812 155.134 199.812C157.004 199.812 158.513 198.342 158.513 196.533Z" fill="black"/>
<path d="M162.871 190.325C162.871 188.516 161.362 187.047 159.493 187.047C157.623 187.047 156.114 188.516 156.114 190.325C156.114 192.135 157.623 193.604 159.493 193.604C161.362 193.604 162.871 192.135 162.871 190.325Z" fill="black"/>
<path d="M154.215 190.305C154.215 189.646 154.015 189.026 153.665 188.506C153.065 187.616 152.016 187.027 150.836 187.027C148.967 187.027 147.457 188.496 147.457 190.305C147.457 192.115 148.967 193.584 150.836 193.584C152.705 193.584 154.215 192.115 154.215 190.305Z" fill="black"/>
<path d="M159.103 183.938C157.433 183.938 156.554 185.297 156.094 186.657C155.634 188.016 155.594 189.376 155.594 189.376H154.734C154.734 189.376 154.575 183.948 151.236 183.938H159.103Z" fill="black"/>
<path d="M152.845 194.124C154.745 192.225 154.745 189.376 154.745 189.376L155.594 189.366C155.594 189.366 155.594 192.275 157.444 194.124" fill="black"/>
<path d="M153.225 188.026C155.124 189.926 157.973 189.926 157.973 189.926V190.775C157.973 190.775 155.064 190.775 153.215 192.625" fill="black"/>
<path d="M157.034 188.016C155.134 189.916 152.285 189.916 152.285 189.916V190.765C152.285 190.765 155.194 190.765 157.044 192.615" fill="black"/>
<path d="M37.1074 26.5223C37.1074 30.8647 40.7301 34.3914 45.2164 34.3914C49.7027 34.3914 53.3254 30.8647 53.3254 26.5223C53.3254 22.1799 49.7027 18.6532 45.2164 18.6532C40.7301 18.6532 37.1074 22.1799 37.1074 26.5223Z" fill="black"/>
<path d="M26.6473 41.4207C26.6473 45.7631 30.2699 49.2898 34.7563 49.2898C39.2426 49.2898 42.8653 45.7631 42.8653 41.4207C42.8653 37.0783 39.2426 33.5516 34.7563 33.5516C30.2699 33.5516 26.6473 37.0783 26.6473 41.4207Z" fill="black"/>
<path d="M47.4238 41.4687C47.4238 43.0521 47.9036 44.5396 48.7433 45.7871C50.1827 47.9223 52.7018 49.3378 55.5327 49.3378C60.0191 49.3378 63.6417 45.8111 63.6417 41.4687C63.6417 37.1263 60.0191 33.5996 55.5327 33.5996C51.0464 33.5996 47.4238 37.1263 47.4238 41.4687Z" fill="black"/>
<path d="M35.692 56.751C39.6985 56.751 41.8097 53.4883 42.9133 50.2255C44.0169 46.9627 44.1129 43.6999 44.1129 43.6999H46.1761C46.1761 43.6999 46.5599 56.727 54.573 56.751H35.692Z" fill="black"/>
<path d="M50.7105 32.3041C46.1522 36.8624 46.1522 43.6999 46.1522 43.6999L44.113 43.7239C44.113 43.7239 44.113 36.7425 39.6746 32.3041" fill="black"/>
<path d="M49.7988 46.9387C45.2405 42.3804 38.403 42.3804 38.403 42.3804V40.3411C38.403 40.3411 45.3844 40.3411 49.8228 35.9028" fill="black"/>
<path d="M40.6582 46.9626C45.2165 42.4043 52.054 42.4043 52.054 42.4043V40.3651C52.054 40.3651 45.0726 40.3651 40.6342 35.9268" fill="black"/>
<path d="M37.1074 80.6584C37.1074 85.0008 40.7301 88.5275 45.2164 88.5275C49.7027 88.5275 53.3254 85.0008 53.3254 80.6584C53.3254 76.316 49.7027 72.7893 45.2164 72.7893C40.7301 72.7893 37.1074 76.316 37.1074 80.6584Z" fill="black"/>
<path d="M26.6473 95.5568C26.6473 99.8992 30.2699 103.426 34.7563 103.426C39.2426 103.426 42.8653 99.8992 42.8653 95.5568C42.8653 91.2144 39.2426 87.6878 34.7563 87.6878C30.2699 87.6878 26.6473 91.2144 26.6473 95.5568Z" fill="black"/>
<path d="M47.4238 95.6048C47.4238 97.1882 47.9036 98.6757 48.7433 99.9232C50.1827 102.058 52.7018 103.474 55.5327 103.474C60.0191 103.474 63.6417 99.9472 63.6417 95.6048C63.6417 91.2624 60.0191 87.7357 55.5327 87.7357C51.0464 87.7357 47.4238 91.2624 47.4238 95.6048Z" fill="black"/>
<path d="M35.692 110.887C39.6985 110.887 41.8097 107.624 42.9133 104.362C44.0169 101.099 44.1129 97.836 44.1129 97.836H46.1761C46.1761 97.836 46.5599 110.863 54.573 110.887H35.692Z" fill="black"/>
<path d="M50.7105 86.4402C46.1522 90.9985 46.1522 97.836 46.1522 97.836L44.113 97.86C44.113 97.86 44.113 90.8786 39.6746 86.4402" fill="black"/>
<path d="M49.7988 101.075C45.2405 96.5165 38.403 96.5165 38.403 96.5165V94.4772C38.403 94.4772 45.3844 94.4772 49.8228 90.0389" fill="black"/>
<path d="M40.6582 101.099C45.2165 96.5405 52.054 96.5405 52.054 96.5405V94.5013C52.054 94.5013 45.0726 94.5013 40.6342 90.0629" fill="black"/>
<path d="M53.1814 158.157C53.1814 153.815 49.5588 150.288 45.0724 150.288C40.5861 150.288 36.9634 153.815 36.9634 158.157C36.9634 162.5 40.5861 166.027 45.0724 166.027C49.5588 166.027 53.1814 162.5 53.1814 158.157Z" fill="black"/>
<path d="M63.6415 143.259C63.6415 138.917 60.0189 135.39 55.5325 135.39C51.0462 135.39 47.4236 138.917 47.4236 143.259C47.4236 147.601 51.0462 151.128 55.5325 151.128C60.0189 151.128 63.6415 147.601 63.6415 143.259Z" fill="black"/>
<path d="M42.8652 143.211C42.8652 141.628 42.3854 140.14 41.5457 138.893C40.1062 136.757 37.5871 135.342 34.7562 135.342C30.2699 135.342 26.6472 138.869 26.6472 143.211C26.6472 147.553 30.2699 151.08 34.7562 151.08C39.2425 151.08 42.8652 147.553 42.8652 143.211Z" fill="black"/>
<path d="M54.5969 127.929C50.5904 127.929 48.4791 131.191 47.3755 134.454C46.272 137.717 46.176 140.98 46.176 140.98H44.1128C44.1128 140.98 43.7289 127.953 35.7159 127.929H54.5969Z" fill="black"/>
<path d="M39.5784 152.376C44.1367 147.817 44.1367 140.98 44.1367 140.98L46.176 140.956C46.176 140.956 46.176 147.937 50.6143 152.376" fill="black"/>
<path d="M40.4901 137.741C45.0484 142.299 51.8858 142.299 51.8858 142.299V144.339C51.8858 144.339 44.9044 144.339 40.4661 148.777" fill="black"/>
<path d="M49.6307 137.717C45.0724 142.275 38.235 142.275 38.235 142.275V144.315C38.235 144.315 45.2164 144.315 49.6547 148.753" fill="black"/>
<path d="M53.1814 212.294C53.1814 207.951 49.5588 204.424 45.0724 204.424C40.5861 204.424 36.9634 207.951 36.9634 212.294C36.9634 216.636 40.5861 220.163 45.0724 220.163C49.5588 220.163 53.1814 216.636 53.1814 212.294Z" fill="black"/>
<path d="M63.6415 197.395C63.6415 193.053 60.0189 189.526 55.5325 189.526C51.0462 189.526 47.4236 193.053 47.4236 197.395C47.4236 201.738 51.0462 205.264 55.5325 205.264C60.0189 205.264 63.6415 201.738 63.6415 197.395Z" fill="black"/>
<path d="M42.8652 197.347C42.8652 195.764 42.3854 194.276 41.5457 193.029C40.1062 190.894 37.5871 189.478 34.7562 189.478C30.2699 189.478 26.6472 193.005 26.6472 197.347C26.6472 201.69 30.2699 205.216 34.7562 205.216C39.2425 205.216 42.8652 201.69 42.8652 197.347Z" fill="black"/>
<path d="M54.5969 182.065C50.5904 182.065 48.4791 185.328 47.3755 188.59C46.272 191.853 46.176 195.116 46.176 195.116H44.1128C44.1128 195.116 43.7289 182.089 35.7159 182.065H54.5969Z" fill="black"/>
<path d="M39.5784 206.512C44.1367 201.953 44.1367 195.116 44.1367 195.116L46.176 195.092C46.176 195.092 46.176 202.073 50.6143 206.512" fill="black"/>
<path d="M40.4901 191.877C45.0484 196.436 51.8858 196.436 51.8858 196.436V198.475C51.8858 198.475 44.9044 198.475 40.4661 202.913" fill="black"/>
<path d="M49.6307 191.853C45.0724 196.411 38.235 196.411 38.235 196.411V198.451C38.235 198.451 45.2164 198.451 49.6547 202.889" fill="black"/>
<path d="M116.935 26.5223C116.935 30.8647 120.558 34.3914 125.044 34.3914C129.531 34.3914 133.153 30.8647 133.153 26.5223C133.153 22.1799 129.531 18.6532 125.044 18.6532C120.558 18.6532 116.935 22.1799 116.935 26.5223Z" fill="black"/>
<path d="M106.475 41.4207C106.475 45.7631 110.098 49.2898 114.584 49.2898C119.07 49.2898 122.693 45.7631 122.693 41.4207C122.693 37.0783 119.07 33.5516 114.584 33.5516C110.098 33.5516 106.475 37.0783 106.475 41.4207Z" fill="black"/>
<path d="M127.252 41.4687C127.252 43.0521 127.731 44.5396 128.571 45.7871C130.01 47.9223 132.53 49.3378 135.36 49.3378C139.847 49.3378 143.469 45.8111 143.469 41.4687C143.469 37.1263 139.847 33.5996 135.36 33.5996C130.874 33.5996 127.252 37.1263 127.252 41.4687Z" fill="black"/>
<path d="M115.52 56.751C119.526 56.751 121.638 53.4883 122.741 50.2255C123.845 46.9627 123.941 43.6999 123.941 43.6999H126.004C126.004 43.6999 126.388 56.727 134.401 56.751H115.52Z" fill="black"/>
<path d="M130.538 32.3041C125.98 36.8624 125.98 43.6999 125.98 43.6999L123.941 43.7239C123.941 43.7239 123.941 36.7425 119.502 32.3041" fill="black"/>
<path d="M129.627 46.9387C125.068 42.3804 118.231 42.3804 118.231 42.3804V40.3411C118.231 40.3411 125.212 40.3411 129.651 35.9028" fill="black"/>
<path d="M120.486 46.9626C125.044 42.4043 131.882 42.4043 131.882 42.4043V40.3651C131.882 40.3651 124.9 40.3651 120.462 35.9268" fill="black"/>
<path d="M116.935 80.6584C116.935 85.0008 120.558 88.5275 125.044 88.5275C129.531 88.5275 133.153 85.0008 133.153 80.6584C133.153 76.316 129.531 72.7893 125.044 72.7893C120.558 72.7893 116.935 76.316 116.935 80.6584Z" fill="black"/>
<path d="M106.475 95.5568C106.475 99.8992 110.098 103.426 114.584 103.426C119.07 103.426 122.693 99.8992 122.693 95.5568C122.693 91.2144 119.07 87.6878 114.584 87.6878C110.098 87.6878 106.475 91.2144 106.475 95.5568Z" fill="black"/>
<path d="M127.252 95.6048C127.252 97.1882 127.731 98.6757 128.571 99.9232C130.01 102.058 132.53 103.474 135.36 103.474C139.847 103.474 143.469 99.9472 143.469 95.6048C143.469 91.2624 139.847 87.7357 135.36 87.7357C130.874 87.7357 127.252 91.2624 127.252 95.6048Z" fill="black"/>
<path d="M115.52 110.887C119.526 110.887 121.638 107.624 122.741 104.362C123.845 101.099 123.941 97.836 123.941 97.836H126.004C126.004 97.836 126.388 110.863 134.401 110.887H115.52Z" fill="black"/>
<path d="M130.538 86.4402C125.98 90.9985 125.98 97.836 125.98 97.836L123.941 97.86C123.941 97.86 123.941 90.8786 119.502 86.4402" fill="black"/>
<path d="M129.627 101.075C125.068 96.5165 118.231 96.5165 118.231 96.5165V94.4772C118.231 94.4772 125.212 94.4772 129.651 90.0389" fill="black"/>
<path d="M120.486 101.099C125.044 96.5405 131.882 96.5405 131.882 96.5405V94.5013C131.882 94.5013 124.9 94.5013 120.462 90.0629" fill="black"/>
<path d="M133.01 158.157C133.01 153.815 129.387 150.288 124.901 150.288C120.414 150.288 116.792 153.815 116.792 158.157C116.792 162.5 120.414 166.027 124.901 166.027C129.387 166.027 133.01 162.5 133.01 158.157Z" fill="black"/>
<path d="M143.47 143.259C143.47 138.917 139.847 135.39 135.361 135.39C130.874 135.39 127.252 138.917 127.252 143.259C127.252 147.601 130.874 151.128 135.361 151.128C139.847 151.128 143.47 147.601 143.47 143.259Z" fill="black"/>
<path d="M122.693 143.211C122.693 141.628 122.213 140.14 121.374 138.893C119.934 136.757 117.415 135.342 114.584 135.342C110.098 135.342 106.475 138.869 106.475 143.211C106.475 147.553 110.098 151.08 114.584 151.08C119.071 151.08 122.693 147.553 122.693 143.211Z" fill="black"/>
<path d="M134.425 127.929C130.418 127.929 128.307 131.191 127.204 134.454C126.1 137.717 126.004 140.98 126.004 140.98H123.941C123.941 140.98 123.557 127.953 115.544 127.929H134.425Z" fill="black"/>
<path d="M119.406 152.376C123.965 147.817 123.965 140.98 123.965 140.98L126.004 140.956C126.004 140.956 126.004 147.937 130.442 152.376" fill="black"/>
<path d="M120.318 137.741C124.876 142.299 131.714 142.299 131.714 142.299V144.339C131.714 144.339 124.733 144.339 120.294 148.777" fill="black"/>
<path d="M129.459 137.717C124.9 142.275 118.063 142.275 118.063 142.275V144.315C118.063 144.315 125.044 144.315 129.483 148.753" fill="black"/>
<path d="M133.01 212.294C133.01 207.951 129.387 204.424 124.901 204.424C120.414 204.424 116.792 207.951 116.792 212.294C116.792 216.636 120.414 220.163 124.901 220.163C129.387 220.163 133.01 216.636 133.01 212.294Z" fill="black"/>
<path d="M143.47 197.395C143.47 193.053 139.847 189.526 135.361 189.526C130.874 189.526 127.252 193.053 127.252 197.395C127.252 201.738 130.874 205.264 135.361 205.264C139.847 205.264 143.47 201.738 143.47 197.395Z" fill="black"/>
<path d="M122.693 197.347C122.693 195.764 122.213 194.276 121.374 193.029C119.934 190.894 117.415 189.478 114.584 189.478C110.098 189.478 106.475 193.005 106.475 197.347C106.475 201.69 110.098 205.216 114.584 205.216C119.071 205.216 122.693 201.69 122.693 197.347Z" fill="black"/>
<path d="M134.425 182.065C130.418 182.065 128.307 185.328 127.204 188.59C126.1 191.853 126.004 195.116 126.004 195.116H123.941C123.941 195.116 123.557 182.089 115.544 182.065H134.425Z" fill="black"/>
<path d="M119.406 206.512C123.965 201.953 123.965 195.116 123.965 195.116L126.004 195.092C126.004 195.092 126.004 202.073 130.442 206.512" fill="black"/>
<path d="M120.318 191.877C124.876 196.436 131.714 196.436 131.714 196.436V198.475C131.714 198.475 124.733 198.475 120.294 202.913" fill="black"/>
<path d="M129.459 191.853C124.9 196.411 118.063 196.411 118.063 196.411V198.451C118.063 198.451 125.044 198.451 129.483 202.889" fill="black"/>
<path d="M77.0213 53.5905C77.0213 57.9328 80.644 61.4595 85.1303 61.4595C89.6167 61.4595 93.2393 57.9328 93.2393 53.5905C93.2393 49.2481 89.6167 45.7214 85.1303 45.7214C80.644 45.7214 77.0213 49.2481 77.0213 53.5905Z" fill="black"/>
<path d="M66.5614 68.4889C66.5614 72.8313 70.184 76.358 74.6703 76.358C79.1567 76.358 82.7793 72.8313 82.7793 68.4889C82.7793 64.1465 79.1567 60.6198 74.6703 60.6198C70.184 60.6198 66.5614 64.1465 66.5614 68.4889Z" fill="black"/>
<path d="M87.3377 68.5369C87.3377 70.1203 87.8175 71.6077 88.6572 72.8553C90.0967 74.9905 92.6157 76.4059 95.4467 76.4059C99.933 76.4059 103.556 72.8793 103.556 68.5369C103.556 64.1945 99.933 60.6678 95.4467 60.6678C90.9603 60.6678 87.3377 64.1945 87.3377 68.5369Z" fill="black"/>
<path d="M75.6059 83.8192C79.6124 83.8192 81.7236 80.5564 82.8272 77.2936C83.9308 74.0309 84.0268 70.7681 84.0268 70.7681H86.09C86.09 70.7681 86.4739 83.7952 94.4869 83.8192H75.6059Z" fill="black"/>
<path d="M90.6245 59.3723C86.0661 63.9306 86.0661 70.7681 86.0661 70.7681L84.0269 70.7921C84.0269 70.7921 84.0269 63.8106 79.5886 59.3723" fill="black"/>
<path d="M89.7127 74.0068C85.1544 69.4485 78.3169 69.4485 78.3169 69.4485V67.4093C78.3169 67.4093 85.2983 67.4093 89.7367 62.9709" fill="black"/>
<path d="M80.5722 74.0308C85.1305 69.4725 91.9679 69.4725 91.9679 69.4725V67.4333C91.9679 67.4333 84.9865 67.4333 80.5482 62.9949" fill="black"/>
</svg>
