<svg width="168" height="261" viewBox="0 0 168 261" fill="none" xmlns="http://www.w3.org/2000/svg">
<path d="M0.199951 245.233C0.199951 249.011 3.2888 252.1 7.0674 252.1H159.856C163.624 252.1 166.713 249.011 166.713 245.233V16.9175C166.713 13.1389 163.624 10.05 159.856 10.05H7.0674C3.2888 10.05 0.199951 13.1389 0.199951 16.9175V245.233Z" fill="white" stroke="black" stroke-width="2.49907"/>
<path d="M10.4608 32.7368H4.98865L13.3266 8.58394H19.9073L28.2335 32.7368H22.7613L16.7113 14.1033H16.5226L10.4608 32.7368ZM10.1188 23.2431H23.0444V27.2293H10.1188V23.2431Z" fill="#E6180A"/>
<path d="M157.452 228.415H162.924L154.586 252.568H148.005L139.679 228.415H145.151L151.201 247.049H151.39L157.452 228.415ZM157.794 237.909H144.868V233.923H157.794V237.909Z" fill="#E6180A"/>
<path d="M21.512 56.2548C21.502 60.9631 15.6042 64.3918 13.8748 68.1204C12.1255 64.4018 6.21765 61.0031 6.17767 56.2948C6.16767 54.0756 7.88703 52.2663 9.99625 52.2663C12.1155 52.2663 13.8448 54.0557 13.8448 56.2748C13.8448 54.0457 15.5542 52.2463 17.6634 52.2463C19.7826 52.2363 21.502 54.0357 21.512 56.2548Z" fill="#E6180A"/>
<path d="M146.401 204.898C146.411 200.189 152.308 196.761 154.038 193.032C155.787 196.751 161.695 200.149 161.735 204.858C161.745 207.077 160.026 208.886 157.916 208.886C155.797 208.886 154.068 207.097 154.068 204.878C154.068 207.107 152.358 208.906 150.249 208.906C148.13 208.916 146.411 207.117 146.401 204.898Z" fill="#E6180A"/>
<path d="M102.358 114.281C102.334 125.58 88.1788 133.809 84.0284 142.758C79.8299 133.833 65.6512 125.676 65.5552 114.377C65.5312 109.051 69.6577 104.708 74.7198 104.708C79.8059 104.708 83.9564 109.003 83.9564 114.329C83.9564 108.979 88.0589 104.66 93.121 104.66C98.2071 104.636 102.334 108.955 102.358 114.281Z" fill="#E6180A"/>
</svg>
